G75*
%MOIN*%
%OFA0B0*%
%FSLAX25Y25*%
%IPPOS*%
%LPD*%
%AMOC8*
5,1,8,0,0,1.08239X$1,22.5*
%
%ADD10C,0.00500*%
%ADD11C,0.00300*%
%ADD12C,0.00800*%
%ADD13C,0.00400*%
%ADD14C,0.00796*%
%ADD15R,0.05000X0.05000*%
%ADD16C,0.02400*%
%ADD17C,0.00600*%
%ADD18R,0.02400X0.03400*%
%ADD19R,0.04000X0.01500*%
D10*
X0103347Y0013682D02*
X0117127Y0013682D01*
X0117127Y0049115D01*
X0103347Y0049115D01*
X0103347Y0013682D01*
X0107284Y0023524D02*
X0113190Y0023524D01*
X0113190Y0038288D01*
X0107284Y0038288D01*
X0107284Y0023524D01*
X0107284Y0032382D02*
X0107284Y0038288D01*
X0113190Y0038288D01*
X0113190Y0032382D01*
X0214546Y0015253D02*
X0216047Y0013752D01*
X0215297Y0012151D02*
X0218299Y0012151D01*
X0219050Y0011400D01*
X0219050Y0009899D01*
X0218299Y0009148D01*
X0215297Y0009148D01*
X0214546Y0009899D01*
X0214546Y0011400D01*
X0215297Y0012151D01*
X0217549Y0010650D02*
X0219050Y0012151D01*
X0219050Y0013752D02*
X0219050Y0016755D01*
X0219050Y0015253D02*
X0214546Y0015253D01*
X0226800Y0020910D02*
X0226800Y0025871D01*
X0226800Y0026926D01*
X0226800Y0035871D01*
X0226800Y0036926D01*
X0226800Y0041886D01*
X0232800Y0039646D02*
X0232800Y0023150D01*
X0235546Y0017255D02*
X0235546Y0014252D01*
X0237798Y0014252D01*
X0237047Y0015753D01*
X0237047Y0016504D01*
X0237798Y0017255D01*
X0239299Y0017255D01*
X0240050Y0016504D01*
X0240050Y0015003D01*
X0239299Y0014252D01*
X0240050Y0012651D02*
X0238549Y0011150D01*
X0238549Y0011900D02*
X0238549Y0009648D01*
X0240050Y0009648D02*
X0235546Y0009648D01*
X0235546Y0011900D01*
X0236297Y0012651D01*
X0237798Y0012651D01*
X0238549Y0011900D01*
X0252546Y0011692D02*
X0252546Y0009440D01*
X0257050Y0009440D01*
X0255549Y0009440D02*
X0255549Y0011692D01*
X0254798Y0012443D01*
X0253297Y0012443D01*
X0252546Y0011692D01*
X0255549Y0010942D02*
X0257050Y0012443D01*
X0254798Y0014044D02*
X0254798Y0017047D01*
X0252546Y0016296D02*
X0254798Y0014044D01*
X0257050Y0016296D02*
X0252546Y0016296D01*
X0267546Y0016296D02*
X0267546Y0014795D01*
X0268297Y0014044D01*
X0268297Y0012443D02*
X0269798Y0012443D01*
X0270549Y0011692D01*
X0270549Y0009440D01*
X0272050Y0009440D02*
X0267546Y0009440D01*
X0267546Y0011692D01*
X0268297Y0012443D01*
X0270549Y0010942D02*
X0272050Y0012443D01*
X0271299Y0014044D02*
X0272050Y0014795D01*
X0272050Y0016296D01*
X0271299Y0017047D01*
X0270549Y0017047D01*
X0269798Y0016296D01*
X0269798Y0015546D01*
X0269798Y0016296D02*
X0269047Y0017047D01*
X0268297Y0017047D01*
X0267546Y0016296D01*
X0282546Y0016296D02*
X0282546Y0014795D01*
X0283297Y0014044D01*
X0283297Y0012443D02*
X0284798Y0012443D01*
X0285549Y0011692D01*
X0285549Y0009440D01*
X0287050Y0009440D02*
X0282546Y0009440D01*
X0282546Y0011692D01*
X0283297Y0012443D01*
X0285549Y0010942D02*
X0287050Y0012443D01*
X0287050Y0014044D02*
X0284047Y0017047D01*
X0283297Y0017047D01*
X0282546Y0016296D01*
X0287050Y0017047D02*
X0287050Y0014044D01*
X0297546Y0015546D02*
X0302050Y0015546D01*
X0302050Y0017047D02*
X0302050Y0014044D01*
X0302050Y0012443D02*
X0300549Y0010942D01*
X0300549Y0011692D02*
X0300549Y0009440D01*
X0302050Y0009440D02*
X0297546Y0009440D01*
X0297546Y0011692D01*
X0298297Y0012443D01*
X0299798Y0012443D01*
X0300549Y0011692D01*
X0299047Y0014044D02*
X0297546Y0015546D01*
X0322445Y0015225D02*
X0322445Y0019296D01*
X0323462Y0019296D01*
X0327532Y0015225D01*
X0328550Y0015225D01*
X0328550Y0013218D02*
X0328550Y0009148D01*
X0324480Y0013218D01*
X0323462Y0013218D01*
X0322445Y0012201D01*
X0322445Y0010166D01*
X0323462Y0009148D01*
X0325497Y0021303D02*
X0327532Y0021303D01*
X0328550Y0022320D01*
X0328550Y0025373D01*
X0328550Y0027380D02*
X0328550Y0031450D01*
X0328550Y0029415D02*
X0322445Y0029415D01*
X0324480Y0027380D01*
X0324480Y0025373D02*
X0324480Y0022320D01*
X0325497Y0021303D01*
X0325497Y0033457D02*
X0325497Y0036510D01*
X0326515Y0037527D01*
X0327532Y0037527D01*
X0328550Y0036510D01*
X0328550Y0034475D01*
X0327532Y0033457D01*
X0325497Y0033457D01*
X0323462Y0035492D01*
X0322445Y0037527D01*
X0323462Y0039534D02*
X0322445Y0040552D01*
X0322445Y0042587D01*
X0323462Y0043604D01*
X0327532Y0039534D01*
X0328550Y0040552D01*
X0328550Y0042587D01*
X0327532Y0043604D01*
X0323462Y0043604D01*
X0328550Y0045611D02*
X0322445Y0049682D01*
X0323462Y0051689D02*
X0322445Y0052706D01*
X0322445Y0054741D01*
X0323462Y0055759D01*
X0324480Y0055759D01*
X0325497Y0054741D01*
X0326515Y0055759D01*
X0327532Y0055759D01*
X0328550Y0054741D01*
X0328550Y0052706D01*
X0327532Y0051689D01*
X0325497Y0053724D02*
X0325497Y0054741D01*
X0323462Y0057766D02*
X0322445Y0058783D01*
X0322445Y0060818D01*
X0323462Y0061836D01*
X0324480Y0061836D01*
X0328550Y0057766D01*
X0328550Y0061836D01*
X0328550Y0063843D02*
X0324480Y0067913D01*
X0323462Y0067913D01*
X0322445Y0066896D01*
X0322445Y0064860D01*
X0323462Y0063843D01*
X0328550Y0063843D02*
X0328550Y0067913D01*
X0328550Y0069920D02*
X0322445Y0073990D01*
X0325497Y0075997D02*
X0325497Y0080067D01*
X0323462Y0082075D02*
X0322445Y0083092D01*
X0322445Y0085127D01*
X0323462Y0086145D01*
X0327532Y0082075D01*
X0328550Y0083092D01*
X0328550Y0085127D01*
X0327532Y0086145D01*
X0323462Y0086145D01*
X0323462Y0088152D02*
X0322445Y0089169D01*
X0322445Y0091204D01*
X0323462Y0092222D01*
X0327532Y0088152D01*
X0328550Y0089169D01*
X0328550Y0091204D01*
X0327532Y0092222D01*
X0323462Y0092222D01*
X0323462Y0088152D02*
X0327532Y0088152D01*
X0328550Y0094229D02*
X0322445Y0098299D01*
X0323462Y0100306D02*
X0324480Y0100306D01*
X0325497Y0101324D01*
X0325497Y0103359D01*
X0326515Y0104376D01*
X0327532Y0104376D01*
X0328550Y0103359D01*
X0328550Y0101324D01*
X0327532Y0100306D01*
X0326515Y0100306D01*
X0325497Y0101324D01*
X0325497Y0103359D02*
X0324480Y0104376D01*
X0323462Y0104376D01*
X0322445Y0103359D01*
X0322445Y0101324D01*
X0323462Y0100306D01*
X0323462Y0106383D02*
X0322445Y0107401D01*
X0322445Y0109436D01*
X0323462Y0110453D01*
X0327532Y0106383D01*
X0328550Y0107401D01*
X0328550Y0109436D01*
X0327532Y0110453D01*
X0323462Y0110453D01*
X0323462Y0112460D02*
X0322445Y0113478D01*
X0322445Y0115513D01*
X0323462Y0116531D01*
X0327532Y0112460D01*
X0328550Y0113478D01*
X0328550Y0115513D01*
X0327532Y0116531D01*
X0323462Y0116531D01*
X0323462Y0112460D02*
X0327532Y0112460D01*
X0327532Y0106383D02*
X0323462Y0106383D01*
X0324480Y0124615D02*
X0322445Y0126650D01*
X0324480Y0128685D01*
X0328550Y0128685D01*
X0327532Y0130692D02*
X0325497Y0130692D01*
X0324480Y0131710D01*
X0324480Y0134762D01*
X0322445Y0134762D02*
X0328550Y0134762D01*
X0328550Y0131710D01*
X0327532Y0130692D01*
X0325497Y0128685D02*
X0325497Y0124615D01*
X0324480Y0124615D02*
X0328550Y0124615D01*
X0327532Y0136769D02*
X0326515Y0137787D01*
X0326515Y0140839D01*
X0325497Y0140839D02*
X0328550Y0140839D01*
X0328550Y0137787D01*
X0327532Y0136769D01*
X0324480Y0137787D02*
X0324480Y0139822D01*
X0325497Y0140839D01*
X0324480Y0142846D02*
X0324480Y0145899D01*
X0325497Y0146917D01*
X0327532Y0146917D01*
X0328550Y0145899D01*
X0328550Y0142846D01*
X0330585Y0142846D02*
X0324480Y0142846D01*
X0324480Y0148924D02*
X0324480Y0150959D01*
X0323462Y0149941D02*
X0327532Y0149941D01*
X0328550Y0150959D01*
X0327532Y0152975D02*
X0325497Y0152975D01*
X0324480Y0153993D01*
X0324480Y0156028D01*
X0325497Y0157045D01*
X0326515Y0157045D01*
X0326515Y0152975D01*
X0327532Y0152975D02*
X0328550Y0153993D01*
X0328550Y0156028D01*
X0328550Y0159052D02*
X0324480Y0159052D01*
X0326515Y0159052D02*
X0324480Y0161087D01*
X0324480Y0162105D01*
X0323462Y0082075D02*
X0327532Y0082075D01*
X0328550Y0079050D02*
X0322445Y0079050D01*
X0325497Y0075997D01*
X0327532Y0039534D02*
X0323462Y0039534D01*
X0221828Y0040898D02*
X0221598Y0040786D01*
X0221371Y0040669D01*
X0221147Y0040547D01*
X0220926Y0040419D01*
X0220709Y0040285D01*
X0220494Y0040147D01*
X0220283Y0040003D01*
X0220076Y0039854D01*
X0219872Y0039700D01*
X0219672Y0039542D01*
X0219476Y0039378D01*
X0219284Y0039210D01*
X0219096Y0039037D01*
X0218912Y0038859D01*
X0218733Y0038678D01*
X0218558Y0038491D01*
X0218388Y0038301D01*
X0218223Y0038107D01*
X0218062Y0037908D01*
X0217906Y0037706D01*
X0217755Y0037500D01*
X0217609Y0037290D01*
X0217469Y0037077D01*
X0217333Y0036861D01*
X0217203Y0036641D01*
X0217078Y0036418D01*
X0216959Y0036193D01*
X0216845Y0035964D01*
X0216737Y0035733D01*
X0216634Y0035499D01*
X0216537Y0035263D01*
X0216446Y0035024D01*
X0216361Y0034784D01*
X0216281Y0034541D01*
X0216208Y0034296D01*
X0216140Y0034050D01*
X0216079Y0033802D01*
X0216024Y0033553D01*
X0215974Y0033303D01*
X0215931Y0033051D01*
X0215894Y0032798D01*
X0215863Y0032545D01*
X0215838Y0032291D01*
X0215819Y0032036D01*
X0215807Y0031781D01*
X0215801Y0031526D01*
X0215801Y0031270D01*
X0215807Y0031015D01*
X0215819Y0030760D01*
X0215838Y0030505D01*
X0215863Y0030251D01*
X0215894Y0029998D01*
X0215931Y0029745D01*
X0215974Y0029493D01*
X0216024Y0029243D01*
X0216079Y0028994D01*
X0216140Y0028746D01*
X0216208Y0028500D01*
X0216281Y0028255D01*
X0216361Y0028012D01*
X0216446Y0027772D01*
X0216537Y0027533D01*
X0216634Y0027297D01*
X0216737Y0027063D01*
X0216845Y0026832D01*
X0216959Y0026603D01*
X0217078Y0026378D01*
X0217203Y0026155D01*
X0217333Y0025935D01*
X0217469Y0025719D01*
X0217609Y0025506D01*
X0217755Y0025296D01*
X0217906Y0025090D01*
X0218062Y0024888D01*
X0218223Y0024689D01*
X0218388Y0024495D01*
X0218558Y0024305D01*
X0218733Y0024118D01*
X0218912Y0023937D01*
X0219096Y0023759D01*
X0219284Y0023586D01*
X0219476Y0023418D01*
X0219672Y0023254D01*
X0219872Y0023096D01*
X0220076Y0022942D01*
X0220283Y0022793D01*
X0220494Y0022649D01*
X0220709Y0022511D01*
X0220926Y0022377D01*
X0221147Y0022249D01*
X0221371Y0022127D01*
X0221598Y0022010D01*
X0221828Y0021898D01*
X0230772Y0021896D02*
X0230987Y0022000D01*
X0231200Y0022109D01*
X0231410Y0022223D01*
X0231617Y0022342D01*
X0231822Y0022465D01*
X0232024Y0022593D01*
X0232223Y0022726D01*
X0232418Y0022863D01*
X0232611Y0023004D01*
X0232800Y0023150D01*
X0230772Y0021898D02*
X0230539Y0021792D01*
X0230302Y0021691D01*
X0230064Y0021596D01*
X0229823Y0021507D01*
X0229581Y0021424D01*
X0229336Y0021346D01*
X0229089Y0021275D01*
X0228841Y0021210D01*
X0228591Y0021151D01*
X0228340Y0021098D01*
X0228088Y0021051D01*
X0227834Y0021011D01*
X0227580Y0020976D01*
X0227325Y0020948D01*
X0227069Y0020926D01*
X0226813Y0020911D01*
X0226557Y0020901D01*
X0226300Y0020898D01*
X0226043Y0020901D01*
X0225787Y0020911D01*
X0225531Y0020926D01*
X0225275Y0020948D01*
X0225020Y0020976D01*
X0224766Y0021011D01*
X0224512Y0021051D01*
X0224260Y0021098D01*
X0224009Y0021151D01*
X0223759Y0021210D01*
X0223511Y0021275D01*
X0223264Y0021346D01*
X0223019Y0021424D01*
X0222777Y0021507D01*
X0222536Y0021596D01*
X0222298Y0021691D01*
X0222061Y0021792D01*
X0221828Y0021898D01*
X0221828Y0040898D02*
X0222061Y0041004D01*
X0222298Y0041105D01*
X0222536Y0041200D01*
X0222777Y0041289D01*
X0223019Y0041372D01*
X0223264Y0041450D01*
X0223511Y0041521D01*
X0223759Y0041586D01*
X0224009Y0041645D01*
X0224260Y0041698D01*
X0224512Y0041745D01*
X0224766Y0041785D01*
X0225020Y0041820D01*
X0225275Y0041848D01*
X0225531Y0041870D01*
X0225787Y0041885D01*
X0226043Y0041895D01*
X0226300Y0041898D01*
X0226557Y0041895D01*
X0226813Y0041885D01*
X0227069Y0041870D01*
X0227325Y0041848D01*
X0227580Y0041820D01*
X0227834Y0041785D01*
X0228088Y0041745D01*
X0228340Y0041698D01*
X0228591Y0041645D01*
X0228841Y0041586D01*
X0229089Y0041521D01*
X0229336Y0041450D01*
X0229581Y0041372D01*
X0229823Y0041289D01*
X0230064Y0041200D01*
X0230302Y0041105D01*
X0230539Y0041004D01*
X0230772Y0040898D01*
X0230678Y0040944D02*
X0230903Y0040837D01*
X0231126Y0040725D01*
X0231346Y0040608D01*
X0231563Y0040486D01*
X0231778Y0040358D01*
X0231989Y0040225D01*
X0232197Y0040088D01*
X0232401Y0039945D01*
X0232603Y0039798D01*
X0232800Y0039646D01*
D11*
X0198919Y0008134D02*
X0198302Y0008751D01*
X0197067Y0008751D01*
X0196450Y0008134D01*
X0196450Y0005665D01*
X0198919Y0008134D01*
X0198919Y0005665D01*
X0198302Y0005048D01*
X0197067Y0005048D01*
X0196450Y0005665D01*
X0195236Y0005048D02*
X0192767Y0005048D01*
X0195236Y0007517D01*
X0195236Y0008134D01*
X0194618Y0008751D01*
X0193384Y0008751D01*
X0192767Y0008134D01*
X0188919Y0008134D02*
X0188919Y0005665D01*
X0188302Y0005048D01*
X0187067Y0005048D01*
X0186450Y0005665D01*
X0185236Y0005048D02*
X0182767Y0005048D01*
X0184001Y0005048D02*
X0184001Y0008751D01*
X0182767Y0007517D01*
X0186450Y0007517D02*
X0187067Y0006900D01*
X0188919Y0006900D01*
X0188919Y0008134D02*
X0188302Y0008751D01*
X0187067Y0008751D01*
X0186450Y0008134D01*
X0186450Y0007517D01*
X0178919Y0007517D02*
X0178302Y0006900D01*
X0177067Y0006900D01*
X0176450Y0007517D01*
X0176450Y0008134D01*
X0177067Y0008751D01*
X0178302Y0008751D01*
X0178919Y0008134D01*
X0178919Y0007517D01*
X0178302Y0006900D02*
X0178919Y0006283D01*
X0178919Y0005665D01*
X0178302Y0005048D01*
X0177067Y0005048D01*
X0176450Y0005665D01*
X0176450Y0006283D01*
X0177067Y0006900D01*
X0175236Y0005048D02*
X0172767Y0005048D01*
X0174001Y0005048D02*
X0174001Y0008751D01*
X0172767Y0007517D01*
X0318681Y0139048D02*
X0321150Y0139048D01*
X0319916Y0139048D02*
X0318681Y0140283D01*
X0318681Y0140900D01*
X0319298Y0142118D02*
X0318681Y0142735D01*
X0318681Y0143969D01*
X0319298Y0144586D01*
X0319916Y0144586D01*
X0319916Y0142118D01*
X0320533Y0142118D02*
X0319298Y0142118D01*
X0320533Y0142118D02*
X0321150Y0142735D01*
X0321150Y0143969D01*
X0321150Y0147035D02*
X0318681Y0145801D01*
X0318681Y0148269D02*
X0321150Y0147035D01*
X0321150Y0153167D02*
X0321150Y0155636D01*
X0321150Y0156850D02*
X0321150Y0157467D01*
X0320533Y0157467D01*
X0320533Y0156850D01*
X0321150Y0156850D01*
X0320533Y0158692D02*
X0318064Y0161160D01*
X0320533Y0161160D01*
X0321150Y0160543D01*
X0321150Y0159309D01*
X0320533Y0158692D01*
X0318064Y0158692D01*
X0317447Y0159309D01*
X0317447Y0160543D01*
X0318064Y0161160D01*
X0317447Y0154401D02*
X0321150Y0154401D01*
X0318681Y0153167D02*
X0317447Y0154401D01*
D12*
X0313662Y0161989D02*
X0313662Y0080808D01*
X0313660Y0080684D01*
X0313654Y0080561D01*
X0313645Y0080437D01*
X0313631Y0080315D01*
X0313614Y0080192D01*
X0313592Y0080070D01*
X0313567Y0079949D01*
X0313538Y0079829D01*
X0313506Y0079710D01*
X0313469Y0079591D01*
X0313429Y0079474D01*
X0313386Y0079359D01*
X0313338Y0079244D01*
X0313287Y0079132D01*
X0313233Y0079021D01*
X0313175Y0078911D01*
X0313114Y0078804D01*
X0313049Y0078698D01*
X0312981Y0078595D01*
X0312910Y0078494D01*
X0312836Y0078395D01*
X0312759Y0078298D01*
X0312678Y0078204D01*
X0312595Y0078113D01*
X0312509Y0078024D01*
X0312420Y0077938D01*
X0312329Y0077855D01*
X0312235Y0077774D01*
X0312138Y0077697D01*
X0312039Y0077623D01*
X0311938Y0077552D01*
X0311835Y0077484D01*
X0311729Y0077419D01*
X0311622Y0077358D01*
X0311512Y0077300D01*
X0311401Y0077246D01*
X0311289Y0077195D01*
X0311174Y0077147D01*
X0311059Y0077104D01*
X0310942Y0077064D01*
X0310823Y0077027D01*
X0310704Y0076995D01*
X0310584Y0076966D01*
X0310463Y0076941D01*
X0310341Y0076919D01*
X0310218Y0076902D01*
X0310096Y0076888D01*
X0309972Y0076879D01*
X0309849Y0076873D01*
X0309725Y0076871D01*
X0019961Y0076871D01*
X0019837Y0076873D01*
X0019714Y0076879D01*
X0019590Y0076888D01*
X0019468Y0076902D01*
X0019345Y0076919D01*
X0019223Y0076941D01*
X0019102Y0076966D01*
X0018982Y0076995D01*
X0018863Y0077027D01*
X0018744Y0077064D01*
X0018627Y0077104D01*
X0018512Y0077147D01*
X0018397Y0077195D01*
X0018285Y0077246D01*
X0018174Y0077300D01*
X0018064Y0077358D01*
X0017957Y0077419D01*
X0017851Y0077484D01*
X0017748Y0077552D01*
X0017647Y0077623D01*
X0017548Y0077697D01*
X0017451Y0077774D01*
X0017357Y0077855D01*
X0017266Y0077938D01*
X0017177Y0078024D01*
X0017091Y0078113D01*
X0017008Y0078204D01*
X0016927Y0078298D01*
X0016850Y0078395D01*
X0016776Y0078494D01*
X0016705Y0078595D01*
X0016637Y0078698D01*
X0016572Y0078804D01*
X0016511Y0078911D01*
X0016453Y0079021D01*
X0016399Y0079132D01*
X0016348Y0079244D01*
X0016300Y0079359D01*
X0016257Y0079474D01*
X0016217Y0079591D01*
X0016180Y0079710D01*
X0016148Y0079829D01*
X0016119Y0079949D01*
X0016094Y0080070D01*
X0016072Y0080192D01*
X0016055Y0080315D01*
X0016041Y0080437D01*
X0016032Y0080561D01*
X0016026Y0080684D01*
X0016024Y0080808D01*
X0016024Y0161989D01*
X0016026Y0162113D01*
X0016032Y0162236D01*
X0016041Y0162360D01*
X0016055Y0162482D01*
X0016072Y0162605D01*
X0016094Y0162727D01*
X0016119Y0162848D01*
X0016148Y0162968D01*
X0016180Y0163087D01*
X0016217Y0163206D01*
X0016257Y0163323D01*
X0016300Y0163438D01*
X0016348Y0163553D01*
X0016399Y0163665D01*
X0016453Y0163776D01*
X0016511Y0163886D01*
X0016572Y0163993D01*
X0016637Y0164099D01*
X0016705Y0164202D01*
X0016776Y0164303D01*
X0016850Y0164402D01*
X0016927Y0164499D01*
X0017008Y0164593D01*
X0017091Y0164684D01*
X0017177Y0164773D01*
X0017266Y0164859D01*
X0017357Y0164942D01*
X0017451Y0165023D01*
X0017548Y0165100D01*
X0017647Y0165174D01*
X0017748Y0165245D01*
X0017851Y0165313D01*
X0017957Y0165378D01*
X0018064Y0165439D01*
X0018174Y0165497D01*
X0018285Y0165551D01*
X0018397Y0165602D01*
X0018512Y0165650D01*
X0018627Y0165693D01*
X0018744Y0165733D01*
X0018863Y0165770D01*
X0018982Y0165802D01*
X0019102Y0165831D01*
X0019223Y0165856D01*
X0019345Y0165878D01*
X0019468Y0165895D01*
X0019590Y0165909D01*
X0019714Y0165918D01*
X0019837Y0165924D01*
X0019961Y0165926D01*
X0309725Y0165926D01*
X0309849Y0165924D01*
X0309972Y0165918D01*
X0310096Y0165909D01*
X0310218Y0165895D01*
X0310341Y0165878D01*
X0310463Y0165856D01*
X0310584Y0165831D01*
X0310704Y0165802D01*
X0310823Y0165770D01*
X0310942Y0165733D01*
X0311059Y0165693D01*
X0311174Y0165650D01*
X0311289Y0165602D01*
X0311401Y0165551D01*
X0311512Y0165497D01*
X0311622Y0165439D01*
X0311729Y0165378D01*
X0311835Y0165313D01*
X0311938Y0165245D01*
X0312039Y0165174D01*
X0312138Y0165100D01*
X0312235Y0165023D01*
X0312329Y0164942D01*
X0312420Y0164859D01*
X0312509Y0164773D01*
X0312595Y0164684D01*
X0312678Y0164593D01*
X0312759Y0164499D01*
X0312836Y0164402D01*
X0312910Y0164303D01*
X0312981Y0164202D01*
X0313049Y0164099D01*
X0313114Y0163993D01*
X0313175Y0163886D01*
X0313233Y0163776D01*
X0313287Y0163665D01*
X0313338Y0163553D01*
X0313386Y0163438D01*
X0313429Y0163323D01*
X0313469Y0163206D01*
X0313506Y0163087D01*
X0313538Y0162968D01*
X0313567Y0162848D01*
X0313592Y0162727D01*
X0313614Y0162605D01*
X0313631Y0162482D01*
X0313645Y0162360D01*
X0313654Y0162236D01*
X0313660Y0162113D01*
X0313662Y0161989D01*
X0163800Y0031398D02*
X0158450Y0031398D01*
X0154513Y0031398D02*
X0149162Y0031398D01*
X0145225Y0031398D02*
X0139875Y0031398D01*
X0135938Y0031398D02*
X0130587Y0031398D01*
X0126650Y0031398D02*
X0121300Y0031398D01*
X0041260Y0076871D02*
X0041137Y0076867D01*
X0041015Y0076866D01*
X0040892Y0076870D01*
X0040769Y0076877D01*
X0040647Y0076889D01*
X0040525Y0076904D01*
X0040404Y0076922D01*
X0040283Y0076945D01*
X0040163Y0076971D01*
X0040044Y0077001D01*
X0039926Y0077035D01*
X0039809Y0077072D01*
X0039694Y0077113D01*
X0039579Y0077158D01*
X0039466Y0077206D01*
X0039355Y0077258D01*
X0039245Y0077313D01*
X0039137Y0077371D01*
X0039031Y0077433D01*
X0038927Y0077498D01*
X0038825Y0077566D01*
X0038725Y0077638D01*
X0038628Y0077712D01*
X0038532Y0077790D01*
X0038440Y0077870D01*
X0038349Y0077953D01*
X0038262Y0078039D01*
X0038177Y0078128D01*
X0038095Y0078220D01*
X0038016Y0078313D01*
X0037940Y0078410D01*
X0037866Y0078508D01*
X0037796Y0078609D01*
X0037729Y0078712D01*
X0037666Y0078817D01*
X0037605Y0078924D01*
X0037548Y0079033D01*
X0037495Y0079143D01*
X0037445Y0079255D01*
X0037398Y0079369D01*
X0037355Y0079484D01*
X0037316Y0079600D01*
X0037280Y0079717D01*
X0037248Y0079836D01*
X0037219Y0079955D01*
X0037195Y0080076D01*
X0037174Y0080197D01*
X0037157Y0080318D01*
X0037143Y0080440D01*
X0037134Y0080563D01*
X0037128Y0080685D01*
X0037126Y0080808D01*
X0037127Y0080808D02*
X0037127Y0083367D01*
X0037126Y0083367D02*
X0037119Y0083560D01*
X0037107Y0083753D01*
X0037091Y0083946D01*
X0037069Y0084138D01*
X0037043Y0084329D01*
X0037012Y0084520D01*
X0036977Y0084710D01*
X0036936Y0084899D01*
X0036892Y0085087D01*
X0036842Y0085273D01*
X0036788Y0085459D01*
X0036730Y0085643D01*
X0036667Y0085826D01*
X0036600Y0086007D01*
X0036528Y0086186D01*
X0036452Y0086364D01*
X0036371Y0086539D01*
X0036286Y0086713D01*
X0036197Y0086884D01*
X0036104Y0087054D01*
X0036006Y0087221D01*
X0035905Y0087385D01*
X0035800Y0087547D01*
X0035690Y0087706D01*
X0035577Y0087863D01*
X0035460Y0088016D01*
X0035339Y0088167D01*
X0035215Y0088315D01*
X0035087Y0088460D01*
X0034955Y0088601D01*
X0034820Y0088739D01*
X0034682Y0088874D01*
X0034540Y0089006D01*
X0034395Y0089134D01*
X0034247Y0089258D01*
X0034096Y0089379D01*
X0033943Y0089496D01*
X0033786Y0089609D01*
X0033627Y0089718D01*
X0033465Y0089823D01*
X0033300Y0089925D01*
X0033133Y0090022D01*
X0032964Y0090115D01*
X0032792Y0090204D01*
X0032619Y0090289D01*
X0032443Y0090369D01*
X0032266Y0090445D01*
X0032086Y0090517D01*
X0031905Y0090584D01*
X0031722Y0090647D01*
X0031538Y0090705D01*
X0031353Y0090759D01*
X0031166Y0090808D01*
X0030978Y0090853D01*
X0030789Y0090893D01*
X0030599Y0090928D01*
X0030408Y0090959D01*
X0030216Y0090985D01*
X0030024Y0091006D01*
X0029832Y0091023D01*
X0029639Y0091035D01*
X0029446Y0091042D01*
X0029253Y0091044D01*
X0016457Y0091044D01*
X0014797Y0082776D02*
X0014799Y0082976D01*
X0014807Y0083176D01*
X0014819Y0083376D01*
X0014836Y0083576D01*
X0014858Y0083775D01*
X0014885Y0083973D01*
X0014917Y0084171D01*
X0014954Y0084367D01*
X0014995Y0084563D01*
X0015041Y0084758D01*
X0015092Y0084952D01*
X0015148Y0085144D01*
X0015209Y0085335D01*
X0015274Y0085524D01*
X0015344Y0085712D01*
X0015418Y0085898D01*
X0015497Y0086082D01*
X0015580Y0086264D01*
X0015668Y0086443D01*
X0015760Y0086621D01*
X0015857Y0086797D01*
X0015958Y0086970D01*
X0016063Y0087140D01*
X0016172Y0087308D01*
X0016285Y0087473D01*
X0016402Y0087635D01*
X0016523Y0087794D01*
X0016649Y0087951D01*
X0016777Y0088104D01*
X0016910Y0088254D01*
X0017046Y0088401D01*
X0017186Y0088544D01*
X0017329Y0088684D01*
X0017476Y0088820D01*
X0017626Y0088953D01*
X0017779Y0089081D01*
X0017936Y0089207D01*
X0018095Y0089328D01*
X0018257Y0089445D01*
X0018422Y0089558D01*
X0018590Y0089667D01*
X0018760Y0089772D01*
X0018933Y0089873D01*
X0019109Y0089970D01*
X0019287Y0090062D01*
X0019466Y0090150D01*
X0019648Y0090233D01*
X0019832Y0090312D01*
X0020018Y0090386D01*
X0020206Y0090456D01*
X0020395Y0090521D01*
X0020586Y0090582D01*
X0020778Y0090638D01*
X0020972Y0090689D01*
X0021167Y0090735D01*
X0021363Y0090776D01*
X0021559Y0090813D01*
X0021757Y0090845D01*
X0021955Y0090872D01*
X0022154Y0090894D01*
X0022354Y0090911D01*
X0022554Y0090923D01*
X0022754Y0090931D01*
X0022954Y0090933D01*
X0023154Y0090931D01*
X0023354Y0090923D01*
X0023554Y0090911D01*
X0023754Y0090894D01*
X0023953Y0090872D01*
X0024151Y0090845D01*
X0024349Y0090813D01*
X0024545Y0090776D01*
X0024741Y0090735D01*
X0024936Y0090689D01*
X0025130Y0090638D01*
X0025322Y0090582D01*
X0025513Y0090521D01*
X0025702Y0090456D01*
X0025890Y0090386D01*
X0026076Y0090312D01*
X0026260Y0090233D01*
X0026442Y0090150D01*
X0026621Y0090062D01*
X0026799Y0089970D01*
X0026975Y0089873D01*
X0027148Y0089772D01*
X0027318Y0089667D01*
X0027486Y0089558D01*
X0027651Y0089445D01*
X0027813Y0089328D01*
X0027972Y0089207D01*
X0028129Y0089081D01*
X0028282Y0088953D01*
X0028432Y0088820D01*
X0028579Y0088684D01*
X0028722Y0088544D01*
X0028862Y0088401D01*
X0028998Y0088254D01*
X0029131Y0088104D01*
X0029259Y0087951D01*
X0029385Y0087794D01*
X0029506Y0087635D01*
X0029623Y0087473D01*
X0029736Y0087308D01*
X0029845Y0087140D01*
X0029950Y0086970D01*
X0030051Y0086797D01*
X0030148Y0086621D01*
X0030240Y0086443D01*
X0030328Y0086264D01*
X0030411Y0086082D01*
X0030490Y0085898D01*
X0030564Y0085712D01*
X0030634Y0085524D01*
X0030699Y0085335D01*
X0030760Y0085144D01*
X0030816Y0084952D01*
X0030867Y0084758D01*
X0030913Y0084563D01*
X0030954Y0084367D01*
X0030991Y0084171D01*
X0031023Y0083973D01*
X0031050Y0083775D01*
X0031072Y0083576D01*
X0031089Y0083376D01*
X0031101Y0083176D01*
X0031109Y0082976D01*
X0031111Y0082776D01*
X0031109Y0082576D01*
X0031101Y0082376D01*
X0031089Y0082176D01*
X0031072Y0081976D01*
X0031050Y0081777D01*
X0031023Y0081579D01*
X0030991Y0081381D01*
X0030954Y0081185D01*
X0030913Y0080989D01*
X0030867Y0080794D01*
X0030816Y0080600D01*
X0030760Y0080408D01*
X0030699Y0080217D01*
X0030634Y0080028D01*
X0030564Y0079840D01*
X0030490Y0079654D01*
X0030411Y0079470D01*
X0030328Y0079288D01*
X0030240Y0079109D01*
X0030148Y0078931D01*
X0030051Y0078755D01*
X0029950Y0078582D01*
X0029845Y0078412D01*
X0029736Y0078244D01*
X0029623Y0078079D01*
X0029506Y0077917D01*
X0029385Y0077758D01*
X0029259Y0077601D01*
X0029131Y0077448D01*
X0028998Y0077298D01*
X0028862Y0077151D01*
X0028722Y0077008D01*
X0028579Y0076868D01*
X0028432Y0076732D01*
X0028282Y0076599D01*
X0028129Y0076471D01*
X0027972Y0076345D01*
X0027813Y0076224D01*
X0027651Y0076107D01*
X0027486Y0075994D01*
X0027318Y0075885D01*
X0027148Y0075780D01*
X0026975Y0075679D01*
X0026799Y0075582D01*
X0026621Y0075490D01*
X0026442Y0075402D01*
X0026260Y0075319D01*
X0026076Y0075240D01*
X0025890Y0075166D01*
X0025702Y0075096D01*
X0025513Y0075031D01*
X0025322Y0074970D01*
X0025130Y0074914D01*
X0024936Y0074863D01*
X0024741Y0074817D01*
X0024545Y0074776D01*
X0024349Y0074739D01*
X0024151Y0074707D01*
X0023953Y0074680D01*
X0023754Y0074658D01*
X0023554Y0074641D01*
X0023354Y0074629D01*
X0023154Y0074621D01*
X0022954Y0074619D01*
X0022754Y0074621D01*
X0022554Y0074629D01*
X0022354Y0074641D01*
X0022154Y0074658D01*
X0021955Y0074680D01*
X0021757Y0074707D01*
X0021559Y0074739D01*
X0021363Y0074776D01*
X0021167Y0074817D01*
X0020972Y0074863D01*
X0020778Y0074914D01*
X0020586Y0074970D01*
X0020395Y0075031D01*
X0020206Y0075096D01*
X0020018Y0075166D01*
X0019832Y0075240D01*
X0019648Y0075319D01*
X0019466Y0075402D01*
X0019287Y0075490D01*
X0019109Y0075582D01*
X0018933Y0075679D01*
X0018760Y0075780D01*
X0018590Y0075885D01*
X0018422Y0075994D01*
X0018257Y0076107D01*
X0018095Y0076224D01*
X0017936Y0076345D01*
X0017779Y0076471D01*
X0017626Y0076599D01*
X0017476Y0076732D01*
X0017329Y0076868D01*
X0017186Y0077008D01*
X0017046Y0077151D01*
X0016910Y0077298D01*
X0016777Y0077448D01*
X0016649Y0077601D01*
X0016523Y0077758D01*
X0016402Y0077917D01*
X0016285Y0078079D01*
X0016172Y0078244D01*
X0016063Y0078412D01*
X0015958Y0078582D01*
X0015857Y0078755D01*
X0015760Y0078931D01*
X0015668Y0079109D01*
X0015580Y0079288D01*
X0015497Y0079470D01*
X0015418Y0079654D01*
X0015344Y0079840D01*
X0015274Y0080028D01*
X0015209Y0080217D01*
X0015148Y0080408D01*
X0015092Y0080600D01*
X0015041Y0080794D01*
X0014995Y0080989D01*
X0014954Y0081185D01*
X0014917Y0081381D01*
X0014885Y0081579D01*
X0014858Y0081777D01*
X0014836Y0081976D01*
X0014819Y0082176D01*
X0014807Y0082376D01*
X0014799Y0082576D01*
X0014797Y0082776D01*
D13*
X0025237Y0118052D02*
X0025237Y0120217D01*
X0025198Y0120217D02*
X0025196Y0120248D01*
X0025191Y0120278D01*
X0025183Y0120308D01*
X0025171Y0120337D01*
X0025156Y0120364D01*
X0025138Y0120389D01*
X0025117Y0120412D01*
X0025094Y0120433D01*
X0025069Y0120451D01*
X0025042Y0120466D01*
X0025013Y0120478D01*
X0024983Y0120486D01*
X0024953Y0120491D01*
X0024922Y0120493D01*
X0022796Y0120493D01*
X0021890Y0121398D02*
X0021892Y0121457D01*
X0021898Y0121516D01*
X0021907Y0121575D01*
X0021921Y0121632D01*
X0021938Y0121689D01*
X0021959Y0121745D01*
X0021983Y0121799D01*
X0022011Y0121851D01*
X0022043Y0121901D01*
X0022077Y0121950D01*
X0022115Y0121995D01*
X0022155Y0122039D01*
X0022199Y0122079D01*
X0022244Y0122117D01*
X0022293Y0122151D01*
X0022343Y0122183D01*
X0022395Y0122211D01*
X0022449Y0122235D01*
X0022505Y0122256D01*
X0022562Y0122273D01*
X0022619Y0122287D01*
X0022678Y0122296D01*
X0022737Y0122302D01*
X0022796Y0122304D01*
X0024961Y0122304D01*
X0024961Y0122303D02*
X0024992Y0122305D01*
X0025022Y0122310D01*
X0025052Y0122318D01*
X0025081Y0122330D01*
X0025108Y0122345D01*
X0025133Y0122363D01*
X0025156Y0122384D01*
X0025177Y0122407D01*
X0025195Y0122432D01*
X0025210Y0122459D01*
X0025222Y0122488D01*
X0025230Y0122518D01*
X0025235Y0122548D01*
X0025237Y0122579D01*
X0025237Y0122619D02*
X0025237Y0124745D01*
X0026143Y0125651D02*
X0026202Y0125649D01*
X0026261Y0125643D01*
X0026320Y0125634D01*
X0026377Y0125620D01*
X0026434Y0125603D01*
X0026490Y0125582D01*
X0026544Y0125558D01*
X0026596Y0125530D01*
X0026646Y0125498D01*
X0026695Y0125464D01*
X0026740Y0125426D01*
X0026784Y0125386D01*
X0026824Y0125342D01*
X0026862Y0125297D01*
X0026896Y0125248D01*
X0026928Y0125198D01*
X0026956Y0125146D01*
X0026980Y0125092D01*
X0027001Y0125036D01*
X0027018Y0124979D01*
X0027032Y0124922D01*
X0027041Y0124863D01*
X0027047Y0124804D01*
X0027049Y0124745D01*
X0027048Y0124745D02*
X0027048Y0122579D01*
X0027050Y0122548D01*
X0027055Y0122518D01*
X0027063Y0122488D01*
X0027075Y0122459D01*
X0027090Y0122432D01*
X0027108Y0122407D01*
X0027129Y0122384D01*
X0027152Y0122363D01*
X0027177Y0122345D01*
X0027204Y0122330D01*
X0027233Y0122318D01*
X0027263Y0122310D01*
X0027293Y0122305D01*
X0027324Y0122303D01*
X0027363Y0122304D02*
X0029489Y0122304D01*
X0030395Y0121398D02*
X0030393Y0121339D01*
X0030387Y0121280D01*
X0030378Y0121221D01*
X0030364Y0121164D01*
X0030347Y0121107D01*
X0030326Y0121051D01*
X0030302Y0120997D01*
X0030274Y0120945D01*
X0030242Y0120895D01*
X0030208Y0120846D01*
X0030170Y0120801D01*
X0030130Y0120757D01*
X0030086Y0120717D01*
X0030041Y0120679D01*
X0029992Y0120645D01*
X0029942Y0120613D01*
X0029890Y0120585D01*
X0029836Y0120561D01*
X0029780Y0120540D01*
X0029723Y0120523D01*
X0029666Y0120509D01*
X0029607Y0120500D01*
X0029548Y0120494D01*
X0029489Y0120492D01*
X0029489Y0120493D02*
X0027324Y0120493D01*
X0027293Y0120491D01*
X0027263Y0120486D01*
X0027233Y0120478D01*
X0027204Y0120466D01*
X0027177Y0120451D01*
X0027152Y0120433D01*
X0027129Y0120412D01*
X0027108Y0120389D01*
X0027090Y0120364D01*
X0027075Y0120337D01*
X0027063Y0120308D01*
X0027055Y0120278D01*
X0027050Y0120248D01*
X0027048Y0120217D01*
X0027048Y0120178D02*
X0027048Y0118052D01*
X0026143Y0117146D02*
X0026084Y0117148D01*
X0026025Y0117154D01*
X0025966Y0117163D01*
X0025909Y0117177D01*
X0025852Y0117194D01*
X0025796Y0117215D01*
X0025742Y0117239D01*
X0025690Y0117267D01*
X0025640Y0117299D01*
X0025591Y0117333D01*
X0025546Y0117371D01*
X0025502Y0117411D01*
X0025462Y0117455D01*
X0025424Y0117500D01*
X0025390Y0117549D01*
X0025358Y0117599D01*
X0025330Y0117651D01*
X0025306Y0117705D01*
X0025285Y0117761D01*
X0025268Y0117818D01*
X0025254Y0117875D01*
X0025245Y0117934D01*
X0025239Y0117993D01*
X0025237Y0118052D01*
X0026143Y0117146D02*
X0026202Y0117148D01*
X0026261Y0117154D01*
X0026320Y0117163D01*
X0026377Y0117177D01*
X0026434Y0117194D01*
X0026490Y0117215D01*
X0026544Y0117239D01*
X0026596Y0117267D01*
X0026646Y0117299D01*
X0026695Y0117333D01*
X0026740Y0117371D01*
X0026784Y0117411D01*
X0026824Y0117455D01*
X0026862Y0117500D01*
X0026896Y0117549D01*
X0026928Y0117599D01*
X0026956Y0117651D01*
X0026980Y0117705D01*
X0027001Y0117761D01*
X0027018Y0117818D01*
X0027032Y0117875D01*
X0027041Y0117934D01*
X0027047Y0117993D01*
X0027049Y0118052D01*
X0020119Y0121398D02*
X0020121Y0121553D01*
X0020127Y0121708D01*
X0020137Y0121863D01*
X0020151Y0122017D01*
X0020169Y0122171D01*
X0020191Y0122325D01*
X0020217Y0122478D01*
X0020246Y0122630D01*
X0020280Y0122782D01*
X0020318Y0122932D01*
X0020359Y0123082D01*
X0020404Y0123230D01*
X0020453Y0123377D01*
X0020506Y0123523D01*
X0020563Y0123667D01*
X0020623Y0123810D01*
X0020687Y0123952D01*
X0020755Y0124091D01*
X0020826Y0124229D01*
X0020900Y0124365D01*
X0020979Y0124499D01*
X0021060Y0124631D01*
X0021145Y0124761D01*
X0021233Y0124888D01*
X0021325Y0125014D01*
X0021419Y0125137D01*
X0021517Y0125257D01*
X0021618Y0125375D01*
X0021722Y0125490D01*
X0021829Y0125602D01*
X0021939Y0125712D01*
X0022051Y0125819D01*
X0022166Y0125923D01*
X0022284Y0126024D01*
X0022404Y0126122D01*
X0022527Y0126216D01*
X0022653Y0126308D01*
X0022780Y0126396D01*
X0022910Y0126481D01*
X0023042Y0126562D01*
X0023176Y0126641D01*
X0023312Y0126715D01*
X0023450Y0126786D01*
X0023589Y0126854D01*
X0023731Y0126918D01*
X0023874Y0126978D01*
X0024018Y0127035D01*
X0024164Y0127088D01*
X0024311Y0127137D01*
X0024459Y0127182D01*
X0024609Y0127223D01*
X0024759Y0127261D01*
X0024911Y0127295D01*
X0025063Y0127324D01*
X0025216Y0127350D01*
X0025370Y0127372D01*
X0025524Y0127390D01*
X0025678Y0127404D01*
X0025833Y0127414D01*
X0025988Y0127420D01*
X0026143Y0127422D01*
X0026298Y0127420D01*
X0026453Y0127414D01*
X0026608Y0127404D01*
X0026762Y0127390D01*
X0026916Y0127372D01*
X0027070Y0127350D01*
X0027223Y0127324D01*
X0027375Y0127295D01*
X0027527Y0127261D01*
X0027677Y0127223D01*
X0027827Y0127182D01*
X0027975Y0127137D01*
X0028122Y0127088D01*
X0028268Y0127035D01*
X0028412Y0126978D01*
X0028555Y0126918D01*
X0028697Y0126854D01*
X0028836Y0126786D01*
X0028974Y0126715D01*
X0029110Y0126641D01*
X0029244Y0126562D01*
X0029376Y0126481D01*
X0029506Y0126396D01*
X0029633Y0126308D01*
X0029759Y0126216D01*
X0029882Y0126122D01*
X0030002Y0126024D01*
X0030120Y0125923D01*
X0030235Y0125819D01*
X0030347Y0125712D01*
X0030457Y0125602D01*
X0030564Y0125490D01*
X0030668Y0125375D01*
X0030769Y0125257D01*
X0030867Y0125137D01*
X0030961Y0125014D01*
X0031053Y0124888D01*
X0031141Y0124761D01*
X0031226Y0124631D01*
X0031307Y0124499D01*
X0031386Y0124365D01*
X0031460Y0124229D01*
X0031531Y0124091D01*
X0031599Y0123952D01*
X0031663Y0123810D01*
X0031723Y0123667D01*
X0031780Y0123523D01*
X0031833Y0123377D01*
X0031882Y0123230D01*
X0031927Y0123082D01*
X0031968Y0122932D01*
X0032006Y0122782D01*
X0032040Y0122630D01*
X0032069Y0122478D01*
X0032095Y0122325D01*
X0032117Y0122171D01*
X0032135Y0122017D01*
X0032149Y0121863D01*
X0032159Y0121708D01*
X0032165Y0121553D01*
X0032167Y0121398D01*
X0032165Y0121243D01*
X0032159Y0121088D01*
X0032149Y0120933D01*
X0032135Y0120779D01*
X0032117Y0120625D01*
X0032095Y0120471D01*
X0032069Y0120318D01*
X0032040Y0120166D01*
X0032006Y0120014D01*
X0031968Y0119864D01*
X0031927Y0119714D01*
X0031882Y0119566D01*
X0031833Y0119419D01*
X0031780Y0119273D01*
X0031723Y0119129D01*
X0031663Y0118986D01*
X0031599Y0118844D01*
X0031531Y0118705D01*
X0031460Y0118567D01*
X0031386Y0118431D01*
X0031307Y0118297D01*
X0031226Y0118165D01*
X0031141Y0118035D01*
X0031053Y0117908D01*
X0030961Y0117782D01*
X0030867Y0117659D01*
X0030769Y0117539D01*
X0030668Y0117421D01*
X0030564Y0117306D01*
X0030457Y0117194D01*
X0030347Y0117084D01*
X0030235Y0116977D01*
X0030120Y0116873D01*
X0030002Y0116772D01*
X0029882Y0116674D01*
X0029759Y0116580D01*
X0029633Y0116488D01*
X0029506Y0116400D01*
X0029376Y0116315D01*
X0029244Y0116234D01*
X0029110Y0116155D01*
X0028974Y0116081D01*
X0028836Y0116010D01*
X0028697Y0115942D01*
X0028555Y0115878D01*
X0028412Y0115818D01*
X0028268Y0115761D01*
X0028122Y0115708D01*
X0027975Y0115659D01*
X0027827Y0115614D01*
X0027677Y0115573D01*
X0027527Y0115535D01*
X0027375Y0115501D01*
X0027223Y0115472D01*
X0027070Y0115446D01*
X0026916Y0115424D01*
X0026762Y0115406D01*
X0026608Y0115392D01*
X0026453Y0115382D01*
X0026298Y0115376D01*
X0026143Y0115374D01*
X0025988Y0115376D01*
X0025833Y0115382D01*
X0025678Y0115392D01*
X0025524Y0115406D01*
X0025370Y0115424D01*
X0025216Y0115446D01*
X0025063Y0115472D01*
X0024911Y0115501D01*
X0024759Y0115535D01*
X0024609Y0115573D01*
X0024459Y0115614D01*
X0024311Y0115659D01*
X0024164Y0115708D01*
X0024018Y0115761D01*
X0023874Y0115818D01*
X0023731Y0115878D01*
X0023589Y0115942D01*
X0023450Y0116010D01*
X0023312Y0116081D01*
X0023176Y0116155D01*
X0023042Y0116234D01*
X0022910Y0116315D01*
X0022780Y0116400D01*
X0022653Y0116488D01*
X0022527Y0116580D01*
X0022404Y0116674D01*
X0022284Y0116772D01*
X0022166Y0116873D01*
X0022051Y0116977D01*
X0021939Y0117084D01*
X0021829Y0117194D01*
X0021722Y0117306D01*
X0021618Y0117421D01*
X0021517Y0117539D01*
X0021419Y0117659D01*
X0021325Y0117782D01*
X0021233Y0117908D01*
X0021145Y0118035D01*
X0021060Y0118165D01*
X0020979Y0118297D01*
X0020900Y0118431D01*
X0020826Y0118567D01*
X0020755Y0118705D01*
X0020687Y0118844D01*
X0020623Y0118986D01*
X0020563Y0119129D01*
X0020506Y0119273D01*
X0020453Y0119419D01*
X0020404Y0119566D01*
X0020359Y0119714D01*
X0020318Y0119864D01*
X0020280Y0120014D01*
X0020246Y0120166D01*
X0020217Y0120318D01*
X0020191Y0120471D01*
X0020169Y0120625D01*
X0020151Y0120779D01*
X0020137Y0120933D01*
X0020127Y0121088D01*
X0020121Y0121243D01*
X0020119Y0121398D01*
X0021890Y0121398D02*
X0021892Y0121339D01*
X0021898Y0121280D01*
X0021907Y0121221D01*
X0021921Y0121164D01*
X0021938Y0121107D01*
X0021959Y0121051D01*
X0021983Y0120997D01*
X0022011Y0120945D01*
X0022043Y0120895D01*
X0022077Y0120846D01*
X0022115Y0120801D01*
X0022155Y0120757D01*
X0022199Y0120717D01*
X0022244Y0120679D01*
X0022293Y0120645D01*
X0022343Y0120613D01*
X0022395Y0120585D01*
X0022449Y0120561D01*
X0022505Y0120540D01*
X0022562Y0120523D01*
X0022619Y0120509D01*
X0022678Y0120500D01*
X0022737Y0120494D01*
X0022796Y0120492D01*
X0029489Y0122304D02*
X0029548Y0122302D01*
X0029607Y0122296D01*
X0029666Y0122287D01*
X0029723Y0122273D01*
X0029780Y0122256D01*
X0029836Y0122235D01*
X0029890Y0122211D01*
X0029942Y0122183D01*
X0029992Y0122151D01*
X0030041Y0122117D01*
X0030086Y0122079D01*
X0030130Y0122039D01*
X0030170Y0121995D01*
X0030208Y0121950D01*
X0030242Y0121901D01*
X0030274Y0121851D01*
X0030302Y0121799D01*
X0030326Y0121745D01*
X0030347Y0121689D01*
X0030364Y0121632D01*
X0030378Y0121575D01*
X0030387Y0121516D01*
X0030393Y0121457D01*
X0030395Y0121398D01*
X0026143Y0125651D02*
X0026084Y0125649D01*
X0026025Y0125643D01*
X0025966Y0125634D01*
X0025909Y0125620D01*
X0025852Y0125603D01*
X0025796Y0125582D01*
X0025742Y0125558D01*
X0025690Y0125530D01*
X0025640Y0125498D01*
X0025591Y0125464D01*
X0025546Y0125426D01*
X0025502Y0125386D01*
X0025462Y0125342D01*
X0025424Y0125297D01*
X0025390Y0125248D01*
X0025358Y0125198D01*
X0025330Y0125146D01*
X0025306Y0125092D01*
X0025285Y0125036D01*
X0025268Y0124979D01*
X0025254Y0124922D01*
X0025245Y0124863D01*
X0025239Y0124804D01*
X0025237Y0124745D01*
X0121500Y0040935D02*
X0122367Y0041803D01*
X0124102Y0041803D01*
X0124970Y0040935D01*
X0124970Y0040068D01*
X0121500Y0036598D01*
X0124970Y0036598D01*
X0126656Y0036598D02*
X0126656Y0037466D01*
X0130126Y0040935D01*
X0130126Y0041803D01*
X0126656Y0041803D01*
X0131813Y0039200D02*
X0131813Y0037466D01*
X0132680Y0036598D01*
X0135282Y0036598D01*
X0136969Y0037466D02*
X0137837Y0036598D01*
X0139571Y0036598D01*
X0140439Y0037466D01*
X0140439Y0038333D01*
X0139571Y0039200D01*
X0138704Y0039200D01*
X0139571Y0039200D02*
X0140439Y0040068D01*
X0140439Y0040935D01*
X0139571Y0041803D01*
X0137837Y0041803D01*
X0136969Y0040935D01*
X0135282Y0040068D02*
X0132680Y0040068D01*
X0131813Y0039200D01*
X0142126Y0040935D02*
X0142993Y0041803D01*
X0144728Y0041803D01*
X0145595Y0040935D01*
X0145595Y0040068D01*
X0142126Y0036598D01*
X0145595Y0036598D01*
X0147282Y0036598D02*
X0150752Y0040068D01*
X0150752Y0040935D01*
X0149884Y0041803D01*
X0148149Y0041803D01*
X0147282Y0040935D01*
X0147282Y0036598D02*
X0150752Y0036598D01*
X0161500Y0036598D02*
X0164970Y0036598D01*
X0163235Y0036598D02*
X0163235Y0041803D01*
X0161500Y0040068D01*
X0162367Y0026203D02*
X0164102Y0026203D01*
X0164970Y0025335D01*
X0161500Y0021866D01*
X0162367Y0020998D01*
X0164102Y0020998D01*
X0164970Y0021866D01*
X0164970Y0025335D01*
X0162367Y0026203D02*
X0161500Y0025335D01*
X0161500Y0021866D01*
X0143009Y0024468D02*
X0142142Y0024468D01*
X0140407Y0022733D01*
X0138720Y0022733D02*
X0135250Y0022733D01*
X0135250Y0021866D02*
X0135250Y0023600D01*
X0136118Y0024468D01*
X0137853Y0024468D01*
X0138720Y0023600D01*
X0138720Y0022733D01*
X0137853Y0020998D02*
X0136118Y0020998D01*
X0135250Y0021866D01*
X0133564Y0020998D02*
X0133564Y0023600D01*
X0132696Y0024468D01*
X0130961Y0024468D01*
X0130094Y0023600D01*
X0128391Y0024468D02*
X0126656Y0024468D01*
X0127524Y0025335D02*
X0127524Y0021866D01*
X0128391Y0020998D01*
X0130094Y0020998D02*
X0130094Y0026203D01*
X0124970Y0023600D02*
X0124102Y0024468D01*
X0122367Y0024468D01*
X0121500Y0023600D01*
X0121500Y0021866D01*
X0122367Y0020998D01*
X0124102Y0020998D01*
X0124970Y0021866D01*
X0124970Y0023600D01*
X0140407Y0024468D02*
X0140407Y0020998D01*
X0306339Y0118052D02*
X0306339Y0120217D01*
X0306300Y0120217D02*
X0306298Y0120248D01*
X0306293Y0120278D01*
X0306285Y0120308D01*
X0306273Y0120337D01*
X0306258Y0120364D01*
X0306240Y0120389D01*
X0306219Y0120412D01*
X0306196Y0120433D01*
X0306171Y0120451D01*
X0306144Y0120466D01*
X0306115Y0120478D01*
X0306085Y0120486D01*
X0306055Y0120491D01*
X0306024Y0120493D01*
X0303898Y0120493D01*
X0302992Y0121398D02*
X0302994Y0121457D01*
X0303000Y0121516D01*
X0303009Y0121575D01*
X0303023Y0121632D01*
X0303040Y0121689D01*
X0303061Y0121745D01*
X0303085Y0121799D01*
X0303113Y0121851D01*
X0303145Y0121901D01*
X0303179Y0121950D01*
X0303217Y0121995D01*
X0303257Y0122039D01*
X0303301Y0122079D01*
X0303346Y0122117D01*
X0303395Y0122151D01*
X0303445Y0122183D01*
X0303497Y0122211D01*
X0303551Y0122235D01*
X0303607Y0122256D01*
X0303664Y0122273D01*
X0303721Y0122287D01*
X0303780Y0122296D01*
X0303839Y0122302D01*
X0303898Y0122304D01*
X0306064Y0122304D01*
X0306064Y0122303D02*
X0306095Y0122305D01*
X0306125Y0122310D01*
X0306155Y0122318D01*
X0306184Y0122330D01*
X0306211Y0122345D01*
X0306236Y0122363D01*
X0306259Y0122384D01*
X0306280Y0122407D01*
X0306298Y0122432D01*
X0306313Y0122459D01*
X0306325Y0122488D01*
X0306333Y0122518D01*
X0306338Y0122548D01*
X0306340Y0122579D01*
X0306339Y0122619D02*
X0306339Y0124745D01*
X0307245Y0125651D02*
X0307304Y0125649D01*
X0307363Y0125643D01*
X0307422Y0125634D01*
X0307479Y0125620D01*
X0307536Y0125603D01*
X0307592Y0125582D01*
X0307646Y0125558D01*
X0307698Y0125530D01*
X0307748Y0125498D01*
X0307797Y0125464D01*
X0307842Y0125426D01*
X0307886Y0125386D01*
X0307926Y0125342D01*
X0307964Y0125297D01*
X0307998Y0125248D01*
X0308030Y0125198D01*
X0308058Y0125146D01*
X0308082Y0125092D01*
X0308103Y0125036D01*
X0308120Y0124979D01*
X0308134Y0124922D01*
X0308143Y0124863D01*
X0308149Y0124804D01*
X0308151Y0124745D01*
X0308150Y0124745D02*
X0308150Y0122579D01*
X0308152Y0122548D01*
X0308157Y0122518D01*
X0308165Y0122488D01*
X0308177Y0122459D01*
X0308192Y0122432D01*
X0308210Y0122407D01*
X0308231Y0122384D01*
X0308254Y0122363D01*
X0308279Y0122345D01*
X0308306Y0122330D01*
X0308335Y0122318D01*
X0308365Y0122310D01*
X0308395Y0122305D01*
X0308426Y0122303D01*
X0308465Y0122304D02*
X0310591Y0122304D01*
X0311497Y0121398D02*
X0311495Y0121339D01*
X0311489Y0121280D01*
X0311480Y0121221D01*
X0311466Y0121164D01*
X0311449Y0121107D01*
X0311428Y0121051D01*
X0311404Y0120997D01*
X0311376Y0120945D01*
X0311344Y0120895D01*
X0311310Y0120846D01*
X0311272Y0120801D01*
X0311232Y0120757D01*
X0311188Y0120717D01*
X0311143Y0120679D01*
X0311094Y0120645D01*
X0311044Y0120613D01*
X0310992Y0120585D01*
X0310938Y0120561D01*
X0310882Y0120540D01*
X0310825Y0120523D01*
X0310768Y0120509D01*
X0310709Y0120500D01*
X0310650Y0120494D01*
X0310591Y0120492D01*
X0310591Y0120493D02*
X0308426Y0120493D01*
X0308395Y0120491D01*
X0308365Y0120486D01*
X0308335Y0120478D01*
X0308306Y0120466D01*
X0308279Y0120451D01*
X0308254Y0120433D01*
X0308231Y0120412D01*
X0308210Y0120389D01*
X0308192Y0120364D01*
X0308177Y0120337D01*
X0308165Y0120308D01*
X0308157Y0120278D01*
X0308152Y0120248D01*
X0308150Y0120217D01*
X0308150Y0120178D02*
X0308150Y0118052D01*
X0307245Y0117146D02*
X0307186Y0117148D01*
X0307127Y0117154D01*
X0307068Y0117163D01*
X0307011Y0117177D01*
X0306954Y0117194D01*
X0306898Y0117215D01*
X0306844Y0117239D01*
X0306792Y0117267D01*
X0306742Y0117299D01*
X0306693Y0117333D01*
X0306648Y0117371D01*
X0306604Y0117411D01*
X0306564Y0117455D01*
X0306526Y0117500D01*
X0306492Y0117549D01*
X0306460Y0117599D01*
X0306432Y0117651D01*
X0306408Y0117705D01*
X0306387Y0117761D01*
X0306370Y0117818D01*
X0306356Y0117875D01*
X0306347Y0117934D01*
X0306341Y0117993D01*
X0306339Y0118052D01*
X0307245Y0117146D02*
X0307304Y0117148D01*
X0307363Y0117154D01*
X0307422Y0117163D01*
X0307479Y0117177D01*
X0307536Y0117194D01*
X0307592Y0117215D01*
X0307646Y0117239D01*
X0307698Y0117267D01*
X0307748Y0117299D01*
X0307797Y0117333D01*
X0307842Y0117371D01*
X0307886Y0117411D01*
X0307926Y0117455D01*
X0307964Y0117500D01*
X0307998Y0117549D01*
X0308030Y0117599D01*
X0308058Y0117651D01*
X0308082Y0117705D01*
X0308103Y0117761D01*
X0308120Y0117818D01*
X0308134Y0117875D01*
X0308143Y0117934D01*
X0308149Y0117993D01*
X0308151Y0118052D01*
X0301221Y0121398D02*
X0301223Y0121553D01*
X0301229Y0121708D01*
X0301239Y0121863D01*
X0301253Y0122017D01*
X0301271Y0122171D01*
X0301293Y0122325D01*
X0301319Y0122478D01*
X0301348Y0122630D01*
X0301382Y0122782D01*
X0301420Y0122932D01*
X0301461Y0123082D01*
X0301506Y0123230D01*
X0301555Y0123377D01*
X0301608Y0123523D01*
X0301665Y0123667D01*
X0301725Y0123810D01*
X0301789Y0123952D01*
X0301857Y0124091D01*
X0301928Y0124229D01*
X0302002Y0124365D01*
X0302081Y0124499D01*
X0302162Y0124631D01*
X0302247Y0124761D01*
X0302335Y0124888D01*
X0302427Y0125014D01*
X0302521Y0125137D01*
X0302619Y0125257D01*
X0302720Y0125375D01*
X0302824Y0125490D01*
X0302931Y0125602D01*
X0303041Y0125712D01*
X0303153Y0125819D01*
X0303268Y0125923D01*
X0303386Y0126024D01*
X0303506Y0126122D01*
X0303629Y0126216D01*
X0303755Y0126308D01*
X0303882Y0126396D01*
X0304012Y0126481D01*
X0304144Y0126562D01*
X0304278Y0126641D01*
X0304414Y0126715D01*
X0304552Y0126786D01*
X0304691Y0126854D01*
X0304833Y0126918D01*
X0304976Y0126978D01*
X0305120Y0127035D01*
X0305266Y0127088D01*
X0305413Y0127137D01*
X0305561Y0127182D01*
X0305711Y0127223D01*
X0305861Y0127261D01*
X0306013Y0127295D01*
X0306165Y0127324D01*
X0306318Y0127350D01*
X0306472Y0127372D01*
X0306626Y0127390D01*
X0306780Y0127404D01*
X0306935Y0127414D01*
X0307090Y0127420D01*
X0307245Y0127422D01*
X0307400Y0127420D01*
X0307555Y0127414D01*
X0307710Y0127404D01*
X0307864Y0127390D01*
X0308018Y0127372D01*
X0308172Y0127350D01*
X0308325Y0127324D01*
X0308477Y0127295D01*
X0308629Y0127261D01*
X0308779Y0127223D01*
X0308929Y0127182D01*
X0309077Y0127137D01*
X0309224Y0127088D01*
X0309370Y0127035D01*
X0309514Y0126978D01*
X0309657Y0126918D01*
X0309799Y0126854D01*
X0309938Y0126786D01*
X0310076Y0126715D01*
X0310212Y0126641D01*
X0310346Y0126562D01*
X0310478Y0126481D01*
X0310608Y0126396D01*
X0310735Y0126308D01*
X0310861Y0126216D01*
X0310984Y0126122D01*
X0311104Y0126024D01*
X0311222Y0125923D01*
X0311337Y0125819D01*
X0311449Y0125712D01*
X0311559Y0125602D01*
X0311666Y0125490D01*
X0311770Y0125375D01*
X0311871Y0125257D01*
X0311969Y0125137D01*
X0312063Y0125014D01*
X0312155Y0124888D01*
X0312243Y0124761D01*
X0312328Y0124631D01*
X0312409Y0124499D01*
X0312488Y0124365D01*
X0312562Y0124229D01*
X0312633Y0124091D01*
X0312701Y0123952D01*
X0312765Y0123810D01*
X0312825Y0123667D01*
X0312882Y0123523D01*
X0312935Y0123377D01*
X0312984Y0123230D01*
X0313029Y0123082D01*
X0313070Y0122932D01*
X0313108Y0122782D01*
X0313142Y0122630D01*
X0313171Y0122478D01*
X0313197Y0122325D01*
X0313219Y0122171D01*
X0313237Y0122017D01*
X0313251Y0121863D01*
X0313261Y0121708D01*
X0313267Y0121553D01*
X0313269Y0121398D01*
X0313267Y0121243D01*
X0313261Y0121088D01*
X0313251Y0120933D01*
X0313237Y0120779D01*
X0313219Y0120625D01*
X0313197Y0120471D01*
X0313171Y0120318D01*
X0313142Y0120166D01*
X0313108Y0120014D01*
X0313070Y0119864D01*
X0313029Y0119714D01*
X0312984Y0119566D01*
X0312935Y0119419D01*
X0312882Y0119273D01*
X0312825Y0119129D01*
X0312765Y0118986D01*
X0312701Y0118844D01*
X0312633Y0118705D01*
X0312562Y0118567D01*
X0312488Y0118431D01*
X0312409Y0118297D01*
X0312328Y0118165D01*
X0312243Y0118035D01*
X0312155Y0117908D01*
X0312063Y0117782D01*
X0311969Y0117659D01*
X0311871Y0117539D01*
X0311770Y0117421D01*
X0311666Y0117306D01*
X0311559Y0117194D01*
X0311449Y0117084D01*
X0311337Y0116977D01*
X0311222Y0116873D01*
X0311104Y0116772D01*
X0310984Y0116674D01*
X0310861Y0116580D01*
X0310735Y0116488D01*
X0310608Y0116400D01*
X0310478Y0116315D01*
X0310346Y0116234D01*
X0310212Y0116155D01*
X0310076Y0116081D01*
X0309938Y0116010D01*
X0309799Y0115942D01*
X0309657Y0115878D01*
X0309514Y0115818D01*
X0309370Y0115761D01*
X0309224Y0115708D01*
X0309077Y0115659D01*
X0308929Y0115614D01*
X0308779Y0115573D01*
X0308629Y0115535D01*
X0308477Y0115501D01*
X0308325Y0115472D01*
X0308172Y0115446D01*
X0308018Y0115424D01*
X0307864Y0115406D01*
X0307710Y0115392D01*
X0307555Y0115382D01*
X0307400Y0115376D01*
X0307245Y0115374D01*
X0307090Y0115376D01*
X0306935Y0115382D01*
X0306780Y0115392D01*
X0306626Y0115406D01*
X0306472Y0115424D01*
X0306318Y0115446D01*
X0306165Y0115472D01*
X0306013Y0115501D01*
X0305861Y0115535D01*
X0305711Y0115573D01*
X0305561Y0115614D01*
X0305413Y0115659D01*
X0305266Y0115708D01*
X0305120Y0115761D01*
X0304976Y0115818D01*
X0304833Y0115878D01*
X0304691Y0115942D01*
X0304552Y0116010D01*
X0304414Y0116081D01*
X0304278Y0116155D01*
X0304144Y0116234D01*
X0304012Y0116315D01*
X0303882Y0116400D01*
X0303755Y0116488D01*
X0303629Y0116580D01*
X0303506Y0116674D01*
X0303386Y0116772D01*
X0303268Y0116873D01*
X0303153Y0116977D01*
X0303041Y0117084D01*
X0302931Y0117194D01*
X0302824Y0117306D01*
X0302720Y0117421D01*
X0302619Y0117539D01*
X0302521Y0117659D01*
X0302427Y0117782D01*
X0302335Y0117908D01*
X0302247Y0118035D01*
X0302162Y0118165D01*
X0302081Y0118297D01*
X0302002Y0118431D01*
X0301928Y0118567D01*
X0301857Y0118705D01*
X0301789Y0118844D01*
X0301725Y0118986D01*
X0301665Y0119129D01*
X0301608Y0119273D01*
X0301555Y0119419D01*
X0301506Y0119566D01*
X0301461Y0119714D01*
X0301420Y0119864D01*
X0301382Y0120014D01*
X0301348Y0120166D01*
X0301319Y0120318D01*
X0301293Y0120471D01*
X0301271Y0120625D01*
X0301253Y0120779D01*
X0301239Y0120933D01*
X0301229Y0121088D01*
X0301223Y0121243D01*
X0301221Y0121398D01*
X0302992Y0121398D02*
X0302994Y0121339D01*
X0303000Y0121280D01*
X0303009Y0121221D01*
X0303023Y0121164D01*
X0303040Y0121107D01*
X0303061Y0121051D01*
X0303085Y0120997D01*
X0303113Y0120945D01*
X0303145Y0120895D01*
X0303179Y0120846D01*
X0303217Y0120801D01*
X0303257Y0120757D01*
X0303301Y0120717D01*
X0303346Y0120679D01*
X0303395Y0120645D01*
X0303445Y0120613D01*
X0303497Y0120585D01*
X0303551Y0120561D01*
X0303607Y0120540D01*
X0303664Y0120523D01*
X0303721Y0120509D01*
X0303780Y0120500D01*
X0303839Y0120494D01*
X0303898Y0120492D01*
X0310591Y0122304D02*
X0310650Y0122302D01*
X0310709Y0122296D01*
X0310768Y0122287D01*
X0310825Y0122273D01*
X0310882Y0122256D01*
X0310938Y0122235D01*
X0310992Y0122211D01*
X0311044Y0122183D01*
X0311094Y0122151D01*
X0311143Y0122117D01*
X0311188Y0122079D01*
X0311232Y0122039D01*
X0311272Y0121995D01*
X0311310Y0121950D01*
X0311344Y0121901D01*
X0311376Y0121851D01*
X0311404Y0121799D01*
X0311428Y0121745D01*
X0311449Y0121689D01*
X0311466Y0121632D01*
X0311480Y0121575D01*
X0311489Y0121516D01*
X0311495Y0121457D01*
X0311497Y0121398D01*
X0307245Y0125651D02*
X0307186Y0125649D01*
X0307127Y0125643D01*
X0307068Y0125634D01*
X0307011Y0125620D01*
X0306954Y0125603D01*
X0306898Y0125582D01*
X0306844Y0125558D01*
X0306792Y0125530D01*
X0306742Y0125498D01*
X0306693Y0125464D01*
X0306648Y0125426D01*
X0306604Y0125386D01*
X0306564Y0125342D01*
X0306526Y0125297D01*
X0306492Y0125248D01*
X0306460Y0125198D01*
X0306432Y0125146D01*
X0306408Y0125092D01*
X0306387Y0125036D01*
X0306370Y0124979D01*
X0306356Y0124922D01*
X0306347Y0124863D01*
X0306341Y0124804D01*
X0306339Y0124745D01*
D14*
X0091300Y0066398D02*
X0091300Y0006398D01*
X0091302Y0006258D01*
X0091308Y0006118D01*
X0091318Y0005978D01*
X0091331Y0005838D01*
X0091349Y0005699D01*
X0091371Y0005560D01*
X0091396Y0005423D01*
X0091425Y0005285D01*
X0091458Y0005149D01*
X0091495Y0005014D01*
X0091536Y0004880D01*
X0091581Y0004747D01*
X0091629Y0004615D01*
X0091681Y0004485D01*
X0091736Y0004356D01*
X0091795Y0004229D01*
X0091858Y0004103D01*
X0091924Y0003979D01*
X0091993Y0003858D01*
X0092066Y0003738D01*
X0092143Y0003620D01*
X0092222Y0003505D01*
X0092305Y0003391D01*
X0092391Y0003281D01*
X0092480Y0003172D01*
X0092572Y0003066D01*
X0092667Y0002963D01*
X0092764Y0002862D01*
X0092865Y0002765D01*
X0092968Y0002670D01*
X0093074Y0002578D01*
X0093183Y0002489D01*
X0093293Y0002403D01*
X0093407Y0002320D01*
X0093522Y0002241D01*
X0093640Y0002164D01*
X0093760Y0002091D01*
X0093881Y0002022D01*
X0094005Y0001956D01*
X0094131Y0001893D01*
X0094258Y0001834D01*
X0094387Y0001779D01*
X0094517Y0001727D01*
X0094649Y0001679D01*
X0094782Y0001634D01*
X0094916Y0001593D01*
X0095051Y0001556D01*
X0095187Y0001523D01*
X0095325Y0001494D01*
X0095462Y0001469D01*
X0095601Y0001447D01*
X0095740Y0001429D01*
X0095880Y0001416D01*
X0096020Y0001406D01*
X0096160Y0001400D01*
X0096300Y0001398D01*
X0331300Y0001398D01*
X0331440Y0001400D01*
X0331580Y0001406D01*
X0331720Y0001416D01*
X0331860Y0001429D01*
X0331999Y0001447D01*
X0332138Y0001469D01*
X0332275Y0001494D01*
X0332413Y0001523D01*
X0332549Y0001556D01*
X0332684Y0001593D01*
X0332818Y0001634D01*
X0332951Y0001679D01*
X0333083Y0001727D01*
X0333213Y0001779D01*
X0333342Y0001834D01*
X0333469Y0001893D01*
X0333595Y0001956D01*
X0333719Y0002022D01*
X0333840Y0002091D01*
X0333960Y0002164D01*
X0334078Y0002241D01*
X0334193Y0002320D01*
X0334307Y0002403D01*
X0334417Y0002489D01*
X0334526Y0002578D01*
X0334632Y0002670D01*
X0334735Y0002765D01*
X0334836Y0002862D01*
X0334933Y0002963D01*
X0335028Y0003066D01*
X0335120Y0003172D01*
X0335209Y0003281D01*
X0335295Y0003391D01*
X0335378Y0003505D01*
X0335457Y0003620D01*
X0335534Y0003738D01*
X0335607Y0003858D01*
X0335676Y0003979D01*
X0335742Y0004103D01*
X0335805Y0004229D01*
X0335864Y0004356D01*
X0335919Y0004485D01*
X0335971Y0004615D01*
X0336019Y0004747D01*
X0336064Y0004880D01*
X0336105Y0005014D01*
X0336142Y0005149D01*
X0336175Y0005285D01*
X0336204Y0005423D01*
X0336229Y0005560D01*
X0336251Y0005699D01*
X0336269Y0005838D01*
X0336282Y0005978D01*
X0336292Y0006118D01*
X0336298Y0006258D01*
X0336300Y0006398D01*
X0336300Y0166398D01*
X0336298Y0166538D01*
X0336292Y0166678D01*
X0336282Y0166818D01*
X0336269Y0166958D01*
X0336251Y0167097D01*
X0336229Y0167236D01*
X0336204Y0167373D01*
X0336175Y0167511D01*
X0336142Y0167647D01*
X0336105Y0167782D01*
X0336064Y0167916D01*
X0336019Y0168049D01*
X0335971Y0168181D01*
X0335919Y0168311D01*
X0335864Y0168440D01*
X0335805Y0168567D01*
X0335742Y0168693D01*
X0335676Y0168817D01*
X0335607Y0168938D01*
X0335534Y0169058D01*
X0335457Y0169176D01*
X0335378Y0169291D01*
X0335295Y0169405D01*
X0335209Y0169515D01*
X0335120Y0169624D01*
X0335028Y0169730D01*
X0334933Y0169833D01*
X0334836Y0169934D01*
X0334735Y0170031D01*
X0334632Y0170126D01*
X0334526Y0170218D01*
X0334417Y0170307D01*
X0334307Y0170393D01*
X0334193Y0170476D01*
X0334078Y0170555D01*
X0333960Y0170632D01*
X0333840Y0170705D01*
X0333719Y0170774D01*
X0333595Y0170840D01*
X0333469Y0170903D01*
X0333342Y0170962D01*
X0333213Y0171017D01*
X0333083Y0171069D01*
X0332951Y0171117D01*
X0332818Y0171162D01*
X0332684Y0171203D01*
X0332549Y0171240D01*
X0332413Y0171273D01*
X0332275Y0171302D01*
X0332138Y0171327D01*
X0331999Y0171349D01*
X0331860Y0171367D01*
X0331720Y0171380D01*
X0331580Y0171390D01*
X0331440Y0171396D01*
X0331300Y0171398D01*
X0016300Y0171398D01*
X0016160Y0171396D01*
X0016020Y0171390D01*
X0015880Y0171380D01*
X0015740Y0171367D01*
X0015601Y0171349D01*
X0015462Y0171327D01*
X0015325Y0171302D01*
X0015187Y0171273D01*
X0015051Y0171240D01*
X0014916Y0171203D01*
X0014782Y0171162D01*
X0014649Y0171117D01*
X0014517Y0171069D01*
X0014387Y0171017D01*
X0014258Y0170962D01*
X0014131Y0170903D01*
X0014005Y0170840D01*
X0013881Y0170774D01*
X0013760Y0170705D01*
X0013640Y0170632D01*
X0013522Y0170555D01*
X0013407Y0170476D01*
X0013293Y0170393D01*
X0013183Y0170307D01*
X0013074Y0170218D01*
X0012968Y0170126D01*
X0012865Y0170031D01*
X0012764Y0169934D01*
X0012667Y0169833D01*
X0012572Y0169730D01*
X0012480Y0169624D01*
X0012391Y0169515D01*
X0012305Y0169405D01*
X0012222Y0169291D01*
X0012143Y0169176D01*
X0012066Y0169058D01*
X0011993Y0168938D01*
X0011924Y0168817D01*
X0011858Y0168693D01*
X0011795Y0168567D01*
X0011736Y0168440D01*
X0011681Y0168311D01*
X0011629Y0168181D01*
X0011581Y0168049D01*
X0011536Y0167916D01*
X0011495Y0167782D01*
X0011458Y0167647D01*
X0011425Y0167511D01*
X0011396Y0167373D01*
X0011371Y0167236D01*
X0011349Y0167097D01*
X0011331Y0166958D01*
X0011318Y0166818D01*
X0011308Y0166678D01*
X0011302Y0166538D01*
X0011300Y0166398D01*
X0011300Y0076398D01*
X0011302Y0076258D01*
X0011308Y0076118D01*
X0011318Y0075978D01*
X0011331Y0075838D01*
X0011349Y0075699D01*
X0011371Y0075560D01*
X0011396Y0075423D01*
X0011425Y0075285D01*
X0011458Y0075149D01*
X0011495Y0075014D01*
X0011536Y0074880D01*
X0011581Y0074747D01*
X0011629Y0074615D01*
X0011681Y0074485D01*
X0011736Y0074356D01*
X0011795Y0074229D01*
X0011858Y0074103D01*
X0011924Y0073979D01*
X0011993Y0073858D01*
X0012066Y0073738D01*
X0012143Y0073620D01*
X0012222Y0073505D01*
X0012305Y0073391D01*
X0012391Y0073281D01*
X0012480Y0073172D01*
X0012572Y0073066D01*
X0012667Y0072963D01*
X0012764Y0072862D01*
X0012865Y0072765D01*
X0012968Y0072670D01*
X0013074Y0072578D01*
X0013183Y0072489D01*
X0013293Y0072403D01*
X0013407Y0072320D01*
X0013522Y0072241D01*
X0013640Y0072164D01*
X0013760Y0072091D01*
X0013881Y0072022D01*
X0014005Y0071956D01*
X0014131Y0071893D01*
X0014258Y0071834D01*
X0014387Y0071779D01*
X0014517Y0071727D01*
X0014649Y0071679D01*
X0014782Y0071634D01*
X0014916Y0071593D01*
X0015051Y0071556D01*
X0015187Y0071523D01*
X0015325Y0071494D01*
X0015462Y0071469D01*
X0015601Y0071447D01*
X0015740Y0071429D01*
X0015880Y0071416D01*
X0016020Y0071406D01*
X0016160Y0071400D01*
X0016300Y0071398D01*
X0086300Y0071398D01*
X0086440Y0071396D01*
X0086580Y0071390D01*
X0086720Y0071380D01*
X0086860Y0071367D01*
X0086999Y0071349D01*
X0087138Y0071327D01*
X0087275Y0071302D01*
X0087413Y0071273D01*
X0087549Y0071240D01*
X0087684Y0071203D01*
X0087818Y0071162D01*
X0087951Y0071117D01*
X0088083Y0071069D01*
X0088213Y0071017D01*
X0088342Y0070962D01*
X0088469Y0070903D01*
X0088595Y0070840D01*
X0088719Y0070774D01*
X0088840Y0070705D01*
X0088960Y0070632D01*
X0089078Y0070555D01*
X0089193Y0070476D01*
X0089307Y0070393D01*
X0089417Y0070307D01*
X0089526Y0070218D01*
X0089632Y0070126D01*
X0089735Y0070031D01*
X0089836Y0069934D01*
X0089933Y0069833D01*
X0090028Y0069730D01*
X0090120Y0069624D01*
X0090209Y0069515D01*
X0090295Y0069405D01*
X0090378Y0069291D01*
X0090457Y0069176D01*
X0090534Y0069058D01*
X0090607Y0068938D01*
X0090676Y0068817D01*
X0090742Y0068693D01*
X0090805Y0068567D01*
X0090864Y0068440D01*
X0090919Y0068311D01*
X0090971Y0068181D01*
X0091019Y0068049D01*
X0091064Y0067916D01*
X0091105Y0067782D01*
X0091142Y0067647D01*
X0091175Y0067511D01*
X0091204Y0067373D01*
X0091229Y0067236D01*
X0091251Y0067097D01*
X0091269Y0066958D01*
X0091282Y0066818D01*
X0091292Y0066678D01*
X0091298Y0066538D01*
X0091300Y0066398D01*
D15*
X0076220Y0104922D03*
X0071220Y0104922D03*
X0061220Y0104922D03*
X0056220Y0104922D03*
X0051220Y0109922D03*
X0051220Y0114922D03*
X0051220Y0114922D03*
X0056220Y0114922D03*
X0061220Y0114922D03*
X0066220Y0114922D03*
X0071220Y0114922D03*
X0076220Y0114922D03*
X0081220Y0114922D03*
X0081220Y0109922D03*
X0081220Y0109922D03*
X0091220Y0109922D03*
X0091220Y0114922D03*
X0091220Y0119922D03*
X0086220Y0119922D03*
X0081220Y0119922D03*
X0076220Y0119922D03*
X0071220Y0119922D03*
X0066220Y0119922D03*
X0061220Y0119922D03*
X0056220Y0119922D03*
X0051220Y0119922D03*
X0046220Y0119922D03*
X0041220Y0119922D03*
X0041220Y0114922D03*
X0041220Y0109922D03*
X0046220Y0124922D03*
X0051220Y0124922D03*
X0051220Y0129922D03*
X0056220Y0129922D03*
X0061220Y0129922D03*
X0061220Y0129922D03*
X0066220Y0129922D03*
X0071220Y0129922D03*
X0076220Y0129922D03*
X0081220Y0129922D03*
X0081220Y0124922D03*
X0086220Y0124922D03*
X0071220Y0124922D03*
X0066220Y0124922D03*
X0061220Y0124922D03*
X0056220Y0134922D03*
X0051220Y0139922D03*
X0076220Y0134922D03*
X0081220Y0139922D03*
D16*
X0246300Y0051398D02*
X0246300Y0047398D01*
X0261300Y0047398D02*
X0261300Y0051398D01*
X0276300Y0051398D02*
X0276300Y0047398D01*
X0291300Y0047398D02*
X0291300Y0051398D01*
X0306300Y0051398D02*
X0306300Y0047398D01*
X0306300Y0015398D02*
X0306300Y0011398D01*
X0291300Y0011398D02*
X0291300Y0015398D01*
X0276300Y0015398D02*
X0276300Y0011398D01*
X0261300Y0011398D02*
X0261300Y0015398D01*
X0246300Y0015398D02*
X0246300Y0011398D01*
D17*
X0249800Y0018898D02*
X0242800Y0018898D01*
X0242740Y0018900D01*
X0242679Y0018905D01*
X0242620Y0018914D01*
X0242561Y0018927D01*
X0242502Y0018943D01*
X0242445Y0018963D01*
X0242390Y0018986D01*
X0242335Y0019013D01*
X0242283Y0019042D01*
X0242232Y0019075D01*
X0242183Y0019111D01*
X0242137Y0019149D01*
X0242093Y0019191D01*
X0242051Y0019235D01*
X0242013Y0019281D01*
X0241977Y0019330D01*
X0241944Y0019381D01*
X0241915Y0019433D01*
X0241888Y0019488D01*
X0241865Y0019543D01*
X0241845Y0019600D01*
X0241829Y0019659D01*
X0241816Y0019718D01*
X0241807Y0019777D01*
X0241802Y0019838D01*
X0241800Y0019898D01*
X0241800Y0021398D01*
X0242300Y0021898D01*
X0242300Y0040898D01*
X0241800Y0041398D01*
X0241800Y0042898D01*
X0241802Y0042958D01*
X0241807Y0043019D01*
X0241816Y0043078D01*
X0241829Y0043137D01*
X0241845Y0043196D01*
X0241865Y0043253D01*
X0241888Y0043308D01*
X0241915Y0043363D01*
X0241944Y0043415D01*
X0241977Y0043466D01*
X0242013Y0043515D01*
X0242051Y0043561D01*
X0242093Y0043605D01*
X0242137Y0043647D01*
X0242183Y0043685D01*
X0242232Y0043721D01*
X0242283Y0043754D01*
X0242335Y0043783D01*
X0242390Y0043810D01*
X0242445Y0043833D01*
X0242502Y0043853D01*
X0242561Y0043869D01*
X0242620Y0043882D01*
X0242679Y0043891D01*
X0242740Y0043896D01*
X0242800Y0043898D01*
X0249800Y0043898D01*
X0249860Y0043896D01*
X0249921Y0043891D01*
X0249980Y0043882D01*
X0250039Y0043869D01*
X0250098Y0043853D01*
X0250155Y0043833D01*
X0250210Y0043810D01*
X0250265Y0043783D01*
X0250317Y0043754D01*
X0250368Y0043721D01*
X0250417Y0043685D01*
X0250463Y0043647D01*
X0250507Y0043605D01*
X0250549Y0043561D01*
X0250587Y0043515D01*
X0250623Y0043466D01*
X0250656Y0043415D01*
X0250685Y0043363D01*
X0250712Y0043308D01*
X0250735Y0043253D01*
X0250755Y0043196D01*
X0250771Y0043137D01*
X0250784Y0043078D01*
X0250793Y0043019D01*
X0250798Y0042958D01*
X0250800Y0042898D01*
X0250800Y0041398D01*
X0250300Y0040898D01*
X0250300Y0021898D01*
X0250800Y0021398D01*
X0250800Y0019898D01*
X0250798Y0019838D01*
X0250793Y0019777D01*
X0250784Y0019718D01*
X0250771Y0019659D01*
X0250755Y0019600D01*
X0250735Y0019543D01*
X0250712Y0019488D01*
X0250685Y0019433D01*
X0250656Y0019381D01*
X0250623Y0019330D01*
X0250587Y0019281D01*
X0250549Y0019235D01*
X0250507Y0019191D01*
X0250463Y0019149D01*
X0250417Y0019111D01*
X0250368Y0019075D01*
X0250317Y0019042D01*
X0250265Y0019013D01*
X0250210Y0018986D01*
X0250155Y0018963D01*
X0250098Y0018943D01*
X0250039Y0018927D01*
X0249980Y0018914D01*
X0249921Y0018905D01*
X0249860Y0018900D01*
X0249800Y0018898D01*
X0256800Y0019898D02*
X0256800Y0021398D01*
X0257300Y0021898D01*
X0257300Y0040898D01*
X0256800Y0041398D01*
X0256800Y0042898D01*
X0256802Y0042958D01*
X0256807Y0043019D01*
X0256816Y0043078D01*
X0256829Y0043137D01*
X0256845Y0043196D01*
X0256865Y0043253D01*
X0256888Y0043308D01*
X0256915Y0043363D01*
X0256944Y0043415D01*
X0256977Y0043466D01*
X0257013Y0043515D01*
X0257051Y0043561D01*
X0257093Y0043605D01*
X0257137Y0043647D01*
X0257183Y0043685D01*
X0257232Y0043721D01*
X0257283Y0043754D01*
X0257335Y0043783D01*
X0257390Y0043810D01*
X0257445Y0043833D01*
X0257502Y0043853D01*
X0257561Y0043869D01*
X0257620Y0043882D01*
X0257679Y0043891D01*
X0257740Y0043896D01*
X0257800Y0043898D01*
X0264800Y0043898D01*
X0264860Y0043896D01*
X0264921Y0043891D01*
X0264980Y0043882D01*
X0265039Y0043869D01*
X0265098Y0043853D01*
X0265155Y0043833D01*
X0265210Y0043810D01*
X0265265Y0043783D01*
X0265317Y0043754D01*
X0265368Y0043721D01*
X0265417Y0043685D01*
X0265463Y0043647D01*
X0265507Y0043605D01*
X0265549Y0043561D01*
X0265587Y0043515D01*
X0265623Y0043466D01*
X0265656Y0043415D01*
X0265685Y0043363D01*
X0265712Y0043308D01*
X0265735Y0043253D01*
X0265755Y0043196D01*
X0265771Y0043137D01*
X0265784Y0043078D01*
X0265793Y0043019D01*
X0265798Y0042958D01*
X0265800Y0042898D01*
X0265800Y0041398D01*
X0265300Y0040898D01*
X0265300Y0021898D01*
X0265800Y0021398D01*
X0265800Y0019898D01*
X0265798Y0019838D01*
X0265793Y0019777D01*
X0265784Y0019718D01*
X0265771Y0019659D01*
X0265755Y0019600D01*
X0265735Y0019543D01*
X0265712Y0019488D01*
X0265685Y0019433D01*
X0265656Y0019381D01*
X0265623Y0019330D01*
X0265587Y0019281D01*
X0265549Y0019235D01*
X0265507Y0019191D01*
X0265463Y0019149D01*
X0265417Y0019111D01*
X0265368Y0019075D01*
X0265317Y0019042D01*
X0265265Y0019013D01*
X0265210Y0018986D01*
X0265155Y0018963D01*
X0265098Y0018943D01*
X0265039Y0018927D01*
X0264980Y0018914D01*
X0264921Y0018905D01*
X0264860Y0018900D01*
X0264800Y0018898D01*
X0257800Y0018898D01*
X0257740Y0018900D01*
X0257679Y0018905D01*
X0257620Y0018914D01*
X0257561Y0018927D01*
X0257502Y0018943D01*
X0257445Y0018963D01*
X0257390Y0018986D01*
X0257335Y0019013D01*
X0257283Y0019042D01*
X0257232Y0019075D01*
X0257183Y0019111D01*
X0257137Y0019149D01*
X0257093Y0019191D01*
X0257051Y0019235D01*
X0257013Y0019281D01*
X0256977Y0019330D01*
X0256944Y0019381D01*
X0256915Y0019433D01*
X0256888Y0019488D01*
X0256865Y0019543D01*
X0256845Y0019600D01*
X0256829Y0019659D01*
X0256816Y0019718D01*
X0256807Y0019777D01*
X0256802Y0019838D01*
X0256800Y0019898D01*
X0271800Y0019898D02*
X0271800Y0021398D01*
X0272300Y0021898D01*
X0272300Y0040898D01*
X0271800Y0041398D01*
X0271800Y0042898D01*
X0271802Y0042958D01*
X0271807Y0043019D01*
X0271816Y0043078D01*
X0271829Y0043137D01*
X0271845Y0043196D01*
X0271865Y0043253D01*
X0271888Y0043308D01*
X0271915Y0043363D01*
X0271944Y0043415D01*
X0271977Y0043466D01*
X0272013Y0043515D01*
X0272051Y0043561D01*
X0272093Y0043605D01*
X0272137Y0043647D01*
X0272183Y0043685D01*
X0272232Y0043721D01*
X0272283Y0043754D01*
X0272335Y0043783D01*
X0272390Y0043810D01*
X0272445Y0043833D01*
X0272502Y0043853D01*
X0272561Y0043869D01*
X0272620Y0043882D01*
X0272679Y0043891D01*
X0272740Y0043896D01*
X0272800Y0043898D01*
X0279800Y0043898D01*
X0279860Y0043896D01*
X0279921Y0043891D01*
X0279980Y0043882D01*
X0280039Y0043869D01*
X0280098Y0043853D01*
X0280155Y0043833D01*
X0280210Y0043810D01*
X0280265Y0043783D01*
X0280317Y0043754D01*
X0280368Y0043721D01*
X0280417Y0043685D01*
X0280463Y0043647D01*
X0280507Y0043605D01*
X0280549Y0043561D01*
X0280587Y0043515D01*
X0280623Y0043466D01*
X0280656Y0043415D01*
X0280685Y0043363D01*
X0280712Y0043308D01*
X0280735Y0043253D01*
X0280755Y0043196D01*
X0280771Y0043137D01*
X0280784Y0043078D01*
X0280793Y0043019D01*
X0280798Y0042958D01*
X0280800Y0042898D01*
X0280800Y0041398D01*
X0280300Y0040898D01*
X0280300Y0021898D01*
X0280800Y0021398D01*
X0280800Y0019898D01*
X0280798Y0019838D01*
X0280793Y0019777D01*
X0280784Y0019718D01*
X0280771Y0019659D01*
X0280755Y0019600D01*
X0280735Y0019543D01*
X0280712Y0019488D01*
X0280685Y0019433D01*
X0280656Y0019381D01*
X0280623Y0019330D01*
X0280587Y0019281D01*
X0280549Y0019235D01*
X0280507Y0019191D01*
X0280463Y0019149D01*
X0280417Y0019111D01*
X0280368Y0019075D01*
X0280317Y0019042D01*
X0280265Y0019013D01*
X0280210Y0018986D01*
X0280155Y0018963D01*
X0280098Y0018943D01*
X0280039Y0018927D01*
X0279980Y0018914D01*
X0279921Y0018905D01*
X0279860Y0018900D01*
X0279800Y0018898D01*
X0272800Y0018898D01*
X0272740Y0018900D01*
X0272679Y0018905D01*
X0272620Y0018914D01*
X0272561Y0018927D01*
X0272502Y0018943D01*
X0272445Y0018963D01*
X0272390Y0018986D01*
X0272335Y0019013D01*
X0272283Y0019042D01*
X0272232Y0019075D01*
X0272183Y0019111D01*
X0272137Y0019149D01*
X0272093Y0019191D01*
X0272051Y0019235D01*
X0272013Y0019281D01*
X0271977Y0019330D01*
X0271944Y0019381D01*
X0271915Y0019433D01*
X0271888Y0019488D01*
X0271865Y0019543D01*
X0271845Y0019600D01*
X0271829Y0019659D01*
X0271816Y0019718D01*
X0271807Y0019777D01*
X0271802Y0019838D01*
X0271800Y0019898D01*
X0286800Y0019898D02*
X0286800Y0021398D01*
X0287300Y0021898D01*
X0287300Y0040898D01*
X0286800Y0041398D01*
X0286800Y0042898D01*
X0286802Y0042958D01*
X0286807Y0043019D01*
X0286816Y0043078D01*
X0286829Y0043137D01*
X0286845Y0043196D01*
X0286865Y0043253D01*
X0286888Y0043308D01*
X0286915Y0043363D01*
X0286944Y0043415D01*
X0286977Y0043466D01*
X0287013Y0043515D01*
X0287051Y0043561D01*
X0287093Y0043605D01*
X0287137Y0043647D01*
X0287183Y0043685D01*
X0287232Y0043721D01*
X0287283Y0043754D01*
X0287335Y0043783D01*
X0287390Y0043810D01*
X0287445Y0043833D01*
X0287502Y0043853D01*
X0287561Y0043869D01*
X0287620Y0043882D01*
X0287679Y0043891D01*
X0287740Y0043896D01*
X0287800Y0043898D01*
X0294800Y0043898D01*
X0294860Y0043896D01*
X0294921Y0043891D01*
X0294980Y0043882D01*
X0295039Y0043869D01*
X0295098Y0043853D01*
X0295155Y0043833D01*
X0295210Y0043810D01*
X0295265Y0043783D01*
X0295317Y0043754D01*
X0295368Y0043721D01*
X0295417Y0043685D01*
X0295463Y0043647D01*
X0295507Y0043605D01*
X0295549Y0043561D01*
X0295587Y0043515D01*
X0295623Y0043466D01*
X0295656Y0043415D01*
X0295685Y0043363D01*
X0295712Y0043308D01*
X0295735Y0043253D01*
X0295755Y0043196D01*
X0295771Y0043137D01*
X0295784Y0043078D01*
X0295793Y0043019D01*
X0295798Y0042958D01*
X0295800Y0042898D01*
X0295800Y0041398D01*
X0295300Y0040898D01*
X0295300Y0021898D01*
X0295800Y0021398D01*
X0295800Y0019898D01*
X0295798Y0019838D01*
X0295793Y0019777D01*
X0295784Y0019718D01*
X0295771Y0019659D01*
X0295755Y0019600D01*
X0295735Y0019543D01*
X0295712Y0019488D01*
X0295685Y0019433D01*
X0295656Y0019381D01*
X0295623Y0019330D01*
X0295587Y0019281D01*
X0295549Y0019235D01*
X0295507Y0019191D01*
X0295463Y0019149D01*
X0295417Y0019111D01*
X0295368Y0019075D01*
X0295317Y0019042D01*
X0295265Y0019013D01*
X0295210Y0018986D01*
X0295155Y0018963D01*
X0295098Y0018943D01*
X0295039Y0018927D01*
X0294980Y0018914D01*
X0294921Y0018905D01*
X0294860Y0018900D01*
X0294800Y0018898D01*
X0287800Y0018898D01*
X0287740Y0018900D01*
X0287679Y0018905D01*
X0287620Y0018914D01*
X0287561Y0018927D01*
X0287502Y0018943D01*
X0287445Y0018963D01*
X0287390Y0018986D01*
X0287335Y0019013D01*
X0287283Y0019042D01*
X0287232Y0019075D01*
X0287183Y0019111D01*
X0287137Y0019149D01*
X0287093Y0019191D01*
X0287051Y0019235D01*
X0287013Y0019281D01*
X0286977Y0019330D01*
X0286944Y0019381D01*
X0286915Y0019433D01*
X0286888Y0019488D01*
X0286865Y0019543D01*
X0286845Y0019600D01*
X0286829Y0019659D01*
X0286816Y0019718D01*
X0286807Y0019777D01*
X0286802Y0019838D01*
X0286800Y0019898D01*
X0301800Y0019898D02*
X0301800Y0021398D01*
X0302300Y0021898D01*
X0302300Y0040898D01*
X0301800Y0041398D01*
X0301800Y0042898D01*
X0301802Y0042958D01*
X0301807Y0043019D01*
X0301816Y0043078D01*
X0301829Y0043137D01*
X0301845Y0043196D01*
X0301865Y0043253D01*
X0301888Y0043308D01*
X0301915Y0043363D01*
X0301944Y0043415D01*
X0301977Y0043466D01*
X0302013Y0043515D01*
X0302051Y0043561D01*
X0302093Y0043605D01*
X0302137Y0043647D01*
X0302183Y0043685D01*
X0302232Y0043721D01*
X0302283Y0043754D01*
X0302335Y0043783D01*
X0302390Y0043810D01*
X0302445Y0043833D01*
X0302502Y0043853D01*
X0302561Y0043869D01*
X0302620Y0043882D01*
X0302679Y0043891D01*
X0302740Y0043896D01*
X0302800Y0043898D01*
X0309800Y0043898D01*
X0309860Y0043896D01*
X0309921Y0043891D01*
X0309980Y0043882D01*
X0310039Y0043869D01*
X0310098Y0043853D01*
X0310155Y0043833D01*
X0310210Y0043810D01*
X0310265Y0043783D01*
X0310317Y0043754D01*
X0310368Y0043721D01*
X0310417Y0043685D01*
X0310463Y0043647D01*
X0310507Y0043605D01*
X0310549Y0043561D01*
X0310587Y0043515D01*
X0310623Y0043466D01*
X0310656Y0043415D01*
X0310685Y0043363D01*
X0310712Y0043308D01*
X0310735Y0043253D01*
X0310755Y0043196D01*
X0310771Y0043137D01*
X0310784Y0043078D01*
X0310793Y0043019D01*
X0310798Y0042958D01*
X0310800Y0042898D01*
X0310800Y0041398D01*
X0310300Y0040898D01*
X0310300Y0021898D01*
X0310800Y0021398D01*
X0310800Y0019898D01*
X0310798Y0019838D01*
X0310793Y0019777D01*
X0310784Y0019718D01*
X0310771Y0019659D01*
X0310755Y0019600D01*
X0310735Y0019543D01*
X0310712Y0019488D01*
X0310685Y0019433D01*
X0310656Y0019381D01*
X0310623Y0019330D01*
X0310587Y0019281D01*
X0310549Y0019235D01*
X0310507Y0019191D01*
X0310463Y0019149D01*
X0310417Y0019111D01*
X0310368Y0019075D01*
X0310317Y0019042D01*
X0310265Y0019013D01*
X0310210Y0018986D01*
X0310155Y0018963D01*
X0310098Y0018943D01*
X0310039Y0018927D01*
X0309980Y0018914D01*
X0309921Y0018905D01*
X0309860Y0018900D01*
X0309800Y0018898D01*
X0302800Y0018898D01*
X0302740Y0018900D01*
X0302679Y0018905D01*
X0302620Y0018914D01*
X0302561Y0018927D01*
X0302502Y0018943D01*
X0302445Y0018963D01*
X0302390Y0018986D01*
X0302335Y0019013D01*
X0302283Y0019042D01*
X0302232Y0019075D01*
X0302183Y0019111D01*
X0302137Y0019149D01*
X0302093Y0019191D01*
X0302051Y0019235D01*
X0302013Y0019281D01*
X0301977Y0019330D01*
X0301944Y0019381D01*
X0301915Y0019433D01*
X0301888Y0019488D01*
X0301865Y0019543D01*
X0301845Y0019600D01*
X0301829Y0019659D01*
X0301816Y0019718D01*
X0301807Y0019777D01*
X0301802Y0019838D01*
X0301800Y0019898D01*
X0204300Y0024898D02*
X0204300Y0011898D01*
X0168300Y0011898D01*
X0168300Y0024898D01*
X0168300Y0037898D01*
X0170300Y0037898D01*
X0170300Y0024898D01*
X0168300Y0024898D01*
X0173300Y0023898D02*
X0179300Y0023898D01*
X0179300Y0038898D01*
X0173300Y0038898D01*
X0173300Y0023898D01*
X0183300Y0023898D02*
X0189300Y0023898D01*
X0189300Y0038898D01*
X0183300Y0038898D01*
X0183300Y0023898D01*
X0193300Y0023898D02*
X0199300Y0023898D01*
X0199300Y0038898D01*
X0193300Y0038898D01*
X0193300Y0023898D01*
X0202300Y0024898D02*
X0204300Y0024898D01*
X0204300Y0037898D01*
X0204300Y0050898D01*
X0168300Y0050898D01*
X0168300Y0037898D01*
X0202300Y0037898D02*
X0202300Y0024898D01*
X0202300Y0037898D02*
X0204300Y0037898D01*
D18*
X0246300Y0045598D03*
X0261300Y0045598D03*
X0276300Y0045598D03*
X0291300Y0045598D03*
X0306300Y0045598D03*
X0306300Y0017198D03*
X0291300Y0017198D03*
X0276300Y0017198D03*
X0261300Y0017198D03*
X0246300Y0017198D03*
D19*
X0196300Y0025648D03*
X0196300Y0028148D03*
X0196300Y0030648D03*
X0186300Y0030648D03*
X0186300Y0028148D03*
X0186300Y0025648D03*
X0176300Y0025648D03*
X0176300Y0028148D03*
X0176300Y0030648D03*
X0110237Y0030148D03*
X0110237Y0027648D03*
X0110237Y0025148D03*
M02*
