%
M48
M72
T01C0.0320
T02C0.0394
%
T01
X17630Y1640
X18630Y1640
X19630Y1640
X22630Y2140
X22630Y3140
X22630Y4140
X24630Y5140
X26130Y5140
X27630Y5140
X29130Y5140
X30630Y5140
X30630Y1140
X29130Y1140
X27630Y1140
X26130Y1140
X24630Y1140
X19630Y4640
X18630Y4640
X17630Y4640
T02
X10524Y2140
X11524Y2140
X11524Y3140
X10524Y3140
X10524Y4140
X11524Y4140
X11130Y6689
X10130Y6689
X12130Y6689
X13130Y6689
X14130Y6689
X15130Y6689
X16130Y6689
X17130Y6689
X18130Y6689
X19130Y6689
X20130Y6689
X21130Y6689
X22130Y6689
X23130Y6689
X24130Y6689
X25130Y6689
X26130Y6689
X27130Y6689
X28130Y6689
X29130Y6689
X28380Y9140
X27380Y9140
X26380Y9140
X25380Y9140
X24380Y9140
X23380Y9140
X22380Y9140
X21380Y9140
X20380Y9140
X19380Y9140
X18380Y9140
X17380Y9140
X16380Y9140
X15380Y9140
X14380Y9140
X13380Y9140
X12380Y9140
X11380Y9140
X10380Y9140
X9380Y9140
X8380Y9140
X7380Y9140
X6380Y9140
X5380Y9140
X10130Y12591
X11130Y12591
X12130Y12591
X13130Y12591
X14130Y12591
X15130Y12591
X16130Y12591
X17130Y12591
X18130Y12591
X19130Y12591
X20130Y12591
X21130Y12591
X22130Y12591
X23130Y12591
X24130Y12591
X25130Y12591
X26130Y12591
X27130Y12591
X28130Y12591
X29130Y12591
X28380Y15140
X27380Y15140
X26380Y15140
X25380Y15140
X24380Y15140
X23380Y15140
X22380Y15140
X21380Y15140
X20380Y15140
X19380Y15140
X18380Y15140
X17380Y15140
X16380Y15140
X15380Y15140
X14380Y15140
X13380Y15140
X12380Y15140
X11380Y15140
X10380Y15140
X9380Y15140
X8380Y15140
X7380Y15140
X6380Y15140
X5380Y15140
M30
