G75*
%MOIN*%
%OFA0B0*%
%FSLAX25Y25*%
%IPPOS*%
%LPD*%
%AMOC8*
5,1,8,0,0,1.08239X$1,22.5*
%
%ADD10C,0.00796*%
%ADD11C,0.00500*%
%ADD12C,0.00600*%
%ADD13R,0.02000X0.02000*%
D10*
X0091300Y0006398D02*
X0091300Y0066398D01*
X0091298Y0066538D01*
X0091292Y0066678D01*
X0091282Y0066818D01*
X0091269Y0066958D01*
X0091251Y0067097D01*
X0091229Y0067236D01*
X0091204Y0067373D01*
X0091175Y0067511D01*
X0091142Y0067647D01*
X0091105Y0067782D01*
X0091064Y0067916D01*
X0091019Y0068049D01*
X0090971Y0068181D01*
X0090919Y0068311D01*
X0090864Y0068440D01*
X0090805Y0068567D01*
X0090742Y0068693D01*
X0090676Y0068817D01*
X0090607Y0068938D01*
X0090534Y0069058D01*
X0090457Y0069176D01*
X0090378Y0069291D01*
X0090295Y0069405D01*
X0090209Y0069515D01*
X0090120Y0069624D01*
X0090028Y0069730D01*
X0089933Y0069833D01*
X0089836Y0069934D01*
X0089735Y0070031D01*
X0089632Y0070126D01*
X0089526Y0070218D01*
X0089417Y0070307D01*
X0089307Y0070393D01*
X0089193Y0070476D01*
X0089078Y0070555D01*
X0088960Y0070632D01*
X0088840Y0070705D01*
X0088719Y0070774D01*
X0088595Y0070840D01*
X0088469Y0070903D01*
X0088342Y0070962D01*
X0088213Y0071017D01*
X0088083Y0071069D01*
X0087951Y0071117D01*
X0087818Y0071162D01*
X0087684Y0071203D01*
X0087549Y0071240D01*
X0087413Y0071273D01*
X0087275Y0071302D01*
X0087138Y0071327D01*
X0086999Y0071349D01*
X0086860Y0071367D01*
X0086720Y0071380D01*
X0086580Y0071390D01*
X0086440Y0071396D01*
X0086300Y0071398D01*
X0016300Y0071398D01*
X0016160Y0071400D01*
X0016020Y0071406D01*
X0015880Y0071416D01*
X0015740Y0071429D01*
X0015601Y0071447D01*
X0015462Y0071469D01*
X0015325Y0071494D01*
X0015187Y0071523D01*
X0015051Y0071556D01*
X0014916Y0071593D01*
X0014782Y0071634D01*
X0014649Y0071679D01*
X0014517Y0071727D01*
X0014387Y0071779D01*
X0014258Y0071834D01*
X0014131Y0071893D01*
X0014005Y0071956D01*
X0013881Y0072022D01*
X0013760Y0072091D01*
X0013640Y0072164D01*
X0013522Y0072241D01*
X0013407Y0072320D01*
X0013293Y0072403D01*
X0013183Y0072489D01*
X0013074Y0072578D01*
X0012968Y0072670D01*
X0012865Y0072765D01*
X0012764Y0072862D01*
X0012667Y0072963D01*
X0012572Y0073066D01*
X0012480Y0073172D01*
X0012391Y0073281D01*
X0012305Y0073391D01*
X0012222Y0073505D01*
X0012143Y0073620D01*
X0012066Y0073738D01*
X0011993Y0073858D01*
X0011924Y0073979D01*
X0011858Y0074103D01*
X0011795Y0074229D01*
X0011736Y0074356D01*
X0011681Y0074485D01*
X0011629Y0074615D01*
X0011581Y0074747D01*
X0011536Y0074880D01*
X0011495Y0075014D01*
X0011458Y0075149D01*
X0011425Y0075285D01*
X0011396Y0075423D01*
X0011371Y0075560D01*
X0011349Y0075699D01*
X0011331Y0075838D01*
X0011318Y0075978D01*
X0011308Y0076118D01*
X0011302Y0076258D01*
X0011300Y0076398D01*
X0011300Y0166398D01*
X0011302Y0166538D01*
X0011308Y0166678D01*
X0011318Y0166818D01*
X0011331Y0166958D01*
X0011349Y0167097D01*
X0011371Y0167236D01*
X0011396Y0167373D01*
X0011425Y0167511D01*
X0011458Y0167647D01*
X0011495Y0167782D01*
X0011536Y0167916D01*
X0011581Y0168049D01*
X0011629Y0168181D01*
X0011681Y0168311D01*
X0011736Y0168440D01*
X0011795Y0168567D01*
X0011858Y0168693D01*
X0011924Y0168817D01*
X0011993Y0168938D01*
X0012066Y0169058D01*
X0012143Y0169176D01*
X0012222Y0169291D01*
X0012305Y0169405D01*
X0012391Y0169515D01*
X0012480Y0169624D01*
X0012572Y0169730D01*
X0012667Y0169833D01*
X0012764Y0169934D01*
X0012865Y0170031D01*
X0012968Y0170126D01*
X0013074Y0170218D01*
X0013183Y0170307D01*
X0013293Y0170393D01*
X0013407Y0170476D01*
X0013522Y0170555D01*
X0013640Y0170632D01*
X0013760Y0170705D01*
X0013881Y0170774D01*
X0014005Y0170840D01*
X0014131Y0170903D01*
X0014258Y0170962D01*
X0014387Y0171017D01*
X0014517Y0171069D01*
X0014649Y0171117D01*
X0014782Y0171162D01*
X0014916Y0171203D01*
X0015051Y0171240D01*
X0015187Y0171273D01*
X0015325Y0171302D01*
X0015462Y0171327D01*
X0015601Y0171349D01*
X0015740Y0171367D01*
X0015880Y0171380D01*
X0016020Y0171390D01*
X0016160Y0171396D01*
X0016300Y0171398D01*
X0331300Y0171398D01*
X0331440Y0171396D01*
X0331580Y0171390D01*
X0331720Y0171380D01*
X0331860Y0171367D01*
X0331999Y0171349D01*
X0332138Y0171327D01*
X0332275Y0171302D01*
X0332413Y0171273D01*
X0332549Y0171240D01*
X0332684Y0171203D01*
X0332818Y0171162D01*
X0332951Y0171117D01*
X0333083Y0171069D01*
X0333213Y0171017D01*
X0333342Y0170962D01*
X0333469Y0170903D01*
X0333595Y0170840D01*
X0333719Y0170774D01*
X0333840Y0170705D01*
X0333960Y0170632D01*
X0334078Y0170555D01*
X0334193Y0170476D01*
X0334307Y0170393D01*
X0334417Y0170307D01*
X0334526Y0170218D01*
X0334632Y0170126D01*
X0334735Y0170031D01*
X0334836Y0169934D01*
X0334933Y0169833D01*
X0335028Y0169730D01*
X0335120Y0169624D01*
X0335209Y0169515D01*
X0335295Y0169405D01*
X0335378Y0169291D01*
X0335457Y0169176D01*
X0335534Y0169058D01*
X0335607Y0168938D01*
X0335676Y0168817D01*
X0335742Y0168693D01*
X0335805Y0168567D01*
X0335864Y0168440D01*
X0335919Y0168311D01*
X0335971Y0168181D01*
X0336019Y0168049D01*
X0336064Y0167916D01*
X0336105Y0167782D01*
X0336142Y0167647D01*
X0336175Y0167511D01*
X0336204Y0167373D01*
X0336229Y0167236D01*
X0336251Y0167097D01*
X0336269Y0166958D01*
X0336282Y0166818D01*
X0336292Y0166678D01*
X0336298Y0166538D01*
X0336300Y0166398D01*
X0336300Y0006398D01*
X0336298Y0006258D01*
X0336292Y0006118D01*
X0336282Y0005978D01*
X0336269Y0005838D01*
X0336251Y0005699D01*
X0336229Y0005560D01*
X0336204Y0005423D01*
X0336175Y0005285D01*
X0336142Y0005149D01*
X0336105Y0005014D01*
X0336064Y0004880D01*
X0336019Y0004747D01*
X0335971Y0004615D01*
X0335919Y0004485D01*
X0335864Y0004356D01*
X0335805Y0004229D01*
X0335742Y0004103D01*
X0335676Y0003979D01*
X0335607Y0003858D01*
X0335534Y0003738D01*
X0335457Y0003620D01*
X0335378Y0003505D01*
X0335295Y0003391D01*
X0335209Y0003281D01*
X0335120Y0003172D01*
X0335028Y0003066D01*
X0334933Y0002963D01*
X0334836Y0002862D01*
X0334735Y0002765D01*
X0334632Y0002670D01*
X0334526Y0002578D01*
X0334417Y0002489D01*
X0334307Y0002403D01*
X0334193Y0002320D01*
X0334078Y0002241D01*
X0333960Y0002164D01*
X0333840Y0002091D01*
X0333719Y0002022D01*
X0333595Y0001956D01*
X0333469Y0001893D01*
X0333342Y0001834D01*
X0333213Y0001779D01*
X0333083Y0001727D01*
X0332951Y0001679D01*
X0332818Y0001634D01*
X0332684Y0001593D01*
X0332549Y0001556D01*
X0332413Y0001523D01*
X0332275Y0001494D01*
X0332138Y0001469D01*
X0331999Y0001447D01*
X0331860Y0001429D01*
X0331720Y0001416D01*
X0331580Y0001406D01*
X0331440Y0001400D01*
X0331300Y0001398D01*
X0096300Y0001398D01*
X0096160Y0001400D01*
X0096020Y0001406D01*
X0095880Y0001416D01*
X0095740Y0001429D01*
X0095601Y0001447D01*
X0095462Y0001469D01*
X0095325Y0001494D01*
X0095187Y0001523D01*
X0095051Y0001556D01*
X0094916Y0001593D01*
X0094782Y0001634D01*
X0094649Y0001679D01*
X0094517Y0001727D01*
X0094387Y0001779D01*
X0094258Y0001834D01*
X0094131Y0001893D01*
X0094005Y0001956D01*
X0093881Y0002022D01*
X0093760Y0002091D01*
X0093640Y0002164D01*
X0093522Y0002241D01*
X0093407Y0002320D01*
X0093293Y0002403D01*
X0093183Y0002489D01*
X0093074Y0002578D01*
X0092968Y0002670D01*
X0092865Y0002765D01*
X0092764Y0002862D01*
X0092667Y0002963D01*
X0092572Y0003066D01*
X0092480Y0003172D01*
X0092391Y0003281D01*
X0092305Y0003391D01*
X0092222Y0003505D01*
X0092143Y0003620D01*
X0092066Y0003738D01*
X0091993Y0003858D01*
X0091924Y0003979D01*
X0091858Y0004103D01*
X0091795Y0004229D01*
X0091736Y0004356D01*
X0091681Y0004485D01*
X0091629Y0004615D01*
X0091581Y0004747D01*
X0091536Y0004880D01*
X0091495Y0005014D01*
X0091458Y0005149D01*
X0091425Y0005285D01*
X0091396Y0005423D01*
X0091371Y0005560D01*
X0091349Y0005699D01*
X0091331Y0005838D01*
X0091318Y0005978D01*
X0091308Y0006118D01*
X0091302Y0006258D01*
X0091300Y0006398D01*
D11*
X0042555Y0086648D02*
X0036450Y0086648D01*
X0038485Y0086648D02*
X0038485Y0089701D01*
X0039503Y0090718D01*
X0041538Y0090718D01*
X0042555Y0089701D01*
X0042555Y0086648D01*
X0038485Y0088683D02*
X0036450Y0090718D01*
X0036450Y0092725D02*
X0036450Y0096796D01*
X0039503Y0098803D02*
X0039503Y0102873D01*
X0039503Y0104880D02*
X0040520Y0106915D01*
X0040520Y0107932D01*
X0039503Y0108950D01*
X0037468Y0108950D01*
X0036450Y0107932D01*
X0036450Y0105897D01*
X0037468Y0104880D01*
X0039503Y0104880D02*
X0042555Y0104880D01*
X0042555Y0108950D01*
X0040520Y0110957D02*
X0039503Y0110957D01*
X0039503Y0111975D01*
X0040520Y0111975D01*
X0040520Y0110957D01*
X0037468Y0110957D02*
X0036450Y0110957D01*
X0036450Y0111975D01*
X0037468Y0111975D01*
X0037468Y0110957D01*
X0036450Y0120073D02*
X0036450Y0124143D01*
X0036450Y0122108D02*
X0042555Y0122108D01*
X0040520Y0120073D01*
X0032655Y0120073D02*
X0032655Y0123125D01*
X0031638Y0124143D01*
X0030620Y0124143D01*
X0029603Y0123125D01*
X0029603Y0120073D01*
X0032655Y0120073D02*
X0026550Y0120073D01*
X0026550Y0123125D01*
X0027568Y0124143D01*
X0028585Y0124143D01*
X0029603Y0123125D01*
X0031638Y0126150D02*
X0027568Y0126150D01*
X0026550Y0127167D01*
X0026550Y0129203D01*
X0027568Y0130220D01*
X0027568Y0132227D02*
X0026550Y0133245D01*
X0026550Y0135280D01*
X0027568Y0136297D01*
X0028585Y0136297D01*
X0029603Y0135280D01*
X0029603Y0134262D01*
X0029603Y0135280D02*
X0030620Y0136297D01*
X0031638Y0136297D01*
X0032655Y0135280D01*
X0032655Y0133245D01*
X0031638Y0132227D01*
X0031638Y0130220D02*
X0032655Y0129203D01*
X0032655Y0127167D01*
X0031638Y0126150D01*
X0036450Y0127167D02*
X0036450Y0129203D01*
X0037468Y0130220D01*
X0041538Y0130220D01*
X0037468Y0126150D01*
X0036450Y0127167D01*
X0037468Y0126150D02*
X0041538Y0126150D01*
X0042555Y0127167D01*
X0042555Y0129203D01*
X0041538Y0130220D01*
X0042555Y0132227D02*
X0036450Y0132227D01*
X0038485Y0132227D02*
X0040520Y0135280D01*
X0041538Y0137291D02*
X0037468Y0137291D01*
X0036450Y0138309D01*
X0036450Y0140344D01*
X0037468Y0141362D01*
X0041538Y0141362D01*
X0042555Y0140344D01*
X0042555Y0138309D01*
X0041538Y0137291D01*
X0036450Y0135280D02*
X0038485Y0132227D01*
X0031638Y0138304D02*
X0032655Y0139322D01*
X0032655Y0141357D01*
X0031638Y0142374D01*
X0030620Y0142374D01*
X0026550Y0138304D01*
X0026550Y0142374D01*
X0026550Y0144382D02*
X0027568Y0144382D01*
X0031638Y0148452D01*
X0032655Y0148452D01*
X0032655Y0144382D01*
X0036450Y0143369D02*
X0042555Y0143369D01*
X0040520Y0144386D02*
X0040520Y0146421D01*
X0039503Y0147439D01*
X0036450Y0147439D01*
X0036450Y0149446D02*
X0040520Y0149446D01*
X0040520Y0150463D01*
X0039503Y0151481D01*
X0040520Y0152498D01*
X0039503Y0153516D01*
X0036450Y0153516D01*
X0036450Y0151481D02*
X0039503Y0151481D01*
X0040520Y0144386D02*
X0039503Y0143369D01*
X0030620Y0099820D02*
X0029603Y0099820D01*
X0029603Y0098803D01*
X0030620Y0098803D01*
X0030620Y0099820D01*
X0027568Y0099820D02*
X0026550Y0099820D01*
X0026550Y0098803D01*
X0027568Y0098803D01*
X0027568Y0099820D01*
X0026550Y0096796D02*
X0026550Y0092725D01*
X0026550Y0090718D02*
X0028585Y0088683D01*
X0026550Y0087666D02*
X0027568Y0086648D01*
X0031638Y0086648D01*
X0032655Y0087666D01*
X0032655Y0089701D01*
X0031638Y0090718D01*
X0027568Y0090718D01*
X0026550Y0089701D01*
X0026550Y0087666D01*
X0030620Y0092725D02*
X0032655Y0094760D01*
X0026550Y0094760D01*
X0036450Y0094760D02*
X0042555Y0094760D01*
X0040520Y0092725D01*
D12*
X0096300Y0069398D02*
X0096300Y0064398D01*
X0098800Y0061898D01*
X0103800Y0061898D01*
X0106300Y0064398D01*
X0108800Y0061898D01*
X0113800Y0061898D01*
X0116300Y0064398D01*
X0116300Y0069398D01*
X0113800Y0071898D01*
X0108800Y0071898D01*
X0106300Y0069398D01*
X0106300Y0064398D01*
X0106300Y0069398D02*
X0103800Y0071898D01*
X0098800Y0071898D01*
X0096300Y0069398D01*
X0116300Y0069398D02*
X0118800Y0071898D01*
X0123800Y0071898D01*
X0126300Y0069398D01*
X0128800Y0071898D01*
X0133800Y0071898D01*
X0136300Y0069398D01*
X0138800Y0071898D01*
X0143800Y0071898D01*
X0146300Y0069398D01*
X0146300Y0064398D01*
X0143800Y0061898D01*
X0138800Y0061898D01*
X0136300Y0064398D01*
X0133800Y0061898D01*
X0128800Y0061898D01*
X0126300Y0064398D01*
X0123800Y0061898D01*
X0118800Y0061898D01*
X0116300Y0064398D01*
X0126300Y0064398D02*
X0126300Y0069398D01*
X0136300Y0069398D02*
X0136300Y0064398D01*
X0146300Y0064398D02*
X0148800Y0061898D01*
X0153800Y0061898D01*
X0156300Y0064398D01*
X0158800Y0061898D01*
X0163800Y0061898D01*
X0166300Y0064398D01*
X0168800Y0061898D01*
X0173800Y0061898D01*
X0176300Y0064398D01*
X0176300Y0069398D01*
X0173800Y0071898D01*
X0168800Y0071898D01*
X0166300Y0069398D01*
X0166300Y0064398D01*
X0166300Y0069398D02*
X0163800Y0071898D01*
X0158800Y0071898D01*
X0156300Y0069398D01*
X0156300Y0064398D01*
X0156300Y0069398D02*
X0153800Y0071898D01*
X0148800Y0071898D01*
X0146300Y0069398D01*
X0176300Y0069398D02*
X0178800Y0071898D01*
X0183800Y0071898D01*
X0186300Y0069398D01*
X0188800Y0071898D01*
X0193800Y0071898D01*
X0196300Y0069398D01*
X0198800Y0071898D01*
X0203800Y0071898D01*
X0206300Y0069398D01*
X0206300Y0064398D01*
X0203800Y0061898D01*
X0198800Y0061898D01*
X0196300Y0064398D01*
X0193800Y0061898D01*
X0188800Y0061898D01*
X0186300Y0064398D01*
X0183800Y0061898D01*
X0178800Y0061898D01*
X0176300Y0064398D01*
X0186300Y0064398D02*
X0186300Y0069398D01*
X0196300Y0069398D02*
X0196300Y0064398D01*
X0206300Y0064398D02*
X0208800Y0061898D01*
X0213800Y0061898D01*
X0216300Y0064398D01*
X0218800Y0061898D01*
X0223800Y0061898D01*
X0226300Y0064398D01*
X0228800Y0061898D01*
X0233800Y0061898D01*
X0236300Y0064398D01*
X0236300Y0069398D01*
X0233800Y0071898D01*
X0228800Y0071898D01*
X0226300Y0069398D01*
X0226300Y0064398D01*
X0236300Y0064398D02*
X0238800Y0061898D01*
X0243800Y0061898D01*
X0246300Y0064398D01*
X0248800Y0061898D01*
X0253800Y0061898D01*
X0256300Y0064398D01*
X0258800Y0061898D01*
X0263800Y0061898D01*
X0266300Y0064398D01*
X0266300Y0069398D01*
X0263800Y0071898D01*
X0258800Y0071898D01*
X0256300Y0069398D01*
X0256300Y0064398D01*
X0256300Y0069398D02*
X0253800Y0071898D01*
X0248800Y0071898D01*
X0246300Y0069398D01*
X0246300Y0064398D01*
X0246300Y0069398D02*
X0243800Y0071898D01*
X0238800Y0071898D01*
X0236300Y0069398D01*
X0226300Y0069398D02*
X0223800Y0071898D01*
X0218800Y0071898D01*
X0216300Y0069398D01*
X0216300Y0064398D01*
X0216300Y0069398D02*
X0213800Y0071898D01*
X0208800Y0071898D01*
X0206300Y0069398D01*
X0266300Y0069398D02*
X0268800Y0071898D01*
X0273800Y0071898D01*
X0276300Y0069398D01*
X0278800Y0071898D01*
X0283800Y0071898D01*
X0286300Y0069398D01*
X0288800Y0071898D01*
X0293800Y0071898D01*
X0296300Y0069398D01*
X0296300Y0064398D01*
X0293800Y0061898D01*
X0288800Y0061898D01*
X0286300Y0064398D01*
X0283800Y0061898D01*
X0278800Y0061898D01*
X0276300Y0064398D01*
X0273800Y0061898D01*
X0268800Y0061898D01*
X0266300Y0064398D01*
X0276300Y0064398D02*
X0276300Y0069398D01*
X0286300Y0069398D02*
X0286300Y0064398D01*
X0319600Y0063232D02*
X0319600Y0062164D01*
X0320668Y0062164D01*
X0320668Y0063232D01*
X0319600Y0063232D01*
X0320668Y0065387D02*
X0319600Y0066454D01*
X0319600Y0069657D01*
X0319600Y0071832D02*
X0319600Y0073967D01*
X0319600Y0072900D02*
X0323870Y0072900D01*
X0323870Y0071832D01*
X0323870Y0069657D02*
X0323870Y0066454D01*
X0322803Y0065387D01*
X0320668Y0065387D01*
X0320668Y0059989D02*
X0323870Y0059989D01*
X0320668Y0059989D02*
X0319600Y0058921D01*
X0320668Y0057854D01*
X0319600Y0056786D01*
X0320668Y0055719D01*
X0323870Y0055719D01*
X0323870Y0053543D02*
X0320668Y0053543D01*
X0319600Y0052476D01*
X0320668Y0051408D01*
X0319600Y0050341D01*
X0320668Y0049273D01*
X0323870Y0049273D01*
X0323870Y0047098D02*
X0320668Y0047098D01*
X0319600Y0046030D01*
X0320668Y0044963D01*
X0319600Y0043895D01*
X0320668Y0042828D01*
X0323870Y0042828D01*
X0326005Y0072900D02*
X0327073Y0072900D01*
X0323870Y0076129D02*
X0319600Y0076129D01*
X0321735Y0076129D02*
X0323870Y0078264D01*
X0323870Y0079332D01*
X0322803Y0081501D02*
X0320668Y0081501D01*
X0319600Y0082568D01*
X0319600Y0085771D01*
X0320668Y0087946D02*
X0319600Y0089014D01*
X0319600Y0092216D01*
X0323870Y0092216D01*
X0323870Y0094392D02*
X0323870Y0095459D01*
X0319600Y0095459D01*
X0319600Y0094392D02*
X0319600Y0096527D01*
X0320668Y0099756D02*
X0319600Y0100824D01*
X0320668Y0099756D02*
X0324938Y0099756D01*
X0323870Y0098689D02*
X0323870Y0100824D01*
X0322803Y0102986D02*
X0322803Y0107256D01*
X0323870Y0109431D02*
X0323870Y0112634D01*
X0322803Y0113701D01*
X0320668Y0113701D01*
X0319600Y0112634D01*
X0319600Y0109431D01*
X0326005Y0109431D01*
X0316005Y0107283D02*
X0309600Y0107283D01*
X0309600Y0110485D01*
X0310668Y0111553D01*
X0312803Y0111553D01*
X0313870Y0110485D01*
X0313870Y0107283D01*
X0313870Y0113728D02*
X0310668Y0113728D01*
X0309600Y0114796D01*
X0309600Y0117998D01*
X0308532Y0117998D02*
X0307465Y0116931D01*
X0307465Y0115863D01*
X0308532Y0117998D02*
X0313870Y0117998D01*
X0319600Y0116944D02*
X0320668Y0115877D01*
X0322803Y0115877D01*
X0323870Y0116944D01*
X0323870Y0119079D01*
X0322803Y0120147D01*
X0320668Y0120147D01*
X0319600Y0119079D01*
X0319600Y0116944D01*
X0320668Y0122322D02*
X0321735Y0123390D01*
X0321735Y0126592D01*
X0322803Y0126592D02*
X0319600Y0126592D01*
X0319600Y0123390D01*
X0320668Y0122322D01*
X0323870Y0123390D02*
X0323870Y0125525D01*
X0322803Y0126592D01*
X0323870Y0128768D02*
X0319600Y0128768D01*
X0321735Y0128768D02*
X0323870Y0130903D01*
X0323870Y0131970D01*
X0322803Y0134139D02*
X0320668Y0134139D01*
X0319600Y0135206D01*
X0319600Y0138409D01*
X0326005Y0138409D01*
X0323870Y0138409D02*
X0323870Y0135206D01*
X0322803Y0134139D01*
X0313870Y0134132D02*
X0313870Y0136267D01*
X0312803Y0137335D01*
X0309600Y0137335D01*
X0309600Y0134132D01*
X0310668Y0133065D01*
X0311735Y0134132D01*
X0311735Y0137335D01*
X0310668Y0139510D02*
X0309600Y0140578D01*
X0309600Y0143780D01*
X0308532Y0143780D02*
X0313870Y0143780D01*
X0313870Y0140578D01*
X0312803Y0139510D01*
X0310668Y0139510D01*
X0307465Y0141645D02*
X0307465Y0142713D01*
X0308532Y0143780D01*
X0310668Y0145956D02*
X0309600Y0147023D01*
X0309600Y0150226D01*
X0308532Y0150226D02*
X0313870Y0150226D01*
X0313870Y0147023D01*
X0312803Y0145956D01*
X0310668Y0145956D01*
X0307465Y0148091D02*
X0307465Y0149158D01*
X0308532Y0150226D01*
X0309600Y0152401D02*
X0309600Y0154536D01*
X0309600Y0153469D02*
X0313870Y0153469D01*
X0313870Y0152401D01*
X0316005Y0153469D02*
X0317073Y0153469D01*
X0319600Y0153455D02*
X0319600Y0151320D01*
X0320668Y0150253D01*
X0322803Y0150253D01*
X0323870Y0151320D01*
X0323870Y0153455D01*
X0322803Y0154523D01*
X0321735Y0154523D01*
X0321735Y0150253D01*
X0319600Y0148077D02*
X0319600Y0144875D01*
X0320668Y0143807D01*
X0322803Y0143807D01*
X0323870Y0144875D01*
X0323870Y0148077D01*
X0326005Y0148077D02*
X0319600Y0148077D01*
X0319600Y0141652D02*
X0319600Y0140584D01*
X0320668Y0140584D01*
X0320668Y0141652D01*
X0319600Y0141652D01*
X0313870Y0130889D02*
X0308532Y0130889D01*
X0307465Y0129822D01*
X0307465Y0128754D01*
X0309600Y0127687D02*
X0309600Y0130889D01*
X0313870Y0130889D02*
X0313870Y0127687D01*
X0312803Y0126619D01*
X0310668Y0126619D01*
X0309600Y0127687D01*
X0296300Y0128398D02*
X0296300Y0123398D01*
X0293800Y0120898D01*
X0288800Y0120898D01*
X0286300Y0123398D01*
X0283800Y0120898D01*
X0278800Y0120898D01*
X0276300Y0123398D01*
X0273800Y0120898D01*
X0268800Y0120898D01*
X0266300Y0123398D01*
X0263800Y0120898D01*
X0258800Y0120898D01*
X0256300Y0123398D01*
X0253800Y0120898D01*
X0248800Y0120898D01*
X0246300Y0123398D01*
X0243800Y0120898D01*
X0238800Y0120898D01*
X0236300Y0123398D01*
X0233800Y0120898D01*
X0228800Y0120898D01*
X0226300Y0123398D01*
X0223800Y0120898D01*
X0218800Y0120898D01*
X0216300Y0123398D01*
X0213800Y0120898D01*
X0208800Y0120898D01*
X0206300Y0123398D01*
X0203800Y0120898D01*
X0198800Y0120898D01*
X0196300Y0123398D01*
X0193800Y0120898D01*
X0188800Y0120898D01*
X0186300Y0123398D01*
X0183800Y0120898D01*
X0178800Y0120898D01*
X0176300Y0123398D01*
X0173800Y0120898D01*
X0168800Y0120898D01*
X0166300Y0123398D01*
X0163800Y0120898D01*
X0158800Y0120898D01*
X0156300Y0123398D01*
X0153800Y0120898D01*
X0148800Y0120898D01*
X0146300Y0123398D01*
X0143800Y0120898D01*
X0138800Y0120898D01*
X0136300Y0123398D01*
X0133800Y0120898D01*
X0128800Y0120898D01*
X0126300Y0123398D01*
X0123800Y0120898D01*
X0118800Y0120898D01*
X0116300Y0123398D01*
X0113800Y0120898D01*
X0108800Y0120898D01*
X0106300Y0123398D01*
X0103800Y0120898D01*
X0098800Y0120898D01*
X0096300Y0123398D01*
X0096300Y0128398D01*
X0098800Y0130898D01*
X0103800Y0130898D01*
X0106300Y0128398D01*
X0108800Y0130898D01*
X0113800Y0130898D01*
X0116300Y0128398D01*
X0116300Y0123398D01*
X0116300Y0128398D02*
X0118800Y0130898D01*
X0123800Y0130898D01*
X0126300Y0128398D01*
X0128800Y0130898D01*
X0133800Y0130898D01*
X0136300Y0128398D01*
X0138800Y0130898D01*
X0143800Y0130898D01*
X0146300Y0128398D01*
X0146300Y0123398D01*
X0146300Y0128398D02*
X0148800Y0130898D01*
X0153800Y0130898D01*
X0156300Y0128398D01*
X0158800Y0130898D01*
X0163800Y0130898D01*
X0166300Y0128398D01*
X0168800Y0130898D01*
X0173800Y0130898D01*
X0176300Y0128398D01*
X0176300Y0123398D01*
X0176300Y0128398D02*
X0178800Y0130898D01*
X0183800Y0130898D01*
X0186300Y0128398D01*
X0188800Y0130898D01*
X0193800Y0130898D01*
X0196300Y0128398D01*
X0198800Y0130898D01*
X0203800Y0130898D01*
X0206300Y0128398D01*
X0206300Y0123398D01*
X0206300Y0128398D02*
X0208800Y0130898D01*
X0213800Y0130898D01*
X0216300Y0128398D01*
X0218800Y0130898D01*
X0223800Y0130898D01*
X0226300Y0128398D01*
X0228800Y0130898D01*
X0233800Y0130898D01*
X0236300Y0128398D01*
X0236300Y0123398D01*
X0226300Y0123398D02*
X0226300Y0128398D01*
X0236300Y0128398D02*
X0238800Y0130898D01*
X0243800Y0130898D01*
X0246300Y0128398D01*
X0248800Y0130898D01*
X0253800Y0130898D01*
X0256300Y0128398D01*
X0258800Y0130898D01*
X0263800Y0130898D01*
X0266300Y0128398D01*
X0266300Y0123398D01*
X0266300Y0128398D02*
X0268800Y0130898D01*
X0273800Y0130898D01*
X0276300Y0128398D01*
X0278800Y0130898D01*
X0283800Y0130898D01*
X0286300Y0128398D01*
X0288800Y0130898D01*
X0293800Y0130898D01*
X0296300Y0128398D01*
X0286300Y0128398D02*
X0286300Y0123398D01*
X0276300Y0123398D02*
X0276300Y0128398D01*
X0256300Y0128398D02*
X0256300Y0123398D01*
X0246300Y0123398D02*
X0246300Y0128398D01*
X0216300Y0128398D02*
X0216300Y0123398D01*
X0196300Y0123398D02*
X0196300Y0128398D01*
X0186300Y0128398D02*
X0186300Y0123398D01*
X0166300Y0123398D02*
X0166300Y0128398D01*
X0156300Y0128398D02*
X0156300Y0123398D01*
X0136300Y0123398D02*
X0136300Y0128398D01*
X0126300Y0128398D02*
X0126300Y0123398D01*
X0106300Y0123398D02*
X0106300Y0128398D01*
X0320668Y0087946D02*
X0323870Y0087946D01*
X0323870Y0085771D02*
X0323870Y0082568D01*
X0322803Y0081501D01*
X0326005Y0095459D02*
X0327073Y0095459D01*
D13*
X0291300Y0066898D03*
X0281300Y0066898D03*
X0271300Y0066898D03*
X0261300Y0066898D03*
X0251300Y0066898D03*
X0241300Y0066898D03*
X0231300Y0066898D03*
X0221300Y0066898D03*
X0211300Y0066898D03*
X0201300Y0066898D03*
X0191300Y0066898D03*
X0181300Y0066898D03*
X0171300Y0066898D03*
X0161300Y0066898D03*
X0151300Y0066898D03*
X0141300Y0066898D03*
X0131300Y0066898D03*
X0121300Y0066898D03*
X0111300Y0066898D03*
X0101300Y0066898D03*
X0101300Y0125898D03*
X0111300Y0125898D03*
X0121300Y0125898D03*
X0131300Y0125898D03*
X0141300Y0125898D03*
X0151300Y0125898D03*
X0161300Y0125898D03*
X0171300Y0125898D03*
X0181300Y0125898D03*
X0191300Y0125898D03*
X0201300Y0125898D03*
X0211300Y0125898D03*
X0221300Y0125898D03*
X0231300Y0125898D03*
X0241300Y0125898D03*
X0251300Y0125898D03*
X0261300Y0125898D03*
X0271300Y0125898D03*
X0281300Y0125898D03*
X0291300Y0125898D03*
M02*
