G75*
%MOIN*%
%OFA0B0*%
%FSLAX25Y25*%
%IPPOS*%
%LPD*%
%AMOC8*
5,1,8,0,0,1.08239X$1,22.5*
%
%ADD10C,0.00796*%
%ADD11C,0.05906*%
%ADD12OC8,0.04800*%
%ADD13C,0.04800*%
%ADD14OC8,0.06600*%
%ADD15C,0.00600*%
D10*
X0091300Y0006398D02*
X0091300Y0066398D01*
X0091298Y0066538D01*
X0091292Y0066678D01*
X0091282Y0066818D01*
X0091269Y0066958D01*
X0091251Y0067097D01*
X0091229Y0067236D01*
X0091204Y0067373D01*
X0091175Y0067511D01*
X0091142Y0067647D01*
X0091105Y0067782D01*
X0091064Y0067916D01*
X0091019Y0068049D01*
X0090971Y0068181D01*
X0090919Y0068311D01*
X0090864Y0068440D01*
X0090805Y0068567D01*
X0090742Y0068693D01*
X0090676Y0068817D01*
X0090607Y0068938D01*
X0090534Y0069058D01*
X0090457Y0069176D01*
X0090378Y0069291D01*
X0090295Y0069405D01*
X0090209Y0069515D01*
X0090120Y0069624D01*
X0090028Y0069730D01*
X0089933Y0069833D01*
X0089836Y0069934D01*
X0089735Y0070031D01*
X0089632Y0070126D01*
X0089526Y0070218D01*
X0089417Y0070307D01*
X0089307Y0070393D01*
X0089193Y0070476D01*
X0089078Y0070555D01*
X0088960Y0070632D01*
X0088840Y0070705D01*
X0088719Y0070774D01*
X0088595Y0070840D01*
X0088469Y0070903D01*
X0088342Y0070962D01*
X0088213Y0071017D01*
X0088083Y0071069D01*
X0087951Y0071117D01*
X0087818Y0071162D01*
X0087684Y0071203D01*
X0087549Y0071240D01*
X0087413Y0071273D01*
X0087275Y0071302D01*
X0087138Y0071327D01*
X0086999Y0071349D01*
X0086860Y0071367D01*
X0086720Y0071380D01*
X0086580Y0071390D01*
X0086440Y0071396D01*
X0086300Y0071398D01*
X0016300Y0071398D01*
X0016160Y0071400D01*
X0016020Y0071406D01*
X0015880Y0071416D01*
X0015740Y0071429D01*
X0015601Y0071447D01*
X0015462Y0071469D01*
X0015325Y0071494D01*
X0015187Y0071523D01*
X0015051Y0071556D01*
X0014916Y0071593D01*
X0014782Y0071634D01*
X0014649Y0071679D01*
X0014517Y0071727D01*
X0014387Y0071779D01*
X0014258Y0071834D01*
X0014131Y0071893D01*
X0014005Y0071956D01*
X0013881Y0072022D01*
X0013760Y0072091D01*
X0013640Y0072164D01*
X0013522Y0072241D01*
X0013407Y0072320D01*
X0013293Y0072403D01*
X0013183Y0072489D01*
X0013074Y0072578D01*
X0012968Y0072670D01*
X0012865Y0072765D01*
X0012764Y0072862D01*
X0012667Y0072963D01*
X0012572Y0073066D01*
X0012480Y0073172D01*
X0012391Y0073281D01*
X0012305Y0073391D01*
X0012222Y0073505D01*
X0012143Y0073620D01*
X0012066Y0073738D01*
X0011993Y0073858D01*
X0011924Y0073979D01*
X0011858Y0074103D01*
X0011795Y0074229D01*
X0011736Y0074356D01*
X0011681Y0074485D01*
X0011629Y0074615D01*
X0011581Y0074747D01*
X0011536Y0074880D01*
X0011495Y0075014D01*
X0011458Y0075149D01*
X0011425Y0075285D01*
X0011396Y0075423D01*
X0011371Y0075560D01*
X0011349Y0075699D01*
X0011331Y0075838D01*
X0011318Y0075978D01*
X0011308Y0076118D01*
X0011302Y0076258D01*
X0011300Y0076398D01*
X0011300Y0166398D01*
X0011302Y0166538D01*
X0011308Y0166678D01*
X0011318Y0166818D01*
X0011331Y0166958D01*
X0011349Y0167097D01*
X0011371Y0167236D01*
X0011396Y0167373D01*
X0011425Y0167511D01*
X0011458Y0167647D01*
X0011495Y0167782D01*
X0011536Y0167916D01*
X0011581Y0168049D01*
X0011629Y0168181D01*
X0011681Y0168311D01*
X0011736Y0168440D01*
X0011795Y0168567D01*
X0011858Y0168693D01*
X0011924Y0168817D01*
X0011993Y0168938D01*
X0012066Y0169058D01*
X0012143Y0169176D01*
X0012222Y0169291D01*
X0012305Y0169405D01*
X0012391Y0169515D01*
X0012480Y0169624D01*
X0012572Y0169730D01*
X0012667Y0169833D01*
X0012764Y0169934D01*
X0012865Y0170031D01*
X0012968Y0170126D01*
X0013074Y0170218D01*
X0013183Y0170307D01*
X0013293Y0170393D01*
X0013407Y0170476D01*
X0013522Y0170555D01*
X0013640Y0170632D01*
X0013760Y0170705D01*
X0013881Y0170774D01*
X0014005Y0170840D01*
X0014131Y0170903D01*
X0014258Y0170962D01*
X0014387Y0171017D01*
X0014517Y0171069D01*
X0014649Y0171117D01*
X0014782Y0171162D01*
X0014916Y0171203D01*
X0015051Y0171240D01*
X0015187Y0171273D01*
X0015325Y0171302D01*
X0015462Y0171327D01*
X0015601Y0171349D01*
X0015740Y0171367D01*
X0015880Y0171380D01*
X0016020Y0171390D01*
X0016160Y0171396D01*
X0016300Y0171398D01*
X0331300Y0171398D01*
X0331440Y0171396D01*
X0331580Y0171390D01*
X0331720Y0171380D01*
X0331860Y0171367D01*
X0331999Y0171349D01*
X0332138Y0171327D01*
X0332275Y0171302D01*
X0332413Y0171273D01*
X0332549Y0171240D01*
X0332684Y0171203D01*
X0332818Y0171162D01*
X0332951Y0171117D01*
X0333083Y0171069D01*
X0333213Y0171017D01*
X0333342Y0170962D01*
X0333469Y0170903D01*
X0333595Y0170840D01*
X0333719Y0170774D01*
X0333840Y0170705D01*
X0333960Y0170632D01*
X0334078Y0170555D01*
X0334193Y0170476D01*
X0334307Y0170393D01*
X0334417Y0170307D01*
X0334526Y0170218D01*
X0334632Y0170126D01*
X0334735Y0170031D01*
X0334836Y0169934D01*
X0334933Y0169833D01*
X0335028Y0169730D01*
X0335120Y0169624D01*
X0335209Y0169515D01*
X0335295Y0169405D01*
X0335378Y0169291D01*
X0335457Y0169176D01*
X0335534Y0169058D01*
X0335607Y0168938D01*
X0335676Y0168817D01*
X0335742Y0168693D01*
X0335805Y0168567D01*
X0335864Y0168440D01*
X0335919Y0168311D01*
X0335971Y0168181D01*
X0336019Y0168049D01*
X0336064Y0167916D01*
X0336105Y0167782D01*
X0336142Y0167647D01*
X0336175Y0167511D01*
X0336204Y0167373D01*
X0336229Y0167236D01*
X0336251Y0167097D01*
X0336269Y0166958D01*
X0336282Y0166818D01*
X0336292Y0166678D01*
X0336298Y0166538D01*
X0336300Y0166398D01*
X0336300Y0006398D01*
X0336298Y0006258D01*
X0336292Y0006118D01*
X0336282Y0005978D01*
X0336269Y0005838D01*
X0336251Y0005699D01*
X0336229Y0005560D01*
X0336204Y0005423D01*
X0336175Y0005285D01*
X0336142Y0005149D01*
X0336105Y0005014D01*
X0336064Y0004880D01*
X0336019Y0004747D01*
X0335971Y0004615D01*
X0335919Y0004485D01*
X0335864Y0004356D01*
X0335805Y0004229D01*
X0335742Y0004103D01*
X0335676Y0003979D01*
X0335607Y0003858D01*
X0335534Y0003738D01*
X0335457Y0003620D01*
X0335378Y0003505D01*
X0335295Y0003391D01*
X0335209Y0003281D01*
X0335120Y0003172D01*
X0335028Y0003066D01*
X0334933Y0002963D01*
X0334836Y0002862D01*
X0334735Y0002765D01*
X0334632Y0002670D01*
X0334526Y0002578D01*
X0334417Y0002489D01*
X0334307Y0002403D01*
X0334193Y0002320D01*
X0334078Y0002241D01*
X0333960Y0002164D01*
X0333840Y0002091D01*
X0333719Y0002022D01*
X0333595Y0001956D01*
X0333469Y0001893D01*
X0333342Y0001834D01*
X0333213Y0001779D01*
X0333083Y0001727D01*
X0332951Y0001679D01*
X0332818Y0001634D01*
X0332684Y0001593D01*
X0332549Y0001556D01*
X0332413Y0001523D01*
X0332275Y0001494D01*
X0332138Y0001469D01*
X0331999Y0001447D01*
X0331860Y0001429D01*
X0331720Y0001416D01*
X0331580Y0001406D01*
X0331440Y0001400D01*
X0331300Y0001398D01*
X0096300Y0001398D01*
X0096160Y0001400D01*
X0096020Y0001406D01*
X0095880Y0001416D01*
X0095740Y0001429D01*
X0095601Y0001447D01*
X0095462Y0001469D01*
X0095325Y0001494D01*
X0095187Y0001523D01*
X0095051Y0001556D01*
X0094916Y0001593D01*
X0094782Y0001634D01*
X0094649Y0001679D01*
X0094517Y0001727D01*
X0094387Y0001779D01*
X0094258Y0001834D01*
X0094131Y0001893D01*
X0094005Y0001956D01*
X0093881Y0002022D01*
X0093760Y0002091D01*
X0093640Y0002164D01*
X0093522Y0002241D01*
X0093407Y0002320D01*
X0093293Y0002403D01*
X0093183Y0002489D01*
X0093074Y0002578D01*
X0092968Y0002670D01*
X0092865Y0002765D01*
X0092764Y0002862D01*
X0092667Y0002963D01*
X0092572Y0003066D01*
X0092480Y0003172D01*
X0092391Y0003281D01*
X0092305Y0003391D01*
X0092222Y0003505D01*
X0092143Y0003620D01*
X0092066Y0003738D01*
X0091993Y0003858D01*
X0091924Y0003979D01*
X0091858Y0004103D01*
X0091795Y0004229D01*
X0091736Y0004356D01*
X0091681Y0004485D01*
X0091629Y0004615D01*
X0091581Y0004747D01*
X0091536Y0004880D01*
X0091495Y0005014D01*
X0091458Y0005149D01*
X0091425Y0005285D01*
X0091396Y0005423D01*
X0091371Y0005560D01*
X0091349Y0005699D01*
X0091331Y0005838D01*
X0091318Y0005978D01*
X0091308Y0006118D01*
X0091302Y0006258D01*
X0091300Y0006398D01*
D11*
X0101300Y0063938D02*
X0101300Y0069843D01*
X0111300Y0069843D02*
X0111300Y0063938D01*
X0121300Y0063938D02*
X0121300Y0069843D01*
X0131300Y0069843D02*
X0131300Y0063938D01*
X0141300Y0063938D02*
X0141300Y0069843D01*
X0151300Y0069843D02*
X0151300Y0063938D01*
X0161300Y0063938D02*
X0161300Y0069843D01*
X0171300Y0069843D02*
X0171300Y0063938D01*
X0181300Y0063938D02*
X0181300Y0069843D01*
X0191300Y0069843D02*
X0191300Y0063938D01*
X0201300Y0063938D02*
X0201300Y0069843D01*
X0211300Y0069843D02*
X0211300Y0063938D01*
X0221300Y0063938D02*
X0221300Y0069843D01*
X0231300Y0069843D02*
X0231300Y0063938D01*
X0241300Y0063938D02*
X0241300Y0069843D01*
X0251300Y0069843D02*
X0251300Y0063938D01*
X0261300Y0063938D02*
X0261300Y0069843D01*
X0271300Y0069843D02*
X0271300Y0063938D01*
X0281300Y0063938D02*
X0281300Y0069843D01*
X0291300Y0069843D02*
X0291300Y0063938D01*
X0283800Y0088445D02*
X0283800Y0094351D01*
X0273800Y0094351D02*
X0273800Y0088445D01*
X0263800Y0088445D02*
X0263800Y0094351D01*
X0253800Y0094351D02*
X0253800Y0088445D01*
X0243800Y0088445D02*
X0243800Y0094351D01*
X0233800Y0094351D02*
X0233800Y0088445D01*
X0223800Y0088445D02*
X0223800Y0094351D01*
X0213800Y0094351D02*
X0213800Y0088445D01*
X0203800Y0088445D02*
X0203800Y0094351D01*
X0193800Y0094351D02*
X0193800Y0088445D01*
X0183800Y0088445D02*
X0183800Y0094351D01*
X0173800Y0094351D02*
X0173800Y0088445D01*
X0163800Y0088445D02*
X0163800Y0094351D01*
X0153800Y0094351D02*
X0153800Y0088445D01*
X0143800Y0088445D02*
X0143800Y0094351D01*
X0133800Y0094351D02*
X0133800Y0088445D01*
X0123800Y0088445D02*
X0123800Y0094351D01*
X0113800Y0094351D02*
X0113800Y0088445D01*
X0103800Y0088445D02*
X0103800Y0094351D01*
X0093800Y0094351D02*
X0093800Y0088445D01*
X0083800Y0088445D02*
X0083800Y0094351D01*
X0073800Y0094351D02*
X0073800Y0088445D01*
X0063800Y0088445D02*
X0063800Y0094351D01*
X0053800Y0094351D02*
X0053800Y0088445D01*
X0101300Y0122953D02*
X0101300Y0128859D01*
X0111300Y0128859D02*
X0111300Y0122953D01*
X0121300Y0122953D02*
X0121300Y0128859D01*
X0131300Y0128859D02*
X0131300Y0122953D01*
X0141300Y0122953D02*
X0141300Y0128859D01*
X0151300Y0128859D02*
X0151300Y0122953D01*
X0161300Y0122953D02*
X0161300Y0128859D01*
X0171300Y0128859D02*
X0171300Y0122953D01*
X0181300Y0122953D02*
X0181300Y0128859D01*
X0191300Y0128859D02*
X0191300Y0122953D01*
X0201300Y0122953D02*
X0201300Y0128859D01*
X0211300Y0128859D02*
X0211300Y0122953D01*
X0221300Y0122953D02*
X0221300Y0128859D01*
X0231300Y0128859D02*
X0231300Y0122953D01*
X0241300Y0122953D02*
X0241300Y0128859D01*
X0251300Y0128859D02*
X0251300Y0122953D01*
X0261300Y0122953D02*
X0261300Y0128859D01*
X0271300Y0128859D02*
X0271300Y0122953D01*
X0281300Y0122953D02*
X0281300Y0128859D01*
X0291300Y0128859D02*
X0291300Y0122953D01*
X0283800Y0148445D02*
X0283800Y0154351D01*
X0273800Y0154351D02*
X0273800Y0148445D01*
X0263800Y0148445D02*
X0263800Y0154351D01*
X0253800Y0154351D02*
X0253800Y0148445D01*
X0243800Y0148445D02*
X0243800Y0154351D01*
X0233800Y0154351D02*
X0233800Y0148445D01*
X0223800Y0148445D02*
X0223800Y0154351D01*
X0213800Y0154351D02*
X0213800Y0148445D01*
X0203800Y0148445D02*
X0203800Y0154351D01*
X0193800Y0154351D02*
X0193800Y0148445D01*
X0183800Y0148445D02*
X0183800Y0154351D01*
X0173800Y0154351D02*
X0173800Y0148445D01*
X0163800Y0148445D02*
X0163800Y0154351D01*
X0153800Y0154351D02*
X0153800Y0148445D01*
X0143800Y0148445D02*
X0143800Y0154351D01*
X0133800Y0154351D02*
X0133800Y0148445D01*
X0123800Y0148445D02*
X0123800Y0154351D01*
X0113800Y0154351D02*
X0113800Y0148445D01*
X0103800Y0148445D02*
X0103800Y0154351D01*
X0093800Y0154351D02*
X0093800Y0148445D01*
X0083800Y0148445D02*
X0083800Y0154351D01*
X0073800Y0154351D02*
X0073800Y0148445D01*
X0063800Y0148445D02*
X0063800Y0154351D01*
X0053800Y0154351D02*
X0053800Y0148445D01*
D12*
X0246300Y0051398D03*
X0261300Y0051398D03*
X0276300Y0051398D03*
X0291300Y0051398D03*
X0306300Y0051398D03*
X0306300Y0011398D03*
X0291300Y0011398D03*
X0276300Y0011398D03*
X0261300Y0011398D03*
X0246300Y0011398D03*
D13*
X0228700Y0021398D02*
X0223900Y0021398D01*
X0223900Y0031398D02*
X0228700Y0031398D01*
X0228700Y0041398D02*
X0223900Y0041398D01*
X0196300Y0043998D02*
X0196300Y0048798D01*
X0186300Y0048798D02*
X0186300Y0043998D01*
X0176300Y0043998D02*
X0176300Y0048798D01*
X0176300Y0018798D02*
X0176300Y0013998D01*
X0186300Y0013998D02*
X0186300Y0018798D01*
X0196300Y0018798D02*
X0196300Y0013998D01*
D14*
X0115237Y0021398D03*
X0105237Y0021398D03*
X0105237Y0031398D03*
X0115237Y0031398D03*
X0115237Y0041398D03*
X0105237Y0041398D03*
D15*
X0102190Y0038506D02*
X0093998Y0038506D01*
X0093998Y0039104D02*
X0101591Y0039104D01*
X0101037Y0039659D02*
X0103497Y0037198D01*
X0106977Y0037198D01*
X0108850Y0039072D01*
X0108850Y0033725D01*
X0106977Y0035598D01*
X0103497Y0035598D01*
X0101037Y0033138D01*
X0101037Y0029659D01*
X0103497Y0027198D01*
X0106977Y0027198D01*
X0108850Y0029072D01*
X0108850Y0025842D01*
X0108525Y0025517D01*
X0107791Y0024784D01*
X0106977Y0025598D01*
X0103497Y0025598D01*
X0101037Y0023138D01*
X0101037Y0019659D01*
X0103497Y0017198D01*
X0106977Y0017198D01*
X0107227Y0017449D01*
X0108801Y0015875D01*
X0151184Y0015875D01*
X0172206Y0036898D01*
X0195103Y0036898D01*
X0178985Y0020780D01*
X0178169Y0021596D01*
X0176956Y0022098D01*
X0175644Y0022098D01*
X0174431Y0021596D01*
X0173502Y0020668D01*
X0173000Y0019455D01*
X0173000Y0013342D01*
X0173502Y0012129D01*
X0174431Y0011201D01*
X0175644Y0010698D01*
X0176956Y0010698D01*
X0178169Y0011201D01*
X0179098Y0012129D01*
X0179600Y0013342D01*
X0179600Y0018001D01*
X0196622Y0035023D01*
X0258321Y0035023D01*
X0259024Y0035726D01*
X0273165Y0049866D01*
X0274933Y0048098D01*
X0277667Y0048098D01*
X0279600Y0050031D01*
X0279600Y0052765D01*
X0277667Y0054698D01*
X0274933Y0054698D01*
X0273000Y0052765D01*
X0273000Y0052598D01*
X0272503Y0052598D01*
X0257327Y0037423D01*
X0224022Y0037423D01*
X0224697Y0038098D01*
X0229356Y0038098D01*
X0230569Y0038601D01*
X0231498Y0039529D01*
X0232000Y0040742D01*
X0232000Y0042055D01*
X0231498Y0043268D01*
X0230569Y0044196D01*
X0229356Y0044698D01*
X0223244Y0044698D01*
X0222031Y0044196D01*
X0221102Y0043268D01*
X0220600Y0042055D01*
X0220600Y0040742D01*
X0221102Y0039529D01*
X0221334Y0039298D01*
X0171212Y0039298D01*
X0170509Y0038595D01*
X0150190Y0018275D01*
X0118053Y0018275D01*
X0119437Y0019659D01*
X0119437Y0020198D01*
X0126797Y0020198D01*
X0127500Y0020901D01*
X0161782Y0055184D01*
X0285532Y0055184D01*
X0290463Y0060114D01*
X0290534Y0060085D01*
X0292066Y0060085D01*
X0293482Y0060671D01*
X0294566Y0061755D01*
X0295153Y0063171D01*
X0295153Y0070609D01*
X0294566Y0072026D01*
X0293482Y0073109D01*
X0292066Y0073696D01*
X0290534Y0073696D01*
X0289118Y0073109D01*
X0288034Y0072026D01*
X0287500Y0070737D01*
X0287500Y0076895D01*
X0286797Y0077598D01*
X0285000Y0079395D01*
X0285000Y0084772D01*
X0285982Y0085179D01*
X0287066Y0086263D01*
X0287653Y0087679D01*
X0287653Y0095117D01*
X0287066Y0096533D01*
X0285982Y0097617D01*
X0284566Y0098204D01*
X0283034Y0098204D01*
X0281618Y0097617D01*
X0280534Y0096533D01*
X0279947Y0095117D01*
X0279947Y0087679D01*
X0280534Y0086263D01*
X0281618Y0085179D01*
X0282600Y0084772D01*
X0282600Y0078401D01*
X0285100Y0075901D01*
X0285100Y0070737D01*
X0284566Y0072026D01*
X0283482Y0073109D01*
X0282066Y0073696D01*
X0280534Y0073696D01*
X0279118Y0073109D01*
X0278034Y0072026D01*
X0277983Y0071904D01*
X0265081Y0084806D01*
X0265982Y0085179D01*
X0267066Y0086263D01*
X0267653Y0087679D01*
X0267653Y0095117D01*
X0267066Y0096533D01*
X0265982Y0097617D01*
X0264566Y0098204D01*
X0263034Y0098204D01*
X0261618Y0097617D01*
X0260534Y0096533D01*
X0260483Y0096412D01*
X0254954Y0101942D01*
X0254251Y0102645D01*
X0214410Y0102645D01*
X0208660Y0096895D01*
X0207957Y0096192D01*
X0207957Y0086473D01*
X0202714Y0081230D01*
X0179435Y0081230D01*
X0171901Y0073696D01*
X0170534Y0073696D01*
X0169118Y0073109D01*
X0168034Y0072026D01*
X0167447Y0070609D01*
X0167447Y0063171D01*
X0168034Y0061755D01*
X0169118Y0060671D01*
X0170501Y0060098D01*
X0165547Y0060098D01*
X0164228Y0061417D01*
X0164566Y0061755D01*
X0165153Y0063171D01*
X0165153Y0070609D01*
X0164566Y0072026D01*
X0163482Y0073109D01*
X0162066Y0073696D01*
X0160534Y0073696D01*
X0159878Y0073424D01*
X0160663Y0074209D01*
X0171465Y0074209D01*
X0172168Y0074912D01*
X0180385Y0083129D01*
X0197228Y0083129D01*
X0197931Y0083832D01*
X0200483Y0086385D01*
X0200534Y0086263D01*
X0201618Y0085179D01*
X0203034Y0084593D01*
X0204566Y0084593D01*
X0205982Y0085179D01*
X0207066Y0086263D01*
X0207653Y0087679D01*
X0207653Y0095117D01*
X0207066Y0096533D01*
X0205982Y0097617D01*
X0204566Y0098204D01*
X0203034Y0098204D01*
X0201618Y0097617D01*
X0200534Y0096533D01*
X0199947Y0095117D01*
X0199947Y0089243D01*
X0197849Y0087144D01*
X0197948Y0087450D01*
X0198053Y0088111D01*
X0198053Y0091098D01*
X0194100Y0091098D01*
X0194100Y0091698D01*
X0198053Y0091698D01*
X0198053Y0094686D01*
X0197948Y0095347D01*
X0197741Y0095983D01*
X0197437Y0096580D01*
X0197044Y0097121D01*
X0196570Y0097595D01*
X0196029Y0097988D01*
X0195432Y0098292D01*
X0194796Y0098499D01*
X0194135Y0098604D01*
X0194100Y0098604D01*
X0194100Y0091698D01*
X0193500Y0091698D01*
X0193500Y0091098D01*
X0189547Y0091098D01*
X0189547Y0088111D01*
X0189652Y0087450D01*
X0189859Y0086813D01*
X0190163Y0086217D01*
X0190556Y0085675D01*
X0190702Y0085529D01*
X0186332Y0085529D01*
X0187066Y0086263D01*
X0187653Y0087679D01*
X0187653Y0095117D01*
X0187066Y0096533D01*
X0185982Y0097617D01*
X0184566Y0098204D01*
X0183034Y0098204D01*
X0181786Y0097687D01*
X0187584Y0103485D01*
X0270576Y0103485D01*
X0287983Y0120892D01*
X0288034Y0120771D01*
X0289118Y0119687D01*
X0290534Y0119101D01*
X0292066Y0119101D01*
X0293482Y0119687D01*
X0294566Y0120771D01*
X0295153Y0122187D01*
X0295153Y0129625D01*
X0294566Y0131041D01*
X0293482Y0132125D01*
X0292066Y0132712D01*
X0290534Y0132712D01*
X0289118Y0132125D01*
X0288034Y0131041D01*
X0287447Y0129625D01*
X0287447Y0123750D01*
X0284636Y0120939D01*
X0285153Y0122187D01*
X0285153Y0129625D01*
X0284566Y0131041D01*
X0283482Y0132125D01*
X0282066Y0132712D01*
X0280534Y0132712D01*
X0279118Y0132125D01*
X0278034Y0131041D01*
X0277447Y0129625D01*
X0277447Y0123750D01*
X0274636Y0120939D01*
X0275153Y0122187D01*
X0275153Y0129625D01*
X0274566Y0131041D01*
X0273482Y0132125D01*
X0272066Y0132712D01*
X0270534Y0132712D01*
X0269118Y0132125D01*
X0268034Y0131041D01*
X0267447Y0129625D01*
X0267447Y0123750D01*
X0264636Y0120939D01*
X0265153Y0122187D01*
X0265153Y0129625D01*
X0264566Y0131041D01*
X0263482Y0132125D01*
X0262066Y0132712D01*
X0260534Y0132712D01*
X0259118Y0132125D01*
X0258034Y0131041D01*
X0257447Y0129625D01*
X0257447Y0123750D01*
X0254636Y0120939D01*
X0255153Y0122187D01*
X0255153Y0129625D01*
X0254566Y0131041D01*
X0253482Y0132125D01*
X0252066Y0132712D01*
X0250534Y0132712D01*
X0249118Y0132125D01*
X0248034Y0131041D01*
X0247447Y0129625D01*
X0247447Y0123750D01*
X0244636Y0120939D01*
X0245153Y0122187D01*
X0245153Y0129625D01*
X0244566Y0131041D01*
X0243482Y0132125D01*
X0242066Y0132712D01*
X0240534Y0132712D01*
X0239118Y0132125D01*
X0238034Y0131041D01*
X0237447Y0129625D01*
X0237447Y0123750D01*
X0234636Y0120939D01*
X0235153Y0122187D01*
X0235153Y0129625D01*
X0234566Y0131041D01*
X0233482Y0132125D01*
X0232066Y0132712D01*
X0230534Y0132712D01*
X0229118Y0132125D01*
X0228034Y0131041D01*
X0227447Y0129625D01*
X0227447Y0123750D01*
X0224636Y0120939D01*
X0225153Y0122187D01*
X0225153Y0129625D01*
X0224566Y0131041D01*
X0223482Y0132125D01*
X0222066Y0132712D01*
X0221134Y0132712D01*
X0225890Y0137467D01*
X0271566Y0137467D01*
X0272269Y0138170D01*
X0280483Y0146385D01*
X0280534Y0146263D01*
X0281618Y0145179D01*
X0283034Y0144593D01*
X0284566Y0144593D01*
X0285982Y0145179D01*
X0287066Y0146263D01*
X0287653Y0147679D01*
X0287653Y0155117D01*
X0287066Y0156533D01*
X0285982Y0157617D01*
X0284566Y0158204D01*
X0283034Y0158204D01*
X0281618Y0157617D01*
X0280534Y0156533D01*
X0279947Y0155117D01*
X0279947Y0149243D01*
X0277136Y0146431D01*
X0277653Y0147679D01*
X0277653Y0155117D01*
X0277066Y0156533D01*
X0275982Y0157617D01*
X0274566Y0158204D01*
X0273034Y0158204D01*
X0271618Y0157617D01*
X0270534Y0156533D01*
X0269947Y0155117D01*
X0269947Y0147679D01*
X0270534Y0146263D01*
X0271618Y0145179D01*
X0273034Y0144593D01*
X0274566Y0144593D01*
X0275814Y0145110D01*
X0270572Y0139867D01*
X0224895Y0139867D01*
X0216228Y0131199D01*
X0215525Y0130496D01*
X0215525Y0123425D01*
X0215153Y0123053D01*
X0215153Y0129625D01*
X0214566Y0131041D01*
X0213482Y0132125D01*
X0212066Y0132712D01*
X0210534Y0132712D01*
X0209118Y0132125D01*
X0208034Y0131041D01*
X0207447Y0129625D01*
X0207447Y0123750D01*
X0205349Y0121652D01*
X0205448Y0121957D01*
X0205553Y0122619D01*
X0205553Y0125606D01*
X0201600Y0125606D01*
X0201600Y0126206D01*
X0205553Y0126206D01*
X0205553Y0129194D01*
X0205448Y0129855D01*
X0205241Y0130491D01*
X0204937Y0131088D01*
X0204544Y0131629D01*
X0204070Y0132103D01*
X0203529Y0132496D01*
X0202932Y0132800D01*
X0202296Y0133007D01*
X0201635Y0133112D01*
X0201600Y0133112D01*
X0201600Y0126206D01*
X0201000Y0126206D01*
X0201000Y0125606D01*
X0197047Y0125606D01*
X0197047Y0122619D01*
X0197152Y0121957D01*
X0197359Y0121321D01*
X0197663Y0120724D01*
X0198056Y0120183D01*
X0198530Y0119710D01*
X0199071Y0119316D01*
X0199524Y0119085D01*
X0176176Y0119085D01*
X0177983Y0120892D01*
X0178034Y0120771D01*
X0179118Y0119687D01*
X0180534Y0119101D01*
X0182066Y0119101D01*
X0183482Y0119687D01*
X0184566Y0120771D01*
X0185153Y0122187D01*
X0185153Y0129625D01*
X0184636Y0130873D01*
X0187447Y0128062D01*
X0187447Y0122187D01*
X0188034Y0120771D01*
X0189118Y0119687D01*
X0190534Y0119101D01*
X0192066Y0119101D01*
X0193482Y0119687D01*
X0194566Y0120771D01*
X0195153Y0122187D01*
X0195153Y0129625D01*
X0194566Y0131041D01*
X0193482Y0132125D01*
X0192066Y0132712D01*
X0190534Y0132712D01*
X0189118Y0132125D01*
X0188034Y0131041D01*
X0187983Y0130920D01*
X0174310Y0144593D01*
X0174566Y0144593D01*
X0175982Y0145179D01*
X0177066Y0146263D01*
X0177653Y0147679D01*
X0177653Y0155117D01*
X0177066Y0156533D01*
X0175982Y0157617D01*
X0174566Y0158204D01*
X0173034Y0158204D01*
X0171618Y0157617D01*
X0170534Y0156533D01*
X0169947Y0155117D01*
X0169947Y0147679D01*
X0170534Y0146263D01*
X0171196Y0145601D01*
X0166404Y0145601D01*
X0167066Y0146263D01*
X0167653Y0147679D01*
X0167653Y0155117D01*
X0167066Y0156533D01*
X0165982Y0157617D01*
X0164566Y0158204D01*
X0163034Y0158204D01*
X0161618Y0157617D01*
X0160534Y0156533D01*
X0159947Y0155117D01*
X0159947Y0147679D01*
X0160534Y0146263D01*
X0161196Y0145601D01*
X0156404Y0145601D01*
X0157066Y0146263D01*
X0157653Y0147679D01*
X0157653Y0155117D01*
X0157066Y0156533D01*
X0155982Y0157617D01*
X0154566Y0158204D01*
X0153034Y0158204D01*
X0151618Y0157617D01*
X0150534Y0156533D01*
X0150205Y0155740D01*
X0149971Y0155975D01*
X0145747Y0160198D01*
X0235803Y0160198D01*
X0240222Y0155780D01*
X0239947Y0155117D01*
X0239947Y0147679D01*
X0240534Y0146263D01*
X0241618Y0145179D01*
X0243034Y0144593D01*
X0244566Y0144593D01*
X0245982Y0145179D01*
X0247066Y0146263D01*
X0247653Y0147679D01*
X0247653Y0155117D01*
X0247066Y0156533D01*
X0245982Y0157617D01*
X0244566Y0158204D01*
X0243034Y0158204D01*
X0241731Y0157664D01*
X0237500Y0161895D01*
X0236797Y0162598D01*
X0092053Y0162598D01*
X0088303Y0158848D01*
X0087600Y0158145D01*
X0087600Y0155245D01*
X0087066Y0156533D01*
X0085982Y0157617D01*
X0084566Y0158204D01*
X0083034Y0158204D01*
X0081618Y0157617D01*
X0080534Y0156533D01*
X0079947Y0155117D01*
X0079947Y0147679D01*
X0080534Y0146263D01*
X0081618Y0145179D01*
X0083034Y0144593D01*
X0084566Y0144593D01*
X0085982Y0145179D01*
X0087066Y0146263D01*
X0087600Y0147552D01*
X0087600Y0095245D01*
X0087066Y0096533D01*
X0085982Y0097617D01*
X0084566Y0098204D01*
X0083034Y0098204D01*
X0081618Y0097617D01*
X0080534Y0096533D01*
X0079947Y0095117D01*
X0079947Y0087679D01*
X0080534Y0086263D01*
X0081618Y0085179D01*
X0083034Y0084593D01*
X0084566Y0084593D01*
X0085982Y0085179D01*
X0087066Y0086263D01*
X0087600Y0087552D01*
X0087600Y0083401D01*
X0092600Y0078401D01*
X0093303Y0077698D01*
X0100803Y0077698D01*
X0105100Y0073401D01*
X0105100Y0070737D01*
X0104566Y0072026D01*
X0103482Y0073109D01*
X0102066Y0073696D01*
X0100534Y0073696D01*
X0099118Y0073109D01*
X0098034Y0072026D01*
X0097447Y0070609D01*
X0097447Y0063171D01*
X0098034Y0061755D01*
X0099118Y0060671D01*
X0100100Y0060264D01*
X0100100Y0054651D01*
X0108850Y0045901D01*
X0108850Y0043725D01*
X0106977Y0045598D01*
X0103497Y0045598D01*
X0101037Y0043138D01*
X0101037Y0039659D01*
X0101037Y0039703D02*
X0093998Y0039703D01*
X0093998Y0040301D02*
X0101037Y0040301D01*
X0101037Y0040900D02*
X0093998Y0040900D01*
X0093998Y0041498D02*
X0101037Y0041498D01*
X0101037Y0042097D02*
X0093998Y0042097D01*
X0093998Y0042696D02*
X0101037Y0042696D01*
X0101193Y0043294D02*
X0093998Y0043294D01*
X0093998Y0043893D02*
X0101792Y0043893D01*
X0102390Y0044491D02*
X0093998Y0044491D01*
X0093998Y0045090D02*
X0102989Y0045090D01*
X0107485Y0045090D02*
X0108850Y0045090D01*
X0108850Y0045688D02*
X0093998Y0045688D01*
X0093998Y0046287D02*
X0108465Y0046287D01*
X0107866Y0046885D02*
X0093998Y0046885D01*
X0093998Y0047484D02*
X0107268Y0047484D01*
X0106669Y0048082D02*
X0093998Y0048082D01*
X0093998Y0048681D02*
X0106071Y0048681D01*
X0105472Y0049279D02*
X0093998Y0049279D01*
X0093998Y0049878D02*
X0104874Y0049878D01*
X0104275Y0050476D02*
X0093998Y0050476D01*
X0093998Y0051075D02*
X0103677Y0051075D01*
X0103078Y0051673D02*
X0093998Y0051673D01*
X0093998Y0052272D02*
X0102479Y0052272D01*
X0101881Y0052870D02*
X0093998Y0052870D01*
X0093998Y0053469D02*
X0101282Y0053469D01*
X0100684Y0054067D02*
X0093998Y0054067D01*
X0093998Y0054666D02*
X0100100Y0054666D01*
X0100100Y0055264D02*
X0093998Y0055264D01*
X0093998Y0055863D02*
X0100100Y0055863D01*
X0100100Y0056461D02*
X0093998Y0056461D01*
X0093998Y0057060D02*
X0100100Y0057060D01*
X0100100Y0057658D02*
X0093998Y0057658D01*
X0093998Y0058257D02*
X0100100Y0058257D01*
X0100100Y0058855D02*
X0093998Y0058855D01*
X0093998Y0059454D02*
X0100100Y0059454D01*
X0100100Y0060052D02*
X0093998Y0060052D01*
X0093998Y0060651D02*
X0099167Y0060651D01*
X0098540Y0061249D02*
X0093998Y0061249D01*
X0093998Y0061848D02*
X0097995Y0061848D01*
X0097747Y0062446D02*
X0093998Y0062446D01*
X0093998Y0063045D02*
X0097500Y0063045D01*
X0097447Y0063643D02*
X0093998Y0063643D01*
X0093998Y0064242D02*
X0097447Y0064242D01*
X0097447Y0064840D02*
X0093998Y0064840D01*
X0093998Y0065439D02*
X0097447Y0065439D01*
X0097447Y0066037D02*
X0093998Y0066037D01*
X0093998Y0066636D02*
X0097447Y0066636D01*
X0097447Y0067234D02*
X0093998Y0067234D01*
X0093998Y0067833D02*
X0097447Y0067833D01*
X0097447Y0068431D02*
X0093790Y0068431D01*
X0093998Y0067930D02*
X0092826Y0070759D01*
X0090661Y0072924D01*
X0090661Y0072924D01*
X0087831Y0074096D01*
X0016300Y0074096D01*
X0015851Y0074141D01*
X0015021Y0074484D01*
X0015021Y0074484D01*
X0014386Y0075119D01*
X0014042Y0075949D01*
X0013998Y0076398D01*
X0013998Y0166398D01*
X0014042Y0166847D01*
X0014386Y0167677D01*
X0015021Y0168312D01*
X0015851Y0168656D01*
X0016300Y0168700D01*
X0331300Y0168700D01*
X0331749Y0168656D01*
X0332579Y0168312D01*
X0333214Y0167677D01*
X0333558Y0166847D01*
X0333602Y0166398D01*
X0333602Y0006398D01*
X0333558Y0005949D01*
X0333214Y0005119D01*
X0332579Y0004484D01*
X0331749Y0004141D01*
X0331300Y0004096D01*
X0096300Y0004096D01*
X0095851Y0004141D01*
X0095021Y0004484D01*
X0094386Y0005119D01*
X0094042Y0005949D01*
X0093998Y0006398D01*
X0093998Y0067930D01*
X0093542Y0069030D02*
X0097447Y0069030D01*
X0097447Y0069629D02*
X0093294Y0069629D01*
X0093047Y0070227D02*
X0097447Y0070227D01*
X0097537Y0070826D02*
X0092760Y0070826D01*
X0092826Y0070759D02*
X0092826Y0070759D01*
X0092161Y0071424D02*
X0097785Y0071424D01*
X0098033Y0072023D02*
X0091563Y0072023D01*
X0090964Y0072621D02*
X0098629Y0072621D01*
X0099384Y0073220D02*
X0089948Y0073220D01*
X0088503Y0073818D02*
X0104683Y0073818D01*
X0105100Y0073220D02*
X0103216Y0073220D01*
X0103971Y0072621D02*
X0105100Y0072621D01*
X0105100Y0072023D02*
X0104567Y0072023D01*
X0104815Y0071424D02*
X0105100Y0071424D01*
X0105100Y0070826D02*
X0105063Y0070826D01*
X0106300Y0073898D02*
X0106300Y0060148D01*
X0108800Y0057648D01*
X0137550Y0057648D01*
X0141300Y0061398D01*
X0141300Y0066890D01*
X0156521Y0062459D02*
X0125460Y0031398D01*
X0115500Y0031398D01*
X0115237Y0031398D01*
X0108850Y0028930D02*
X0108708Y0028930D01*
X0108850Y0028331D02*
X0108110Y0028331D01*
X0107511Y0027733D02*
X0108850Y0027733D01*
X0108850Y0027134D02*
X0093998Y0027134D01*
X0093998Y0026536D02*
X0108850Y0026536D01*
X0108850Y0025937D02*
X0093998Y0025937D01*
X0093998Y0025339D02*
X0103238Y0025339D01*
X0102639Y0024740D02*
X0093998Y0024740D01*
X0093998Y0024142D02*
X0102041Y0024142D01*
X0101442Y0023543D02*
X0093998Y0023543D01*
X0093998Y0022945D02*
X0101037Y0022945D01*
X0101037Y0022346D02*
X0093998Y0022346D01*
X0093998Y0021748D02*
X0101037Y0021748D01*
X0101037Y0021149D02*
X0093998Y0021149D01*
X0093998Y0020551D02*
X0101037Y0020551D01*
X0101037Y0019952D02*
X0093998Y0019952D01*
X0093998Y0019354D02*
X0101342Y0019354D01*
X0101940Y0018755D02*
X0093998Y0018755D01*
X0093998Y0018157D02*
X0102539Y0018157D01*
X0103137Y0017558D02*
X0093998Y0017558D01*
X0093998Y0016960D02*
X0107717Y0016960D01*
X0108315Y0016361D02*
X0093998Y0016361D01*
X0093998Y0015762D02*
X0173000Y0015762D01*
X0173000Y0015164D02*
X0093998Y0015164D01*
X0093998Y0014565D02*
X0173000Y0014565D01*
X0173000Y0013967D02*
X0093998Y0013967D01*
X0093998Y0013368D02*
X0173000Y0013368D01*
X0173237Y0012770D02*
X0093998Y0012770D01*
X0093998Y0012171D02*
X0173485Y0012171D01*
X0174058Y0011573D02*
X0093998Y0011573D01*
X0093998Y0010974D02*
X0174977Y0010974D01*
X0177623Y0010974D02*
X0184977Y0010974D01*
X0184431Y0011201D02*
X0185644Y0010698D01*
X0186956Y0010698D01*
X0188169Y0011201D01*
X0189098Y0012129D01*
X0189600Y0013342D01*
X0189600Y0018001D01*
X0196797Y0025198D01*
X0263497Y0025198D01*
X0288165Y0049866D01*
X0289933Y0048098D01*
X0292667Y0048098D01*
X0294600Y0050031D01*
X0294600Y0052765D01*
X0292667Y0054698D01*
X0289933Y0054698D01*
X0288000Y0052765D01*
X0288000Y0052598D01*
X0287503Y0052598D01*
X0262503Y0027598D01*
X0195803Y0027598D01*
X0195100Y0026895D01*
X0188985Y0020780D01*
X0188169Y0021596D01*
X0186956Y0022098D01*
X0185644Y0022098D01*
X0184431Y0021596D01*
X0183502Y0020668D01*
X0183000Y0019455D01*
X0183000Y0013342D01*
X0183502Y0012129D01*
X0184431Y0011201D01*
X0184058Y0011573D02*
X0178542Y0011573D01*
X0179115Y0012171D02*
X0183485Y0012171D01*
X0183237Y0012770D02*
X0179363Y0012770D01*
X0179600Y0013368D02*
X0183000Y0013368D01*
X0183000Y0013967D02*
X0179600Y0013967D01*
X0179600Y0014565D02*
X0183000Y0014565D01*
X0183000Y0015164D02*
X0179600Y0015164D01*
X0179600Y0015762D02*
X0183000Y0015762D01*
X0183000Y0016361D02*
X0179600Y0016361D01*
X0179600Y0016960D02*
X0183000Y0016960D01*
X0183000Y0017558D02*
X0179600Y0017558D01*
X0179755Y0018157D02*
X0183000Y0018157D01*
X0183000Y0018755D02*
X0180354Y0018755D01*
X0180952Y0019354D02*
X0183000Y0019354D01*
X0183206Y0019952D02*
X0181551Y0019952D01*
X0182149Y0020551D02*
X0183454Y0020551D01*
X0183984Y0021149D02*
X0182748Y0021149D01*
X0183346Y0021748D02*
X0184797Y0021748D01*
X0183945Y0022346D02*
X0190551Y0022346D01*
X0191149Y0022945D02*
X0184543Y0022945D01*
X0185142Y0023543D02*
X0191748Y0023543D01*
X0192346Y0024142D02*
X0185740Y0024142D01*
X0186339Y0024740D02*
X0192945Y0024740D01*
X0193543Y0025339D02*
X0186937Y0025339D01*
X0187536Y0025937D02*
X0194142Y0025937D01*
X0194740Y0026536D02*
X0188135Y0026536D01*
X0188733Y0027134D02*
X0195339Y0027134D01*
X0196300Y0026398D02*
X0263000Y0026398D01*
X0288000Y0051398D01*
X0291300Y0051398D01*
X0294600Y0051673D02*
X0301578Y0051673D01*
X0302176Y0052272D02*
X0294600Y0052272D01*
X0294495Y0052870D02*
X0303105Y0052870D01*
X0303000Y0052765D02*
X0303000Y0052598D01*
X0302503Y0052598D01*
X0267503Y0017598D01*
X0199600Y0017598D01*
X0199600Y0019455D01*
X0199098Y0020668D01*
X0198169Y0021596D01*
X0196956Y0022098D01*
X0195644Y0022098D01*
X0194431Y0021596D01*
X0193502Y0020668D01*
X0193000Y0019455D01*
X0193000Y0013342D01*
X0193502Y0012129D01*
X0194431Y0011201D01*
X0195644Y0010698D01*
X0196956Y0010698D01*
X0198169Y0011201D01*
X0199098Y0012129D01*
X0199600Y0013342D01*
X0199600Y0015198D01*
X0251703Y0015198D01*
X0249435Y0012930D01*
X0247667Y0014698D01*
X0244933Y0014698D01*
X0243000Y0012765D01*
X0243000Y0010031D01*
X0244933Y0008098D01*
X0247667Y0008098D01*
X0249600Y0010031D01*
X0249600Y0010198D01*
X0250097Y0010198D01*
X0253398Y0013499D01*
X0258734Y0013499D01*
X0258000Y0012765D01*
X0258000Y0010031D01*
X0259933Y0008098D01*
X0262667Y0008098D01*
X0264600Y0010031D01*
X0264600Y0012765D01*
X0263866Y0013499D01*
X0269202Y0013499D01*
X0272503Y0010198D01*
X0273000Y0010198D01*
X0273000Y0010031D01*
X0274933Y0008098D01*
X0277667Y0008098D01*
X0279600Y0010031D01*
X0279600Y0012765D01*
X0277667Y0014698D01*
X0274933Y0014698D01*
X0273165Y0012930D01*
X0270899Y0015196D01*
X0270196Y0015899D01*
X0269197Y0015899D01*
X0303165Y0049866D01*
X0304933Y0048098D01*
X0307667Y0048098D01*
X0309600Y0050031D01*
X0309600Y0052765D01*
X0307667Y0054698D01*
X0304933Y0054698D01*
X0303000Y0052765D01*
X0303704Y0053469D02*
X0293896Y0053469D01*
X0293298Y0054067D02*
X0304302Y0054067D01*
X0304901Y0054666D02*
X0292699Y0054666D01*
X0289901Y0054666D02*
X0277699Y0054666D01*
X0278298Y0054067D02*
X0289302Y0054067D01*
X0288704Y0053469D02*
X0278896Y0053469D01*
X0279495Y0052870D02*
X0288105Y0052870D01*
X0287176Y0052272D02*
X0279600Y0052272D01*
X0279600Y0051673D02*
X0286578Y0051673D01*
X0285979Y0051075D02*
X0279600Y0051075D01*
X0279600Y0050476D02*
X0285380Y0050476D01*
X0284782Y0049878D02*
X0279446Y0049878D01*
X0278848Y0049279D02*
X0284183Y0049279D01*
X0283585Y0048681D02*
X0278249Y0048681D01*
X0276300Y0051398D02*
X0273000Y0051398D01*
X0257824Y0036223D01*
X0196125Y0036223D01*
X0176300Y0016398D01*
X0173000Y0016361D02*
X0151670Y0016361D01*
X0152268Y0016960D02*
X0173000Y0016960D01*
X0173000Y0017558D02*
X0152867Y0017558D01*
X0153465Y0018157D02*
X0173000Y0018157D01*
X0173000Y0018755D02*
X0154064Y0018755D01*
X0154662Y0019354D02*
X0173000Y0019354D01*
X0173206Y0019952D02*
X0155261Y0019952D01*
X0155859Y0020551D02*
X0173454Y0020551D01*
X0173984Y0021149D02*
X0156458Y0021149D01*
X0157056Y0021748D02*
X0174797Y0021748D01*
X0177803Y0021748D02*
X0179952Y0021748D01*
X0180551Y0022346D02*
X0157655Y0022346D01*
X0158253Y0022945D02*
X0181149Y0022945D01*
X0181748Y0023543D02*
X0158852Y0023543D01*
X0159450Y0024142D02*
X0182346Y0024142D01*
X0182945Y0024740D02*
X0160049Y0024740D01*
X0160647Y0025339D02*
X0183543Y0025339D01*
X0184142Y0025937D02*
X0161246Y0025937D01*
X0161844Y0026536D02*
X0184740Y0026536D01*
X0185339Y0027134D02*
X0162443Y0027134D01*
X0163041Y0027733D02*
X0185937Y0027733D01*
X0186536Y0028331D02*
X0163640Y0028331D01*
X0164238Y0028930D02*
X0187134Y0028930D01*
X0187733Y0029528D02*
X0164837Y0029528D01*
X0165435Y0030127D02*
X0188332Y0030127D01*
X0188930Y0030725D02*
X0166034Y0030725D01*
X0166632Y0031324D02*
X0189529Y0031324D01*
X0190127Y0031922D02*
X0167231Y0031922D01*
X0167829Y0032521D02*
X0190726Y0032521D01*
X0191324Y0033119D02*
X0168428Y0033119D01*
X0169027Y0033718D02*
X0191923Y0033718D01*
X0192521Y0034316D02*
X0169625Y0034316D01*
X0170224Y0034915D02*
X0193120Y0034915D01*
X0193718Y0035513D02*
X0170822Y0035513D01*
X0171421Y0036112D02*
X0194317Y0036112D01*
X0194915Y0036710D02*
X0172019Y0036710D01*
X0171709Y0038098D02*
X0223000Y0038098D01*
X0226300Y0041398D01*
X0230341Y0038506D02*
X0258410Y0038506D01*
X0257812Y0037907D02*
X0224506Y0037907D01*
X0223244Y0034698D02*
X0222031Y0034196D01*
X0221102Y0033268D01*
X0220600Y0032055D01*
X0220600Y0030742D01*
X0221102Y0029529D01*
X0222031Y0028601D01*
X0223244Y0028098D01*
X0229356Y0028098D01*
X0230569Y0028601D01*
X0231498Y0029529D01*
X0232000Y0030742D01*
X0232000Y0032055D01*
X0231498Y0033268D01*
X0230569Y0034196D01*
X0229356Y0034698D01*
X0223244Y0034698D01*
X0222322Y0034316D02*
X0195915Y0034316D01*
X0195317Y0033718D02*
X0221553Y0033718D01*
X0221041Y0033119D02*
X0194718Y0033119D01*
X0194120Y0032521D02*
X0220793Y0032521D01*
X0220600Y0031922D02*
X0193521Y0031922D01*
X0192923Y0031324D02*
X0220600Y0031324D01*
X0220607Y0030725D02*
X0192324Y0030725D01*
X0191726Y0030127D02*
X0220855Y0030127D01*
X0221103Y0029528D02*
X0191127Y0029528D01*
X0190529Y0028930D02*
X0221702Y0028930D01*
X0222681Y0028331D02*
X0189930Y0028331D01*
X0189332Y0027733D02*
X0262637Y0027733D01*
X0263236Y0028331D02*
X0229919Y0028331D01*
X0230898Y0028930D02*
X0263834Y0028930D01*
X0264433Y0029528D02*
X0231497Y0029528D01*
X0231745Y0030127D02*
X0265031Y0030127D01*
X0265630Y0030725D02*
X0231993Y0030725D01*
X0232000Y0031324D02*
X0266228Y0031324D01*
X0266827Y0031922D02*
X0232000Y0031922D01*
X0231807Y0032521D02*
X0267425Y0032521D01*
X0268024Y0033119D02*
X0231559Y0033119D01*
X0231047Y0033718D02*
X0268622Y0033718D01*
X0269221Y0034316D02*
X0230278Y0034316D01*
X0231073Y0039104D02*
X0259009Y0039104D01*
X0259607Y0039703D02*
X0231570Y0039703D01*
X0231818Y0040301D02*
X0260206Y0040301D01*
X0260804Y0040900D02*
X0232000Y0040900D01*
X0232000Y0041498D02*
X0261403Y0041498D01*
X0262001Y0042097D02*
X0231982Y0042097D01*
X0231735Y0042696D02*
X0262600Y0042696D01*
X0263198Y0043294D02*
X0231471Y0043294D01*
X0230873Y0043893D02*
X0263797Y0043893D01*
X0264395Y0044491D02*
X0229857Y0044491D01*
X0222743Y0044491D02*
X0200000Y0044491D01*
X0200000Y0043893D02*
X0221727Y0043893D01*
X0221129Y0043294D02*
X0199932Y0043294D01*
X0200000Y0043634D02*
X0200000Y0046098D01*
X0196600Y0046098D01*
X0196600Y0040298D01*
X0196664Y0040298D01*
X0197379Y0040440D01*
X0198053Y0040719D01*
X0198659Y0041124D01*
X0199174Y0041640D01*
X0199579Y0042246D01*
X0199858Y0042919D01*
X0200000Y0043634D01*
X0199765Y0042696D02*
X0220865Y0042696D01*
X0220618Y0042097D02*
X0199480Y0042097D01*
X0199033Y0041498D02*
X0220600Y0041498D01*
X0220600Y0040900D02*
X0198323Y0040900D01*
X0196600Y0040900D02*
X0196000Y0040900D01*
X0196000Y0041498D02*
X0196600Y0041498D01*
X0196600Y0042097D02*
X0196000Y0042097D01*
X0196000Y0042696D02*
X0196600Y0042696D01*
X0196600Y0043294D02*
X0196000Y0043294D01*
X0196000Y0043893D02*
X0196600Y0043893D01*
X0196600Y0044491D02*
X0196000Y0044491D01*
X0196000Y0045090D02*
X0196600Y0045090D01*
X0196600Y0045688D02*
X0196000Y0045688D01*
X0196000Y0046098D02*
X0196600Y0046098D01*
X0196600Y0046698D01*
X0200000Y0046698D01*
X0200000Y0049163D01*
X0199858Y0049877D01*
X0199579Y0050551D01*
X0199174Y0051157D01*
X0198659Y0051672D01*
X0198053Y0052077D01*
X0197379Y0052356D01*
X0196664Y0052498D01*
X0196600Y0052498D01*
X0196600Y0046698D01*
X0196000Y0046698D01*
X0196000Y0046098D01*
X0196000Y0040298D01*
X0195936Y0040298D01*
X0195221Y0040440D01*
X0194547Y0040719D01*
X0193941Y0041124D01*
X0193426Y0041640D01*
X0193021Y0042246D01*
X0192742Y0042919D01*
X0192600Y0043634D01*
X0192600Y0046098D01*
X0196000Y0046098D01*
X0196000Y0046287D02*
X0186600Y0046287D01*
X0186600Y0046098D02*
X0186600Y0046698D01*
X0190000Y0046698D01*
X0190000Y0049163D01*
X0189858Y0049877D01*
X0189579Y0050551D01*
X0189174Y0051157D01*
X0188659Y0051672D01*
X0188053Y0052077D01*
X0187379Y0052356D01*
X0186664Y0052498D01*
X0186600Y0052498D01*
X0186600Y0046698D01*
X0186000Y0046698D01*
X0186000Y0046098D01*
X0186600Y0046098D01*
X0186600Y0040298D01*
X0186664Y0040298D01*
X0187379Y0040440D01*
X0188053Y0040719D01*
X0188659Y0041124D01*
X0189174Y0041640D01*
X0189579Y0042246D01*
X0189858Y0042919D01*
X0190000Y0043634D01*
X0190000Y0046098D01*
X0186600Y0046098D01*
X0186600Y0045688D02*
X0186000Y0045688D01*
X0186000Y0046098D02*
X0186000Y0040298D01*
X0185936Y0040298D01*
X0185221Y0040440D01*
X0184547Y0040719D01*
X0183941Y0041124D01*
X0183426Y0041640D01*
X0183021Y0042246D01*
X0182742Y0042919D01*
X0182600Y0043634D01*
X0182600Y0046098D01*
X0186000Y0046098D01*
X0186000Y0046287D02*
X0176600Y0046287D01*
X0176600Y0046098D02*
X0176600Y0046698D01*
X0180000Y0046698D01*
X0180000Y0049163D01*
X0179858Y0049877D01*
X0179579Y0050551D01*
X0179174Y0051157D01*
X0178659Y0051672D01*
X0178053Y0052077D01*
X0177379Y0052356D01*
X0176664Y0052498D01*
X0176600Y0052498D01*
X0176600Y0046698D01*
X0176000Y0046698D01*
X0176000Y0046098D01*
X0176600Y0046098D01*
X0176600Y0040298D01*
X0176664Y0040298D01*
X0177379Y0040440D01*
X0178053Y0040719D01*
X0178659Y0041124D01*
X0179174Y0041640D01*
X0179579Y0042246D01*
X0179858Y0042919D01*
X0180000Y0043634D01*
X0180000Y0046098D01*
X0176600Y0046098D01*
X0176600Y0045688D02*
X0176000Y0045688D01*
X0176000Y0046098D02*
X0176000Y0040298D01*
X0175936Y0040298D01*
X0175221Y0040440D01*
X0174547Y0040719D01*
X0173941Y0041124D01*
X0173426Y0041640D01*
X0173021Y0042246D01*
X0172742Y0042919D01*
X0172600Y0043634D01*
X0172600Y0046098D01*
X0176000Y0046098D01*
X0176000Y0046287D02*
X0152885Y0046287D01*
X0153484Y0046885D02*
X0172600Y0046885D01*
X0172600Y0046698D02*
X0176000Y0046698D01*
X0176000Y0052498D01*
X0175936Y0052498D01*
X0175221Y0052356D01*
X0174547Y0052077D01*
X0173941Y0051672D01*
X0173426Y0051157D01*
X0173021Y0050551D01*
X0172742Y0049877D01*
X0172600Y0049163D01*
X0172600Y0046698D01*
X0172600Y0047484D02*
X0154082Y0047484D01*
X0154681Y0048082D02*
X0172600Y0048082D01*
X0172600Y0048681D02*
X0155279Y0048681D01*
X0155878Y0049279D02*
X0172623Y0049279D01*
X0172742Y0049878D02*
X0156476Y0049878D01*
X0157075Y0050476D02*
X0172990Y0050476D01*
X0173371Y0051075D02*
X0157673Y0051075D01*
X0158272Y0051673D02*
X0173943Y0051673D01*
X0175017Y0052272D02*
X0158871Y0052272D01*
X0159469Y0052870D02*
X0243105Y0052870D01*
X0243000Y0052765D02*
X0243000Y0050031D01*
X0244933Y0048098D01*
X0247667Y0048098D01*
X0249600Y0050031D01*
X0249600Y0052765D01*
X0247667Y0054698D01*
X0244933Y0054698D01*
X0243000Y0052765D01*
X0243000Y0052272D02*
X0197583Y0052272D01*
X0196600Y0052272D02*
X0196000Y0052272D01*
X0196000Y0052498D02*
X0195936Y0052498D01*
X0195221Y0052356D01*
X0194547Y0052077D01*
X0193941Y0051672D01*
X0193426Y0051157D01*
X0193021Y0050551D01*
X0192742Y0049877D01*
X0192600Y0049163D01*
X0192600Y0046698D01*
X0196000Y0046698D01*
X0196000Y0052498D01*
X0196000Y0051673D02*
X0196600Y0051673D01*
X0196600Y0051075D02*
X0196000Y0051075D01*
X0196000Y0050476D02*
X0196600Y0050476D01*
X0196600Y0049878D02*
X0196000Y0049878D01*
X0196000Y0049279D02*
X0196600Y0049279D01*
X0196600Y0048681D02*
X0196000Y0048681D01*
X0196000Y0048082D02*
X0196600Y0048082D01*
X0196600Y0047484D02*
X0196000Y0047484D01*
X0196000Y0046885D02*
X0196600Y0046885D01*
X0196300Y0046398D02*
X0253000Y0046398D01*
X0258000Y0051398D01*
X0261300Y0051398D01*
X0261600Y0051673D02*
X0271578Y0051673D01*
X0272176Y0052272D02*
X0265000Y0052272D01*
X0265000Y0051698D02*
X0265000Y0052931D01*
X0262833Y0055098D01*
X0261600Y0055098D01*
X0261600Y0051698D01*
X0265000Y0051698D01*
X0265000Y0051098D02*
X0261600Y0051098D01*
X0261600Y0047698D01*
X0262833Y0047698D01*
X0265000Y0049866D01*
X0265000Y0051098D01*
X0265000Y0051075D02*
X0270979Y0051075D01*
X0270380Y0050476D02*
X0265000Y0050476D01*
X0265000Y0049878D02*
X0269782Y0049878D01*
X0269183Y0049279D02*
X0264413Y0049279D01*
X0263815Y0048681D02*
X0268585Y0048681D01*
X0267986Y0048082D02*
X0263216Y0048082D01*
X0261600Y0048082D02*
X0261000Y0048082D01*
X0261000Y0047698D02*
X0261000Y0051098D01*
X0261600Y0051098D01*
X0261600Y0051698D01*
X0261000Y0051698D01*
X0261000Y0051098D01*
X0257600Y0051098D01*
X0257600Y0049866D01*
X0259767Y0047698D01*
X0261000Y0047698D01*
X0261000Y0048681D02*
X0261600Y0048681D01*
X0261600Y0049279D02*
X0261000Y0049279D01*
X0261000Y0049878D02*
X0261600Y0049878D01*
X0261600Y0050476D02*
X0261000Y0050476D01*
X0261000Y0051075D02*
X0261600Y0051075D01*
X0261000Y0051673D02*
X0249600Y0051673D01*
X0249600Y0051075D02*
X0257600Y0051075D01*
X0257600Y0050476D02*
X0249600Y0050476D01*
X0249446Y0049878D02*
X0257600Y0049878D01*
X0258187Y0049279D02*
X0248848Y0049279D01*
X0248249Y0048681D02*
X0258785Y0048681D01*
X0259384Y0048082D02*
X0200000Y0048082D01*
X0200000Y0047484D02*
X0267388Y0047484D01*
X0266789Y0046885D02*
X0200000Y0046885D01*
X0200000Y0045688D02*
X0265592Y0045688D01*
X0264994Y0045090D02*
X0200000Y0045090D01*
X0196600Y0046287D02*
X0266191Y0046287D01*
X0267789Y0044491D02*
X0279395Y0044491D01*
X0278797Y0043893D02*
X0267191Y0043893D01*
X0266592Y0043294D02*
X0278198Y0043294D01*
X0277600Y0042696D02*
X0265994Y0042696D01*
X0265395Y0042097D02*
X0277001Y0042097D01*
X0276403Y0041498D02*
X0264797Y0041498D01*
X0264198Y0040900D02*
X0275804Y0040900D01*
X0275206Y0040301D02*
X0263600Y0040301D01*
X0263001Y0039703D02*
X0274607Y0039703D01*
X0274009Y0039104D02*
X0262403Y0039104D01*
X0261804Y0038506D02*
X0273410Y0038506D01*
X0272812Y0037907D02*
X0261206Y0037907D01*
X0260607Y0037309D02*
X0272213Y0037309D01*
X0271615Y0036710D02*
X0260009Y0036710D01*
X0259410Y0036112D02*
X0271016Y0036112D01*
X0270418Y0035513D02*
X0258812Y0035513D01*
X0267827Y0029528D02*
X0279433Y0029528D01*
X0280031Y0030127D02*
X0268425Y0030127D01*
X0269024Y0030725D02*
X0280630Y0030725D01*
X0281228Y0031324D02*
X0269622Y0031324D01*
X0270221Y0031922D02*
X0281827Y0031922D01*
X0282425Y0032521D02*
X0270819Y0032521D01*
X0271418Y0033119D02*
X0283024Y0033119D01*
X0283622Y0033718D02*
X0272016Y0033718D01*
X0272615Y0034316D02*
X0284221Y0034316D01*
X0284819Y0034915D02*
X0273213Y0034915D01*
X0273812Y0035513D02*
X0285418Y0035513D01*
X0286016Y0036112D02*
X0274410Y0036112D01*
X0275009Y0036710D02*
X0286615Y0036710D01*
X0287213Y0037309D02*
X0275607Y0037309D01*
X0276206Y0037907D02*
X0287812Y0037907D01*
X0288410Y0038506D02*
X0276804Y0038506D01*
X0277403Y0039104D02*
X0289009Y0039104D01*
X0289607Y0039703D02*
X0278001Y0039703D01*
X0278600Y0040301D02*
X0290206Y0040301D01*
X0290804Y0040900D02*
X0279198Y0040900D01*
X0279797Y0041498D02*
X0291403Y0041498D01*
X0292001Y0042097D02*
X0280395Y0042097D01*
X0280994Y0042696D02*
X0292600Y0042696D01*
X0293198Y0043294D02*
X0281592Y0043294D01*
X0282191Y0043893D02*
X0293797Y0043893D01*
X0294395Y0044491D02*
X0282789Y0044491D01*
X0283388Y0045090D02*
X0294994Y0045090D01*
X0295592Y0045688D02*
X0283986Y0045688D01*
X0284585Y0046287D02*
X0296191Y0046287D01*
X0296789Y0046885D02*
X0285184Y0046885D01*
X0285782Y0047484D02*
X0297388Y0047484D01*
X0297986Y0048082D02*
X0286381Y0048082D01*
X0286979Y0048681D02*
X0289351Y0048681D01*
X0288752Y0049279D02*
X0287578Y0049279D01*
X0293249Y0048681D02*
X0298585Y0048681D01*
X0299183Y0049279D02*
X0293848Y0049279D01*
X0294446Y0049878D02*
X0299782Y0049878D01*
X0300380Y0050476D02*
X0294600Y0050476D01*
X0294600Y0051075D02*
X0300979Y0051075D01*
X0303000Y0051398D02*
X0268000Y0016398D01*
X0196300Y0016398D01*
X0193000Y0016361D02*
X0189600Y0016361D01*
X0189600Y0015762D02*
X0193000Y0015762D01*
X0193000Y0015164D02*
X0189600Y0015164D01*
X0189600Y0014565D02*
X0193000Y0014565D01*
X0193000Y0013967D02*
X0189600Y0013967D01*
X0189600Y0013368D02*
X0193000Y0013368D01*
X0193237Y0012770D02*
X0189363Y0012770D01*
X0189115Y0012171D02*
X0193485Y0012171D01*
X0194058Y0011573D02*
X0188542Y0011573D01*
X0187623Y0010974D02*
X0194977Y0010974D01*
X0197623Y0010974D02*
X0243000Y0010974D01*
X0243000Y0010376D02*
X0093998Y0010376D01*
X0093998Y0009777D02*
X0243254Y0009777D01*
X0243852Y0009179D02*
X0093998Y0009179D01*
X0093998Y0008580D02*
X0244451Y0008580D01*
X0248149Y0008580D02*
X0259451Y0008580D01*
X0258852Y0009179D02*
X0248748Y0009179D01*
X0249346Y0009777D02*
X0258254Y0009777D01*
X0258000Y0010376D02*
X0250275Y0010376D01*
X0250874Y0010974D02*
X0258000Y0010974D01*
X0258000Y0011573D02*
X0251472Y0011573D01*
X0252071Y0012171D02*
X0258000Y0012171D01*
X0258005Y0012770D02*
X0252669Y0012770D01*
X0253268Y0013368D02*
X0258603Y0013368D01*
X0263997Y0013368D02*
X0269332Y0013368D01*
X0269931Y0012770D02*
X0264595Y0012770D01*
X0264600Y0012171D02*
X0270529Y0012171D01*
X0271128Y0011573D02*
X0264600Y0011573D01*
X0264600Y0010974D02*
X0271726Y0010974D01*
X0272325Y0010376D02*
X0264600Y0010376D01*
X0264346Y0009777D02*
X0273254Y0009777D01*
X0273852Y0009179D02*
X0263748Y0009179D01*
X0263149Y0008580D02*
X0274451Y0008580D01*
X0278149Y0008580D02*
X0289451Y0008580D01*
X0289933Y0008098D02*
X0292667Y0008098D01*
X0294600Y0010031D01*
X0294600Y0010198D01*
X0303000Y0010198D01*
X0303000Y0010031D01*
X0304933Y0008098D01*
X0307667Y0008098D01*
X0309600Y0010031D01*
X0309600Y0012765D01*
X0307667Y0014698D01*
X0304933Y0014698D01*
X0303000Y0012765D01*
X0303000Y0012598D01*
X0294600Y0012598D01*
X0294600Y0012765D01*
X0292667Y0014698D01*
X0289933Y0014698D01*
X0288000Y0012765D01*
X0288000Y0010031D01*
X0289933Y0008098D01*
X0288852Y0009179D02*
X0278748Y0009179D01*
X0279346Y0009777D02*
X0288254Y0009777D01*
X0288000Y0010376D02*
X0279600Y0010376D01*
X0279600Y0010974D02*
X0288000Y0010974D01*
X0288000Y0011573D02*
X0279600Y0011573D01*
X0279600Y0012171D02*
X0288000Y0012171D01*
X0288005Y0012770D02*
X0279595Y0012770D01*
X0278997Y0013368D02*
X0288603Y0013368D01*
X0289202Y0013967D02*
X0278398Y0013967D01*
X0277800Y0014565D02*
X0289800Y0014565D01*
X0292800Y0014565D02*
X0304800Y0014565D01*
X0304202Y0013967D02*
X0293398Y0013967D01*
X0293997Y0013368D02*
X0303603Y0013368D01*
X0303005Y0012770D02*
X0294595Y0012770D01*
X0291300Y0011398D02*
X0306300Y0011398D01*
X0308748Y0009179D02*
X0333602Y0009179D01*
X0333602Y0009777D02*
X0309346Y0009777D01*
X0309600Y0010376D02*
X0333602Y0010376D01*
X0333602Y0010974D02*
X0309600Y0010974D01*
X0309600Y0011573D02*
X0333602Y0011573D01*
X0333602Y0012171D02*
X0309600Y0012171D01*
X0309595Y0012770D02*
X0333602Y0012770D01*
X0333602Y0013368D02*
X0308997Y0013368D01*
X0308398Y0013967D02*
X0333602Y0013967D01*
X0333602Y0014565D02*
X0307800Y0014565D01*
X0303254Y0009777D02*
X0294346Y0009777D01*
X0293748Y0009179D02*
X0303852Y0009179D01*
X0304451Y0008580D02*
X0293149Y0008580D01*
X0308149Y0008580D02*
X0333602Y0008580D01*
X0333602Y0007982D02*
X0093998Y0007982D01*
X0093998Y0007383D02*
X0333602Y0007383D01*
X0333602Y0006785D02*
X0093998Y0006785D01*
X0094019Y0006186D02*
X0333581Y0006186D01*
X0333408Y0005588D02*
X0094192Y0005588D01*
X0094516Y0004989D02*
X0333084Y0004989D01*
X0332353Y0004391D02*
X0095247Y0004391D01*
X0109298Y0017075D02*
X0105237Y0021136D01*
X0105237Y0021398D01*
X0106103Y0021398D01*
X0109725Y0025020D01*
X0110050Y0025345D01*
X0110050Y0046398D01*
X0101300Y0055148D01*
X0101300Y0066890D01*
X0111300Y0066890D02*
X0124715Y0080306D01*
X0172707Y0080306D01*
X0183800Y0091398D01*
X0187653Y0091175D02*
X0193500Y0091175D01*
X0193500Y0091698D02*
X0189547Y0091698D01*
X0189547Y0094686D01*
X0189652Y0095347D01*
X0189859Y0095983D01*
X0190163Y0096580D01*
X0190556Y0097121D01*
X0191030Y0097595D01*
X0191571Y0097988D01*
X0192167Y0098292D01*
X0192804Y0098499D01*
X0193465Y0098604D01*
X0193500Y0098604D01*
X0193500Y0091698D01*
X0193500Y0091773D02*
X0194100Y0091773D01*
X0194100Y0091175D02*
X0199947Y0091175D01*
X0199947Y0091773D02*
X0198053Y0091773D01*
X0198053Y0092372D02*
X0199947Y0092372D01*
X0199947Y0092970D02*
X0198053Y0092970D01*
X0198053Y0093569D02*
X0199947Y0093569D01*
X0199947Y0094167D02*
X0198053Y0094167D01*
X0198040Y0094766D02*
X0199947Y0094766D01*
X0200050Y0095365D02*
X0197942Y0095365D01*
X0197748Y0095963D02*
X0200298Y0095963D01*
X0200562Y0096562D02*
X0197447Y0096562D01*
X0197005Y0097160D02*
X0201160Y0097160D01*
X0201959Y0097759D02*
X0196345Y0097759D01*
X0195233Y0098357D02*
X0210122Y0098357D01*
X0209524Y0097759D02*
X0205641Y0097759D01*
X0206440Y0097160D02*
X0208925Y0097160D01*
X0208326Y0096562D02*
X0207038Y0096562D01*
X0207302Y0095963D02*
X0207957Y0095963D01*
X0207957Y0095365D02*
X0207550Y0095365D01*
X0207653Y0094766D02*
X0207957Y0094766D01*
X0207957Y0094167D02*
X0207653Y0094167D01*
X0207653Y0093569D02*
X0207957Y0093569D01*
X0207957Y0092970D02*
X0207653Y0092970D01*
X0207653Y0092372D02*
X0207957Y0092372D01*
X0207957Y0091773D02*
X0207653Y0091773D01*
X0207653Y0091175D02*
X0207957Y0091175D01*
X0207957Y0090576D02*
X0207653Y0090576D01*
X0207653Y0089978D02*
X0207957Y0089978D01*
X0207957Y0089379D02*
X0207653Y0089379D01*
X0207653Y0088781D02*
X0207957Y0088781D01*
X0207957Y0088182D02*
X0207653Y0088182D01*
X0207613Y0087584D02*
X0207957Y0087584D01*
X0207957Y0086985D02*
X0207365Y0086985D01*
X0207117Y0086387D02*
X0207871Y0086387D01*
X0207272Y0085788D02*
X0206591Y0085788D01*
X0206674Y0085190D02*
X0205993Y0085190D01*
X0206075Y0084591D02*
X0198690Y0084591D01*
X0198092Y0083993D02*
X0205477Y0083993D01*
X0204878Y0083394D02*
X0197493Y0083394D01*
X0196731Y0084329D02*
X0179888Y0084329D01*
X0170968Y0075409D01*
X0160166Y0075409D01*
X0156521Y0071764D01*
X0156521Y0062459D01*
X0161300Y0062648D02*
X0161300Y0066890D01*
X0165153Y0066636D02*
X0167447Y0066636D01*
X0167447Y0067234D02*
X0165153Y0067234D01*
X0165153Y0067833D02*
X0167447Y0067833D01*
X0167447Y0068431D02*
X0165153Y0068431D01*
X0165153Y0069030D02*
X0167447Y0069030D01*
X0167447Y0069629D02*
X0165153Y0069629D01*
X0165153Y0070227D02*
X0167447Y0070227D01*
X0167537Y0070826D02*
X0165063Y0070826D01*
X0164815Y0071424D02*
X0167785Y0071424D01*
X0168033Y0072023D02*
X0164567Y0072023D01*
X0163971Y0072621D02*
X0168629Y0072621D01*
X0169384Y0073220D02*
X0163216Y0073220D01*
X0160272Y0073818D02*
X0172023Y0073818D01*
X0171673Y0074417D02*
X0172621Y0074417D01*
X0172271Y0075015D02*
X0173220Y0075015D01*
X0172870Y0075614D02*
X0173818Y0075614D01*
X0173468Y0076212D02*
X0174417Y0076212D01*
X0174067Y0076811D02*
X0175015Y0076811D01*
X0174665Y0077409D02*
X0175614Y0077409D01*
X0175264Y0078008D02*
X0176212Y0078008D01*
X0175862Y0078606D02*
X0176811Y0078606D01*
X0176461Y0079205D02*
X0177409Y0079205D01*
X0177059Y0079803D02*
X0178008Y0079803D01*
X0177658Y0080402D02*
X0178606Y0080402D01*
X0178256Y0081000D02*
X0179205Y0081000D01*
X0178855Y0081599D02*
X0203083Y0081599D01*
X0203681Y0082197D02*
X0179453Y0082197D01*
X0180052Y0082796D02*
X0204280Y0082796D01*
X0203211Y0080030D02*
X0179932Y0080030D01*
X0171300Y0071398D01*
X0171300Y0066890D01*
X0167447Y0066037D02*
X0165153Y0066037D01*
X0165153Y0065439D02*
X0167447Y0065439D01*
X0167447Y0064840D02*
X0165153Y0064840D01*
X0165153Y0064242D02*
X0167447Y0064242D01*
X0167447Y0063643D02*
X0165153Y0063643D01*
X0165100Y0063045D02*
X0167500Y0063045D01*
X0167747Y0062446D02*
X0164852Y0062446D01*
X0164605Y0061848D02*
X0167995Y0061848D01*
X0168540Y0061249D02*
X0164396Y0061249D01*
X0164994Y0060651D02*
X0169167Y0060651D01*
X0165050Y0058898D02*
X0161300Y0062648D01*
X0165050Y0058898D02*
X0283800Y0058898D01*
X0286300Y0061398D01*
X0286300Y0076398D01*
X0283800Y0078898D01*
X0283800Y0091398D01*
X0287653Y0091175D02*
X0333602Y0091175D01*
X0333602Y0091773D02*
X0287653Y0091773D01*
X0287653Y0092372D02*
X0333602Y0092372D01*
X0333602Y0092970D02*
X0287653Y0092970D01*
X0287653Y0093569D02*
X0333602Y0093569D01*
X0333602Y0094167D02*
X0287653Y0094167D01*
X0287653Y0094766D02*
X0333602Y0094766D01*
X0333602Y0095365D02*
X0287550Y0095365D01*
X0287302Y0095963D02*
X0333602Y0095963D01*
X0333602Y0096562D02*
X0287038Y0096562D01*
X0286440Y0097160D02*
X0333602Y0097160D01*
X0333602Y0097759D02*
X0285641Y0097759D01*
X0281959Y0097759D02*
X0275641Y0097759D01*
X0275982Y0097617D02*
X0274566Y0098204D01*
X0273034Y0098204D01*
X0271618Y0097617D01*
X0270534Y0096533D01*
X0269947Y0095117D01*
X0269947Y0087679D01*
X0270534Y0086263D01*
X0271618Y0085179D01*
X0273034Y0084593D01*
X0274566Y0084593D01*
X0275982Y0085179D01*
X0277066Y0086263D01*
X0277653Y0087679D01*
X0277653Y0095117D01*
X0277066Y0096533D01*
X0275982Y0097617D01*
X0276440Y0097160D02*
X0281160Y0097160D01*
X0280562Y0096562D02*
X0277038Y0096562D01*
X0277302Y0095963D02*
X0280298Y0095963D01*
X0280050Y0095365D02*
X0277550Y0095365D01*
X0277653Y0094766D02*
X0279947Y0094766D01*
X0279947Y0094167D02*
X0277653Y0094167D01*
X0277653Y0093569D02*
X0279947Y0093569D01*
X0279947Y0092970D02*
X0277653Y0092970D01*
X0277653Y0092372D02*
X0279947Y0092372D01*
X0279947Y0091773D02*
X0277653Y0091773D01*
X0277653Y0091175D02*
X0279947Y0091175D01*
X0279947Y0090576D02*
X0277653Y0090576D01*
X0277653Y0089978D02*
X0279947Y0089978D01*
X0279947Y0089379D02*
X0277653Y0089379D01*
X0277653Y0088781D02*
X0279947Y0088781D01*
X0279947Y0088182D02*
X0277653Y0088182D01*
X0277613Y0087584D02*
X0279987Y0087584D01*
X0280235Y0086985D02*
X0277365Y0086985D01*
X0277117Y0086387D02*
X0280483Y0086387D01*
X0281009Y0085788D02*
X0276591Y0085788D01*
X0275993Y0085190D02*
X0281607Y0085190D01*
X0282600Y0084591D02*
X0265296Y0084591D01*
X0265895Y0083993D02*
X0282600Y0083993D01*
X0282600Y0083394D02*
X0266493Y0083394D01*
X0267092Y0082796D02*
X0282600Y0082796D01*
X0282600Y0082197D02*
X0267690Y0082197D01*
X0268289Y0081599D02*
X0282600Y0081599D01*
X0282600Y0081000D02*
X0268887Y0081000D01*
X0269486Y0080402D02*
X0282600Y0080402D01*
X0282600Y0079803D02*
X0270084Y0079803D01*
X0270683Y0079205D02*
X0282600Y0079205D01*
X0282600Y0078606D02*
X0271281Y0078606D01*
X0271880Y0078008D02*
X0282993Y0078008D01*
X0283592Y0077409D02*
X0272478Y0077409D01*
X0273077Y0076811D02*
X0284191Y0076811D01*
X0284789Y0076212D02*
X0273675Y0076212D01*
X0274274Y0075614D02*
X0285100Y0075614D01*
X0285100Y0075015D02*
X0274872Y0075015D01*
X0275471Y0074417D02*
X0285100Y0074417D01*
X0285100Y0073818D02*
X0276069Y0073818D01*
X0276668Y0073220D02*
X0279384Y0073220D01*
X0278629Y0072621D02*
X0277266Y0072621D01*
X0277865Y0072023D02*
X0278033Y0072023D01*
X0283216Y0073220D02*
X0285100Y0073220D01*
X0285100Y0072621D02*
X0283971Y0072621D01*
X0284567Y0072023D02*
X0285100Y0072023D01*
X0285100Y0071424D02*
X0284815Y0071424D01*
X0285063Y0070826D02*
X0285100Y0070826D01*
X0287500Y0070826D02*
X0287537Y0070826D01*
X0287500Y0071424D02*
X0287785Y0071424D01*
X0288033Y0072023D02*
X0287500Y0072023D01*
X0287500Y0072621D02*
X0288629Y0072621D01*
X0289384Y0073220D02*
X0287500Y0073220D01*
X0287500Y0073818D02*
X0333602Y0073818D01*
X0333602Y0073220D02*
X0293216Y0073220D01*
X0293971Y0072621D02*
X0333602Y0072621D01*
X0333602Y0072023D02*
X0294567Y0072023D01*
X0294815Y0071424D02*
X0333602Y0071424D01*
X0333602Y0070826D02*
X0295063Y0070826D01*
X0295153Y0070227D02*
X0333602Y0070227D01*
X0333602Y0069629D02*
X0295153Y0069629D01*
X0295153Y0069030D02*
X0333602Y0069030D01*
X0333602Y0068431D02*
X0295153Y0068431D01*
X0295153Y0067833D02*
X0333602Y0067833D01*
X0333602Y0067234D02*
X0295153Y0067234D01*
X0295153Y0066636D02*
X0333602Y0066636D01*
X0333602Y0066037D02*
X0295153Y0066037D01*
X0295153Y0065439D02*
X0333602Y0065439D01*
X0333602Y0064840D02*
X0295153Y0064840D01*
X0295153Y0064242D02*
X0333602Y0064242D01*
X0333602Y0063643D02*
X0295153Y0063643D01*
X0295100Y0063045D02*
X0333602Y0063045D01*
X0333602Y0062446D02*
X0294852Y0062446D01*
X0294605Y0061848D02*
X0333602Y0061848D01*
X0333602Y0061249D02*
X0294060Y0061249D01*
X0293433Y0060651D02*
X0333602Y0060651D01*
X0333602Y0060052D02*
X0290401Y0060052D01*
X0289803Y0059454D02*
X0333602Y0059454D01*
X0333602Y0058855D02*
X0289204Y0058855D01*
X0288606Y0058257D02*
X0333602Y0058257D01*
X0333602Y0057658D02*
X0288007Y0057658D01*
X0287409Y0057060D02*
X0333602Y0057060D01*
X0333602Y0056461D02*
X0286810Y0056461D01*
X0286212Y0055863D02*
X0333602Y0055863D01*
X0333602Y0055264D02*
X0285613Y0055264D01*
X0285035Y0056384D02*
X0291300Y0062648D01*
X0291300Y0066890D01*
X0281300Y0066890D02*
X0264258Y0083932D01*
X0252042Y0083932D01*
X0248800Y0087174D01*
X0248800Y0096738D01*
X0245294Y0100244D01*
X0220146Y0100244D01*
X0217646Y0100244D01*
X0213800Y0096398D01*
X0213800Y0091398D01*
X0219225Y0087664D02*
X0208995Y0077434D01*
X0191844Y0077434D01*
X0181300Y0066890D01*
X0191300Y0066890D02*
X0199400Y0074991D01*
X0207393Y0074991D01*
X0214893Y0074991D01*
X0223800Y0083898D01*
X0223800Y0091398D01*
X0227653Y0091175D02*
X0229947Y0091175D01*
X0229947Y0091773D02*
X0227653Y0091773D01*
X0227653Y0092372D02*
X0229947Y0092372D01*
X0229947Y0092970D02*
X0227653Y0092970D01*
X0227653Y0093569D02*
X0229947Y0093569D01*
X0229947Y0094167D02*
X0227653Y0094167D01*
X0227653Y0094766D02*
X0229947Y0094766D01*
X0229947Y0095117D02*
X0229947Y0087679D01*
X0230534Y0086263D01*
X0231618Y0085179D01*
X0233034Y0084593D01*
X0234566Y0084593D01*
X0235982Y0085179D01*
X0237066Y0086263D01*
X0237117Y0086385D01*
X0247008Y0076493D01*
X0247711Y0075790D01*
X0260703Y0075790D01*
X0263314Y0073179D01*
X0262066Y0073696D01*
X0260534Y0073696D01*
X0259118Y0073109D01*
X0258034Y0072026D01*
X0257447Y0070609D01*
X0257447Y0063171D01*
X0258034Y0061755D01*
X0259118Y0060671D01*
X0260501Y0060098D01*
X0252099Y0060098D01*
X0253482Y0060671D01*
X0254566Y0061755D01*
X0255153Y0063171D01*
X0255153Y0070609D01*
X0254566Y0072026D01*
X0253482Y0073109D01*
X0252066Y0073696D01*
X0250534Y0073696D01*
X0249118Y0073109D01*
X0248034Y0072026D01*
X0247447Y0070609D01*
X0247447Y0063171D01*
X0248034Y0061755D01*
X0249118Y0060671D01*
X0250501Y0060098D01*
X0242099Y0060098D01*
X0243482Y0060671D01*
X0244566Y0061755D01*
X0245153Y0063171D01*
X0245153Y0070609D01*
X0244566Y0072026D01*
X0243482Y0073109D01*
X0242066Y0073696D01*
X0240534Y0073696D01*
X0239118Y0073109D01*
X0238034Y0072026D01*
X0237447Y0070609D01*
X0237447Y0063171D01*
X0238034Y0061755D01*
X0239118Y0060671D01*
X0240501Y0060098D01*
X0232099Y0060098D01*
X0233482Y0060671D01*
X0234566Y0061755D01*
X0235153Y0063171D01*
X0235153Y0070609D01*
X0234566Y0072026D01*
X0233482Y0073109D01*
X0232066Y0073696D01*
X0230534Y0073696D01*
X0229118Y0073109D01*
X0228034Y0072026D01*
X0227447Y0070609D01*
X0227447Y0063171D01*
X0228034Y0061755D01*
X0229118Y0060671D01*
X0230501Y0060098D01*
X0222099Y0060098D01*
X0223482Y0060671D01*
X0224566Y0061755D01*
X0225153Y0063171D01*
X0225153Y0070609D01*
X0224566Y0072026D01*
X0223482Y0073109D01*
X0222066Y0073696D01*
X0220534Y0073696D01*
X0219118Y0073109D01*
X0218034Y0072026D01*
X0217447Y0070609D01*
X0217447Y0063171D01*
X0218034Y0061755D01*
X0219118Y0060671D01*
X0220501Y0060098D01*
X0212099Y0060098D01*
X0213482Y0060671D01*
X0214566Y0061755D01*
X0215153Y0063171D01*
X0215153Y0070609D01*
X0214566Y0072026D01*
X0213482Y0073109D01*
X0212066Y0073696D01*
X0210534Y0073696D01*
X0209118Y0073109D01*
X0208034Y0072026D01*
X0207447Y0070609D01*
X0207447Y0063171D01*
X0208034Y0061755D01*
X0209118Y0060671D01*
X0210501Y0060098D01*
X0203132Y0060098D01*
X0203529Y0060300D01*
X0204070Y0060694D01*
X0204544Y0061167D01*
X0204937Y0061709D01*
X0205241Y0062305D01*
X0205448Y0062942D01*
X0205553Y0063603D01*
X0205553Y0066590D01*
X0201600Y0066590D01*
X0201600Y0067190D01*
X0205553Y0067190D01*
X0205553Y0070178D01*
X0205448Y0070839D01*
X0205241Y0071476D01*
X0204937Y0072072D01*
X0204544Y0072614D01*
X0204070Y0073087D01*
X0203529Y0073480D01*
X0202932Y0073784D01*
X0202913Y0073791D01*
X0215390Y0073791D01*
X0224297Y0082698D01*
X0225000Y0083401D01*
X0225000Y0084772D01*
X0225982Y0085179D01*
X0227066Y0086263D01*
X0227653Y0087679D01*
X0227653Y0095117D01*
X0227066Y0096533D01*
X0225982Y0097617D01*
X0225436Y0097844D01*
X0232164Y0097844D01*
X0231618Y0097617D01*
X0230534Y0096533D01*
X0229947Y0095117D01*
X0230050Y0095365D02*
X0227550Y0095365D01*
X0227302Y0095963D02*
X0230298Y0095963D01*
X0230562Y0096562D02*
X0227038Y0096562D01*
X0226440Y0097160D02*
X0231160Y0097160D01*
X0231959Y0097759D02*
X0225641Y0097759D01*
X0222215Y0099044D02*
X0219225Y0096054D01*
X0219225Y0087664D01*
X0225000Y0084591D02*
X0238910Y0084591D01*
X0239508Y0083993D02*
X0225000Y0083993D01*
X0224993Y0083394D02*
X0240107Y0083394D01*
X0240705Y0082796D02*
X0224395Y0082796D01*
X0223796Y0082197D02*
X0241304Y0082197D01*
X0241902Y0081599D02*
X0223198Y0081599D01*
X0222599Y0081000D02*
X0242501Y0081000D01*
X0243099Y0080402D02*
X0222001Y0080402D01*
X0221402Y0079803D02*
X0243698Y0079803D01*
X0244296Y0079205D02*
X0220804Y0079205D01*
X0220205Y0078606D02*
X0244895Y0078606D01*
X0245493Y0078008D02*
X0219606Y0078008D01*
X0219008Y0077409D02*
X0246092Y0077409D01*
X0246691Y0076811D02*
X0218409Y0076811D01*
X0217811Y0076212D02*
X0247289Y0076212D01*
X0248208Y0076990D02*
X0261200Y0076990D01*
X0271300Y0066890D01*
X0263274Y0073220D02*
X0263216Y0073220D01*
X0262675Y0073818D02*
X0215417Y0073818D01*
X0216015Y0074417D02*
X0262077Y0074417D01*
X0261478Y0075015D02*
X0216614Y0075015D01*
X0217212Y0075614D02*
X0260880Y0075614D01*
X0259384Y0073220D02*
X0253216Y0073220D01*
X0253971Y0072621D02*
X0258629Y0072621D01*
X0258033Y0072023D02*
X0254567Y0072023D01*
X0254815Y0071424D02*
X0257785Y0071424D01*
X0257537Y0070826D02*
X0255063Y0070826D01*
X0255153Y0070227D02*
X0257447Y0070227D01*
X0257447Y0069629D02*
X0255153Y0069629D01*
X0255153Y0069030D02*
X0257447Y0069030D01*
X0257447Y0068431D02*
X0255153Y0068431D01*
X0255153Y0067833D02*
X0257447Y0067833D01*
X0257447Y0067234D02*
X0255153Y0067234D01*
X0255153Y0066636D02*
X0257447Y0066636D01*
X0257447Y0066037D02*
X0255153Y0066037D01*
X0255153Y0065439D02*
X0257447Y0065439D01*
X0257447Y0064840D02*
X0255153Y0064840D01*
X0255153Y0064242D02*
X0257447Y0064242D01*
X0257447Y0063643D02*
X0255153Y0063643D01*
X0255100Y0063045D02*
X0257500Y0063045D01*
X0257747Y0062446D02*
X0254852Y0062446D01*
X0254605Y0061848D02*
X0257995Y0061848D01*
X0258540Y0061249D02*
X0254060Y0061249D01*
X0253433Y0060651D02*
X0259167Y0060651D01*
X0249167Y0060651D02*
X0243433Y0060651D01*
X0244060Y0061249D02*
X0248540Y0061249D01*
X0247995Y0061848D02*
X0244605Y0061848D01*
X0244852Y0062446D02*
X0247747Y0062446D01*
X0247500Y0063045D02*
X0245100Y0063045D01*
X0245153Y0063643D02*
X0247447Y0063643D01*
X0247447Y0064242D02*
X0245153Y0064242D01*
X0245153Y0064840D02*
X0247447Y0064840D01*
X0247447Y0065439D02*
X0245153Y0065439D01*
X0245153Y0066037D02*
X0247447Y0066037D01*
X0247447Y0066636D02*
X0245153Y0066636D01*
X0245153Y0067234D02*
X0247447Y0067234D01*
X0247447Y0067833D02*
X0245153Y0067833D01*
X0245153Y0068431D02*
X0247447Y0068431D01*
X0247447Y0069030D02*
X0245153Y0069030D01*
X0245153Y0069629D02*
X0247447Y0069629D01*
X0247447Y0070227D02*
X0245153Y0070227D01*
X0245063Y0070826D02*
X0247537Y0070826D01*
X0247785Y0071424D02*
X0244815Y0071424D01*
X0244567Y0072023D02*
X0248033Y0072023D01*
X0248629Y0072621D02*
X0243971Y0072621D01*
X0243216Y0073220D02*
X0249384Y0073220D01*
X0248208Y0076990D02*
X0233800Y0091398D01*
X0229947Y0090576D02*
X0227653Y0090576D01*
X0227653Y0089978D02*
X0229947Y0089978D01*
X0229947Y0089379D02*
X0227653Y0089379D01*
X0227653Y0088781D02*
X0229947Y0088781D01*
X0229947Y0088182D02*
X0227653Y0088182D01*
X0227613Y0087584D02*
X0229987Y0087584D01*
X0230235Y0086985D02*
X0227365Y0086985D01*
X0227117Y0086387D02*
X0230483Y0086387D01*
X0231009Y0085788D02*
X0226591Y0085788D01*
X0225993Y0085190D02*
X0231607Y0085190D01*
X0235993Y0085190D02*
X0238311Y0085190D01*
X0237713Y0085788D02*
X0236591Y0085788D01*
X0243800Y0091398D02*
X0236155Y0099044D01*
X0222215Y0099044D01*
X0214907Y0101445D02*
X0209157Y0095695D01*
X0209157Y0085976D01*
X0203211Y0080030D01*
X0196731Y0084329D02*
X0203800Y0091398D01*
X0199947Y0090576D02*
X0198053Y0090576D01*
X0198053Y0089978D02*
X0199947Y0089978D01*
X0199947Y0089379D02*
X0198053Y0089379D01*
X0198053Y0088781D02*
X0199486Y0088781D01*
X0198887Y0088182D02*
X0198053Y0088182D01*
X0197969Y0087584D02*
X0198289Y0087584D01*
X0199887Y0085788D02*
X0201009Y0085788D01*
X0201607Y0085190D02*
X0199289Y0085190D01*
X0190474Y0085788D02*
X0186591Y0085788D01*
X0187117Y0086387D02*
X0190076Y0086387D01*
X0189803Y0086985D02*
X0187365Y0086985D01*
X0187613Y0087584D02*
X0189631Y0087584D01*
X0189547Y0088182D02*
X0187653Y0088182D01*
X0187653Y0088781D02*
X0189547Y0088781D01*
X0189547Y0089379D02*
X0187653Y0089379D01*
X0187653Y0089978D02*
X0189547Y0089978D01*
X0189547Y0090576D02*
X0187653Y0090576D01*
X0187653Y0091773D02*
X0189547Y0091773D01*
X0189547Y0092372D02*
X0187653Y0092372D01*
X0187653Y0092970D02*
X0189547Y0092970D01*
X0189547Y0093569D02*
X0187653Y0093569D01*
X0187653Y0094167D02*
X0189547Y0094167D01*
X0189560Y0094766D02*
X0187653Y0094766D01*
X0187550Y0095365D02*
X0189658Y0095365D01*
X0189852Y0095963D02*
X0187302Y0095963D01*
X0187038Y0096562D02*
X0190153Y0096562D01*
X0190595Y0097160D02*
X0186440Y0097160D01*
X0185641Y0097759D02*
X0191255Y0097759D01*
X0192367Y0098357D02*
X0182456Y0098357D01*
X0181959Y0097759D02*
X0181857Y0097759D01*
X0183054Y0098956D02*
X0210721Y0098956D01*
X0211319Y0099554D02*
X0183653Y0099554D01*
X0184251Y0100153D02*
X0211918Y0100153D01*
X0212516Y0100751D02*
X0184850Y0100751D01*
X0185448Y0101350D02*
X0213115Y0101350D01*
X0213713Y0101948D02*
X0186047Y0101948D01*
X0186645Y0102547D02*
X0214312Y0102547D01*
X0214907Y0101445D02*
X0253754Y0101445D01*
X0263800Y0091398D01*
X0267653Y0091175D02*
X0269947Y0091175D01*
X0269947Y0091773D02*
X0267653Y0091773D01*
X0267653Y0092372D02*
X0269947Y0092372D01*
X0269947Y0092970D02*
X0267653Y0092970D01*
X0267653Y0093569D02*
X0269947Y0093569D01*
X0269947Y0094167D02*
X0267653Y0094167D01*
X0267653Y0094766D02*
X0269947Y0094766D01*
X0270050Y0095365D02*
X0267550Y0095365D01*
X0267302Y0095963D02*
X0270298Y0095963D01*
X0270562Y0096562D02*
X0267038Y0096562D01*
X0266440Y0097160D02*
X0271160Y0097160D01*
X0271959Y0097759D02*
X0265641Y0097759D01*
X0261959Y0097759D02*
X0259137Y0097759D01*
X0258538Y0098357D02*
X0333602Y0098357D01*
X0333602Y0098956D02*
X0257940Y0098956D01*
X0257341Y0099554D02*
X0333602Y0099554D01*
X0333602Y0100153D02*
X0256743Y0100153D01*
X0256144Y0100751D02*
X0333602Y0100751D01*
X0333602Y0101350D02*
X0255546Y0101350D01*
X0254954Y0101942D02*
X0254954Y0101942D01*
X0254947Y0101948D02*
X0333602Y0101948D01*
X0333602Y0102547D02*
X0254349Y0102547D01*
X0252480Y0107086D02*
X0271300Y0125906D01*
X0275153Y0125889D02*
X0277447Y0125889D01*
X0277447Y0126487D02*
X0275153Y0126487D01*
X0275153Y0127086D02*
X0277447Y0127086D01*
X0277447Y0127684D02*
X0275153Y0127684D01*
X0275153Y0128283D02*
X0277447Y0128283D01*
X0277447Y0128881D02*
X0275153Y0128881D01*
X0275153Y0129480D02*
X0277447Y0129480D01*
X0277635Y0130078D02*
X0274965Y0130078D01*
X0274717Y0130677D02*
X0277883Y0130677D01*
X0278268Y0131275D02*
X0274332Y0131275D01*
X0273734Y0131874D02*
X0278866Y0131874D01*
X0279956Y0132472D02*
X0272644Y0132472D01*
X0269956Y0132472D02*
X0262644Y0132472D01*
X0263734Y0131874D02*
X0268866Y0131874D01*
X0268268Y0131275D02*
X0264332Y0131275D01*
X0264717Y0130677D02*
X0267883Y0130677D01*
X0267635Y0130078D02*
X0264965Y0130078D01*
X0265153Y0129480D02*
X0267447Y0129480D01*
X0267447Y0128881D02*
X0265153Y0128881D01*
X0265153Y0128283D02*
X0267447Y0128283D01*
X0267447Y0127684D02*
X0265153Y0127684D01*
X0265153Y0127086D02*
X0267447Y0127086D01*
X0267447Y0126487D02*
X0265153Y0126487D01*
X0265153Y0125889D02*
X0267447Y0125889D01*
X0267447Y0125290D02*
X0265153Y0125290D01*
X0265153Y0124692D02*
X0267447Y0124692D01*
X0267447Y0124093D02*
X0265153Y0124093D01*
X0265153Y0123495D02*
X0267191Y0123495D01*
X0266593Y0122896D02*
X0265153Y0122896D01*
X0265153Y0122298D02*
X0265994Y0122298D01*
X0265396Y0121699D02*
X0264951Y0121699D01*
X0264797Y0121100D02*
X0264703Y0121100D01*
X0261300Y0125906D02*
X0243680Y0108286D01*
X0160688Y0108286D01*
X0143800Y0091398D01*
X0133800Y0091398D02*
X0151888Y0109486D01*
X0234880Y0109486D01*
X0251300Y0125906D01*
X0255153Y0125889D02*
X0257447Y0125889D01*
X0257447Y0126487D02*
X0255153Y0126487D01*
X0255153Y0127086D02*
X0257447Y0127086D01*
X0257447Y0127684D02*
X0255153Y0127684D01*
X0255153Y0128283D02*
X0257447Y0128283D01*
X0257447Y0128881D02*
X0255153Y0128881D01*
X0255153Y0129480D02*
X0257447Y0129480D01*
X0257635Y0130078D02*
X0254965Y0130078D01*
X0254717Y0130677D02*
X0257883Y0130677D01*
X0258268Y0131275D02*
X0254332Y0131275D01*
X0253734Y0131874D02*
X0258866Y0131874D01*
X0259956Y0132472D02*
X0252644Y0132472D01*
X0249956Y0132472D02*
X0242644Y0132472D01*
X0243734Y0131874D02*
X0248866Y0131874D01*
X0248268Y0131275D02*
X0244332Y0131275D01*
X0244717Y0130677D02*
X0247883Y0130677D01*
X0247635Y0130078D02*
X0244965Y0130078D01*
X0245153Y0129480D02*
X0247447Y0129480D01*
X0247447Y0128881D02*
X0245153Y0128881D01*
X0245153Y0128283D02*
X0247447Y0128283D01*
X0247447Y0127684D02*
X0245153Y0127684D01*
X0245153Y0127086D02*
X0247447Y0127086D01*
X0247447Y0126487D02*
X0245153Y0126487D01*
X0245153Y0125889D02*
X0247447Y0125889D01*
X0247447Y0125290D02*
X0245153Y0125290D01*
X0245153Y0124692D02*
X0247447Y0124692D01*
X0247447Y0124093D02*
X0245153Y0124093D01*
X0245153Y0123495D02*
X0247191Y0123495D01*
X0246593Y0122896D02*
X0245153Y0122896D01*
X0245153Y0122298D02*
X0245994Y0122298D01*
X0245396Y0121699D02*
X0244951Y0121699D01*
X0244797Y0121100D02*
X0244703Y0121100D01*
X0241300Y0125906D02*
X0226081Y0110687D01*
X0143089Y0110687D01*
X0123800Y0091398D01*
X0113800Y0091398D02*
X0135306Y0112905D01*
X0218298Y0112905D01*
X0231300Y0125906D01*
X0235153Y0125889D02*
X0237447Y0125889D01*
X0237447Y0126487D02*
X0235153Y0126487D01*
X0235153Y0127086D02*
X0237447Y0127086D01*
X0237447Y0127684D02*
X0235153Y0127684D01*
X0235153Y0128283D02*
X0237447Y0128283D01*
X0237447Y0128881D02*
X0235153Y0128881D01*
X0235153Y0129480D02*
X0237447Y0129480D01*
X0237635Y0130078D02*
X0234965Y0130078D01*
X0234717Y0130677D02*
X0237883Y0130677D01*
X0238268Y0131275D02*
X0234332Y0131275D01*
X0233734Y0131874D02*
X0238866Y0131874D01*
X0239956Y0132472D02*
X0232644Y0132472D01*
X0229956Y0132472D02*
X0222644Y0132472D01*
X0223734Y0131874D02*
X0228866Y0131874D01*
X0228268Y0131275D02*
X0224332Y0131275D01*
X0224717Y0130677D02*
X0227883Y0130677D01*
X0227635Y0130078D02*
X0224965Y0130078D01*
X0225153Y0129480D02*
X0227447Y0129480D01*
X0227447Y0128881D02*
X0225153Y0128881D01*
X0225153Y0128283D02*
X0227447Y0128283D01*
X0227447Y0127684D02*
X0225153Y0127684D01*
X0225153Y0127086D02*
X0227447Y0127086D01*
X0227447Y0126487D02*
X0225153Y0126487D01*
X0225153Y0125889D02*
X0227447Y0125889D01*
X0227447Y0125290D02*
X0225153Y0125290D01*
X0225153Y0124692D02*
X0227447Y0124692D01*
X0227447Y0124093D02*
X0225153Y0124093D01*
X0225153Y0123495D02*
X0227191Y0123495D01*
X0226593Y0122896D02*
X0225153Y0122896D01*
X0225153Y0122298D02*
X0225994Y0122298D01*
X0225396Y0121699D02*
X0224951Y0121699D01*
X0224797Y0121100D02*
X0224703Y0121100D01*
X0221300Y0125606D02*
X0209944Y0114251D01*
X0126652Y0114251D01*
X0103800Y0091398D01*
X0093800Y0078898D02*
X0088800Y0083898D01*
X0088800Y0157648D01*
X0092550Y0161398D01*
X0236300Y0161398D01*
X0243800Y0153898D01*
X0243800Y0151398D01*
X0247653Y0151625D02*
X0249947Y0151625D01*
X0249947Y0152223D02*
X0247653Y0152223D01*
X0247653Y0152822D02*
X0249947Y0152822D01*
X0249947Y0153420D02*
X0247653Y0153420D01*
X0247653Y0154019D02*
X0249947Y0154019D01*
X0249947Y0154617D02*
X0247653Y0154617D01*
X0247612Y0155216D02*
X0249988Y0155216D01*
X0249947Y0155117D02*
X0250534Y0156533D01*
X0251618Y0157617D01*
X0253034Y0158204D01*
X0254566Y0158204D01*
X0255982Y0157617D01*
X0257066Y0156533D01*
X0257653Y0155117D01*
X0257653Y0147679D01*
X0257066Y0146263D01*
X0255982Y0145179D01*
X0254566Y0144593D01*
X0253034Y0144593D01*
X0251618Y0145179D01*
X0250534Y0146263D01*
X0249947Y0147679D01*
X0249947Y0155117D01*
X0250236Y0155814D02*
X0247364Y0155814D01*
X0247116Y0156413D02*
X0250484Y0156413D01*
X0251012Y0157011D02*
X0246588Y0157011D01*
X0245990Y0157610D02*
X0251610Y0157610D01*
X0255990Y0157610D02*
X0261610Y0157610D01*
X0261618Y0157617D02*
X0260534Y0156533D01*
X0259947Y0155117D01*
X0259947Y0147679D01*
X0260534Y0146263D01*
X0261618Y0145179D01*
X0263034Y0144593D01*
X0264566Y0144593D01*
X0265982Y0145179D01*
X0267066Y0146263D01*
X0267653Y0147679D01*
X0267653Y0155117D01*
X0267066Y0156533D01*
X0265982Y0157617D01*
X0264566Y0158204D01*
X0263034Y0158204D01*
X0261618Y0157617D01*
X0261012Y0157011D02*
X0256588Y0157011D01*
X0257116Y0156413D02*
X0260484Y0156413D01*
X0260236Y0155814D02*
X0257364Y0155814D01*
X0257612Y0155216D02*
X0259988Y0155216D01*
X0259947Y0154617D02*
X0257653Y0154617D01*
X0257653Y0154019D02*
X0259947Y0154019D01*
X0259947Y0153420D02*
X0257653Y0153420D01*
X0257653Y0152822D02*
X0259947Y0152822D01*
X0259947Y0152223D02*
X0257653Y0152223D01*
X0257653Y0151625D02*
X0259947Y0151625D01*
X0259947Y0151026D02*
X0257653Y0151026D01*
X0257653Y0150428D02*
X0259947Y0150428D01*
X0259947Y0149829D02*
X0257653Y0149829D01*
X0257653Y0149231D02*
X0259947Y0149231D01*
X0259947Y0148632D02*
X0257653Y0148632D01*
X0257653Y0148034D02*
X0259947Y0148034D01*
X0260048Y0147435D02*
X0257552Y0147435D01*
X0257304Y0146836D02*
X0260296Y0146836D01*
X0260559Y0146238D02*
X0257041Y0146238D01*
X0256443Y0145639D02*
X0261157Y0145639D01*
X0261951Y0145041D02*
X0255648Y0145041D01*
X0251951Y0145041D02*
X0245648Y0145041D01*
X0246443Y0145639D02*
X0251157Y0145639D01*
X0250559Y0146238D02*
X0247041Y0146238D01*
X0247304Y0146836D02*
X0250296Y0146836D01*
X0250048Y0147435D02*
X0247552Y0147435D01*
X0247653Y0148034D02*
X0249947Y0148034D01*
X0249947Y0148632D02*
X0247653Y0148632D01*
X0247653Y0149231D02*
X0249947Y0149231D01*
X0249947Y0149829D02*
X0247653Y0149829D01*
X0247653Y0150428D02*
X0249947Y0150428D01*
X0249947Y0151026D02*
X0247653Y0151026D01*
X0239947Y0151026D02*
X0237653Y0151026D01*
X0237653Y0150428D02*
X0239947Y0150428D01*
X0239947Y0149829D02*
X0237653Y0149829D01*
X0237653Y0149231D02*
X0239947Y0149231D01*
X0239947Y0148632D02*
X0237653Y0148632D01*
X0237653Y0148034D02*
X0239947Y0148034D01*
X0240048Y0147435D02*
X0237552Y0147435D01*
X0237653Y0147679D02*
X0237653Y0155117D01*
X0237066Y0156533D01*
X0235982Y0157617D01*
X0234566Y0158204D01*
X0233034Y0158204D01*
X0231618Y0157617D01*
X0230534Y0156533D01*
X0229947Y0155117D01*
X0229947Y0147679D01*
X0230534Y0146263D01*
X0231618Y0145179D01*
X0233034Y0144593D01*
X0234566Y0144593D01*
X0235982Y0145179D01*
X0237066Y0146263D01*
X0237653Y0147679D01*
X0237304Y0146836D02*
X0240296Y0146836D01*
X0240559Y0146238D02*
X0237041Y0146238D01*
X0236443Y0145639D02*
X0241157Y0145639D01*
X0241951Y0145041D02*
X0235648Y0145041D01*
X0231951Y0145041D02*
X0225648Y0145041D01*
X0225982Y0145179D02*
X0224566Y0144593D01*
X0223034Y0144593D01*
X0221618Y0145179D01*
X0220534Y0146263D01*
X0219947Y0147679D01*
X0219947Y0155117D01*
X0220534Y0156533D01*
X0221618Y0157617D01*
X0223034Y0158204D01*
X0224566Y0158204D01*
X0225982Y0157617D01*
X0227066Y0156533D01*
X0227653Y0155117D01*
X0227653Y0147679D01*
X0227066Y0146263D01*
X0225982Y0145179D01*
X0226443Y0145639D02*
X0231157Y0145639D01*
X0230559Y0146238D02*
X0227041Y0146238D01*
X0227304Y0146836D02*
X0230296Y0146836D01*
X0230048Y0147435D02*
X0227552Y0147435D01*
X0227653Y0148034D02*
X0229947Y0148034D01*
X0229947Y0148632D02*
X0227653Y0148632D01*
X0227653Y0149231D02*
X0229947Y0149231D01*
X0229947Y0149829D02*
X0227653Y0149829D01*
X0227653Y0150428D02*
X0229947Y0150428D01*
X0229947Y0151026D02*
X0227653Y0151026D01*
X0227653Y0151625D02*
X0229947Y0151625D01*
X0229947Y0152223D02*
X0227653Y0152223D01*
X0227653Y0152822D02*
X0229947Y0152822D01*
X0229947Y0153420D02*
X0227653Y0153420D01*
X0227653Y0154019D02*
X0229947Y0154019D01*
X0229947Y0154617D02*
X0227653Y0154617D01*
X0227612Y0155216D02*
X0229988Y0155216D01*
X0230236Y0155814D02*
X0227364Y0155814D01*
X0227116Y0156413D02*
X0230484Y0156413D01*
X0231012Y0157011D02*
X0226588Y0157011D01*
X0225990Y0157610D02*
X0231610Y0157610D01*
X0235990Y0157610D02*
X0238391Y0157610D01*
X0237793Y0158208D02*
X0195597Y0158208D01*
X0195432Y0158292D02*
X0194796Y0158499D01*
X0194135Y0158604D01*
X0194100Y0158604D01*
X0194100Y0151698D01*
X0198053Y0151698D01*
X0198053Y0154686D01*
X0197948Y0155347D01*
X0197741Y0155983D01*
X0197437Y0156580D01*
X0197044Y0157121D01*
X0196570Y0157595D01*
X0196029Y0157988D01*
X0195432Y0158292D01*
X0196550Y0157610D02*
X0201610Y0157610D01*
X0201618Y0157617D02*
X0200534Y0156533D01*
X0199947Y0155117D01*
X0199947Y0147679D01*
X0200534Y0146263D01*
X0201618Y0145179D01*
X0203034Y0144593D01*
X0204566Y0144593D01*
X0205982Y0145179D01*
X0207066Y0146263D01*
X0207653Y0147679D01*
X0207653Y0155117D01*
X0207066Y0156533D01*
X0205982Y0157617D01*
X0204566Y0158204D01*
X0203034Y0158204D01*
X0201618Y0157617D01*
X0201012Y0157011D02*
X0197124Y0157011D01*
X0197523Y0156413D02*
X0200484Y0156413D01*
X0200236Y0155814D02*
X0197796Y0155814D01*
X0197969Y0155216D02*
X0199988Y0155216D01*
X0199947Y0154617D02*
X0198053Y0154617D01*
X0198053Y0154019D02*
X0199947Y0154019D01*
X0199947Y0153420D02*
X0198053Y0153420D01*
X0198053Y0152822D02*
X0199947Y0152822D01*
X0199947Y0152223D02*
X0198053Y0152223D01*
X0198053Y0151098D02*
X0194100Y0151098D01*
X0194100Y0144193D01*
X0194135Y0144193D01*
X0194796Y0144297D01*
X0195432Y0144504D01*
X0196029Y0144808D01*
X0196570Y0145202D01*
X0197044Y0145675D01*
X0197437Y0146217D01*
X0197741Y0146813D01*
X0197948Y0147450D01*
X0198053Y0148111D01*
X0198053Y0151098D01*
X0198053Y0151026D02*
X0199947Y0151026D01*
X0199947Y0150428D02*
X0198053Y0150428D01*
X0198053Y0149829D02*
X0199947Y0149829D01*
X0199947Y0149231D02*
X0198053Y0149231D01*
X0198053Y0148632D02*
X0199947Y0148632D01*
X0199947Y0148034D02*
X0198041Y0148034D01*
X0197943Y0147435D02*
X0200048Y0147435D01*
X0200296Y0146836D02*
X0197749Y0146836D01*
X0197448Y0146238D02*
X0200559Y0146238D01*
X0201157Y0145639D02*
X0197008Y0145639D01*
X0196349Y0145041D02*
X0201951Y0145041D01*
X0201300Y0143898D02*
X0201300Y0125906D01*
X0201600Y0125889D02*
X0207447Y0125889D01*
X0207447Y0126487D02*
X0205553Y0126487D01*
X0205553Y0127086D02*
X0207447Y0127086D01*
X0207447Y0127684D02*
X0205553Y0127684D01*
X0205553Y0128283D02*
X0207447Y0128283D01*
X0207447Y0128881D02*
X0205553Y0128881D01*
X0205507Y0129480D02*
X0207447Y0129480D01*
X0207635Y0130078D02*
X0205375Y0130078D01*
X0205147Y0130677D02*
X0207883Y0130677D01*
X0208268Y0131275D02*
X0204801Y0131275D01*
X0204299Y0131874D02*
X0208866Y0131874D01*
X0209956Y0132472D02*
X0203562Y0132472D01*
X0201893Y0133071D02*
X0218099Y0133071D01*
X0218698Y0133669D02*
X0185234Y0133669D01*
X0185832Y0133071D02*
X0200707Y0133071D01*
X0200965Y0133112D02*
X0200304Y0133007D01*
X0199667Y0132800D01*
X0199071Y0132496D01*
X0198530Y0132103D01*
X0198056Y0131629D01*
X0197663Y0131088D01*
X0197359Y0130491D01*
X0197152Y0129855D01*
X0197047Y0129194D01*
X0197047Y0126206D01*
X0201000Y0126206D01*
X0201000Y0133112D01*
X0200965Y0133112D01*
X0201000Y0133071D02*
X0201600Y0133071D01*
X0201600Y0132472D02*
X0201000Y0132472D01*
X0201000Y0131874D02*
X0201600Y0131874D01*
X0201600Y0131275D02*
X0201000Y0131275D01*
X0201000Y0130677D02*
X0201600Y0130677D01*
X0201600Y0130078D02*
X0201000Y0130078D01*
X0201000Y0129480D02*
X0201600Y0129480D01*
X0201600Y0128881D02*
X0201000Y0128881D01*
X0201000Y0128283D02*
X0201600Y0128283D01*
X0201600Y0127684D02*
X0201000Y0127684D01*
X0201000Y0127086D02*
X0201600Y0127086D01*
X0201600Y0126487D02*
X0201000Y0126487D01*
X0201000Y0125889D02*
X0195153Y0125889D01*
X0195153Y0126487D02*
X0197047Y0126487D01*
X0197047Y0127086D02*
X0195153Y0127086D01*
X0195153Y0127684D02*
X0197047Y0127684D01*
X0197047Y0128283D02*
X0195153Y0128283D01*
X0195153Y0128881D02*
X0197047Y0128881D01*
X0197093Y0129480D02*
X0195153Y0129480D01*
X0194965Y0130078D02*
X0197225Y0130078D01*
X0197453Y0130677D02*
X0194717Y0130677D01*
X0194332Y0131275D02*
X0197799Y0131275D01*
X0198301Y0131874D02*
X0193734Y0131874D01*
X0192644Y0132472D02*
X0199038Y0132472D01*
X0189956Y0132472D02*
X0186431Y0132472D01*
X0187029Y0131874D02*
X0188866Y0131874D01*
X0188268Y0131275D02*
X0187628Y0131275D01*
X0186029Y0129480D02*
X0185153Y0129480D01*
X0185153Y0128881D02*
X0186628Y0128881D01*
X0187226Y0128283D02*
X0185153Y0128283D01*
X0185153Y0127684D02*
X0187447Y0127684D01*
X0187447Y0127086D02*
X0185153Y0127086D01*
X0185153Y0126487D02*
X0187447Y0126487D01*
X0187447Y0125889D02*
X0185153Y0125889D01*
X0185153Y0125290D02*
X0187447Y0125290D01*
X0187447Y0124692D02*
X0185153Y0124692D01*
X0185153Y0124093D02*
X0187447Y0124093D01*
X0187447Y0123495D02*
X0185153Y0123495D01*
X0185153Y0122896D02*
X0187447Y0122896D01*
X0187447Y0122298D02*
X0185153Y0122298D01*
X0184951Y0121699D02*
X0187649Y0121699D01*
X0187897Y0121100D02*
X0184703Y0121100D01*
X0184297Y0120502D02*
X0188303Y0120502D01*
X0188901Y0119903D02*
X0183699Y0119903D01*
X0182560Y0119305D02*
X0190040Y0119305D01*
X0192560Y0119305D02*
X0199093Y0119305D01*
X0198336Y0119903D02*
X0193699Y0119903D01*
X0194297Y0120502D02*
X0197824Y0120502D01*
X0197471Y0121100D02*
X0194703Y0121100D01*
X0194951Y0121699D02*
X0197236Y0121699D01*
X0197098Y0122298D02*
X0195153Y0122298D01*
X0195153Y0122896D02*
X0197047Y0122896D01*
X0197047Y0123495D02*
X0195153Y0123495D01*
X0195153Y0124093D02*
X0197047Y0124093D01*
X0197047Y0124692D02*
X0195153Y0124692D01*
X0195153Y0125290D02*
X0197047Y0125290D01*
X0191300Y0125906D02*
X0172805Y0144401D01*
X0151555Y0144401D01*
X0149474Y0146482D01*
X0149474Y0154775D01*
X0144111Y0160137D01*
X0112539Y0160137D01*
X0103800Y0151398D01*
X0093800Y0151398D02*
X0111919Y0133279D01*
X0132596Y0133279D01*
X0136300Y0129575D01*
X0136300Y0122373D01*
X0140788Y0117885D01*
X0203279Y0117885D01*
X0211300Y0125906D01*
X0215153Y0125889D02*
X0215525Y0125889D01*
X0215525Y0126487D02*
X0215153Y0126487D01*
X0215153Y0127086D02*
X0215525Y0127086D01*
X0215525Y0127684D02*
X0215153Y0127684D01*
X0215153Y0128283D02*
X0215525Y0128283D01*
X0215525Y0128881D02*
X0215153Y0128881D01*
X0215153Y0129480D02*
X0215525Y0129480D01*
X0215525Y0130078D02*
X0214965Y0130078D01*
X0214717Y0130677D02*
X0215705Y0130677D01*
X0216304Y0131275D02*
X0214332Y0131275D01*
X0213734Y0131874D02*
X0216902Y0131874D01*
X0217501Y0132472D02*
X0212644Y0132472D01*
X0216725Y0129999D02*
X0216725Y0122928D01*
X0210387Y0116590D01*
X0110616Y0116590D01*
X0101300Y0125906D01*
X0087600Y0125889D02*
X0013998Y0125889D01*
X0013998Y0126487D02*
X0087600Y0126487D01*
X0087600Y0127086D02*
X0013998Y0127086D01*
X0013998Y0127684D02*
X0087600Y0127684D01*
X0087600Y0128283D02*
X0013998Y0128283D01*
X0013998Y0128881D02*
X0087600Y0128881D01*
X0087600Y0129480D02*
X0013998Y0129480D01*
X0013998Y0130078D02*
X0087600Y0130078D01*
X0087600Y0130677D02*
X0013998Y0130677D01*
X0013998Y0131275D02*
X0087600Y0131275D01*
X0087600Y0131874D02*
X0013998Y0131874D01*
X0013998Y0132472D02*
X0087600Y0132472D01*
X0087600Y0133071D02*
X0013998Y0133071D01*
X0013998Y0133669D02*
X0087600Y0133669D01*
X0087600Y0134268D02*
X0013998Y0134268D01*
X0013998Y0134866D02*
X0087600Y0134866D01*
X0087600Y0135465D02*
X0013998Y0135465D01*
X0013998Y0136063D02*
X0087600Y0136063D01*
X0087600Y0136662D02*
X0013998Y0136662D01*
X0013998Y0137260D02*
X0087600Y0137260D01*
X0087600Y0137859D02*
X0013998Y0137859D01*
X0013998Y0138457D02*
X0087600Y0138457D01*
X0087600Y0139056D02*
X0013998Y0139056D01*
X0013998Y0139654D02*
X0087600Y0139654D01*
X0087600Y0140253D02*
X0013998Y0140253D01*
X0013998Y0140851D02*
X0087600Y0140851D01*
X0087600Y0141450D02*
X0013998Y0141450D01*
X0013998Y0142048D02*
X0087600Y0142048D01*
X0087600Y0142647D02*
X0013998Y0142647D01*
X0013998Y0143245D02*
X0087600Y0143245D01*
X0087600Y0143844D02*
X0013998Y0143844D01*
X0013998Y0144442D02*
X0087600Y0144442D01*
X0087600Y0145041D02*
X0085648Y0145041D01*
X0086443Y0145639D02*
X0087600Y0145639D01*
X0087600Y0146238D02*
X0087041Y0146238D01*
X0087304Y0146836D02*
X0087600Y0146836D01*
X0087600Y0147435D02*
X0087552Y0147435D01*
X0081157Y0145639D02*
X0076443Y0145639D01*
X0075982Y0145179D02*
X0077066Y0146263D01*
X0077653Y0147679D01*
X0077653Y0155117D01*
X0077066Y0156533D01*
X0075982Y0157617D01*
X0074566Y0158204D01*
X0073034Y0158204D01*
X0071618Y0157617D01*
X0070534Y0156533D01*
X0069947Y0155117D01*
X0069947Y0147679D01*
X0070534Y0146263D01*
X0071618Y0145179D01*
X0073034Y0144593D01*
X0074566Y0144593D01*
X0075982Y0145179D01*
X0075648Y0145041D02*
X0081951Y0145041D01*
X0080559Y0146238D02*
X0077041Y0146238D01*
X0077304Y0146836D02*
X0080296Y0146836D01*
X0080048Y0147435D02*
X0077552Y0147435D01*
X0077653Y0148034D02*
X0079947Y0148034D01*
X0079947Y0148632D02*
X0077653Y0148632D01*
X0077653Y0149231D02*
X0079947Y0149231D01*
X0079947Y0149829D02*
X0077653Y0149829D01*
X0077653Y0150428D02*
X0079947Y0150428D01*
X0079947Y0151026D02*
X0077653Y0151026D01*
X0077653Y0151625D02*
X0079947Y0151625D01*
X0079947Y0152223D02*
X0077653Y0152223D01*
X0077653Y0152822D02*
X0079947Y0152822D01*
X0079947Y0153420D02*
X0077653Y0153420D01*
X0077653Y0154019D02*
X0079947Y0154019D01*
X0079947Y0154617D02*
X0077653Y0154617D01*
X0077612Y0155216D02*
X0079988Y0155216D01*
X0080236Y0155814D02*
X0077364Y0155814D01*
X0077116Y0156413D02*
X0080484Y0156413D01*
X0081012Y0157011D02*
X0076588Y0157011D01*
X0075990Y0157610D02*
X0081610Y0157610D01*
X0085990Y0157610D02*
X0087600Y0157610D01*
X0087600Y0157011D02*
X0086588Y0157011D01*
X0087116Y0156413D02*
X0087600Y0156413D01*
X0087600Y0155814D02*
X0087364Y0155814D01*
X0087663Y0158208D02*
X0013998Y0158208D01*
X0013998Y0157610D02*
X0051610Y0157610D01*
X0051618Y0157617D02*
X0050534Y0156533D01*
X0049947Y0155117D01*
X0049947Y0147679D01*
X0050534Y0146263D01*
X0051618Y0145179D01*
X0053034Y0144593D01*
X0054566Y0144593D01*
X0055982Y0145179D01*
X0057066Y0146263D01*
X0057653Y0147679D01*
X0057653Y0155117D01*
X0057066Y0156533D01*
X0055982Y0157617D01*
X0054566Y0158204D01*
X0053034Y0158204D01*
X0051618Y0157617D01*
X0051012Y0157011D02*
X0013998Y0157011D01*
X0013998Y0156413D02*
X0050484Y0156413D01*
X0050236Y0155814D02*
X0013998Y0155814D01*
X0013998Y0155216D02*
X0049988Y0155216D01*
X0049947Y0154617D02*
X0013998Y0154617D01*
X0013998Y0154019D02*
X0049947Y0154019D01*
X0049947Y0153420D02*
X0013998Y0153420D01*
X0013998Y0152822D02*
X0049947Y0152822D01*
X0049947Y0152223D02*
X0013998Y0152223D01*
X0013998Y0151625D02*
X0049947Y0151625D01*
X0049947Y0151026D02*
X0013998Y0151026D01*
X0013998Y0150428D02*
X0049947Y0150428D01*
X0049947Y0149829D02*
X0013998Y0149829D01*
X0013998Y0149231D02*
X0049947Y0149231D01*
X0049947Y0148632D02*
X0013998Y0148632D01*
X0013998Y0148034D02*
X0049947Y0148034D01*
X0050048Y0147435D02*
X0013998Y0147435D01*
X0013998Y0146836D02*
X0050296Y0146836D01*
X0050559Y0146238D02*
X0013998Y0146238D01*
X0013998Y0145639D02*
X0051157Y0145639D01*
X0051951Y0145041D02*
X0013998Y0145041D01*
X0013998Y0158807D02*
X0088261Y0158807D01*
X0088860Y0159405D02*
X0013998Y0159405D01*
X0013998Y0160004D02*
X0089458Y0160004D01*
X0090057Y0160602D02*
X0013998Y0160602D01*
X0013998Y0161201D02*
X0090655Y0161201D01*
X0091254Y0161799D02*
X0013998Y0161799D01*
X0013998Y0162398D02*
X0091852Y0162398D01*
X0071610Y0157610D02*
X0065990Y0157610D01*
X0065982Y0157617D02*
X0064566Y0158204D01*
X0063034Y0158204D01*
X0061618Y0157617D01*
X0060534Y0156533D01*
X0059947Y0155117D01*
X0059947Y0147679D01*
X0060534Y0146263D01*
X0061618Y0145179D01*
X0063034Y0144593D01*
X0064566Y0144593D01*
X0065982Y0145179D01*
X0067066Y0146263D01*
X0067653Y0147679D01*
X0067653Y0155117D01*
X0067066Y0156533D01*
X0065982Y0157617D01*
X0066588Y0157011D02*
X0071012Y0157011D01*
X0070484Y0156413D02*
X0067116Y0156413D01*
X0067364Y0155814D02*
X0070236Y0155814D01*
X0069988Y0155216D02*
X0067612Y0155216D01*
X0067653Y0154617D02*
X0069947Y0154617D01*
X0069947Y0154019D02*
X0067653Y0154019D01*
X0067653Y0153420D02*
X0069947Y0153420D01*
X0069947Y0152822D02*
X0067653Y0152822D01*
X0067653Y0152223D02*
X0069947Y0152223D01*
X0069947Y0151625D02*
X0067653Y0151625D01*
X0067653Y0151026D02*
X0069947Y0151026D01*
X0069947Y0150428D02*
X0067653Y0150428D01*
X0067653Y0149829D02*
X0069947Y0149829D01*
X0069947Y0149231D02*
X0067653Y0149231D01*
X0067653Y0148632D02*
X0069947Y0148632D01*
X0069947Y0148034D02*
X0067653Y0148034D01*
X0067552Y0147435D02*
X0070048Y0147435D01*
X0070296Y0146836D02*
X0067304Y0146836D01*
X0067041Y0146238D02*
X0070559Y0146238D01*
X0071157Y0145639D02*
X0066443Y0145639D01*
X0065648Y0145041D02*
X0071951Y0145041D01*
X0061951Y0145041D02*
X0055648Y0145041D01*
X0056443Y0145639D02*
X0061157Y0145639D01*
X0060559Y0146238D02*
X0057041Y0146238D01*
X0057304Y0146836D02*
X0060296Y0146836D01*
X0060048Y0147435D02*
X0057552Y0147435D01*
X0057653Y0148034D02*
X0059947Y0148034D01*
X0059947Y0148632D02*
X0057653Y0148632D01*
X0057653Y0149231D02*
X0059947Y0149231D01*
X0059947Y0149829D02*
X0057653Y0149829D01*
X0057653Y0150428D02*
X0059947Y0150428D01*
X0059947Y0151026D02*
X0057653Y0151026D01*
X0057653Y0151625D02*
X0059947Y0151625D01*
X0059947Y0152223D02*
X0057653Y0152223D01*
X0057653Y0152822D02*
X0059947Y0152822D01*
X0059947Y0153420D02*
X0057653Y0153420D01*
X0057653Y0154019D02*
X0059947Y0154019D01*
X0059947Y0154617D02*
X0057653Y0154617D01*
X0057612Y0155216D02*
X0059988Y0155216D01*
X0060236Y0155814D02*
X0057364Y0155814D01*
X0057116Y0156413D02*
X0060484Y0156413D01*
X0061012Y0157011D02*
X0056588Y0157011D01*
X0055990Y0157610D02*
X0061610Y0157610D01*
X0015192Y0168383D02*
X0332408Y0168383D01*
X0333106Y0167784D02*
X0014493Y0167784D01*
X0014183Y0167186D02*
X0333417Y0167186D01*
X0333583Y0166587D02*
X0014017Y0166587D01*
X0013998Y0165989D02*
X0333602Y0165989D01*
X0333602Y0165390D02*
X0013998Y0165390D01*
X0013998Y0164792D02*
X0333602Y0164792D01*
X0333602Y0164193D02*
X0013998Y0164193D01*
X0013998Y0163595D02*
X0333602Y0163595D01*
X0333602Y0162996D02*
X0013998Y0162996D01*
X0013998Y0125290D02*
X0087600Y0125290D01*
X0087600Y0124692D02*
X0013998Y0124692D01*
X0013998Y0124093D02*
X0087600Y0124093D01*
X0087600Y0123495D02*
X0013998Y0123495D01*
X0013998Y0122896D02*
X0087600Y0122896D01*
X0087600Y0122298D02*
X0013998Y0122298D01*
X0013998Y0121699D02*
X0087600Y0121699D01*
X0087600Y0121100D02*
X0013998Y0121100D01*
X0013998Y0120502D02*
X0087600Y0120502D01*
X0087600Y0119903D02*
X0013998Y0119903D01*
X0013998Y0119305D02*
X0087600Y0119305D01*
X0087600Y0118706D02*
X0013998Y0118706D01*
X0013998Y0118108D02*
X0087600Y0118108D01*
X0087600Y0117509D02*
X0013998Y0117509D01*
X0013998Y0116911D02*
X0087600Y0116911D01*
X0087600Y0116312D02*
X0013998Y0116312D01*
X0013998Y0115714D02*
X0087600Y0115714D01*
X0087600Y0115115D02*
X0013998Y0115115D01*
X0013998Y0114517D02*
X0087600Y0114517D01*
X0087600Y0113918D02*
X0013998Y0113918D01*
X0013998Y0113320D02*
X0087600Y0113320D01*
X0087600Y0112721D02*
X0013998Y0112721D01*
X0013998Y0112123D02*
X0087600Y0112123D01*
X0087600Y0111524D02*
X0013998Y0111524D01*
X0013998Y0110926D02*
X0087600Y0110926D01*
X0087600Y0110327D02*
X0013998Y0110327D01*
X0013998Y0109729D02*
X0087600Y0109729D01*
X0087600Y0109130D02*
X0013998Y0109130D01*
X0013998Y0108532D02*
X0087600Y0108532D01*
X0087600Y0107933D02*
X0013998Y0107933D01*
X0013998Y0107335D02*
X0087600Y0107335D01*
X0087600Y0106736D02*
X0013998Y0106736D01*
X0013998Y0106138D02*
X0087600Y0106138D01*
X0087600Y0105539D02*
X0013998Y0105539D01*
X0013998Y0104941D02*
X0087600Y0104941D01*
X0087600Y0104342D02*
X0013998Y0104342D01*
X0013998Y0103744D02*
X0087600Y0103744D01*
X0087600Y0103145D02*
X0013998Y0103145D01*
X0013998Y0102547D02*
X0087600Y0102547D01*
X0087600Y0101948D02*
X0013998Y0101948D01*
X0013998Y0101350D02*
X0087600Y0101350D01*
X0087600Y0100751D02*
X0013998Y0100751D01*
X0013998Y0100153D02*
X0087600Y0100153D01*
X0087600Y0099554D02*
X0013998Y0099554D01*
X0013998Y0098956D02*
X0087600Y0098956D01*
X0087600Y0098357D02*
X0013998Y0098357D01*
X0013998Y0097759D02*
X0051959Y0097759D01*
X0051618Y0097617D02*
X0050534Y0096533D01*
X0049947Y0095117D01*
X0049947Y0087679D01*
X0050534Y0086263D01*
X0051618Y0085179D01*
X0053034Y0084593D01*
X0054566Y0084593D01*
X0055982Y0085179D01*
X0057066Y0086263D01*
X0057653Y0087679D01*
X0057653Y0095117D01*
X0057066Y0096533D01*
X0055982Y0097617D01*
X0054566Y0098204D01*
X0053034Y0098204D01*
X0051618Y0097617D01*
X0051160Y0097160D02*
X0013998Y0097160D01*
X0013998Y0096562D02*
X0050562Y0096562D01*
X0050298Y0095963D02*
X0013998Y0095963D01*
X0013998Y0095365D02*
X0050050Y0095365D01*
X0049947Y0094766D02*
X0013998Y0094766D01*
X0013998Y0094167D02*
X0049947Y0094167D01*
X0049947Y0093569D02*
X0013998Y0093569D01*
X0013998Y0092970D02*
X0049947Y0092970D01*
X0049947Y0092372D02*
X0013998Y0092372D01*
X0013998Y0091773D02*
X0049947Y0091773D01*
X0049947Y0091175D02*
X0013998Y0091175D01*
X0013998Y0090576D02*
X0049947Y0090576D01*
X0049947Y0089978D02*
X0013998Y0089978D01*
X0013998Y0089379D02*
X0049947Y0089379D01*
X0049947Y0088781D02*
X0013998Y0088781D01*
X0013998Y0088182D02*
X0049947Y0088182D01*
X0049987Y0087584D02*
X0013998Y0087584D01*
X0013998Y0086985D02*
X0050235Y0086985D01*
X0050483Y0086387D02*
X0013998Y0086387D01*
X0013998Y0085788D02*
X0051009Y0085788D01*
X0051607Y0085190D02*
X0013998Y0085190D01*
X0013998Y0084591D02*
X0087600Y0084591D01*
X0087600Y0083993D02*
X0013998Y0083993D01*
X0013998Y0083394D02*
X0087607Y0083394D01*
X0088205Y0082796D02*
X0013998Y0082796D01*
X0013998Y0082197D02*
X0088804Y0082197D01*
X0089402Y0081599D02*
X0013998Y0081599D01*
X0013998Y0081000D02*
X0090001Y0081000D01*
X0090599Y0080402D02*
X0013998Y0080402D01*
X0013998Y0079803D02*
X0091198Y0079803D01*
X0091796Y0079205D02*
X0013998Y0079205D01*
X0013998Y0078606D02*
X0092395Y0078606D01*
X0092993Y0078008D02*
X0013998Y0078008D01*
X0013998Y0077409D02*
X0101092Y0077409D01*
X0101691Y0076811D02*
X0013998Y0076811D01*
X0014017Y0076212D02*
X0102289Y0076212D01*
X0102888Y0075614D02*
X0014181Y0075614D01*
X0014490Y0075015D02*
X0103486Y0075015D01*
X0104085Y0074417D02*
X0015185Y0074417D01*
X0055993Y0085190D02*
X0061607Y0085190D01*
X0061618Y0085179D02*
X0063034Y0084593D01*
X0064566Y0084593D01*
X0065982Y0085179D01*
X0067066Y0086263D01*
X0067653Y0087679D01*
X0067653Y0095117D01*
X0067066Y0096533D01*
X0065982Y0097617D01*
X0064566Y0098204D01*
X0063034Y0098204D01*
X0061618Y0097617D01*
X0060534Y0096533D01*
X0059947Y0095117D01*
X0059947Y0087679D01*
X0060534Y0086263D01*
X0061618Y0085179D01*
X0061009Y0085788D02*
X0056591Y0085788D01*
X0057117Y0086387D02*
X0060483Y0086387D01*
X0060235Y0086985D02*
X0057365Y0086985D01*
X0057613Y0087584D02*
X0059987Y0087584D01*
X0059947Y0088182D02*
X0057653Y0088182D01*
X0057653Y0088781D02*
X0059947Y0088781D01*
X0059947Y0089379D02*
X0057653Y0089379D01*
X0057653Y0089978D02*
X0059947Y0089978D01*
X0059947Y0090576D02*
X0057653Y0090576D01*
X0057653Y0091175D02*
X0059947Y0091175D01*
X0059947Y0091773D02*
X0057653Y0091773D01*
X0057653Y0092372D02*
X0059947Y0092372D01*
X0059947Y0092970D02*
X0057653Y0092970D01*
X0057653Y0093569D02*
X0059947Y0093569D01*
X0059947Y0094167D02*
X0057653Y0094167D01*
X0057653Y0094766D02*
X0059947Y0094766D01*
X0060050Y0095365D02*
X0057550Y0095365D01*
X0057302Y0095963D02*
X0060298Y0095963D01*
X0060562Y0096562D02*
X0057038Y0096562D01*
X0056440Y0097160D02*
X0061160Y0097160D01*
X0061959Y0097759D02*
X0055641Y0097759D01*
X0065641Y0097759D02*
X0071959Y0097759D01*
X0071618Y0097617D02*
X0070534Y0096533D01*
X0069947Y0095117D01*
X0069947Y0087679D01*
X0070534Y0086263D01*
X0071618Y0085179D01*
X0073034Y0084593D01*
X0074566Y0084593D01*
X0075982Y0085179D01*
X0077066Y0086263D01*
X0077653Y0087679D01*
X0077653Y0095117D01*
X0077066Y0096533D01*
X0075982Y0097617D01*
X0074566Y0098204D01*
X0073034Y0098204D01*
X0071618Y0097617D01*
X0071160Y0097160D02*
X0066440Y0097160D01*
X0067038Y0096562D02*
X0070562Y0096562D01*
X0070298Y0095963D02*
X0067302Y0095963D01*
X0067550Y0095365D02*
X0070050Y0095365D01*
X0069947Y0094766D02*
X0067653Y0094766D01*
X0067653Y0094167D02*
X0069947Y0094167D01*
X0069947Y0093569D02*
X0067653Y0093569D01*
X0067653Y0092970D02*
X0069947Y0092970D01*
X0069947Y0092372D02*
X0067653Y0092372D01*
X0067653Y0091773D02*
X0069947Y0091773D01*
X0069947Y0091175D02*
X0067653Y0091175D01*
X0067653Y0090576D02*
X0069947Y0090576D01*
X0069947Y0089978D02*
X0067653Y0089978D01*
X0067653Y0089379D02*
X0069947Y0089379D01*
X0069947Y0088781D02*
X0067653Y0088781D01*
X0067653Y0088182D02*
X0069947Y0088182D01*
X0069987Y0087584D02*
X0067613Y0087584D01*
X0067365Y0086985D02*
X0070235Y0086985D01*
X0070483Y0086387D02*
X0067117Y0086387D01*
X0066591Y0085788D02*
X0071009Y0085788D01*
X0071607Y0085190D02*
X0065993Y0085190D01*
X0075993Y0085190D02*
X0081607Y0085190D01*
X0081009Y0085788D02*
X0076591Y0085788D01*
X0077117Y0086387D02*
X0080483Y0086387D01*
X0080235Y0086985D02*
X0077365Y0086985D01*
X0077613Y0087584D02*
X0079987Y0087584D01*
X0079947Y0088182D02*
X0077653Y0088182D01*
X0077653Y0088781D02*
X0079947Y0088781D01*
X0079947Y0089379D02*
X0077653Y0089379D01*
X0077653Y0089978D02*
X0079947Y0089978D01*
X0079947Y0090576D02*
X0077653Y0090576D01*
X0077653Y0091175D02*
X0079947Y0091175D01*
X0079947Y0091773D02*
X0077653Y0091773D01*
X0077653Y0092372D02*
X0079947Y0092372D01*
X0079947Y0092970D02*
X0077653Y0092970D01*
X0077653Y0093569D02*
X0079947Y0093569D01*
X0079947Y0094167D02*
X0077653Y0094167D01*
X0077653Y0094766D02*
X0079947Y0094766D01*
X0080050Y0095365D02*
X0077550Y0095365D01*
X0077302Y0095963D02*
X0080298Y0095963D01*
X0080562Y0096562D02*
X0077038Y0096562D01*
X0076440Y0097160D02*
X0081160Y0097160D01*
X0081959Y0097759D02*
X0075641Y0097759D01*
X0085641Y0097759D02*
X0087600Y0097759D01*
X0087600Y0097160D02*
X0086440Y0097160D01*
X0087038Y0096562D02*
X0087600Y0096562D01*
X0087600Y0095963D02*
X0087302Y0095963D01*
X0087550Y0095365D02*
X0087600Y0095365D01*
X0087600Y0086985D02*
X0087365Y0086985D01*
X0087600Y0086387D02*
X0087117Y0086387D01*
X0087600Y0085788D02*
X0086591Y0085788D01*
X0085993Y0085190D02*
X0087600Y0085190D01*
X0093800Y0078898D02*
X0101300Y0078898D01*
X0106300Y0073898D01*
X0153800Y0091398D02*
X0169487Y0107086D01*
X0252480Y0107086D01*
X0261279Y0105885D02*
X0281300Y0125906D01*
X0285153Y0125889D02*
X0287447Y0125889D01*
X0287447Y0126487D02*
X0285153Y0126487D01*
X0285153Y0127086D02*
X0287447Y0127086D01*
X0287447Y0127684D02*
X0285153Y0127684D01*
X0285153Y0128283D02*
X0287447Y0128283D01*
X0287447Y0128881D02*
X0285153Y0128881D01*
X0285153Y0129480D02*
X0287447Y0129480D01*
X0287635Y0130078D02*
X0284965Y0130078D01*
X0284717Y0130677D02*
X0287883Y0130677D01*
X0288268Y0131275D02*
X0284332Y0131275D01*
X0283734Y0131874D02*
X0288866Y0131874D01*
X0289956Y0132472D02*
X0282644Y0132472D01*
X0292644Y0132472D02*
X0333602Y0132472D01*
X0333602Y0131874D02*
X0293734Y0131874D01*
X0294332Y0131275D02*
X0333602Y0131275D01*
X0333602Y0130677D02*
X0294717Y0130677D01*
X0294965Y0130078D02*
X0333602Y0130078D01*
X0333602Y0129480D02*
X0295153Y0129480D01*
X0295153Y0128881D02*
X0333602Y0128881D01*
X0333602Y0128283D02*
X0295153Y0128283D01*
X0295153Y0127684D02*
X0333602Y0127684D01*
X0333602Y0127086D02*
X0295153Y0127086D01*
X0295153Y0126487D02*
X0333602Y0126487D01*
X0333602Y0125889D02*
X0295153Y0125889D01*
X0295153Y0125290D02*
X0333602Y0125290D01*
X0333602Y0124692D02*
X0295153Y0124692D01*
X0295153Y0124093D02*
X0333602Y0124093D01*
X0333602Y0123495D02*
X0295153Y0123495D01*
X0295153Y0122896D02*
X0333602Y0122896D01*
X0333602Y0122298D02*
X0295153Y0122298D01*
X0294951Y0121699D02*
X0333602Y0121699D01*
X0333602Y0121100D02*
X0294703Y0121100D01*
X0294297Y0120502D02*
X0333602Y0120502D01*
X0333602Y0119903D02*
X0293699Y0119903D01*
X0292560Y0119305D02*
X0333602Y0119305D01*
X0333602Y0118706D02*
X0285797Y0118706D01*
X0285199Y0118108D02*
X0333602Y0118108D01*
X0333602Y0117509D02*
X0284600Y0117509D01*
X0284002Y0116911D02*
X0333602Y0116911D01*
X0333602Y0116312D02*
X0283403Y0116312D01*
X0282805Y0115714D02*
X0333602Y0115714D01*
X0333602Y0115115D02*
X0282206Y0115115D01*
X0281608Y0114517D02*
X0333602Y0114517D01*
X0333602Y0113918D02*
X0281009Y0113918D01*
X0280411Y0113320D02*
X0333602Y0113320D01*
X0333602Y0112721D02*
X0279812Y0112721D01*
X0279214Y0112123D02*
X0333602Y0112123D01*
X0333602Y0111524D02*
X0278615Y0111524D01*
X0278017Y0110926D02*
X0333602Y0110926D01*
X0333602Y0110327D02*
X0277418Y0110327D01*
X0276820Y0109729D02*
X0333602Y0109729D01*
X0333602Y0109130D02*
X0276221Y0109130D01*
X0275623Y0108532D02*
X0333602Y0108532D01*
X0333602Y0107933D02*
X0275024Y0107933D01*
X0274426Y0107335D02*
X0333602Y0107335D01*
X0333602Y0106736D02*
X0273827Y0106736D01*
X0273229Y0106138D02*
X0333602Y0106138D01*
X0333602Y0105539D02*
X0272630Y0105539D01*
X0272032Y0104941D02*
X0333602Y0104941D01*
X0333602Y0104342D02*
X0271433Y0104342D01*
X0270835Y0103744D02*
X0333602Y0103744D01*
X0333602Y0103145D02*
X0187244Y0103145D01*
X0187087Y0104685D02*
X0270079Y0104685D01*
X0291300Y0125906D01*
X0287447Y0125290D02*
X0285153Y0125290D01*
X0285153Y0124692D02*
X0287447Y0124692D01*
X0287447Y0124093D02*
X0285153Y0124093D01*
X0285153Y0123495D02*
X0287191Y0123495D01*
X0286593Y0122896D02*
X0285153Y0122896D01*
X0285153Y0122298D02*
X0285994Y0122298D01*
X0285396Y0121699D02*
X0284951Y0121699D01*
X0284797Y0121100D02*
X0284703Y0121100D01*
X0286396Y0119305D02*
X0290040Y0119305D01*
X0288901Y0119903D02*
X0286994Y0119903D01*
X0287593Y0120502D02*
X0288303Y0120502D01*
X0277447Y0124093D02*
X0275153Y0124093D01*
X0275153Y0123495D02*
X0277191Y0123495D01*
X0276593Y0122896D02*
X0275153Y0122896D01*
X0275153Y0122298D02*
X0275994Y0122298D01*
X0275396Y0121699D02*
X0274951Y0121699D01*
X0274797Y0121100D02*
X0274703Y0121100D01*
X0275153Y0124692D02*
X0277447Y0124692D01*
X0277447Y0125290D02*
X0275153Y0125290D01*
X0257447Y0125290D02*
X0255153Y0125290D01*
X0255153Y0124692D02*
X0257447Y0124692D01*
X0257447Y0124093D02*
X0255153Y0124093D01*
X0255153Y0123495D02*
X0257191Y0123495D01*
X0256593Y0122896D02*
X0255153Y0122896D01*
X0255153Y0122298D02*
X0255994Y0122298D01*
X0255396Y0121699D02*
X0254951Y0121699D01*
X0254797Y0121100D02*
X0254703Y0121100D01*
X0237447Y0124093D02*
X0235153Y0124093D01*
X0235153Y0123495D02*
X0237191Y0123495D01*
X0236593Y0122896D02*
X0235153Y0122896D01*
X0235153Y0122298D02*
X0235994Y0122298D01*
X0235396Y0121699D02*
X0234951Y0121699D01*
X0234797Y0121100D02*
X0234703Y0121100D01*
X0235153Y0124692D02*
X0237447Y0124692D01*
X0237447Y0125290D02*
X0235153Y0125290D01*
X0221300Y0125606D02*
X0221300Y0125906D01*
X0215525Y0125290D02*
X0215153Y0125290D01*
X0215153Y0124692D02*
X0215525Y0124692D01*
X0215525Y0124093D02*
X0215153Y0124093D01*
X0215153Y0123495D02*
X0215525Y0123495D01*
X0207447Y0124093D02*
X0205553Y0124093D01*
X0205553Y0123495D02*
X0207191Y0123495D01*
X0206593Y0122896D02*
X0205553Y0122896D01*
X0205502Y0122298D02*
X0205994Y0122298D01*
X0205396Y0121699D02*
X0205364Y0121699D01*
X0205553Y0124692D02*
X0207447Y0124692D01*
X0207447Y0125290D02*
X0205553Y0125290D01*
X0216725Y0129999D02*
X0225393Y0138667D01*
X0271069Y0138667D01*
X0283800Y0151398D01*
X0287653Y0151625D02*
X0333602Y0151625D01*
X0333602Y0152223D02*
X0287653Y0152223D01*
X0287653Y0152822D02*
X0333602Y0152822D01*
X0333602Y0153420D02*
X0287653Y0153420D01*
X0287653Y0154019D02*
X0333602Y0154019D01*
X0333602Y0154617D02*
X0287653Y0154617D01*
X0287612Y0155216D02*
X0333602Y0155216D01*
X0333602Y0155814D02*
X0287364Y0155814D01*
X0287116Y0156413D02*
X0333602Y0156413D01*
X0333602Y0157011D02*
X0286588Y0157011D01*
X0285990Y0157610D02*
X0333602Y0157610D01*
X0333602Y0158208D02*
X0241187Y0158208D01*
X0240589Y0158807D02*
X0333602Y0158807D01*
X0333602Y0159405D02*
X0239990Y0159405D01*
X0239392Y0160004D02*
X0333602Y0160004D01*
X0333602Y0160602D02*
X0238793Y0160602D01*
X0238195Y0161201D02*
X0333602Y0161201D01*
X0333602Y0161799D02*
X0237596Y0161799D01*
X0236997Y0162398D02*
X0333602Y0162398D01*
X0333602Y0151026D02*
X0287653Y0151026D01*
X0287653Y0150428D02*
X0333602Y0150428D01*
X0333602Y0149829D02*
X0287653Y0149829D01*
X0287653Y0149231D02*
X0333602Y0149231D01*
X0333602Y0148632D02*
X0287653Y0148632D01*
X0287653Y0148034D02*
X0333602Y0148034D01*
X0333602Y0147435D02*
X0287552Y0147435D01*
X0287304Y0146836D02*
X0333602Y0146836D01*
X0333602Y0146238D02*
X0287041Y0146238D01*
X0286443Y0145639D02*
X0333602Y0145639D01*
X0333602Y0145041D02*
X0285648Y0145041D01*
X0281951Y0145041D02*
X0279140Y0145041D01*
X0279738Y0145639D02*
X0281157Y0145639D01*
X0280559Y0146238D02*
X0280337Y0146238D01*
X0278738Y0148034D02*
X0277653Y0148034D01*
X0277653Y0148632D02*
X0279337Y0148632D01*
X0279935Y0149231D02*
X0277653Y0149231D01*
X0277653Y0149829D02*
X0279947Y0149829D01*
X0279947Y0150428D02*
X0277653Y0150428D01*
X0277653Y0151026D02*
X0279947Y0151026D01*
X0279947Y0151625D02*
X0277653Y0151625D01*
X0277653Y0152223D02*
X0279947Y0152223D01*
X0279947Y0152822D02*
X0277653Y0152822D01*
X0277653Y0153420D02*
X0279947Y0153420D01*
X0279947Y0154019D02*
X0277653Y0154019D01*
X0277653Y0154617D02*
X0279947Y0154617D01*
X0279988Y0155216D02*
X0277612Y0155216D01*
X0277364Y0155814D02*
X0280236Y0155814D01*
X0280484Y0156413D02*
X0277116Y0156413D01*
X0276588Y0157011D02*
X0281012Y0157011D01*
X0281610Y0157610D02*
X0275990Y0157610D01*
X0271610Y0157610D02*
X0265990Y0157610D01*
X0266588Y0157011D02*
X0271012Y0157011D01*
X0270484Y0156413D02*
X0267116Y0156413D01*
X0267364Y0155814D02*
X0270236Y0155814D01*
X0269988Y0155216D02*
X0267612Y0155216D01*
X0267653Y0154617D02*
X0269947Y0154617D01*
X0269947Y0154019D02*
X0267653Y0154019D01*
X0267653Y0153420D02*
X0269947Y0153420D01*
X0269947Y0152822D02*
X0267653Y0152822D01*
X0267653Y0152223D02*
X0269947Y0152223D01*
X0269947Y0151625D02*
X0267653Y0151625D01*
X0267653Y0151026D02*
X0269947Y0151026D01*
X0269947Y0150428D02*
X0267653Y0150428D01*
X0267653Y0149829D02*
X0269947Y0149829D01*
X0269947Y0149231D02*
X0267653Y0149231D01*
X0267653Y0148632D02*
X0269947Y0148632D01*
X0269947Y0148034D02*
X0267653Y0148034D01*
X0267552Y0147435D02*
X0270048Y0147435D01*
X0270296Y0146836D02*
X0267304Y0146836D01*
X0267041Y0146238D02*
X0270559Y0146238D01*
X0271157Y0145639D02*
X0266443Y0145639D01*
X0265648Y0145041D02*
X0271951Y0145041D01*
X0273950Y0143245D02*
X0175658Y0143245D01*
X0176256Y0142647D02*
X0273352Y0142647D01*
X0272753Y0142048D02*
X0176855Y0142048D01*
X0177453Y0141450D02*
X0272155Y0141450D01*
X0271556Y0140851D02*
X0178052Y0140851D01*
X0178650Y0140253D02*
X0270958Y0140253D01*
X0272556Y0138457D02*
X0333602Y0138457D01*
X0333602Y0137859D02*
X0271958Y0137859D01*
X0273155Y0139056D02*
X0333602Y0139056D01*
X0333602Y0139654D02*
X0273753Y0139654D01*
X0274352Y0140253D02*
X0333602Y0140253D01*
X0333602Y0140851D02*
X0274950Y0140851D01*
X0275549Y0141450D02*
X0333602Y0141450D01*
X0333602Y0142048D02*
X0276147Y0142048D01*
X0276746Y0142647D02*
X0333602Y0142647D01*
X0333602Y0143245D02*
X0277344Y0143245D01*
X0277943Y0143844D02*
X0333602Y0143844D01*
X0333602Y0144442D02*
X0278541Y0144442D01*
X0277541Y0146836D02*
X0277304Y0146836D01*
X0277552Y0147435D02*
X0278140Y0147435D01*
X0275746Y0145041D02*
X0275648Y0145041D01*
X0275147Y0144442D02*
X0195242Y0144442D01*
X0194100Y0144442D02*
X0193500Y0144442D01*
X0193500Y0144193D02*
X0193500Y0151098D01*
X0194100Y0151098D01*
X0194100Y0151698D01*
X0193500Y0151698D01*
X0193500Y0151098D01*
X0189547Y0151098D01*
X0189547Y0148111D01*
X0189652Y0147450D01*
X0189859Y0146813D01*
X0190163Y0146217D01*
X0190556Y0145675D01*
X0191030Y0145202D01*
X0191571Y0144808D01*
X0192167Y0144504D01*
X0192804Y0144297D01*
X0193465Y0144193D01*
X0193500Y0144193D01*
X0193500Y0145041D02*
X0194100Y0145041D01*
X0194100Y0145639D02*
X0193500Y0145639D01*
X0193500Y0146238D02*
X0194100Y0146238D01*
X0194100Y0146836D02*
X0193500Y0146836D01*
X0193500Y0147435D02*
X0194100Y0147435D01*
X0194100Y0148034D02*
X0193500Y0148034D01*
X0193500Y0148632D02*
X0194100Y0148632D01*
X0194100Y0149231D02*
X0193500Y0149231D01*
X0193500Y0149829D02*
X0194100Y0149829D01*
X0194100Y0150428D02*
X0193500Y0150428D01*
X0193500Y0151026D02*
X0194100Y0151026D01*
X0193800Y0151398D02*
X0201300Y0143898D01*
X0205648Y0145041D02*
X0211951Y0145041D01*
X0211618Y0145179D02*
X0213034Y0144593D01*
X0214566Y0144593D01*
X0215982Y0145179D01*
X0217066Y0146263D01*
X0217653Y0147679D01*
X0217653Y0155117D01*
X0217066Y0156533D01*
X0215982Y0157617D01*
X0214566Y0158204D01*
X0213034Y0158204D01*
X0211618Y0157617D01*
X0210534Y0156533D01*
X0209947Y0155117D01*
X0209947Y0147679D01*
X0210534Y0146263D01*
X0211618Y0145179D01*
X0211157Y0145639D02*
X0206443Y0145639D01*
X0207041Y0146238D02*
X0210559Y0146238D01*
X0210296Y0146836D02*
X0207304Y0146836D01*
X0207552Y0147435D02*
X0210048Y0147435D01*
X0209947Y0148034D02*
X0207653Y0148034D01*
X0207653Y0148632D02*
X0209947Y0148632D01*
X0209947Y0149231D02*
X0207653Y0149231D01*
X0207653Y0149829D02*
X0209947Y0149829D01*
X0209947Y0150428D02*
X0207653Y0150428D01*
X0207653Y0151026D02*
X0209947Y0151026D01*
X0209947Y0151625D02*
X0207653Y0151625D01*
X0207653Y0152223D02*
X0209947Y0152223D01*
X0209947Y0152822D02*
X0207653Y0152822D01*
X0207653Y0153420D02*
X0209947Y0153420D01*
X0209947Y0154019D02*
X0207653Y0154019D01*
X0207653Y0154617D02*
X0209947Y0154617D01*
X0209988Y0155216D02*
X0207612Y0155216D01*
X0207364Y0155814D02*
X0210236Y0155814D01*
X0210484Y0156413D02*
X0207116Y0156413D01*
X0206588Y0157011D02*
X0211012Y0157011D01*
X0211610Y0157610D02*
X0205990Y0157610D01*
X0215990Y0157610D02*
X0221610Y0157610D01*
X0221012Y0157011D02*
X0216588Y0157011D01*
X0217116Y0156413D02*
X0220484Y0156413D01*
X0220236Y0155814D02*
X0217364Y0155814D01*
X0217612Y0155216D02*
X0219988Y0155216D01*
X0219947Y0154617D02*
X0217653Y0154617D01*
X0217653Y0154019D02*
X0219947Y0154019D01*
X0219947Y0153420D02*
X0217653Y0153420D01*
X0217653Y0152822D02*
X0219947Y0152822D01*
X0219947Y0152223D02*
X0217653Y0152223D01*
X0217653Y0151625D02*
X0219947Y0151625D01*
X0219947Y0151026D02*
X0217653Y0151026D01*
X0217653Y0150428D02*
X0219947Y0150428D01*
X0219947Y0149829D02*
X0217653Y0149829D01*
X0217653Y0149231D02*
X0219947Y0149231D01*
X0219947Y0148632D02*
X0217653Y0148632D01*
X0217653Y0148034D02*
X0219947Y0148034D01*
X0220048Y0147435D02*
X0217552Y0147435D01*
X0217304Y0146836D02*
X0220296Y0146836D01*
X0220559Y0146238D02*
X0217041Y0146238D01*
X0216443Y0145639D02*
X0221157Y0145639D01*
X0221951Y0145041D02*
X0215648Y0145041D01*
X0223486Y0138457D02*
X0180446Y0138457D01*
X0181044Y0137859D02*
X0222887Y0137859D01*
X0222289Y0137260D02*
X0181643Y0137260D01*
X0182241Y0136662D02*
X0221690Y0136662D01*
X0221092Y0136063D02*
X0182840Y0136063D01*
X0183438Y0135465D02*
X0220493Y0135465D01*
X0219895Y0134866D02*
X0184037Y0134866D01*
X0184635Y0134268D02*
X0219296Y0134268D01*
X0221493Y0133071D02*
X0333602Y0133071D01*
X0333602Y0133669D02*
X0222092Y0133669D01*
X0222690Y0134268D02*
X0333602Y0134268D01*
X0333602Y0134866D02*
X0223289Y0134866D01*
X0223887Y0135465D02*
X0333602Y0135465D01*
X0333602Y0136063D02*
X0224486Y0136063D01*
X0225084Y0136662D02*
X0333602Y0136662D01*
X0333602Y0137260D02*
X0225683Y0137260D01*
X0224084Y0139056D02*
X0179847Y0139056D01*
X0179249Y0139654D02*
X0224683Y0139654D01*
X0237653Y0151625D02*
X0239947Y0151625D01*
X0239947Y0152223D02*
X0237653Y0152223D01*
X0237653Y0152822D02*
X0239947Y0152822D01*
X0239947Y0153420D02*
X0237653Y0153420D01*
X0237653Y0154019D02*
X0239947Y0154019D01*
X0239947Y0154617D02*
X0237653Y0154617D01*
X0237612Y0155216D02*
X0239988Y0155216D01*
X0240187Y0155814D02*
X0237364Y0155814D01*
X0237116Y0156413D02*
X0239589Y0156413D01*
X0238990Y0157011D02*
X0236588Y0157011D01*
X0237194Y0158807D02*
X0147139Y0158807D01*
X0146540Y0159405D02*
X0236596Y0159405D01*
X0235997Y0160004D02*
X0145942Y0160004D01*
X0147737Y0158208D02*
X0192003Y0158208D01*
X0192167Y0158292D02*
X0191571Y0157988D01*
X0191030Y0157595D01*
X0190556Y0157121D01*
X0190163Y0156580D01*
X0189859Y0155983D01*
X0189652Y0155347D01*
X0189547Y0154686D01*
X0189547Y0151698D01*
X0193500Y0151698D01*
X0193500Y0158604D01*
X0193465Y0158604D01*
X0192804Y0158499D01*
X0192167Y0158292D01*
X0191050Y0157610D02*
X0185990Y0157610D01*
X0185982Y0157617D02*
X0184566Y0158204D01*
X0183034Y0158204D01*
X0181618Y0157617D01*
X0180534Y0156533D01*
X0179947Y0155117D01*
X0179947Y0147679D01*
X0180534Y0146263D01*
X0181618Y0145179D01*
X0183034Y0144593D01*
X0184566Y0144593D01*
X0185982Y0145179D01*
X0187066Y0146263D01*
X0187653Y0147679D01*
X0187653Y0155117D01*
X0187066Y0156533D01*
X0185982Y0157617D01*
X0186588Y0157011D02*
X0190476Y0157011D01*
X0190077Y0156413D02*
X0187116Y0156413D01*
X0187364Y0155814D02*
X0189804Y0155814D01*
X0189631Y0155216D02*
X0187612Y0155216D01*
X0187653Y0154617D02*
X0189547Y0154617D01*
X0189547Y0154019D02*
X0187653Y0154019D01*
X0187653Y0153420D02*
X0189547Y0153420D01*
X0189547Y0152822D02*
X0187653Y0152822D01*
X0187653Y0152223D02*
X0189547Y0152223D01*
X0189547Y0151026D02*
X0187653Y0151026D01*
X0187653Y0150428D02*
X0189547Y0150428D01*
X0189547Y0149829D02*
X0187653Y0149829D01*
X0187653Y0149231D02*
X0189547Y0149231D01*
X0189547Y0148632D02*
X0187653Y0148632D01*
X0187653Y0148034D02*
X0189559Y0148034D01*
X0189657Y0147435D02*
X0187552Y0147435D01*
X0187304Y0146836D02*
X0189851Y0146836D01*
X0190152Y0146238D02*
X0187041Y0146238D01*
X0186443Y0145639D02*
X0190592Y0145639D01*
X0191251Y0145041D02*
X0185648Y0145041D01*
X0181951Y0145041D02*
X0175648Y0145041D01*
X0176443Y0145639D02*
X0181157Y0145639D01*
X0180559Y0146238D02*
X0177041Y0146238D01*
X0177304Y0146836D02*
X0180296Y0146836D01*
X0180048Y0147435D02*
X0177552Y0147435D01*
X0177653Y0148034D02*
X0179947Y0148034D01*
X0179947Y0148632D02*
X0177653Y0148632D01*
X0177653Y0149231D02*
X0179947Y0149231D01*
X0179947Y0149829D02*
X0177653Y0149829D01*
X0177653Y0150428D02*
X0179947Y0150428D01*
X0179947Y0151026D02*
X0177653Y0151026D01*
X0177653Y0151625D02*
X0179947Y0151625D01*
X0179947Y0152223D02*
X0177653Y0152223D01*
X0177653Y0152822D02*
X0179947Y0152822D01*
X0179947Y0153420D02*
X0177653Y0153420D01*
X0177653Y0154019D02*
X0179947Y0154019D01*
X0179947Y0154617D02*
X0177653Y0154617D01*
X0177612Y0155216D02*
X0179988Y0155216D01*
X0180236Y0155814D02*
X0177364Y0155814D01*
X0177116Y0156413D02*
X0180484Y0156413D01*
X0181012Y0157011D02*
X0176588Y0157011D01*
X0175990Y0157610D02*
X0181610Y0157610D01*
X0171610Y0157610D02*
X0165990Y0157610D01*
X0166588Y0157011D02*
X0171012Y0157011D01*
X0170484Y0156413D02*
X0167116Y0156413D01*
X0167364Y0155814D02*
X0170236Y0155814D01*
X0169988Y0155216D02*
X0167612Y0155216D01*
X0167653Y0154617D02*
X0169947Y0154617D01*
X0169947Y0154019D02*
X0167653Y0154019D01*
X0167653Y0153420D02*
X0169947Y0153420D01*
X0169947Y0152822D02*
X0167653Y0152822D01*
X0167653Y0152223D02*
X0169947Y0152223D01*
X0169947Y0151625D02*
X0167653Y0151625D01*
X0167653Y0151026D02*
X0169947Y0151026D01*
X0169947Y0150428D02*
X0167653Y0150428D01*
X0167653Y0149829D02*
X0169947Y0149829D01*
X0169947Y0149231D02*
X0167653Y0149231D01*
X0167653Y0148632D02*
X0169947Y0148632D01*
X0169947Y0148034D02*
X0167653Y0148034D01*
X0167552Y0147435D02*
X0170048Y0147435D01*
X0170296Y0146836D02*
X0167304Y0146836D01*
X0167041Y0146238D02*
X0170559Y0146238D01*
X0171157Y0145639D02*
X0166443Y0145639D01*
X0161157Y0145639D02*
X0156443Y0145639D01*
X0157041Y0146238D02*
X0160559Y0146238D01*
X0160296Y0146836D02*
X0157304Y0146836D01*
X0157552Y0147435D02*
X0160048Y0147435D01*
X0159947Y0148034D02*
X0157653Y0148034D01*
X0157653Y0148632D02*
X0159947Y0148632D01*
X0159947Y0149231D02*
X0157653Y0149231D01*
X0157653Y0149829D02*
X0159947Y0149829D01*
X0159947Y0150428D02*
X0157653Y0150428D01*
X0157653Y0151026D02*
X0159947Y0151026D01*
X0159947Y0151625D02*
X0157653Y0151625D01*
X0157653Y0152223D02*
X0159947Y0152223D01*
X0159947Y0152822D02*
X0157653Y0152822D01*
X0157653Y0153420D02*
X0159947Y0153420D01*
X0159947Y0154019D02*
X0157653Y0154019D01*
X0157653Y0154617D02*
X0159947Y0154617D01*
X0159988Y0155216D02*
X0157612Y0155216D01*
X0157364Y0155814D02*
X0160236Y0155814D01*
X0160484Y0156413D02*
X0157116Y0156413D01*
X0156588Y0157011D02*
X0161012Y0157011D01*
X0161610Y0157610D02*
X0155990Y0157610D01*
X0151610Y0157610D02*
X0148336Y0157610D01*
X0148934Y0157011D02*
X0151012Y0157011D01*
X0150484Y0156413D02*
X0149533Y0156413D01*
X0150132Y0155814D02*
X0150236Y0155814D01*
X0138375Y0155779D02*
X0138375Y0147825D01*
X0143425Y0142776D01*
X0154430Y0142776D01*
X0171300Y0125906D01*
X0174484Y0119090D02*
X0181300Y0125906D01*
X0184965Y0130078D02*
X0185431Y0130078D01*
X0184832Y0130677D02*
X0184717Y0130677D01*
X0178303Y0120502D02*
X0177593Y0120502D01*
X0176994Y0119903D02*
X0178901Y0119903D01*
X0180040Y0119305D02*
X0176396Y0119305D01*
X0174484Y0119090D02*
X0159572Y0119090D01*
X0156300Y0122362D01*
X0156300Y0129335D01*
X0150009Y0135627D01*
X0129572Y0135627D01*
X0113800Y0151398D01*
X0123800Y0151398D02*
X0131302Y0158900D01*
X0135254Y0158900D01*
X0138375Y0155779D01*
X0133800Y0151398D02*
X0133800Y0145148D01*
X0138800Y0140148D01*
X0147185Y0140148D01*
X0147534Y0139799D01*
X0161300Y0126034D01*
X0161300Y0125906D01*
X0175059Y0143844D02*
X0274549Y0143844D01*
X0261279Y0105885D02*
X0178287Y0105885D01*
X0163800Y0091398D01*
X0173800Y0091398D02*
X0187087Y0104685D01*
X0193500Y0098357D02*
X0194100Y0098357D01*
X0194100Y0097759D02*
X0193500Y0097759D01*
X0193500Y0097160D02*
X0194100Y0097160D01*
X0194100Y0096562D02*
X0193500Y0096562D01*
X0193500Y0095963D02*
X0194100Y0095963D01*
X0194100Y0095365D02*
X0193500Y0095365D01*
X0193500Y0094766D02*
X0194100Y0094766D01*
X0194100Y0094167D02*
X0193500Y0094167D01*
X0193500Y0093569D02*
X0194100Y0093569D01*
X0194100Y0092970D02*
X0193500Y0092970D01*
X0193500Y0092372D02*
X0194100Y0092372D01*
X0203888Y0073220D02*
X0209384Y0073220D01*
X0208629Y0072621D02*
X0204536Y0072621D01*
X0204962Y0072023D02*
X0208033Y0072023D01*
X0207785Y0071424D02*
X0205258Y0071424D01*
X0205450Y0070826D02*
X0207537Y0070826D01*
X0207447Y0070227D02*
X0205545Y0070227D01*
X0205553Y0069629D02*
X0207447Y0069629D01*
X0207447Y0069030D02*
X0205553Y0069030D01*
X0205553Y0068431D02*
X0207447Y0068431D01*
X0207447Y0067833D02*
X0205553Y0067833D01*
X0205553Y0067234D02*
X0207447Y0067234D01*
X0207447Y0066636D02*
X0201600Y0066636D01*
X0201000Y0066636D02*
X0195153Y0066636D01*
X0195153Y0067234D02*
X0197047Y0067234D01*
X0197047Y0067190D02*
X0201000Y0067190D01*
X0201000Y0066590D01*
X0197047Y0066590D01*
X0197047Y0063603D01*
X0197152Y0062942D01*
X0197359Y0062305D01*
X0197663Y0061709D01*
X0198056Y0061167D01*
X0198530Y0060694D01*
X0199071Y0060300D01*
X0199468Y0060098D01*
X0192099Y0060098D01*
X0193482Y0060671D01*
X0194566Y0061755D01*
X0195153Y0063171D01*
X0195153Y0069046D01*
X0197251Y0071145D01*
X0197152Y0070839D01*
X0197047Y0070178D01*
X0197047Y0067190D01*
X0197047Y0067833D02*
X0195153Y0067833D01*
X0195153Y0068431D02*
X0197047Y0068431D01*
X0197047Y0069030D02*
X0195153Y0069030D01*
X0195735Y0069629D02*
X0197047Y0069629D01*
X0197055Y0070227D02*
X0196334Y0070227D01*
X0196932Y0070826D02*
X0197150Y0070826D01*
X0197047Y0066037D02*
X0195153Y0066037D01*
X0195153Y0065439D02*
X0197047Y0065439D01*
X0197047Y0064840D02*
X0195153Y0064840D01*
X0195153Y0064242D02*
X0197047Y0064242D01*
X0197047Y0063643D02*
X0195153Y0063643D01*
X0195100Y0063045D02*
X0197136Y0063045D01*
X0197313Y0062446D02*
X0194852Y0062446D01*
X0194605Y0061848D02*
X0197592Y0061848D01*
X0197996Y0061249D02*
X0194060Y0061249D01*
X0193433Y0060651D02*
X0198589Y0060651D01*
X0204011Y0060651D02*
X0209167Y0060651D01*
X0208540Y0061249D02*
X0204604Y0061249D01*
X0205008Y0061848D02*
X0207995Y0061848D01*
X0207747Y0062446D02*
X0205287Y0062446D01*
X0205464Y0063045D02*
X0207500Y0063045D01*
X0207447Y0063643D02*
X0205553Y0063643D01*
X0205553Y0064242D02*
X0207447Y0064242D01*
X0207447Y0064840D02*
X0205553Y0064840D01*
X0205553Y0065439D02*
X0207447Y0065439D01*
X0207447Y0066037D02*
X0205553Y0066037D01*
X0213433Y0060651D02*
X0219167Y0060651D01*
X0218540Y0061249D02*
X0214060Y0061249D01*
X0214605Y0061848D02*
X0217995Y0061848D01*
X0217747Y0062446D02*
X0214852Y0062446D01*
X0215100Y0063045D02*
X0217500Y0063045D01*
X0217447Y0063643D02*
X0215153Y0063643D01*
X0215153Y0064242D02*
X0217447Y0064242D01*
X0217447Y0064840D02*
X0215153Y0064840D01*
X0215153Y0065439D02*
X0217447Y0065439D01*
X0217447Y0066037D02*
X0215153Y0066037D01*
X0215153Y0066636D02*
X0217447Y0066636D01*
X0217447Y0067234D02*
X0215153Y0067234D01*
X0215153Y0067833D02*
X0217447Y0067833D01*
X0217447Y0068431D02*
X0215153Y0068431D01*
X0215153Y0069030D02*
X0217447Y0069030D01*
X0217447Y0069629D02*
X0215153Y0069629D01*
X0215153Y0070227D02*
X0217447Y0070227D01*
X0217537Y0070826D02*
X0215063Y0070826D01*
X0214815Y0071424D02*
X0217785Y0071424D01*
X0218033Y0072023D02*
X0214567Y0072023D01*
X0213971Y0072621D02*
X0218629Y0072621D01*
X0219384Y0073220D02*
X0213216Y0073220D01*
X0223216Y0073220D02*
X0229384Y0073220D01*
X0228629Y0072621D02*
X0223971Y0072621D01*
X0224567Y0072023D02*
X0228033Y0072023D01*
X0227785Y0071424D02*
X0224815Y0071424D01*
X0225063Y0070826D02*
X0227537Y0070826D01*
X0227447Y0070227D02*
X0225153Y0070227D01*
X0225153Y0069629D02*
X0227447Y0069629D01*
X0227447Y0069030D02*
X0225153Y0069030D01*
X0225153Y0068431D02*
X0227447Y0068431D01*
X0227447Y0067833D02*
X0225153Y0067833D01*
X0225153Y0067234D02*
X0227447Y0067234D01*
X0227447Y0066636D02*
X0225153Y0066636D01*
X0225153Y0066037D02*
X0227447Y0066037D01*
X0227447Y0065439D02*
X0225153Y0065439D01*
X0225153Y0064840D02*
X0227447Y0064840D01*
X0227447Y0064242D02*
X0225153Y0064242D01*
X0225153Y0063643D02*
X0227447Y0063643D01*
X0227500Y0063045D02*
X0225100Y0063045D01*
X0224852Y0062446D02*
X0227747Y0062446D01*
X0227995Y0061848D02*
X0224605Y0061848D01*
X0224060Y0061249D02*
X0228540Y0061249D01*
X0229167Y0060651D02*
X0223433Y0060651D01*
X0233433Y0060651D02*
X0239167Y0060651D01*
X0238540Y0061249D02*
X0234060Y0061249D01*
X0234605Y0061848D02*
X0237995Y0061848D01*
X0237747Y0062446D02*
X0234852Y0062446D01*
X0235100Y0063045D02*
X0237500Y0063045D01*
X0237447Y0063643D02*
X0235153Y0063643D01*
X0235153Y0064242D02*
X0237447Y0064242D01*
X0237447Y0064840D02*
X0235153Y0064840D01*
X0235153Y0065439D02*
X0237447Y0065439D01*
X0237447Y0066037D02*
X0235153Y0066037D01*
X0235153Y0066636D02*
X0237447Y0066636D01*
X0237447Y0067234D02*
X0235153Y0067234D01*
X0235153Y0067833D02*
X0237447Y0067833D01*
X0237447Y0068431D02*
X0235153Y0068431D01*
X0235153Y0069030D02*
X0237447Y0069030D01*
X0237447Y0069629D02*
X0235153Y0069629D01*
X0235153Y0070227D02*
X0237447Y0070227D01*
X0237537Y0070826D02*
X0235063Y0070826D01*
X0234815Y0071424D02*
X0237785Y0071424D01*
X0238033Y0072023D02*
X0234567Y0072023D01*
X0233971Y0072621D02*
X0238629Y0072621D01*
X0239384Y0073220D02*
X0233216Y0073220D01*
X0265993Y0085190D02*
X0271607Y0085190D01*
X0271009Y0085788D02*
X0266591Y0085788D01*
X0267117Y0086387D02*
X0270483Y0086387D01*
X0270235Y0086985D02*
X0267365Y0086985D01*
X0267613Y0087584D02*
X0269987Y0087584D01*
X0269947Y0088182D02*
X0267653Y0088182D01*
X0267653Y0088781D02*
X0269947Y0088781D01*
X0269947Y0089379D02*
X0267653Y0089379D01*
X0267653Y0089978D02*
X0269947Y0089978D01*
X0269947Y0090576D02*
X0267653Y0090576D01*
X0260562Y0096562D02*
X0260334Y0096562D01*
X0259735Y0097160D02*
X0261160Y0097160D01*
X0285993Y0085190D02*
X0333602Y0085190D01*
X0333602Y0085788D02*
X0286591Y0085788D01*
X0287117Y0086387D02*
X0333602Y0086387D01*
X0333602Y0086985D02*
X0287365Y0086985D01*
X0287613Y0087584D02*
X0333602Y0087584D01*
X0333602Y0088182D02*
X0287653Y0088182D01*
X0287653Y0088781D02*
X0333602Y0088781D01*
X0333602Y0089379D02*
X0287653Y0089379D01*
X0287653Y0089978D02*
X0333602Y0089978D01*
X0333602Y0090576D02*
X0287653Y0090576D01*
X0285000Y0084591D02*
X0333602Y0084591D01*
X0333602Y0083993D02*
X0285000Y0083993D01*
X0285000Y0083394D02*
X0333602Y0083394D01*
X0333602Y0082796D02*
X0285000Y0082796D01*
X0285000Y0082197D02*
X0333602Y0082197D01*
X0333602Y0081599D02*
X0285000Y0081599D01*
X0285000Y0081000D02*
X0333602Y0081000D01*
X0333602Y0080402D02*
X0285000Y0080402D01*
X0285000Y0079803D02*
X0333602Y0079803D01*
X0333602Y0079205D02*
X0285191Y0079205D01*
X0285789Y0078606D02*
X0333602Y0078606D01*
X0333602Y0078008D02*
X0286388Y0078008D01*
X0286986Y0077409D02*
X0333602Y0077409D01*
X0333602Y0076811D02*
X0287500Y0076811D01*
X0287500Y0076212D02*
X0333602Y0076212D01*
X0333602Y0075614D02*
X0287500Y0075614D01*
X0287500Y0075015D02*
X0333602Y0075015D01*
X0333602Y0074417D02*
X0287500Y0074417D01*
X0285035Y0056384D02*
X0161285Y0056384D01*
X0126300Y0021398D01*
X0115237Y0021398D01*
X0119132Y0019354D02*
X0151268Y0019354D01*
X0151867Y0019952D02*
X0119437Y0019952D01*
X0118534Y0018755D02*
X0150670Y0018755D01*
X0150687Y0017075D02*
X0171709Y0038098D01*
X0171019Y0039104D02*
X0145703Y0039104D01*
X0145105Y0038506D02*
X0170420Y0038506D01*
X0169822Y0037907D02*
X0144506Y0037907D01*
X0143908Y0037309D02*
X0169223Y0037309D01*
X0168625Y0036710D02*
X0143309Y0036710D01*
X0142711Y0036112D02*
X0168026Y0036112D01*
X0167428Y0035513D02*
X0142112Y0035513D01*
X0141514Y0034915D02*
X0166829Y0034915D01*
X0166231Y0034316D02*
X0140915Y0034316D01*
X0140317Y0033718D02*
X0165632Y0033718D01*
X0165034Y0033119D02*
X0139718Y0033119D01*
X0139120Y0032521D02*
X0164435Y0032521D01*
X0163837Y0031922D02*
X0138521Y0031922D01*
X0137923Y0031324D02*
X0163238Y0031324D01*
X0162640Y0030725D02*
X0137324Y0030725D01*
X0136726Y0030127D02*
X0162041Y0030127D01*
X0161443Y0029528D02*
X0136127Y0029528D01*
X0135529Y0028930D02*
X0160844Y0028930D01*
X0160246Y0028331D02*
X0134930Y0028331D01*
X0134332Y0027733D02*
X0159647Y0027733D01*
X0159049Y0027134D02*
X0133733Y0027134D01*
X0133135Y0026536D02*
X0158450Y0026536D01*
X0157852Y0025937D02*
X0132536Y0025937D01*
X0131938Y0025339D02*
X0157253Y0025339D01*
X0156655Y0024740D02*
X0131339Y0024740D01*
X0130740Y0024142D02*
X0156056Y0024142D01*
X0155458Y0023543D02*
X0130142Y0023543D01*
X0129543Y0022945D02*
X0154859Y0022945D01*
X0154261Y0022346D02*
X0128945Y0022346D01*
X0128346Y0021748D02*
X0153662Y0021748D01*
X0153064Y0021149D02*
X0127748Y0021149D01*
X0127149Y0020551D02*
X0152465Y0020551D01*
X0150687Y0017075D02*
X0109298Y0017075D01*
X0108347Y0025339D02*
X0107236Y0025339D01*
X0102963Y0027733D02*
X0093998Y0027733D01*
X0093998Y0028331D02*
X0102364Y0028331D01*
X0101766Y0028930D02*
X0093998Y0028930D01*
X0093998Y0029528D02*
X0101167Y0029528D01*
X0101037Y0030127D02*
X0093998Y0030127D01*
X0093998Y0030725D02*
X0101037Y0030725D01*
X0101037Y0031324D02*
X0093998Y0031324D01*
X0093998Y0031922D02*
X0101037Y0031922D01*
X0101037Y0032521D02*
X0093998Y0032521D01*
X0093998Y0033119D02*
X0101037Y0033119D01*
X0101617Y0033718D02*
X0093998Y0033718D01*
X0093998Y0034316D02*
X0102215Y0034316D01*
X0102814Y0034915D02*
X0093998Y0034915D01*
X0093998Y0035513D02*
X0103412Y0035513D01*
X0103387Y0037309D02*
X0093998Y0037309D01*
X0093998Y0037907D02*
X0102788Y0037907D01*
X0107087Y0037309D02*
X0108850Y0037309D01*
X0108850Y0037907D02*
X0107686Y0037907D01*
X0108284Y0038506D02*
X0108850Y0038506D01*
X0108850Y0036710D02*
X0093998Y0036710D01*
X0093998Y0036112D02*
X0108850Y0036112D01*
X0108850Y0035513D02*
X0107062Y0035513D01*
X0107660Y0034915D02*
X0108850Y0034915D01*
X0108850Y0034316D02*
X0108259Y0034316D01*
X0108682Y0043893D02*
X0108850Y0043893D01*
X0108850Y0044491D02*
X0108084Y0044491D01*
X0146302Y0039703D02*
X0221030Y0039703D01*
X0220782Y0040301D02*
X0196681Y0040301D01*
X0196600Y0040301D02*
X0196000Y0040301D01*
X0195919Y0040301D02*
X0186681Y0040301D01*
X0186600Y0040301D02*
X0186000Y0040301D01*
X0185919Y0040301D02*
X0176681Y0040301D01*
X0176600Y0040301D02*
X0176000Y0040301D01*
X0175919Y0040301D02*
X0146900Y0040301D01*
X0147499Y0040900D02*
X0174277Y0040900D01*
X0173567Y0041498D02*
X0148097Y0041498D01*
X0148696Y0042097D02*
X0173120Y0042097D01*
X0172835Y0042696D02*
X0149294Y0042696D01*
X0149893Y0043294D02*
X0172668Y0043294D01*
X0172600Y0043893D02*
X0150491Y0043893D01*
X0151090Y0044491D02*
X0172600Y0044491D01*
X0172600Y0045090D02*
X0151688Y0045090D01*
X0152287Y0045688D02*
X0172600Y0045688D01*
X0176000Y0045090D02*
X0176600Y0045090D01*
X0176600Y0044491D02*
X0176000Y0044491D01*
X0176000Y0043893D02*
X0176600Y0043893D01*
X0176600Y0043294D02*
X0176000Y0043294D01*
X0176000Y0042696D02*
X0176600Y0042696D01*
X0176600Y0042097D02*
X0176000Y0042097D01*
X0176000Y0041498D02*
X0176600Y0041498D01*
X0176600Y0040900D02*
X0176000Y0040900D01*
X0178323Y0040900D02*
X0184277Y0040900D01*
X0183567Y0041498D02*
X0179033Y0041498D01*
X0179480Y0042097D02*
X0183120Y0042097D01*
X0182835Y0042696D02*
X0179765Y0042696D01*
X0179932Y0043294D02*
X0182668Y0043294D01*
X0182600Y0043893D02*
X0180000Y0043893D01*
X0180000Y0044491D02*
X0182600Y0044491D01*
X0182600Y0045090D02*
X0180000Y0045090D01*
X0180000Y0045688D02*
X0182600Y0045688D01*
X0182600Y0046698D02*
X0186000Y0046698D01*
X0186000Y0052498D01*
X0185936Y0052498D01*
X0185221Y0052356D01*
X0184547Y0052077D01*
X0183941Y0051672D01*
X0183426Y0051157D01*
X0183021Y0050551D01*
X0182742Y0049877D01*
X0182600Y0049163D01*
X0182600Y0046698D01*
X0182600Y0046885D02*
X0180000Y0046885D01*
X0180000Y0047484D02*
X0182600Y0047484D01*
X0182600Y0048082D02*
X0180000Y0048082D01*
X0180000Y0048681D02*
X0182600Y0048681D01*
X0182623Y0049279D02*
X0179977Y0049279D01*
X0179858Y0049878D02*
X0182742Y0049878D01*
X0182990Y0050476D02*
X0179610Y0050476D01*
X0179229Y0051075D02*
X0183371Y0051075D01*
X0183943Y0051673D02*
X0178657Y0051673D01*
X0177583Y0052272D02*
X0185017Y0052272D01*
X0186000Y0052272D02*
X0186600Y0052272D01*
X0186600Y0051673D02*
X0186000Y0051673D01*
X0186000Y0051075D02*
X0186600Y0051075D01*
X0186600Y0050476D02*
X0186000Y0050476D01*
X0186000Y0049878D02*
X0186600Y0049878D01*
X0186600Y0049279D02*
X0186000Y0049279D01*
X0186000Y0048681D02*
X0186600Y0048681D01*
X0186600Y0048082D02*
X0186000Y0048082D01*
X0186000Y0047484D02*
X0186600Y0047484D01*
X0186600Y0046885D02*
X0186000Y0046885D01*
X0186300Y0046398D02*
X0196300Y0046398D01*
X0192600Y0046885D02*
X0190000Y0046885D01*
X0190000Y0047484D02*
X0192600Y0047484D01*
X0192600Y0048082D02*
X0190000Y0048082D01*
X0190000Y0048681D02*
X0192600Y0048681D01*
X0192623Y0049279D02*
X0189977Y0049279D01*
X0189858Y0049878D02*
X0192742Y0049878D01*
X0192990Y0050476D02*
X0189610Y0050476D01*
X0189229Y0051075D02*
X0193371Y0051075D01*
X0193943Y0051673D02*
X0188657Y0051673D01*
X0187583Y0052272D02*
X0195017Y0052272D01*
X0198657Y0051673D02*
X0243000Y0051673D01*
X0243000Y0051075D02*
X0199229Y0051075D01*
X0199610Y0050476D02*
X0243000Y0050476D01*
X0243154Y0049878D02*
X0199858Y0049878D01*
X0199977Y0049279D02*
X0243752Y0049279D01*
X0244351Y0048681D02*
X0200000Y0048681D01*
X0192600Y0045688D02*
X0190000Y0045688D01*
X0190000Y0045090D02*
X0192600Y0045090D01*
X0192600Y0044491D02*
X0190000Y0044491D01*
X0190000Y0043893D02*
X0192600Y0043893D01*
X0192668Y0043294D02*
X0189932Y0043294D01*
X0189765Y0042696D02*
X0192835Y0042696D01*
X0193120Y0042097D02*
X0189480Y0042097D01*
X0189033Y0041498D02*
X0193567Y0041498D01*
X0194277Y0040900D02*
X0188323Y0040900D01*
X0186600Y0040900D02*
X0186000Y0040900D01*
X0186000Y0041498D02*
X0186600Y0041498D01*
X0186600Y0042097D02*
X0186000Y0042097D01*
X0186000Y0042696D02*
X0186600Y0042696D01*
X0186600Y0043294D02*
X0186000Y0043294D01*
X0186000Y0043893D02*
X0186600Y0043893D01*
X0186600Y0044491D02*
X0186000Y0044491D01*
X0186000Y0045090D02*
X0186600Y0045090D01*
X0186300Y0046398D02*
X0176300Y0046398D01*
X0176000Y0046885D02*
X0176600Y0046885D01*
X0176600Y0047484D02*
X0176000Y0047484D01*
X0176000Y0048082D02*
X0176600Y0048082D01*
X0176600Y0048681D02*
X0176000Y0048681D01*
X0176000Y0049279D02*
X0176600Y0049279D01*
X0176600Y0049878D02*
X0176000Y0049878D01*
X0176000Y0050476D02*
X0176600Y0050476D01*
X0176600Y0051075D02*
X0176000Y0051075D01*
X0176000Y0051673D02*
X0176600Y0051673D01*
X0176600Y0052272D02*
X0176000Y0052272D01*
X0161265Y0054666D02*
X0244901Y0054666D01*
X0244302Y0054067D02*
X0160666Y0054067D01*
X0160068Y0053469D02*
X0243704Y0053469D01*
X0247699Y0054666D02*
X0259335Y0054666D01*
X0259767Y0055098D02*
X0257600Y0052931D01*
X0257600Y0051698D01*
X0261000Y0051698D01*
X0261000Y0055098D01*
X0259767Y0055098D01*
X0261000Y0054666D02*
X0261600Y0054666D01*
X0261600Y0054067D02*
X0261000Y0054067D01*
X0261000Y0053469D02*
X0261600Y0053469D01*
X0261600Y0052870D02*
X0261000Y0052870D01*
X0261000Y0052272D02*
X0261600Y0052272D01*
X0263864Y0054067D02*
X0274302Y0054067D01*
X0273704Y0053469D02*
X0264462Y0053469D01*
X0265000Y0052870D02*
X0273105Y0052870D01*
X0274901Y0054666D02*
X0263265Y0054666D01*
X0258736Y0054067D02*
X0248298Y0054067D01*
X0248896Y0053469D02*
X0258138Y0053469D01*
X0257600Y0052870D02*
X0249495Y0052870D01*
X0249600Y0052272D02*
X0257600Y0052272D01*
X0268388Y0045090D02*
X0279994Y0045090D01*
X0280592Y0045688D02*
X0268986Y0045688D01*
X0269585Y0046287D02*
X0281191Y0046287D01*
X0281789Y0046885D02*
X0270184Y0046885D01*
X0270782Y0047484D02*
X0282388Y0047484D01*
X0282986Y0048082D02*
X0271381Y0048082D01*
X0271979Y0048681D02*
X0274351Y0048681D01*
X0273752Y0049279D02*
X0272578Y0049279D01*
X0291804Y0038506D02*
X0333602Y0038506D01*
X0333602Y0039104D02*
X0292403Y0039104D01*
X0293001Y0039703D02*
X0333602Y0039703D01*
X0333602Y0040301D02*
X0293600Y0040301D01*
X0294198Y0040900D02*
X0333602Y0040900D01*
X0333602Y0041498D02*
X0294797Y0041498D01*
X0295395Y0042097D02*
X0333602Y0042097D01*
X0333602Y0042696D02*
X0295994Y0042696D01*
X0296592Y0043294D02*
X0333602Y0043294D01*
X0333602Y0043893D02*
X0297191Y0043893D01*
X0297789Y0044491D02*
X0333602Y0044491D01*
X0333602Y0045090D02*
X0298388Y0045090D01*
X0298986Y0045688D02*
X0333602Y0045688D01*
X0333602Y0046287D02*
X0299585Y0046287D01*
X0300184Y0046885D02*
X0333602Y0046885D01*
X0333602Y0047484D02*
X0300782Y0047484D01*
X0301381Y0048082D02*
X0333602Y0048082D01*
X0333602Y0048681D02*
X0308249Y0048681D01*
X0308848Y0049279D02*
X0333602Y0049279D01*
X0333602Y0049878D02*
X0309446Y0049878D01*
X0309600Y0050476D02*
X0333602Y0050476D01*
X0333602Y0051075D02*
X0309600Y0051075D01*
X0309600Y0051673D02*
X0333602Y0051673D01*
X0333602Y0052272D02*
X0309600Y0052272D01*
X0309495Y0052870D02*
X0333602Y0052870D01*
X0333602Y0053469D02*
X0308896Y0053469D01*
X0308298Y0054067D02*
X0333602Y0054067D01*
X0333602Y0054666D02*
X0307699Y0054666D01*
X0306300Y0051398D02*
X0303000Y0051398D01*
X0302578Y0049279D02*
X0303752Y0049279D01*
X0304351Y0048681D02*
X0301979Y0048681D01*
X0291206Y0037907D02*
X0333602Y0037907D01*
X0333602Y0037309D02*
X0290607Y0037309D01*
X0290009Y0036710D02*
X0333602Y0036710D01*
X0333602Y0036112D02*
X0289410Y0036112D01*
X0288812Y0035513D02*
X0333602Y0035513D01*
X0333602Y0034915D02*
X0288213Y0034915D01*
X0287615Y0034316D02*
X0333602Y0034316D01*
X0333602Y0033718D02*
X0287016Y0033718D01*
X0286418Y0033119D02*
X0333602Y0033119D01*
X0333602Y0032521D02*
X0285819Y0032521D01*
X0285221Y0031922D02*
X0333602Y0031922D01*
X0333602Y0031324D02*
X0284622Y0031324D01*
X0284024Y0030725D02*
X0333602Y0030725D01*
X0333602Y0030127D02*
X0283425Y0030127D01*
X0282827Y0029528D02*
X0333602Y0029528D01*
X0333602Y0028930D02*
X0282228Y0028930D01*
X0281630Y0028331D02*
X0333602Y0028331D01*
X0333602Y0027733D02*
X0281031Y0027733D01*
X0280433Y0027134D02*
X0333602Y0027134D01*
X0333602Y0026536D02*
X0279834Y0026536D01*
X0279236Y0025937D02*
X0333602Y0025937D01*
X0333602Y0025339D02*
X0278637Y0025339D01*
X0278039Y0024740D02*
X0333602Y0024740D01*
X0333602Y0024142D02*
X0277440Y0024142D01*
X0276842Y0023543D02*
X0333602Y0023543D01*
X0333602Y0022945D02*
X0276243Y0022945D01*
X0275645Y0022346D02*
X0333602Y0022346D01*
X0333602Y0021748D02*
X0275046Y0021748D01*
X0274448Y0021149D02*
X0333602Y0021149D01*
X0333602Y0020551D02*
X0273849Y0020551D01*
X0273250Y0019952D02*
X0333602Y0019952D01*
X0333602Y0019354D02*
X0272652Y0019354D01*
X0272053Y0018755D02*
X0333602Y0018755D01*
X0333602Y0018157D02*
X0271455Y0018157D01*
X0270856Y0017558D02*
X0333602Y0017558D01*
X0333602Y0016960D02*
X0270258Y0016960D01*
X0269659Y0016361D02*
X0333602Y0016361D01*
X0333602Y0015762D02*
X0270332Y0015762D01*
X0270931Y0015164D02*
X0333602Y0015164D01*
X0278834Y0028930D02*
X0267228Y0028930D01*
X0266630Y0028331D02*
X0278236Y0028331D01*
X0277637Y0027733D02*
X0266031Y0027733D01*
X0265433Y0027134D02*
X0277039Y0027134D01*
X0276440Y0026536D02*
X0264834Y0026536D01*
X0264236Y0025937D02*
X0275842Y0025937D01*
X0275243Y0025339D02*
X0263637Y0025339D01*
X0271053Y0021149D02*
X0232000Y0021149D01*
X0232000Y0020742D02*
X0232000Y0022055D01*
X0231498Y0023268D01*
X0230569Y0024196D01*
X0229356Y0024698D01*
X0223244Y0024698D01*
X0222031Y0024196D01*
X0221102Y0023268D01*
X0220600Y0022055D01*
X0220600Y0020742D01*
X0221102Y0019529D01*
X0222031Y0018601D01*
X0223244Y0018098D01*
X0229356Y0018098D01*
X0230569Y0018601D01*
X0231498Y0019529D01*
X0232000Y0020742D01*
X0231921Y0020551D02*
X0270455Y0020551D01*
X0269856Y0019952D02*
X0231673Y0019952D01*
X0231322Y0019354D02*
X0269258Y0019354D01*
X0268659Y0018755D02*
X0230724Y0018755D01*
X0229497Y0018157D02*
X0268061Y0018157D01*
X0269699Y0014699D02*
X0252901Y0014699D01*
X0249600Y0011398D01*
X0246300Y0011398D01*
X0243000Y0011573D02*
X0198542Y0011573D01*
X0199115Y0012171D02*
X0243000Y0012171D01*
X0243005Y0012770D02*
X0199363Y0012770D01*
X0199600Y0013368D02*
X0243603Y0013368D01*
X0244202Y0013967D02*
X0199600Y0013967D01*
X0199600Y0014565D02*
X0244800Y0014565D01*
X0247800Y0014565D02*
X0251071Y0014565D01*
X0250472Y0013967D02*
X0248398Y0013967D01*
X0248997Y0013368D02*
X0249874Y0013368D01*
X0251669Y0015164D02*
X0199600Y0015164D01*
X0199600Y0018157D02*
X0223103Y0018157D01*
X0221876Y0018755D02*
X0199600Y0018755D01*
X0199600Y0019354D02*
X0221278Y0019354D01*
X0220927Y0019952D02*
X0199394Y0019952D01*
X0199146Y0020551D02*
X0220679Y0020551D01*
X0220600Y0021149D02*
X0198616Y0021149D01*
X0197803Y0021748D02*
X0220600Y0021748D01*
X0220721Y0022346D02*
X0193945Y0022346D01*
X0193346Y0021748D02*
X0194797Y0021748D01*
X0193984Y0021149D02*
X0192748Y0021149D01*
X0192149Y0020551D02*
X0193454Y0020551D01*
X0193206Y0019952D02*
X0191551Y0019952D01*
X0190952Y0019354D02*
X0193000Y0019354D01*
X0193000Y0018755D02*
X0190354Y0018755D01*
X0189755Y0018157D02*
X0193000Y0018157D01*
X0193000Y0017558D02*
X0189600Y0017558D01*
X0189600Y0016960D02*
X0193000Y0016960D01*
X0186300Y0016398D02*
X0196300Y0026398D01*
X0196339Y0024740D02*
X0274645Y0024740D01*
X0274046Y0024142D02*
X0230623Y0024142D01*
X0231222Y0023543D02*
X0273447Y0023543D01*
X0272849Y0022945D02*
X0231631Y0022945D01*
X0231879Y0022346D02*
X0272250Y0022346D01*
X0271652Y0021748D02*
X0232000Y0021748D01*
X0221977Y0024142D02*
X0195740Y0024142D01*
X0195142Y0023543D02*
X0221378Y0023543D01*
X0220969Y0022945D02*
X0194543Y0022945D01*
X0189952Y0021748D02*
X0187803Y0021748D01*
X0188616Y0021149D02*
X0189354Y0021149D01*
X0179354Y0021149D02*
X0178616Y0021149D01*
X0196514Y0034915D02*
X0269819Y0034915D01*
X0269699Y0014699D02*
X0273000Y0011398D01*
X0276300Y0011398D01*
X0273603Y0013368D02*
X0272726Y0013368D01*
X0272128Y0013967D02*
X0274202Y0013967D01*
X0274800Y0014565D02*
X0271529Y0014565D01*
X0192358Y0144442D02*
X0174461Y0144442D01*
X0187653Y0151625D02*
X0193500Y0151625D01*
X0193500Y0152223D02*
X0194100Y0152223D01*
X0194100Y0151625D02*
X0199947Y0151625D01*
X0194100Y0152822D02*
X0193500Y0152822D01*
X0193500Y0153420D02*
X0194100Y0153420D01*
X0194100Y0154019D02*
X0193500Y0154019D01*
X0193500Y0154617D02*
X0194100Y0154617D01*
X0194100Y0155216D02*
X0193500Y0155216D01*
X0193500Y0155814D02*
X0194100Y0155814D01*
X0194100Y0156413D02*
X0193500Y0156413D01*
X0193500Y0157011D02*
X0194100Y0157011D01*
X0194100Y0157610D02*
X0193500Y0157610D01*
X0193500Y0158208D02*
X0194100Y0158208D01*
M02*
