G04 #@! TF.FileFunction,Profile,NP*
%FSLAX46Y46*%
G04 Gerber Fmt 4.6, Leading zero omitted, Abs format (unit mm)*
G04 Created by KiCad (PCBNEW 4.0.4-stable) date 07/28/17 15:05:57*
%MOMM*%
%LPD*%
G01*
G04 APERTURE LIST*
%ADD10C,0.100000*%
%ADD11C,0.150000*%
G04 APERTURE END LIST*
D10*
D11*
X176530000Y-31750000D02*
X170942000Y-31750000D01*
X176530000Y-120650000D02*
X176530000Y-31750000D01*
X170942000Y-120650000D02*
X176530000Y-120650000D01*
X88519000Y-120650000D02*
X83439000Y-120650000D01*
X83439000Y-31750000D02*
X83439000Y-120650000D01*
X88519000Y-31750000D02*
X83439000Y-31750000D01*
X170942000Y-77343000D02*
X170942000Y-124460000D01*
X170942000Y-77343000D02*
G75*
G03X169672000Y-76073000I-1270000J0D01*
G01*
X169799000Y-76073000D02*
G75*
G03X170942000Y-74930000I0J1143000D01*
G01*
X88519000Y-100330000D02*
G75*
G03X89662000Y-101473000I1143000J0D01*
G01*
X107696000Y-101473000D02*
X89662000Y-101473000D01*
X108839000Y-102616000D02*
G75*
G03X107696000Y-101473000I-1143000J0D01*
G01*
X108839000Y-117983000D02*
X108839000Y-102616000D01*
X108839000Y-117983000D02*
G75*
G03X109982000Y-119126000I1143000J0D01*
G01*
X89789000Y-76073000D02*
G75*
G03X88519000Y-77343000I0J-1270000D01*
G01*
X169799000Y-119126000D02*
X109982000Y-119126000D01*
X169799000Y-119126000D02*
G75*
G03X170942000Y-117983000I0J1143000D01*
G01*
X89789000Y-33020000D02*
G75*
G03X88519000Y-34290000I0J-1270000D01*
G01*
X88519000Y-124460000D02*
X88519000Y-27940000D01*
X88519000Y-57277000D02*
G75*
G03X89662000Y-58420000I1143000J0D01*
G01*
X107696000Y-58420000D02*
X89662000Y-58420000D01*
X108839000Y-59563000D02*
G75*
G03X107696000Y-58420000I-1143000J0D01*
G01*
X108839000Y-74930000D02*
X108839000Y-59563000D01*
X108839000Y-74930000D02*
G75*
G03X109982000Y-76073000I1143000J0D01*
G01*
X180340000Y-76073000D02*
X78740000Y-76073000D01*
X170942000Y-27940000D02*
X170942000Y-74930000D01*
X170942000Y-34290000D02*
G75*
G03X169672000Y-33020000I-1270000J0D01*
G01*
X89789000Y-33020000D02*
X169672000Y-33020000D01*
M02*
