G04 #@! TF.FileFunction,Legend,Top*
%FSLAX46Y46*%
G04 Gerber Fmt 4.6, Leading zero omitted, Abs format (unit mm)*
G04 Created by KiCad (PCBNEW 4.0.4-stable) date 07/28/17 15:05:57*
%MOMM*%
%LPD*%
G01*
G04 APERTURE LIST*
%ADD10C,0.100000*%
%ADD11C,0.300000*%
%ADD12C,0.081280*%
%ADD13C,0.150000*%
%ADD14C,0.113792*%
%ADD15C,0.134112*%
%ADD16C,0.152400*%
%ADD17C,0.203200*%
%ADD18C,0.101600*%
%ADD19C,0.127000*%
%ADD20C,0.120650*%
G04 APERTURE END LIST*
D10*
D11*
X70608429Y-75251571D02*
X71108429Y-76751571D01*
X71608429Y-75251571D01*
X72108429Y-76180143D02*
X73251286Y-76180143D01*
X74608429Y-76680143D02*
X74465572Y-76751571D01*
X74179858Y-76751571D01*
X74037000Y-76680143D01*
X73965572Y-76608714D01*
X73894143Y-76465857D01*
X73894143Y-76037286D01*
X73965572Y-75894429D01*
X74037000Y-75823000D01*
X74179858Y-75751571D01*
X74465572Y-75751571D01*
X74608429Y-75823000D01*
X75894143Y-75751571D02*
X75894143Y-76751571D01*
X75251286Y-75751571D02*
X75251286Y-76537286D01*
X75322714Y-76680143D01*
X75465572Y-76751571D01*
X75679857Y-76751571D01*
X75822714Y-76680143D01*
X75894143Y-76608714D01*
X76394143Y-75751571D02*
X76965572Y-75751571D01*
X76608429Y-75251571D02*
X76608429Y-76537286D01*
X76679857Y-76680143D01*
X76822715Y-76751571D01*
X76965572Y-76751571D01*
X85340429Y-24705571D02*
X85840429Y-26205571D01*
X86340429Y-24705571D01*
X86840429Y-25634143D02*
X87983286Y-25634143D01*
X89340429Y-26134143D02*
X89197572Y-26205571D01*
X88911858Y-26205571D01*
X88769000Y-26134143D01*
X88697572Y-26062714D01*
X88626143Y-25919857D01*
X88626143Y-25491286D01*
X88697572Y-25348429D01*
X88769000Y-25277000D01*
X88911858Y-25205571D01*
X89197572Y-25205571D01*
X89340429Y-25277000D01*
X90626143Y-25205571D02*
X90626143Y-26205571D01*
X89983286Y-25205571D02*
X89983286Y-25991286D01*
X90054714Y-26134143D01*
X90197572Y-26205571D01*
X90411857Y-26205571D01*
X90554714Y-26134143D01*
X90626143Y-26062714D01*
X91126143Y-25205571D02*
X91697572Y-25205571D01*
X91340429Y-24705571D02*
X91340429Y-25991286D01*
X91411857Y-26134143D01*
X91554715Y-26205571D01*
X91697572Y-26205571D01*
X167763429Y-24959571D02*
X168263429Y-26459571D01*
X168763429Y-24959571D01*
X169263429Y-25888143D02*
X170406286Y-25888143D01*
X171763429Y-26388143D02*
X171620572Y-26459571D01*
X171334858Y-26459571D01*
X171192000Y-26388143D01*
X171120572Y-26316714D01*
X171049143Y-26173857D01*
X171049143Y-25745286D01*
X171120572Y-25602429D01*
X171192000Y-25531000D01*
X171334858Y-25459571D01*
X171620572Y-25459571D01*
X171763429Y-25531000D01*
X173049143Y-25459571D02*
X173049143Y-26459571D01*
X172406286Y-25459571D02*
X172406286Y-26245286D01*
X172477714Y-26388143D01*
X172620572Y-26459571D01*
X172834857Y-26459571D01*
X172977714Y-26388143D01*
X173049143Y-26316714D01*
X173549143Y-25459571D02*
X174120572Y-25459571D01*
X173763429Y-24959571D02*
X173763429Y-26245286D01*
X173834857Y-26388143D01*
X173977715Y-26459571D01*
X174120572Y-26459571D01*
D12*
X130087914Y-118241838D02*
X129536372Y-118241838D01*
X129812143Y-118241838D02*
X129812143Y-117276638D01*
X129720219Y-117414524D01*
X129628295Y-117506448D01*
X129536372Y-117552410D01*
X130639457Y-117690295D02*
X130547533Y-117644333D01*
X130501572Y-117598371D01*
X130455610Y-117506448D01*
X130455610Y-117460486D01*
X130501572Y-117368562D01*
X130547533Y-117322600D01*
X130639457Y-117276638D01*
X130823305Y-117276638D01*
X130915229Y-117322600D01*
X130961191Y-117368562D01*
X131007152Y-117460486D01*
X131007152Y-117506448D01*
X130961191Y-117598371D01*
X130915229Y-117644333D01*
X130823305Y-117690295D01*
X130639457Y-117690295D01*
X130547533Y-117736257D01*
X130501572Y-117782219D01*
X130455610Y-117874143D01*
X130455610Y-118057990D01*
X130501572Y-118149914D01*
X130547533Y-118195876D01*
X130639457Y-118241838D01*
X130823305Y-118241838D01*
X130915229Y-118195876D01*
X130961191Y-118149914D01*
X131007152Y-118057990D01*
X131007152Y-117874143D01*
X130961191Y-117782219D01*
X130915229Y-117736257D01*
X130823305Y-117690295D01*
X134616372Y-117368562D02*
X134662334Y-117322600D01*
X134754257Y-117276638D01*
X134984067Y-117276638D01*
X135075991Y-117322600D01*
X135121953Y-117368562D01*
X135167914Y-117460486D01*
X135167914Y-117552410D01*
X135121953Y-117690295D01*
X134570410Y-118241838D01*
X135167914Y-118241838D01*
X135765419Y-117276638D02*
X135857343Y-117276638D01*
X135949267Y-117322600D01*
X135995229Y-117368562D01*
X136041191Y-117460486D01*
X136087152Y-117644333D01*
X136087152Y-117874143D01*
X136041191Y-118057990D01*
X135995229Y-118149914D01*
X135949267Y-118195876D01*
X135857343Y-118241838D01*
X135765419Y-118241838D01*
X135673495Y-118195876D01*
X135627533Y-118149914D01*
X135581572Y-118057990D01*
X135535610Y-117874143D01*
X135535610Y-117644333D01*
X135581572Y-117460486D01*
X135627533Y-117368562D01*
X135673495Y-117322600D01*
X135765419Y-117276638D01*
X132627914Y-118241838D02*
X132076372Y-118241838D01*
X132352143Y-118241838D02*
X132352143Y-117276638D01*
X132260219Y-117414524D01*
X132168295Y-117506448D01*
X132076372Y-117552410D01*
X133087533Y-118241838D02*
X133271381Y-118241838D01*
X133363305Y-118195876D01*
X133409267Y-118149914D01*
X133501191Y-118012029D01*
X133547152Y-117828181D01*
X133547152Y-117460486D01*
X133501191Y-117368562D01*
X133455229Y-117322600D01*
X133363305Y-117276638D01*
X133179457Y-117276638D01*
X133087533Y-117322600D01*
X133041572Y-117368562D01*
X132995610Y-117460486D01*
X132995610Y-117690295D01*
X133041572Y-117782219D01*
X133087533Y-117828181D01*
X133179457Y-117874143D01*
X133363305Y-117874143D01*
X133455229Y-117828181D01*
X133501191Y-117782219D01*
X133547152Y-117690295D01*
D13*
X116370100Y-111607600D02*
X127165100Y-111607600D01*
D14*
X127559647Y-110273253D02*
X126787487Y-110273253D01*
X127173567Y-110273253D02*
X127173567Y-108921973D01*
X127044873Y-109115013D01*
X126916180Y-109243707D01*
X126787487Y-109308053D01*
X127109220Y-112813253D02*
X127237913Y-112813253D01*
X127366607Y-112877600D01*
X127430953Y-112941947D01*
X127495300Y-113070640D01*
X127559647Y-113328027D01*
X127559647Y-113649760D01*
X127495300Y-113907147D01*
X127430953Y-114035840D01*
X127366607Y-114100187D01*
X127237913Y-114164533D01*
X127109220Y-114164533D01*
X126980527Y-114100187D01*
X126916180Y-114035840D01*
X126851833Y-113907147D01*
X126787487Y-113649760D01*
X126787487Y-113328027D01*
X126851833Y-113070640D01*
X126916180Y-112941947D01*
X126980527Y-112877600D01*
X127109220Y-112813253D01*
X116627487Y-109050667D02*
X116691833Y-108986320D01*
X116820527Y-108921973D01*
X117142260Y-108921973D01*
X117270953Y-108986320D01*
X117335300Y-109050667D01*
X117399647Y-109179360D01*
X117399647Y-109308053D01*
X117335300Y-109501093D01*
X116563140Y-110273253D01*
X117399647Y-110273253D01*
X117850073Y-108921973D02*
X118750926Y-108921973D01*
X118171806Y-110273253D01*
X119844819Y-110208907D02*
X119716126Y-110273253D01*
X119458739Y-110273253D01*
X119330046Y-110208907D01*
X119265699Y-110144560D01*
X119201353Y-110015867D01*
X119201353Y-109629787D01*
X119265699Y-109501093D01*
X119330046Y-109436747D01*
X119458739Y-109372400D01*
X119716126Y-109372400D01*
X119844819Y-109436747D01*
X120295246Y-108921973D02*
X121131753Y-108921973D01*
X120681326Y-109436747D01*
X120874366Y-109436747D01*
X121003059Y-109501093D01*
X121067406Y-109565440D01*
X121131753Y-109694133D01*
X121131753Y-110015867D01*
X121067406Y-110144560D01*
X121003059Y-110208907D01*
X120874366Y-110273253D01*
X120488286Y-110273253D01*
X120359593Y-110208907D01*
X120295246Y-110144560D01*
X121646526Y-109050667D02*
X121710872Y-108986320D01*
X121839566Y-108921973D01*
X122161299Y-108921973D01*
X122289992Y-108986320D01*
X122354339Y-109050667D01*
X122418686Y-109179360D01*
X122418686Y-109308053D01*
X122354339Y-109501093D01*
X121582179Y-110273253D01*
X122418686Y-110273253D01*
X122933459Y-109050667D02*
X122997805Y-108986320D01*
X123126499Y-108921973D01*
X123448232Y-108921973D01*
X123576925Y-108986320D01*
X123641272Y-109050667D01*
X123705619Y-109179360D01*
X123705619Y-109308053D01*
X123641272Y-109501093D01*
X122869112Y-110273253D01*
X123705619Y-110273253D01*
X116884873Y-114164533D02*
X116756180Y-114100187D01*
X116691833Y-114035840D01*
X116627487Y-113907147D01*
X116627487Y-113521067D01*
X116691833Y-113392373D01*
X116756180Y-113328027D01*
X116884873Y-113263680D01*
X117077913Y-113263680D01*
X117206607Y-113328027D01*
X117270953Y-113392373D01*
X117335300Y-113521067D01*
X117335300Y-113907147D01*
X117270953Y-114035840D01*
X117206607Y-114100187D01*
X117077913Y-114164533D01*
X116884873Y-114164533D01*
X117721380Y-113263680D02*
X118236154Y-113263680D01*
X117914420Y-112813253D02*
X117914420Y-113971493D01*
X117978767Y-114100187D01*
X118107460Y-114164533D01*
X118236154Y-114164533D01*
X118686580Y-114164533D02*
X118686580Y-112813253D01*
X119265700Y-114164533D02*
X119265700Y-113456720D01*
X119201354Y-113328027D01*
X119072660Y-113263680D01*
X118879620Y-113263680D01*
X118750927Y-113328027D01*
X118686580Y-113392373D01*
X120423941Y-114100187D02*
X120295247Y-114164533D01*
X120037861Y-114164533D01*
X119909167Y-114100187D01*
X119844821Y-113971493D01*
X119844821Y-113456720D01*
X119909167Y-113328027D01*
X120037861Y-113263680D01*
X120295247Y-113263680D01*
X120423941Y-113328027D01*
X120488287Y-113456720D01*
X120488287Y-113585413D01*
X119844821Y-113714107D01*
X121067407Y-114164533D02*
X121067407Y-113263680D01*
X121067407Y-113521067D02*
X121131754Y-113392373D01*
X121196101Y-113328027D01*
X121324794Y-113263680D01*
X121453487Y-113263680D01*
D15*
X167647257Y-116790651D02*
X167571420Y-116714814D01*
X167495583Y-116563140D01*
X167495583Y-116183954D01*
X167571420Y-116032280D01*
X167647257Y-115956443D01*
X167798931Y-115880606D01*
X167950606Y-115880606D01*
X168178117Y-115956443D01*
X169088163Y-116866489D01*
X169088163Y-115880606D01*
X167495583Y-115349746D02*
X167495583Y-114288026D01*
X169088163Y-114970560D01*
X169012326Y-112998794D02*
X169088163Y-113150468D01*
X169088163Y-113453817D01*
X169012326Y-113605491D01*
X168936489Y-113681328D01*
X168784814Y-113757165D01*
X168329791Y-113757165D01*
X168178117Y-113681328D01*
X168102280Y-113605491D01*
X168026443Y-113453817D01*
X168026443Y-113150468D01*
X168102280Y-112998794D01*
X169088163Y-111482051D02*
X169088163Y-112392096D01*
X169088163Y-111937074D02*
X167495583Y-111937074D01*
X167723094Y-112088748D01*
X167874769Y-112240422D01*
X167950606Y-112392096D01*
X167495583Y-110116982D02*
X167495583Y-110420331D01*
X167571420Y-110572005D01*
X167647257Y-110647842D01*
X167874769Y-110799516D01*
X168178117Y-110875353D01*
X168784814Y-110875353D01*
X168936489Y-110799516D01*
X169012326Y-110723679D01*
X169088163Y-110572005D01*
X169088163Y-110268656D01*
X169012326Y-110116982D01*
X168936489Y-110041145D01*
X168784814Y-109965308D01*
X168405629Y-109965308D01*
X168253954Y-110041145D01*
X168178117Y-110116982D01*
X168102280Y-110268656D01*
X168102280Y-110572005D01*
X168178117Y-110723679D01*
X168253954Y-110799516D01*
X168405629Y-110875353D01*
X167495583Y-108979425D02*
X167495583Y-108827750D01*
X167571420Y-108676076D01*
X167647257Y-108600239D01*
X167798931Y-108524402D01*
X168102280Y-108448565D01*
X168481466Y-108448565D01*
X168784814Y-108524402D01*
X168936489Y-108600239D01*
X169012326Y-108676076D01*
X169088163Y-108827750D01*
X169088163Y-108979425D01*
X169012326Y-109131099D01*
X168936489Y-109206936D01*
X168784814Y-109282773D01*
X168481466Y-109358610D01*
X168102280Y-109358610D01*
X167798931Y-109282773D01*
X167647257Y-109206936D01*
X167571420Y-109131099D01*
X167495583Y-108979425D01*
X167419746Y-106628473D02*
X169467349Y-107993542D01*
X167495583Y-106249288D02*
X167495583Y-105263405D01*
X168102280Y-105794265D01*
X168102280Y-105566753D01*
X168178117Y-105415079D01*
X168253954Y-105339242D01*
X168405629Y-105263405D01*
X168784814Y-105263405D01*
X168936489Y-105339242D01*
X169012326Y-105415079D01*
X169088163Y-105566753D01*
X169088163Y-106021776D01*
X169012326Y-106173450D01*
X168936489Y-106249288D01*
X167647257Y-104656707D02*
X167571420Y-104580870D01*
X167495583Y-104429196D01*
X167495583Y-104050010D01*
X167571420Y-103898336D01*
X167647257Y-103822499D01*
X167798931Y-103746662D01*
X167950606Y-103746662D01*
X168178117Y-103822499D01*
X169088163Y-104732545D01*
X169088163Y-103746662D01*
X167647257Y-103139964D02*
X167571420Y-103064127D01*
X167495583Y-102912453D01*
X167495583Y-102533267D01*
X167571420Y-102381593D01*
X167647257Y-102305756D01*
X167798931Y-102229919D01*
X167950606Y-102229919D01*
X168178117Y-102305756D01*
X169088163Y-103215802D01*
X169088163Y-102229919D01*
X167419746Y-100409827D02*
X169467349Y-101774896D01*
X168026443Y-99196433D02*
X169088163Y-99196433D01*
X167419746Y-99575619D02*
X168557303Y-99954804D01*
X168557303Y-98968922D01*
X167495583Y-98058876D02*
X167495583Y-97907201D01*
X167571420Y-97755527D01*
X167647257Y-97679690D01*
X167798931Y-97603853D01*
X168102280Y-97528016D01*
X168481466Y-97528016D01*
X168784814Y-97603853D01*
X168936489Y-97679690D01*
X169012326Y-97755527D01*
X169088163Y-97907201D01*
X169088163Y-98058876D01*
X169012326Y-98210550D01*
X168936489Y-98286387D01*
X168784814Y-98362224D01*
X168481466Y-98438061D01*
X168102280Y-98438061D01*
X167798931Y-98362224D01*
X167647257Y-98286387D01*
X167571420Y-98210550D01*
X167495583Y-98058876D01*
X167495583Y-96542133D02*
X167495583Y-96390458D01*
X167571420Y-96238784D01*
X167647257Y-96162947D01*
X167798931Y-96087110D01*
X168102280Y-96011273D01*
X168481466Y-96011273D01*
X168784814Y-96087110D01*
X168936489Y-96162947D01*
X169012326Y-96238784D01*
X169088163Y-96390458D01*
X169088163Y-96542133D01*
X169012326Y-96693807D01*
X168936489Y-96769644D01*
X168784814Y-96845481D01*
X168481466Y-96921318D01*
X168102280Y-96921318D01*
X167798931Y-96845481D01*
X167647257Y-96769644D01*
X167571420Y-96693807D01*
X167495583Y-96542133D01*
X167419746Y-94191181D02*
X169467349Y-95556250D01*
X168178117Y-93432810D02*
X168102280Y-93584484D01*
X168026443Y-93660321D01*
X167874769Y-93736158D01*
X167798931Y-93736158D01*
X167647257Y-93660321D01*
X167571420Y-93584484D01*
X167495583Y-93432810D01*
X167495583Y-93129461D01*
X167571420Y-92977787D01*
X167647257Y-92901950D01*
X167798931Y-92826113D01*
X167874769Y-92826113D01*
X168026443Y-92901950D01*
X168102280Y-92977787D01*
X168178117Y-93129461D01*
X168178117Y-93432810D01*
X168253954Y-93584484D01*
X168329791Y-93660321D01*
X168481466Y-93736158D01*
X168784814Y-93736158D01*
X168936489Y-93660321D01*
X169012326Y-93584484D01*
X169088163Y-93432810D01*
X169088163Y-93129461D01*
X169012326Y-92977787D01*
X168936489Y-92901950D01*
X168784814Y-92826113D01*
X168481466Y-92826113D01*
X168329791Y-92901950D01*
X168253954Y-92977787D01*
X168178117Y-93129461D01*
X167495583Y-91840230D02*
X167495583Y-91688555D01*
X167571420Y-91536881D01*
X167647257Y-91461044D01*
X167798931Y-91385207D01*
X168102280Y-91309370D01*
X168481466Y-91309370D01*
X168784814Y-91385207D01*
X168936489Y-91461044D01*
X169012326Y-91536881D01*
X169088163Y-91688555D01*
X169088163Y-91840230D01*
X169012326Y-91991904D01*
X168936489Y-92067741D01*
X168784814Y-92143578D01*
X168481466Y-92219415D01*
X168102280Y-92219415D01*
X167798931Y-92143578D01*
X167647257Y-92067741D01*
X167571420Y-91991904D01*
X167495583Y-91840230D01*
X167495583Y-90323487D02*
X167495583Y-90171812D01*
X167571420Y-90020138D01*
X167647257Y-89944301D01*
X167798931Y-89868464D01*
X168102280Y-89792627D01*
X168481466Y-89792627D01*
X168784814Y-89868464D01*
X168936489Y-89944301D01*
X169012326Y-90020138D01*
X169088163Y-90171812D01*
X169088163Y-90323487D01*
X169012326Y-90475161D01*
X168936489Y-90550998D01*
X168784814Y-90626835D01*
X168481466Y-90702672D01*
X168102280Y-90702672D01*
X167798931Y-90626835D01*
X167647257Y-90550998D01*
X167571420Y-90475161D01*
X167495583Y-90323487D01*
X168633140Y-87972535D02*
X168633140Y-87214164D01*
X169088163Y-88124210D02*
X167495583Y-87593350D01*
X169088163Y-87062490D01*
X169088163Y-85849095D02*
X167495583Y-85849095D01*
X169012326Y-85849095D02*
X169088163Y-86000769D01*
X169088163Y-86304118D01*
X169012326Y-86455792D01*
X168936489Y-86531629D01*
X168784814Y-86607466D01*
X168329791Y-86607466D01*
X168178117Y-86531629D01*
X168102280Y-86455792D01*
X168026443Y-86304118D01*
X168026443Y-86000769D01*
X168102280Y-85849095D01*
X169088163Y-84408189D02*
X168253954Y-84408189D01*
X168102280Y-84484026D01*
X168026443Y-84635700D01*
X168026443Y-84939049D01*
X168102280Y-85090723D01*
X169012326Y-84408189D02*
X169088163Y-84559863D01*
X169088163Y-84939049D01*
X169012326Y-85090723D01*
X168860651Y-85166560D01*
X168708977Y-85166560D01*
X168557303Y-85090723D01*
X168481466Y-84939049D01*
X168481466Y-84559863D01*
X168405629Y-84408189D01*
X168026443Y-83649817D02*
X169619023Y-83649817D01*
X168102280Y-83649817D02*
X168026443Y-83498143D01*
X168026443Y-83194794D01*
X168102280Y-83043120D01*
X168178117Y-82967283D01*
X168329791Y-82891446D01*
X168784814Y-82891446D01*
X168936489Y-82967283D01*
X169012326Y-83043120D01*
X169088163Y-83194794D01*
X169088163Y-83498143D01*
X169012326Y-83649817D01*
X168026443Y-82436423D02*
X168026443Y-81829726D01*
X167495583Y-82208911D02*
X168860651Y-82208911D01*
X169012326Y-82133074D01*
X169088163Y-81981400D01*
X169088163Y-81829726D01*
X169012326Y-80692168D02*
X169088163Y-80843842D01*
X169088163Y-81147191D01*
X169012326Y-81298865D01*
X168860651Y-81374702D01*
X168253954Y-81374702D01*
X168102280Y-81298865D01*
X168026443Y-81147191D01*
X168026443Y-80843842D01*
X168102280Y-80692168D01*
X168253954Y-80616331D01*
X168405629Y-80616331D01*
X168557303Y-81374702D01*
X169088163Y-79933796D02*
X168026443Y-79933796D01*
X168329791Y-79933796D02*
X168178117Y-79857959D01*
X168102280Y-79782122D01*
X168026443Y-79630448D01*
X168026443Y-79478773D01*
D12*
X167124138Y-84072790D02*
X166480671Y-84072790D01*
X166664519Y-84072790D02*
X166572595Y-84026829D01*
X166526633Y-83980867D01*
X166480671Y-83888943D01*
X166480671Y-83797019D01*
X167078176Y-83107590D02*
X167124138Y-83199514D01*
X167124138Y-83383362D01*
X167078176Y-83475285D01*
X166986252Y-83521247D01*
X166618557Y-83521247D01*
X166526633Y-83475285D01*
X166480671Y-83383362D01*
X166480671Y-83199514D01*
X166526633Y-83107590D01*
X166618557Y-83061628D01*
X166710481Y-83061628D01*
X166802405Y-83521247D01*
X166480671Y-82739895D02*
X167124138Y-82510086D01*
X166480671Y-82280276D01*
X167124138Y-80671611D02*
X167124138Y-81223153D01*
X167124138Y-80947382D02*
X166158938Y-80947382D01*
X166296824Y-81039306D01*
X166388748Y-81131230D01*
X166434710Y-81223153D01*
X167032214Y-80257953D02*
X167078176Y-80211992D01*
X167124138Y-80257953D01*
X167078176Y-80303915D01*
X167032214Y-80257953D01*
X167124138Y-80257953D01*
X166158938Y-79614487D02*
X166158938Y-79522563D01*
X166204900Y-79430639D01*
X166250862Y-79384677D01*
X166342786Y-79338715D01*
X166526633Y-79292754D01*
X166756443Y-79292754D01*
X166940290Y-79338715D01*
X167032214Y-79384677D01*
X167078176Y-79430639D01*
X167124138Y-79522563D01*
X167124138Y-79614487D01*
X167078176Y-79706411D01*
X167032214Y-79752373D01*
X166940290Y-79798334D01*
X166756443Y-79844296D01*
X166526633Y-79844296D01*
X166342786Y-79798334D01*
X166250862Y-79752373D01*
X166204900Y-79706411D01*
X166158938Y-79614487D01*
D15*
X167647257Y-73737651D02*
X167571420Y-73661814D01*
X167495583Y-73510140D01*
X167495583Y-73130954D01*
X167571420Y-72979280D01*
X167647257Y-72903443D01*
X167798931Y-72827606D01*
X167950606Y-72827606D01*
X168178117Y-72903443D01*
X169088163Y-73813489D01*
X169088163Y-72827606D01*
X167495583Y-72296746D02*
X167495583Y-71235026D01*
X169088163Y-71917560D01*
X169012326Y-69945794D02*
X169088163Y-70097468D01*
X169088163Y-70400817D01*
X169012326Y-70552491D01*
X168936489Y-70628328D01*
X168784814Y-70704165D01*
X168329791Y-70704165D01*
X168178117Y-70628328D01*
X168102280Y-70552491D01*
X168026443Y-70400817D01*
X168026443Y-70097468D01*
X168102280Y-69945794D01*
X169088163Y-68429051D02*
X169088163Y-69339096D01*
X169088163Y-68884074D02*
X167495583Y-68884074D01*
X167723094Y-69035748D01*
X167874769Y-69187422D01*
X167950606Y-69339096D01*
X167495583Y-67063982D02*
X167495583Y-67367331D01*
X167571420Y-67519005D01*
X167647257Y-67594842D01*
X167874769Y-67746516D01*
X168178117Y-67822353D01*
X168784814Y-67822353D01*
X168936489Y-67746516D01*
X169012326Y-67670679D01*
X169088163Y-67519005D01*
X169088163Y-67215656D01*
X169012326Y-67063982D01*
X168936489Y-66988145D01*
X168784814Y-66912308D01*
X168405629Y-66912308D01*
X168253954Y-66988145D01*
X168178117Y-67063982D01*
X168102280Y-67215656D01*
X168102280Y-67519005D01*
X168178117Y-67670679D01*
X168253954Y-67746516D01*
X168405629Y-67822353D01*
X167495583Y-65926425D02*
X167495583Y-65774750D01*
X167571420Y-65623076D01*
X167647257Y-65547239D01*
X167798931Y-65471402D01*
X168102280Y-65395565D01*
X168481466Y-65395565D01*
X168784814Y-65471402D01*
X168936489Y-65547239D01*
X169012326Y-65623076D01*
X169088163Y-65774750D01*
X169088163Y-65926425D01*
X169012326Y-66078099D01*
X168936489Y-66153936D01*
X168784814Y-66229773D01*
X168481466Y-66305610D01*
X168102280Y-66305610D01*
X167798931Y-66229773D01*
X167647257Y-66153936D01*
X167571420Y-66078099D01*
X167495583Y-65926425D01*
X167419746Y-63575473D02*
X169467349Y-64940542D01*
X167495583Y-63196288D02*
X167495583Y-62210405D01*
X168102280Y-62741265D01*
X168102280Y-62513753D01*
X168178117Y-62362079D01*
X168253954Y-62286242D01*
X168405629Y-62210405D01*
X168784814Y-62210405D01*
X168936489Y-62286242D01*
X169012326Y-62362079D01*
X169088163Y-62513753D01*
X169088163Y-62968776D01*
X169012326Y-63120450D01*
X168936489Y-63196288D01*
X167647257Y-61603707D02*
X167571420Y-61527870D01*
X167495583Y-61376196D01*
X167495583Y-60997010D01*
X167571420Y-60845336D01*
X167647257Y-60769499D01*
X167798931Y-60693662D01*
X167950606Y-60693662D01*
X168178117Y-60769499D01*
X169088163Y-61679545D01*
X169088163Y-60693662D01*
X167647257Y-60086964D02*
X167571420Y-60011127D01*
X167495583Y-59859453D01*
X167495583Y-59480267D01*
X167571420Y-59328593D01*
X167647257Y-59252756D01*
X167798931Y-59176919D01*
X167950606Y-59176919D01*
X168178117Y-59252756D01*
X169088163Y-60162802D01*
X169088163Y-59176919D01*
X167419746Y-57356827D02*
X169467349Y-58721896D01*
X168026443Y-56143433D02*
X169088163Y-56143433D01*
X167419746Y-56522619D02*
X168557303Y-56901804D01*
X168557303Y-55915922D01*
X167495583Y-55005876D02*
X167495583Y-54854201D01*
X167571420Y-54702527D01*
X167647257Y-54626690D01*
X167798931Y-54550853D01*
X168102280Y-54475016D01*
X168481466Y-54475016D01*
X168784814Y-54550853D01*
X168936489Y-54626690D01*
X169012326Y-54702527D01*
X169088163Y-54854201D01*
X169088163Y-55005876D01*
X169012326Y-55157550D01*
X168936489Y-55233387D01*
X168784814Y-55309224D01*
X168481466Y-55385061D01*
X168102280Y-55385061D01*
X167798931Y-55309224D01*
X167647257Y-55233387D01*
X167571420Y-55157550D01*
X167495583Y-55005876D01*
X167495583Y-53489133D02*
X167495583Y-53337458D01*
X167571420Y-53185784D01*
X167647257Y-53109947D01*
X167798931Y-53034110D01*
X168102280Y-52958273D01*
X168481466Y-52958273D01*
X168784814Y-53034110D01*
X168936489Y-53109947D01*
X169012326Y-53185784D01*
X169088163Y-53337458D01*
X169088163Y-53489133D01*
X169012326Y-53640807D01*
X168936489Y-53716644D01*
X168784814Y-53792481D01*
X168481466Y-53868318D01*
X168102280Y-53868318D01*
X167798931Y-53792481D01*
X167647257Y-53716644D01*
X167571420Y-53640807D01*
X167495583Y-53489133D01*
X167419746Y-51138181D02*
X169467349Y-52503250D01*
X168178117Y-50379810D02*
X168102280Y-50531484D01*
X168026443Y-50607321D01*
X167874769Y-50683158D01*
X167798931Y-50683158D01*
X167647257Y-50607321D01*
X167571420Y-50531484D01*
X167495583Y-50379810D01*
X167495583Y-50076461D01*
X167571420Y-49924787D01*
X167647257Y-49848950D01*
X167798931Y-49773113D01*
X167874769Y-49773113D01*
X168026443Y-49848950D01*
X168102280Y-49924787D01*
X168178117Y-50076461D01*
X168178117Y-50379810D01*
X168253954Y-50531484D01*
X168329791Y-50607321D01*
X168481466Y-50683158D01*
X168784814Y-50683158D01*
X168936489Y-50607321D01*
X169012326Y-50531484D01*
X169088163Y-50379810D01*
X169088163Y-50076461D01*
X169012326Y-49924787D01*
X168936489Y-49848950D01*
X168784814Y-49773113D01*
X168481466Y-49773113D01*
X168329791Y-49848950D01*
X168253954Y-49924787D01*
X168178117Y-50076461D01*
X167495583Y-48787230D02*
X167495583Y-48635555D01*
X167571420Y-48483881D01*
X167647257Y-48408044D01*
X167798931Y-48332207D01*
X168102280Y-48256370D01*
X168481466Y-48256370D01*
X168784814Y-48332207D01*
X168936489Y-48408044D01*
X169012326Y-48483881D01*
X169088163Y-48635555D01*
X169088163Y-48787230D01*
X169012326Y-48938904D01*
X168936489Y-49014741D01*
X168784814Y-49090578D01*
X168481466Y-49166415D01*
X168102280Y-49166415D01*
X167798931Y-49090578D01*
X167647257Y-49014741D01*
X167571420Y-48938904D01*
X167495583Y-48787230D01*
X167495583Y-47270487D02*
X167495583Y-47118812D01*
X167571420Y-46967138D01*
X167647257Y-46891301D01*
X167798931Y-46815464D01*
X168102280Y-46739627D01*
X168481466Y-46739627D01*
X168784814Y-46815464D01*
X168936489Y-46891301D01*
X169012326Y-46967138D01*
X169088163Y-47118812D01*
X169088163Y-47270487D01*
X169012326Y-47422161D01*
X168936489Y-47497998D01*
X168784814Y-47573835D01*
X168481466Y-47649672D01*
X168102280Y-47649672D01*
X167798931Y-47573835D01*
X167647257Y-47497998D01*
X167571420Y-47422161D01*
X167495583Y-47270487D01*
X168633140Y-44919535D02*
X168633140Y-44161164D01*
X169088163Y-45071210D02*
X167495583Y-44540350D01*
X169088163Y-44009490D01*
X169088163Y-42796095D02*
X167495583Y-42796095D01*
X169012326Y-42796095D02*
X169088163Y-42947769D01*
X169088163Y-43251118D01*
X169012326Y-43402792D01*
X168936489Y-43478629D01*
X168784814Y-43554466D01*
X168329791Y-43554466D01*
X168178117Y-43478629D01*
X168102280Y-43402792D01*
X168026443Y-43251118D01*
X168026443Y-42947769D01*
X168102280Y-42796095D01*
X169088163Y-41355189D02*
X168253954Y-41355189D01*
X168102280Y-41431026D01*
X168026443Y-41582700D01*
X168026443Y-41886049D01*
X168102280Y-42037723D01*
X169012326Y-41355189D02*
X169088163Y-41506863D01*
X169088163Y-41886049D01*
X169012326Y-42037723D01*
X168860651Y-42113560D01*
X168708977Y-42113560D01*
X168557303Y-42037723D01*
X168481466Y-41886049D01*
X168481466Y-41506863D01*
X168405629Y-41355189D01*
X168026443Y-40596817D02*
X169619023Y-40596817D01*
X168102280Y-40596817D02*
X168026443Y-40445143D01*
X168026443Y-40141794D01*
X168102280Y-39990120D01*
X168178117Y-39914283D01*
X168329791Y-39838446D01*
X168784814Y-39838446D01*
X168936489Y-39914283D01*
X169012326Y-39990120D01*
X169088163Y-40141794D01*
X169088163Y-40445143D01*
X169012326Y-40596817D01*
X168026443Y-39383423D02*
X168026443Y-38776726D01*
X167495583Y-39155911D02*
X168860651Y-39155911D01*
X169012326Y-39080074D01*
X169088163Y-38928400D01*
X169088163Y-38776726D01*
X169012326Y-37639168D02*
X169088163Y-37790842D01*
X169088163Y-38094191D01*
X169012326Y-38245865D01*
X168860651Y-38321702D01*
X168253954Y-38321702D01*
X168102280Y-38245865D01*
X168026443Y-38094191D01*
X168026443Y-37790842D01*
X168102280Y-37639168D01*
X168253954Y-37563331D01*
X168405629Y-37563331D01*
X168557303Y-38321702D01*
X169088163Y-36880796D02*
X168026443Y-36880796D01*
X168329791Y-36880796D02*
X168178117Y-36804959D01*
X168102280Y-36729122D01*
X168026443Y-36577448D01*
X168026443Y-36425773D01*
D12*
X130087914Y-75188838D02*
X129536372Y-75188838D01*
X129812143Y-75188838D02*
X129812143Y-74223638D01*
X129720219Y-74361524D01*
X129628295Y-74453448D01*
X129536372Y-74499410D01*
X130639457Y-74637295D02*
X130547533Y-74591333D01*
X130501572Y-74545371D01*
X130455610Y-74453448D01*
X130455610Y-74407486D01*
X130501572Y-74315562D01*
X130547533Y-74269600D01*
X130639457Y-74223638D01*
X130823305Y-74223638D01*
X130915229Y-74269600D01*
X130961191Y-74315562D01*
X131007152Y-74407486D01*
X131007152Y-74453448D01*
X130961191Y-74545371D01*
X130915229Y-74591333D01*
X130823305Y-74637295D01*
X130639457Y-74637295D01*
X130547533Y-74683257D01*
X130501572Y-74729219D01*
X130455610Y-74821143D01*
X130455610Y-75004990D01*
X130501572Y-75096914D01*
X130547533Y-75142876D01*
X130639457Y-75188838D01*
X130823305Y-75188838D01*
X130915229Y-75142876D01*
X130961191Y-75096914D01*
X131007152Y-75004990D01*
X131007152Y-74821143D01*
X130961191Y-74729219D01*
X130915229Y-74683257D01*
X130823305Y-74637295D01*
X132627914Y-75188838D02*
X132076372Y-75188838D01*
X132352143Y-75188838D02*
X132352143Y-74223638D01*
X132260219Y-74361524D01*
X132168295Y-74453448D01*
X132076372Y-74499410D01*
X133087533Y-75188838D02*
X133271381Y-75188838D01*
X133363305Y-75142876D01*
X133409267Y-75096914D01*
X133501191Y-74959029D01*
X133547152Y-74775181D01*
X133547152Y-74407486D01*
X133501191Y-74315562D01*
X133455229Y-74269600D01*
X133363305Y-74223638D01*
X133179457Y-74223638D01*
X133087533Y-74269600D01*
X133041572Y-74315562D01*
X132995610Y-74407486D01*
X132995610Y-74637295D01*
X133041572Y-74729219D01*
X133087533Y-74775181D01*
X133179457Y-74821143D01*
X133363305Y-74821143D01*
X133455229Y-74775181D01*
X133501191Y-74729219D01*
X133547152Y-74637295D01*
X134616372Y-74315562D02*
X134662334Y-74269600D01*
X134754257Y-74223638D01*
X134984067Y-74223638D01*
X135075991Y-74269600D01*
X135121953Y-74315562D01*
X135167914Y-74407486D01*
X135167914Y-74499410D01*
X135121953Y-74637295D01*
X134570410Y-75188838D01*
X135167914Y-75188838D01*
X135765419Y-74223638D02*
X135857343Y-74223638D01*
X135949267Y-74269600D01*
X135995229Y-74315562D01*
X136041191Y-74407486D01*
X136087152Y-74591333D01*
X136087152Y-74821143D01*
X136041191Y-75004990D01*
X135995229Y-75096914D01*
X135949267Y-75142876D01*
X135857343Y-75188838D01*
X135765419Y-75188838D01*
X135673495Y-75142876D01*
X135627533Y-75096914D01*
X135581572Y-75004990D01*
X135535610Y-74821143D01*
X135535610Y-74591333D01*
X135581572Y-74407486D01*
X135627533Y-74315562D01*
X135673495Y-74269600D01*
X135765419Y-74223638D01*
D13*
X116370100Y-68554600D02*
X127165100Y-68554600D01*
D14*
X116627487Y-65997667D02*
X116691833Y-65933320D01*
X116820527Y-65868973D01*
X117142260Y-65868973D01*
X117270953Y-65933320D01*
X117335300Y-65997667D01*
X117399647Y-66126360D01*
X117399647Y-66255053D01*
X117335300Y-66448093D01*
X116563140Y-67220253D01*
X117399647Y-67220253D01*
X117850073Y-65868973D02*
X118750926Y-65868973D01*
X118171806Y-67220253D01*
X119844819Y-67155907D02*
X119716126Y-67220253D01*
X119458739Y-67220253D01*
X119330046Y-67155907D01*
X119265699Y-67091560D01*
X119201353Y-66962867D01*
X119201353Y-66576787D01*
X119265699Y-66448093D01*
X119330046Y-66383747D01*
X119458739Y-66319400D01*
X119716126Y-66319400D01*
X119844819Y-66383747D01*
X120295246Y-65868973D02*
X121131753Y-65868973D01*
X120681326Y-66383747D01*
X120874366Y-66383747D01*
X121003059Y-66448093D01*
X121067406Y-66512440D01*
X121131753Y-66641133D01*
X121131753Y-66962867D01*
X121067406Y-67091560D01*
X121003059Y-67155907D01*
X120874366Y-67220253D01*
X120488286Y-67220253D01*
X120359593Y-67155907D01*
X120295246Y-67091560D01*
X121646526Y-65997667D02*
X121710872Y-65933320D01*
X121839566Y-65868973D01*
X122161299Y-65868973D01*
X122289992Y-65933320D01*
X122354339Y-65997667D01*
X122418686Y-66126360D01*
X122418686Y-66255053D01*
X122354339Y-66448093D01*
X121582179Y-67220253D01*
X122418686Y-67220253D01*
X122933459Y-65997667D02*
X122997805Y-65933320D01*
X123126499Y-65868973D01*
X123448232Y-65868973D01*
X123576925Y-65933320D01*
X123641272Y-65997667D01*
X123705619Y-66126360D01*
X123705619Y-66255053D01*
X123641272Y-66448093D01*
X122869112Y-67220253D01*
X123705619Y-67220253D01*
X116884873Y-71111533D02*
X116756180Y-71047187D01*
X116691833Y-70982840D01*
X116627487Y-70854147D01*
X116627487Y-70468067D01*
X116691833Y-70339373D01*
X116756180Y-70275027D01*
X116884873Y-70210680D01*
X117077913Y-70210680D01*
X117206607Y-70275027D01*
X117270953Y-70339373D01*
X117335300Y-70468067D01*
X117335300Y-70854147D01*
X117270953Y-70982840D01*
X117206607Y-71047187D01*
X117077913Y-71111533D01*
X116884873Y-71111533D01*
X117721380Y-70210680D02*
X118236154Y-70210680D01*
X117914420Y-69760253D02*
X117914420Y-70918493D01*
X117978767Y-71047187D01*
X118107460Y-71111533D01*
X118236154Y-71111533D01*
X118686580Y-71111533D02*
X118686580Y-69760253D01*
X119265700Y-71111533D02*
X119265700Y-70403720D01*
X119201354Y-70275027D01*
X119072660Y-70210680D01*
X118879620Y-70210680D01*
X118750927Y-70275027D01*
X118686580Y-70339373D01*
X120423941Y-71047187D02*
X120295247Y-71111533D01*
X120037861Y-71111533D01*
X119909167Y-71047187D01*
X119844821Y-70918493D01*
X119844821Y-70403720D01*
X119909167Y-70275027D01*
X120037861Y-70210680D01*
X120295247Y-70210680D01*
X120423941Y-70275027D01*
X120488287Y-70403720D01*
X120488287Y-70532413D01*
X119844821Y-70661107D01*
X121067407Y-71111533D02*
X121067407Y-70210680D01*
X121067407Y-70468067D02*
X121131754Y-70339373D01*
X121196101Y-70275027D01*
X121324794Y-70210680D01*
X121453487Y-70210680D01*
X127559647Y-67220253D02*
X126787487Y-67220253D01*
X127173567Y-67220253D02*
X127173567Y-65868973D01*
X127044873Y-66062013D01*
X126916180Y-66190707D01*
X126787487Y-66255053D01*
X127109220Y-69760253D02*
X127237913Y-69760253D01*
X127366607Y-69824600D01*
X127430953Y-69888947D01*
X127495300Y-70017640D01*
X127559647Y-70275027D01*
X127559647Y-70596760D01*
X127495300Y-70854147D01*
X127430953Y-70982840D01*
X127366607Y-71047187D01*
X127237913Y-71111533D01*
X127109220Y-71111533D01*
X126980527Y-71047187D01*
X126916180Y-70982840D01*
X126851833Y-70854147D01*
X126787487Y-70596760D01*
X126787487Y-70275027D01*
X126851833Y-70017640D01*
X126916180Y-69888947D01*
X126980527Y-69824600D01*
X127109220Y-69760253D01*
D12*
X167124138Y-41019790D02*
X166480671Y-41019790D01*
X166664519Y-41019790D02*
X166572595Y-40973829D01*
X166526633Y-40927867D01*
X166480671Y-40835943D01*
X166480671Y-40744019D01*
X167078176Y-40054590D02*
X167124138Y-40146514D01*
X167124138Y-40330362D01*
X167078176Y-40422285D01*
X166986252Y-40468247D01*
X166618557Y-40468247D01*
X166526633Y-40422285D01*
X166480671Y-40330362D01*
X166480671Y-40146514D01*
X166526633Y-40054590D01*
X166618557Y-40008628D01*
X166710481Y-40008628D01*
X166802405Y-40468247D01*
X166480671Y-39686895D02*
X167124138Y-39457086D01*
X166480671Y-39227276D01*
X167124138Y-37618611D02*
X167124138Y-38170153D01*
X167124138Y-37894382D02*
X166158938Y-37894382D01*
X166296824Y-37986306D01*
X166388748Y-38078230D01*
X166434710Y-38170153D01*
X167032214Y-37204953D02*
X167078176Y-37158992D01*
X167124138Y-37204953D01*
X167078176Y-37250915D01*
X167032214Y-37204953D01*
X167124138Y-37204953D01*
X166158938Y-36561487D02*
X166158938Y-36469563D01*
X166204900Y-36377639D01*
X166250862Y-36331677D01*
X166342786Y-36285715D01*
X166526633Y-36239754D01*
X166756443Y-36239754D01*
X166940290Y-36285715D01*
X167032214Y-36331677D01*
X167078176Y-36377639D01*
X167124138Y-36469563D01*
X167124138Y-36561487D01*
X167078176Y-36653411D01*
X167032214Y-36699373D01*
X166940290Y-36745334D01*
X166756443Y-36791296D01*
X166526633Y-36791296D01*
X166342786Y-36745334D01*
X166250862Y-36699373D01*
X166204900Y-36653411D01*
X166158938Y-36561487D01*
D16*
X164503100Y-108686600D02*
G75*
G03X164249100Y-108432600I-254000J0D01*
G01*
X162217100Y-108686600D02*
G75*
G02X162471100Y-108432600I254000J0D01*
G01*
X162471100Y-114782600D02*
G75*
G02X162217100Y-114528600I0J254000D01*
G01*
X164249100Y-114782600D02*
G75*
G03X164503100Y-114528600I0J254000D01*
G01*
X162471100Y-108432600D02*
X164249100Y-108432600D01*
X164503100Y-108686600D02*
X164503100Y-109067600D01*
X164376100Y-109194600D02*
X164503100Y-109067600D01*
X162217100Y-108686600D02*
X162217100Y-109067600D01*
X162344100Y-109194600D02*
X162217100Y-109067600D01*
X164376100Y-114020600D02*
X164503100Y-114147600D01*
X164376100Y-114020600D02*
X164376100Y-109194600D01*
X162344100Y-114020600D02*
X162217100Y-114147600D01*
X162344100Y-114020600D02*
X162344100Y-109194600D01*
X164503100Y-114528600D02*
X164503100Y-114147600D01*
X162217100Y-114528600D02*
X162217100Y-114147600D01*
X162471100Y-114782600D02*
X164249100Y-114782600D01*
D10*
G36*
X163055300Y-114782600D02*
X163055300Y-115646200D01*
X163664900Y-115646200D01*
X163664900Y-114782600D01*
X163055300Y-114782600D01*
G37*
G36*
X163055300Y-107569000D02*
X163055300Y-108432600D01*
X163664900Y-108432600D01*
X163664900Y-107569000D01*
X163055300Y-107569000D01*
G37*
D17*
X90630100Y-77437600D02*
G75*
G03X89630100Y-78437600I0J-1000000D01*
G01*
X90630100Y-77437600D02*
X164230100Y-77437600D01*
X165230100Y-78437600D02*
G75*
G03X164230100Y-77437600I-1000000J0D01*
G01*
X165230100Y-78437600D02*
X165230100Y-99057600D01*
X164230100Y-100057600D02*
G75*
G03X165230100Y-99057600I0J1000000D01*
G01*
X164230100Y-100057600D02*
X90630100Y-100057600D01*
X89630100Y-99057600D02*
G75*
G03X90630100Y-100057600I1000000J0D01*
G01*
X89630100Y-99057600D02*
X89630100Y-78437600D01*
D18*
X91970100Y-88437600D02*
X91970100Y-87897600D01*
X92200100Y-87667600D02*
G75*
G03X91970100Y-87897600I0J-230000D01*
G01*
X92430100Y-87897600D02*
G75*
G03X92200100Y-87667600I-230000J0D01*
G01*
X92430100Y-87897600D02*
X92430100Y-88447600D01*
D17*
X89740100Y-96457600D02*
X92990100Y-96457600D01*
X94990100Y-98407598D02*
G75*
G03X92990100Y-96457600I-1999959J-50601D01*
G01*
X94990100Y-98407600D02*
X94990100Y-99057600D01*
X96040102Y-100057599D02*
G75*
G02X94990100Y-99057600I-48811J1000000D01*
G01*
D18*
X91890100Y-88977600D02*
X91350100Y-88977600D01*
X91120100Y-88747600D02*
G75*
G03X91350100Y-88977600I230000J0D01*
G01*
X91350100Y-88517600D02*
G75*
G03X91120100Y-88747600I0J-230000D01*
G01*
X91350100Y-88517600D02*
X91900100Y-88517600D01*
X91970100Y-88447600D02*
G75*
G02X91900100Y-88517600I-70000J0D01*
G01*
X91890100Y-88977600D02*
G75*
G02X91960100Y-89047600I0J-70000D01*
G01*
X92430100Y-89057600D02*
X92430100Y-89597600D01*
X92200100Y-89827600D02*
G75*
G03X92430100Y-89597600I0J230000D01*
G01*
X91970100Y-89597600D02*
G75*
G03X92200100Y-89827600I230000J0D01*
G01*
X91970100Y-89597600D02*
X91970100Y-89047600D01*
X92510100Y-88517600D02*
X93050100Y-88517600D01*
X93280100Y-88747600D02*
G75*
G03X93050100Y-88517600I-230000J0D01*
G01*
X93050100Y-88977600D02*
G75*
G03X93280100Y-88747600I0J230000D01*
G01*
X93050100Y-88977600D02*
X92500100Y-88977600D01*
X92430100Y-89047600D02*
G75*
G02X92500100Y-88977600I70000J0D01*
G01*
X92500100Y-88517600D02*
G75*
G02X92430100Y-88447600I0J70000D01*
G01*
X163370100Y-88437600D02*
X163370100Y-87897600D01*
X163600100Y-87667600D02*
G75*
G03X163370100Y-87897600I0J-230000D01*
G01*
X163830100Y-87897600D02*
G75*
G03X163600100Y-87667600I-230000J0D01*
G01*
X163830100Y-87897600D02*
X163830100Y-88447600D01*
X163290100Y-88977600D02*
X162750100Y-88977600D01*
X162520100Y-88747600D02*
G75*
G03X162750100Y-88977600I230000J0D01*
G01*
X162750100Y-88517600D02*
G75*
G03X162520100Y-88747600I0J-230000D01*
G01*
X162750100Y-88517600D02*
X163300100Y-88517600D01*
X163370100Y-88447600D02*
G75*
G02X163300100Y-88517600I-70000J0D01*
G01*
X163290100Y-88977600D02*
G75*
G02X163360100Y-89047600I0J-70000D01*
G01*
X163830100Y-89057600D02*
X163830100Y-89597600D01*
X163600100Y-89827600D02*
G75*
G03X163830100Y-89597600I0J230000D01*
G01*
X163370100Y-89597600D02*
G75*
G03X163600100Y-89827600I230000J0D01*
G01*
X163370100Y-89597600D02*
X163370100Y-89047600D01*
X163910100Y-88517600D02*
X164450100Y-88517600D01*
X164680100Y-88747600D02*
G75*
G03X164450100Y-88517600I-230000J0D01*
G01*
X164450100Y-88977600D02*
G75*
G03X164680100Y-88747600I0J230000D01*
G01*
X164450100Y-88977600D02*
X163900100Y-88977600D01*
X163830100Y-89047600D02*
G75*
G02X163900100Y-88977600I70000J0D01*
G01*
X163900100Y-88517600D02*
G75*
G02X163830100Y-88447600I0J70000D01*
G01*
X93730100Y-88747600D02*
G75*
G03X93730100Y-88747600I-1530000J0D01*
G01*
D17*
X93461900Y-98557600D02*
G75*
G03X93461900Y-98557600I-2071800J0D01*
G01*
D18*
X165130100Y-88747600D02*
G75*
G03X165130100Y-88747600I-1530000J0D01*
G01*
D19*
X115310100Y-116107600D02*
X115310100Y-107107600D01*
X115310100Y-107107600D02*
X111810100Y-107107600D01*
X111810100Y-107107600D02*
X111810100Y-116107600D01*
X111810100Y-116107600D02*
X115310100Y-116107600D01*
X112810100Y-111357600D02*
X112810100Y-109857600D01*
X112810100Y-109857600D02*
X114310100Y-109857600D01*
X114310100Y-109857600D02*
X114310100Y-111357600D01*
X112810100Y-109857600D02*
X112810100Y-113607600D01*
X112810100Y-113607600D02*
X114310100Y-113607600D01*
X114310100Y-113607600D02*
X114310100Y-109857600D01*
X114310100Y-109857600D02*
X112810100Y-109857600D01*
D10*
G36*
X113750600Y-113703100D02*
X113750600Y-112687100D01*
X113369600Y-112687100D01*
X113369600Y-113703100D01*
X113750600Y-113703100D01*
G37*
G36*
X113750600Y-113068100D02*
X113750600Y-112052100D01*
X113369600Y-112052100D01*
X113369600Y-113068100D01*
X113750600Y-113068100D01*
G37*
G36*
X113750600Y-112433100D02*
X113750600Y-111417100D01*
X113369600Y-111417100D01*
X113369600Y-112433100D01*
X113750600Y-112433100D01*
G37*
D16*
X128308100Y-116560600D02*
X137452100Y-116560600D01*
X137452100Y-106654600D02*
X128308100Y-106654600D01*
X128308100Y-106654600D02*
X128308100Y-109956600D01*
X128308100Y-113258600D02*
X128816100Y-113258600D01*
X128816100Y-113258600D02*
X128816100Y-109956600D01*
X128816100Y-109956600D02*
X128308100Y-109956600D01*
X128308100Y-113258600D02*
X128308100Y-116560600D01*
X128308100Y-109956600D02*
X128308100Y-113258600D01*
X137452100Y-116560600D02*
X137452100Y-113258600D01*
X137452100Y-109956600D02*
X136944100Y-109956600D01*
X136944100Y-109956600D02*
X136944100Y-113258600D01*
X136944100Y-113258600D02*
X137452100Y-113258600D01*
X137452100Y-109956600D02*
X137452100Y-106654600D01*
X137452100Y-113258600D02*
X137452100Y-109956600D01*
X134658100Y-109702600D02*
X134658100Y-113512600D01*
X134658100Y-109702600D02*
X136182100Y-109702600D01*
X136182100Y-113512600D02*
X136182100Y-109702600D01*
X136182100Y-113512600D02*
X134658100Y-113512600D01*
X132118100Y-109702600D02*
X132118100Y-113512600D01*
X132118100Y-109702600D02*
X133642100Y-109702600D01*
X133642100Y-113512600D02*
X133642100Y-109702600D01*
X133642100Y-113512600D02*
X132118100Y-113512600D01*
X129578100Y-109702600D02*
X129578100Y-113512600D01*
X129578100Y-109702600D02*
X131102100Y-109702600D01*
X131102100Y-113512600D02*
X131102100Y-109702600D01*
X131102100Y-113512600D02*
X129578100Y-113512600D01*
D10*
G36*
X134912100Y-111988600D02*
X135928100Y-111988600D01*
X135928100Y-111607600D01*
X134912100Y-111607600D01*
X134912100Y-111988600D01*
G37*
G36*
X134912100Y-112623600D02*
X135928100Y-112623600D01*
X135928100Y-112242600D01*
X134912100Y-112242600D01*
X134912100Y-112623600D01*
G37*
G36*
X134912100Y-113258600D02*
X135928100Y-113258600D01*
X135928100Y-112877600D01*
X134912100Y-112877600D01*
X134912100Y-113258600D01*
G37*
G36*
X132372100Y-111988600D02*
X133388100Y-111988600D01*
X133388100Y-111607600D01*
X132372100Y-111607600D01*
X132372100Y-111988600D01*
G37*
G36*
X132372100Y-112623600D02*
X133388100Y-112623600D01*
X133388100Y-112242600D01*
X132372100Y-112242600D01*
X132372100Y-112623600D01*
G37*
G36*
X132372100Y-113258600D02*
X133388100Y-113258600D01*
X133388100Y-112877600D01*
X132372100Y-112877600D01*
X132372100Y-113258600D01*
G37*
G36*
X129832100Y-111988600D02*
X130848100Y-111988600D01*
X130848100Y-111607600D01*
X129832100Y-111607600D01*
X129832100Y-111988600D01*
G37*
G36*
X129832100Y-112623600D02*
X130848100Y-112623600D01*
X130848100Y-112242600D01*
X129832100Y-112242600D01*
X129832100Y-112623600D01*
G37*
G36*
X129832100Y-113258600D02*
X130848100Y-113258600D01*
X130848100Y-112877600D01*
X129832100Y-112877600D01*
X129832100Y-113258600D01*
G37*
D19*
X144691100Y-113702600D02*
X144691100Y-109512600D01*
X141904198Y-109194601D02*
G75*
G03X141904200Y-114020600I1135910J-2412999D01*
G01*
X144691100Y-113702600D02*
G75*
G02X144176000Y-114021100I-1651107J2094505D01*
G01*
X143167100Y-112743600D02*
X143167100Y-113011600D01*
X143167100Y-110203600D02*
X143167100Y-110471600D01*
X144151900Y-109182900D02*
G75*
G02X144691100Y-109512600I-1111910J-2424208D01*
G01*
D16*
X153073100Y-108686600D02*
G75*
G03X152819100Y-108432600I-254000J0D01*
G01*
X150787100Y-108686600D02*
G75*
G02X151041100Y-108432600I254000J0D01*
G01*
X151041100Y-114782600D02*
G75*
G02X150787100Y-114528600I0J254000D01*
G01*
X152819100Y-114782600D02*
G75*
G03X153073100Y-114528600I0J254000D01*
G01*
X151041100Y-108432600D02*
X152819100Y-108432600D01*
X153073100Y-108686600D02*
X153073100Y-109067600D01*
X152946100Y-109194600D02*
X153073100Y-109067600D01*
X150787100Y-108686600D02*
X150787100Y-109067600D01*
X150914100Y-109194600D02*
X150787100Y-109067600D01*
X152946100Y-114020600D02*
X153073100Y-114147600D01*
X152946100Y-114020600D02*
X152946100Y-109194600D01*
X150914100Y-114020600D02*
X150787100Y-114147600D01*
X150914100Y-114020600D02*
X150914100Y-109194600D01*
X153073100Y-114528600D02*
X153073100Y-114147600D01*
X150787100Y-114528600D02*
X150787100Y-114147600D01*
X151041100Y-114782600D02*
X152819100Y-114782600D01*
D10*
G36*
X151625300Y-114782600D02*
X151625300Y-115646200D01*
X152234900Y-115646200D01*
X152234900Y-114782600D01*
X151625300Y-114782600D01*
G37*
G36*
X151625300Y-107569000D02*
X151625300Y-108432600D01*
X152234900Y-108432600D01*
X152234900Y-107569000D01*
X151625300Y-107569000D01*
G37*
D16*
X156883100Y-108686600D02*
G75*
G03X156629100Y-108432600I-254000J0D01*
G01*
X154597100Y-108686600D02*
G75*
G02X154851100Y-108432600I254000J0D01*
G01*
X154851100Y-114782600D02*
G75*
G02X154597100Y-114528600I0J254000D01*
G01*
X156629100Y-114782600D02*
G75*
G03X156883100Y-114528600I0J254000D01*
G01*
X154851100Y-108432600D02*
X156629100Y-108432600D01*
X156883100Y-108686600D02*
X156883100Y-109067600D01*
X156756100Y-109194600D02*
X156883100Y-109067600D01*
X154597100Y-108686600D02*
X154597100Y-109067600D01*
X154724100Y-109194600D02*
X154597100Y-109067600D01*
X156756100Y-114020600D02*
X156883100Y-114147600D01*
X156756100Y-114020600D02*
X156756100Y-109194600D01*
X154724100Y-114020600D02*
X154597100Y-114147600D01*
X154724100Y-114020600D02*
X154724100Y-109194600D01*
X156883100Y-114528600D02*
X156883100Y-114147600D01*
X154597100Y-114528600D02*
X154597100Y-114147600D01*
X154851100Y-114782600D02*
X156629100Y-114782600D01*
D10*
G36*
X155435300Y-114782600D02*
X155435300Y-115646200D01*
X156044900Y-115646200D01*
X156044900Y-114782600D01*
X155435300Y-114782600D01*
G37*
G36*
X155435300Y-107569000D02*
X155435300Y-108432600D01*
X156044900Y-108432600D01*
X156044900Y-107569000D01*
X155435300Y-107569000D01*
G37*
D16*
X160693100Y-108686600D02*
G75*
G03X160439100Y-108432600I-254000J0D01*
G01*
X158407100Y-108686600D02*
G75*
G02X158661100Y-108432600I254000J0D01*
G01*
X158661100Y-114782600D02*
G75*
G02X158407100Y-114528600I0J254000D01*
G01*
X160439100Y-114782600D02*
G75*
G03X160693100Y-114528600I0J254000D01*
G01*
X158661100Y-108432600D02*
X160439100Y-108432600D01*
X160693100Y-108686600D02*
X160693100Y-109067600D01*
X160566100Y-109194600D02*
X160693100Y-109067600D01*
X158407100Y-108686600D02*
X158407100Y-109067600D01*
X158534100Y-109194600D02*
X158407100Y-109067600D01*
X160566100Y-114020600D02*
X160693100Y-114147600D01*
X160566100Y-114020600D02*
X160566100Y-109194600D01*
X158534100Y-114020600D02*
X158407100Y-114147600D01*
X158534100Y-114020600D02*
X158534100Y-109194600D01*
X160693100Y-114528600D02*
X160693100Y-114147600D01*
X158407100Y-114528600D02*
X158407100Y-114147600D01*
X158661100Y-114782600D02*
X160439100Y-114782600D01*
D10*
G36*
X159245300Y-114782600D02*
X159245300Y-115646200D01*
X159854900Y-115646200D01*
X159854900Y-114782600D01*
X159245300Y-114782600D01*
G37*
G36*
X159245300Y-107569000D02*
X159245300Y-108432600D01*
X159854900Y-108432600D01*
X159854900Y-107569000D01*
X159245300Y-107569000D01*
G37*
D16*
X146977100Y-114528600D02*
G75*
G03X147231100Y-114782600I254000J0D01*
G01*
X149263100Y-114528600D02*
G75*
G02X149009100Y-114782600I-254000J0D01*
G01*
X149009100Y-108432600D02*
G75*
G02X149263100Y-108686600I0J-254000D01*
G01*
X147231100Y-108432600D02*
G75*
G03X146977100Y-108686600I0J-254000D01*
G01*
X149009100Y-114782600D02*
X147231100Y-114782600D01*
X146977100Y-114528600D02*
X146977100Y-114147600D01*
X147104100Y-114020600D02*
X146977100Y-114147600D01*
X149263100Y-114528600D02*
X149263100Y-114147600D01*
X149136100Y-114020600D02*
X149263100Y-114147600D01*
X147104100Y-109194600D02*
X146977100Y-109067600D01*
X147104100Y-109194600D02*
X147104100Y-114020600D01*
X149136100Y-109194600D02*
X149263100Y-109067600D01*
X149136100Y-109194600D02*
X149136100Y-114020600D01*
X146977100Y-108686600D02*
X146977100Y-109067600D01*
X149263100Y-108686600D02*
X149263100Y-109067600D01*
X149009100Y-108432600D02*
X147231100Y-108432600D01*
D10*
G36*
X148424900Y-108432600D02*
X148424900Y-107569000D01*
X147815300Y-107569000D01*
X147815300Y-108432600D01*
X148424900Y-108432600D01*
G37*
G36*
X148424900Y-115646200D02*
X148424900Y-114782600D01*
X147815300Y-114782600D01*
X147815300Y-115646200D01*
X148424900Y-115646200D01*
G37*
D16*
X164503100Y-65633600D02*
G75*
G03X164249100Y-65379600I-254000J0D01*
G01*
X162217100Y-65633600D02*
G75*
G02X162471100Y-65379600I254000J0D01*
G01*
X162471100Y-71729600D02*
G75*
G02X162217100Y-71475600I0J254000D01*
G01*
X164249100Y-71729600D02*
G75*
G03X164503100Y-71475600I0J254000D01*
G01*
X162471100Y-65379600D02*
X164249100Y-65379600D01*
X164503100Y-65633600D02*
X164503100Y-66014600D01*
X164376100Y-66141600D02*
X164503100Y-66014600D01*
X162217100Y-65633600D02*
X162217100Y-66014600D01*
X162344100Y-66141600D02*
X162217100Y-66014600D01*
X164376100Y-70967600D02*
X164503100Y-71094600D01*
X164376100Y-70967600D02*
X164376100Y-66141600D01*
X162344100Y-70967600D02*
X162217100Y-71094600D01*
X162344100Y-70967600D02*
X162344100Y-66141600D01*
X164503100Y-71475600D02*
X164503100Y-71094600D01*
X162217100Y-71475600D02*
X162217100Y-71094600D01*
X162471100Y-71729600D02*
X164249100Y-71729600D01*
D10*
G36*
X163055300Y-71729600D02*
X163055300Y-72593200D01*
X163664900Y-72593200D01*
X163664900Y-71729600D01*
X163055300Y-71729600D01*
G37*
G36*
X163055300Y-64516000D02*
X163055300Y-65379600D01*
X163664900Y-65379600D01*
X163664900Y-64516000D01*
X163055300Y-64516000D01*
G37*
D16*
X160693100Y-65633600D02*
G75*
G03X160439100Y-65379600I-254000J0D01*
G01*
X158407100Y-65633600D02*
G75*
G02X158661100Y-65379600I254000J0D01*
G01*
X158661100Y-71729600D02*
G75*
G02X158407100Y-71475600I0J254000D01*
G01*
X160439100Y-71729600D02*
G75*
G03X160693100Y-71475600I0J254000D01*
G01*
X158661100Y-65379600D02*
X160439100Y-65379600D01*
X160693100Y-65633600D02*
X160693100Y-66014600D01*
X160566100Y-66141600D02*
X160693100Y-66014600D01*
X158407100Y-65633600D02*
X158407100Y-66014600D01*
X158534100Y-66141600D02*
X158407100Y-66014600D01*
X160566100Y-70967600D02*
X160693100Y-71094600D01*
X160566100Y-70967600D02*
X160566100Y-66141600D01*
X158534100Y-70967600D02*
X158407100Y-71094600D01*
X158534100Y-70967600D02*
X158534100Y-66141600D01*
X160693100Y-71475600D02*
X160693100Y-71094600D01*
X158407100Y-71475600D02*
X158407100Y-71094600D01*
X158661100Y-71729600D02*
X160439100Y-71729600D01*
D10*
G36*
X159245300Y-71729600D02*
X159245300Y-72593200D01*
X159854900Y-72593200D01*
X159854900Y-71729600D01*
X159245300Y-71729600D01*
G37*
G36*
X159245300Y-64516000D02*
X159245300Y-65379600D01*
X159854900Y-65379600D01*
X159854900Y-64516000D01*
X159245300Y-64516000D01*
G37*
D16*
X128308100Y-73507600D02*
X137452100Y-73507600D01*
X137452100Y-63601600D02*
X128308100Y-63601600D01*
X128308100Y-63601600D02*
X128308100Y-66903600D01*
X128308100Y-70205600D02*
X128816100Y-70205600D01*
X128816100Y-70205600D02*
X128816100Y-66903600D01*
X128816100Y-66903600D02*
X128308100Y-66903600D01*
X128308100Y-70205600D02*
X128308100Y-73507600D01*
X128308100Y-66903600D02*
X128308100Y-70205600D01*
X137452100Y-73507600D02*
X137452100Y-70205600D01*
X137452100Y-66903600D02*
X136944100Y-66903600D01*
X136944100Y-66903600D02*
X136944100Y-70205600D01*
X136944100Y-70205600D02*
X137452100Y-70205600D01*
X137452100Y-66903600D02*
X137452100Y-63601600D01*
X137452100Y-70205600D02*
X137452100Y-66903600D01*
X134658100Y-66649600D02*
X134658100Y-70459600D01*
X134658100Y-66649600D02*
X136182100Y-66649600D01*
X136182100Y-70459600D02*
X136182100Y-66649600D01*
X136182100Y-70459600D02*
X134658100Y-70459600D01*
X132118100Y-66649600D02*
X132118100Y-70459600D01*
X132118100Y-66649600D02*
X133642100Y-66649600D01*
X133642100Y-70459600D02*
X133642100Y-66649600D01*
X133642100Y-70459600D02*
X132118100Y-70459600D01*
X129578100Y-66649600D02*
X129578100Y-70459600D01*
X129578100Y-66649600D02*
X131102100Y-66649600D01*
X131102100Y-70459600D02*
X131102100Y-66649600D01*
X131102100Y-70459600D02*
X129578100Y-70459600D01*
D10*
G36*
X134912100Y-68935600D02*
X135928100Y-68935600D01*
X135928100Y-68554600D01*
X134912100Y-68554600D01*
X134912100Y-68935600D01*
G37*
G36*
X134912100Y-69570600D02*
X135928100Y-69570600D01*
X135928100Y-69189600D01*
X134912100Y-69189600D01*
X134912100Y-69570600D01*
G37*
G36*
X134912100Y-70205600D02*
X135928100Y-70205600D01*
X135928100Y-69824600D01*
X134912100Y-69824600D01*
X134912100Y-70205600D01*
G37*
G36*
X132372100Y-68935600D02*
X133388100Y-68935600D01*
X133388100Y-68554600D01*
X132372100Y-68554600D01*
X132372100Y-68935600D01*
G37*
G36*
X132372100Y-69570600D02*
X133388100Y-69570600D01*
X133388100Y-69189600D01*
X132372100Y-69189600D01*
X132372100Y-69570600D01*
G37*
G36*
X132372100Y-70205600D02*
X133388100Y-70205600D01*
X133388100Y-69824600D01*
X132372100Y-69824600D01*
X132372100Y-70205600D01*
G37*
G36*
X129832100Y-68935600D02*
X130848100Y-68935600D01*
X130848100Y-68554600D01*
X129832100Y-68554600D01*
X129832100Y-68935600D01*
G37*
G36*
X129832100Y-69570600D02*
X130848100Y-69570600D01*
X130848100Y-69189600D01*
X129832100Y-69189600D01*
X129832100Y-69570600D01*
G37*
G36*
X129832100Y-70205600D02*
X130848100Y-70205600D01*
X130848100Y-69824600D01*
X129832100Y-69824600D01*
X129832100Y-70205600D01*
G37*
D16*
X156883100Y-65633600D02*
G75*
G03X156629100Y-65379600I-254000J0D01*
G01*
X154597100Y-65633600D02*
G75*
G02X154851100Y-65379600I254000J0D01*
G01*
X154851100Y-71729600D02*
G75*
G02X154597100Y-71475600I0J254000D01*
G01*
X156629100Y-71729600D02*
G75*
G03X156883100Y-71475600I0J254000D01*
G01*
X154851100Y-65379600D02*
X156629100Y-65379600D01*
X156883100Y-65633600D02*
X156883100Y-66014600D01*
X156756100Y-66141600D02*
X156883100Y-66014600D01*
X154597100Y-65633600D02*
X154597100Y-66014600D01*
X154724100Y-66141600D02*
X154597100Y-66014600D01*
X156756100Y-70967600D02*
X156883100Y-71094600D01*
X156756100Y-70967600D02*
X156756100Y-66141600D01*
X154724100Y-70967600D02*
X154597100Y-71094600D01*
X154724100Y-70967600D02*
X154724100Y-66141600D01*
X156883100Y-71475600D02*
X156883100Y-71094600D01*
X154597100Y-71475600D02*
X154597100Y-71094600D01*
X154851100Y-71729600D02*
X156629100Y-71729600D01*
D10*
G36*
X155435300Y-71729600D02*
X155435300Y-72593200D01*
X156044900Y-72593200D01*
X156044900Y-71729600D01*
X155435300Y-71729600D01*
G37*
G36*
X155435300Y-64516000D02*
X155435300Y-65379600D01*
X156044900Y-65379600D01*
X156044900Y-64516000D01*
X155435300Y-64516000D01*
G37*
D19*
X115310100Y-73054600D02*
X115310100Y-64054600D01*
X115310100Y-64054600D02*
X111810100Y-64054600D01*
X111810100Y-64054600D02*
X111810100Y-73054600D01*
X111810100Y-73054600D02*
X115310100Y-73054600D01*
X112810100Y-68304600D02*
X112810100Y-66804600D01*
X112810100Y-66804600D02*
X114310100Y-66804600D01*
X114310100Y-66804600D02*
X114310100Y-68304600D01*
X112810100Y-66804600D02*
X112810100Y-70554600D01*
X112810100Y-70554600D02*
X114310100Y-70554600D01*
X114310100Y-70554600D02*
X114310100Y-66804600D01*
X114310100Y-66804600D02*
X112810100Y-66804600D01*
D10*
G36*
X113750600Y-70650100D02*
X113750600Y-69634100D01*
X113369600Y-69634100D01*
X113369600Y-70650100D01*
X113750600Y-70650100D01*
G37*
G36*
X113750600Y-70015100D02*
X113750600Y-68999100D01*
X113369600Y-68999100D01*
X113369600Y-70015100D01*
X113750600Y-70015100D01*
G37*
G36*
X113750600Y-69380100D02*
X113750600Y-68364100D01*
X113369600Y-68364100D01*
X113369600Y-69380100D01*
X113750600Y-69380100D01*
G37*
D16*
X153073100Y-65633600D02*
G75*
G03X152819100Y-65379600I-254000J0D01*
G01*
X150787100Y-65633600D02*
G75*
G02X151041100Y-65379600I254000J0D01*
G01*
X151041100Y-71729600D02*
G75*
G02X150787100Y-71475600I0J254000D01*
G01*
X152819100Y-71729600D02*
G75*
G03X153073100Y-71475600I0J254000D01*
G01*
X151041100Y-65379600D02*
X152819100Y-65379600D01*
X153073100Y-65633600D02*
X153073100Y-66014600D01*
X152946100Y-66141600D02*
X153073100Y-66014600D01*
X150787100Y-65633600D02*
X150787100Y-66014600D01*
X150914100Y-66141600D02*
X150787100Y-66014600D01*
X152946100Y-70967600D02*
X153073100Y-71094600D01*
X152946100Y-70967600D02*
X152946100Y-66141600D01*
X150914100Y-70967600D02*
X150787100Y-71094600D01*
X150914100Y-70967600D02*
X150914100Y-66141600D01*
X153073100Y-71475600D02*
X153073100Y-71094600D01*
X150787100Y-71475600D02*
X150787100Y-71094600D01*
X151041100Y-71729600D02*
X152819100Y-71729600D01*
D10*
G36*
X151625300Y-71729600D02*
X151625300Y-72593200D01*
X152234900Y-72593200D01*
X152234900Y-71729600D01*
X151625300Y-71729600D01*
G37*
G36*
X151625300Y-64516000D02*
X151625300Y-65379600D01*
X152234900Y-65379600D01*
X152234900Y-64516000D01*
X151625300Y-64516000D01*
G37*
D16*
X146977100Y-71475600D02*
G75*
G03X147231100Y-71729600I254000J0D01*
G01*
X149263100Y-71475600D02*
G75*
G02X149009100Y-71729600I-254000J0D01*
G01*
X149009100Y-65379600D02*
G75*
G02X149263100Y-65633600I0J-254000D01*
G01*
X147231100Y-65379600D02*
G75*
G03X146977100Y-65633600I0J-254000D01*
G01*
X149009100Y-71729600D02*
X147231100Y-71729600D01*
X146977100Y-71475600D02*
X146977100Y-71094600D01*
X147104100Y-70967600D02*
X146977100Y-71094600D01*
X149263100Y-71475600D02*
X149263100Y-71094600D01*
X149136100Y-70967600D02*
X149263100Y-71094600D01*
X147104100Y-66141600D02*
X146977100Y-66014600D01*
X147104100Y-66141600D02*
X147104100Y-70967600D01*
X149136100Y-66141600D02*
X149263100Y-66014600D01*
X149136100Y-66141600D02*
X149136100Y-70967600D01*
X146977100Y-65633600D02*
X146977100Y-66014600D01*
X149263100Y-65633600D02*
X149263100Y-66014600D01*
X149009100Y-65379600D02*
X147231100Y-65379600D01*
D10*
G36*
X148424900Y-65379600D02*
X148424900Y-64516000D01*
X147815300Y-64516000D01*
X147815300Y-65379600D01*
X148424900Y-65379600D01*
G37*
G36*
X148424900Y-72593200D02*
X148424900Y-71729600D01*
X147815300Y-71729600D01*
X147815300Y-72593200D01*
X148424900Y-72593200D01*
G37*
D19*
X144691100Y-70649600D02*
X144691100Y-66459600D01*
X141904198Y-66141601D02*
G75*
G03X141904200Y-70967600I1135910J-2412999D01*
G01*
X144691100Y-70649600D02*
G75*
G02X144176000Y-70968100I-1651107J2094505D01*
G01*
X143167100Y-69690600D02*
X143167100Y-69958600D01*
X143167100Y-67150600D02*
X143167100Y-67418600D01*
X144151900Y-66129900D02*
G75*
G02X144691100Y-66459600I-1111910J-2424208D01*
G01*
D17*
X90630100Y-34384600D02*
G75*
G03X89630100Y-35384600I0J-1000000D01*
G01*
X90630100Y-34384600D02*
X164230100Y-34384600D01*
X165230100Y-35384600D02*
G75*
G03X164230100Y-34384600I-1000000J0D01*
G01*
X165230100Y-35384600D02*
X165230100Y-56004600D01*
X164230100Y-57004600D02*
G75*
G03X165230100Y-56004600I0J1000000D01*
G01*
X164230100Y-57004600D02*
X90630100Y-57004600D01*
X89630100Y-56004600D02*
G75*
G03X90630100Y-57004600I1000000J0D01*
G01*
X89630100Y-56004600D02*
X89630100Y-35384600D01*
D18*
X91970100Y-45384600D02*
X91970100Y-44844600D01*
X92200100Y-44614600D02*
G75*
G03X91970100Y-44844600I0J-230000D01*
G01*
X92430100Y-44844600D02*
G75*
G03X92200100Y-44614600I-230000J0D01*
G01*
X92430100Y-44844600D02*
X92430100Y-45394600D01*
D17*
X89740100Y-53404600D02*
X92990100Y-53404600D01*
X94990100Y-55354598D02*
G75*
G03X92990100Y-53404600I-1999959J-50601D01*
G01*
X94990100Y-55354600D02*
X94990100Y-56004600D01*
X96040102Y-57004599D02*
G75*
G02X94990100Y-56004600I-48811J1000000D01*
G01*
D18*
X91890100Y-45924600D02*
X91350100Y-45924600D01*
X91120100Y-45694600D02*
G75*
G03X91350100Y-45924600I230000J0D01*
G01*
X91350100Y-45464600D02*
G75*
G03X91120100Y-45694600I0J-230000D01*
G01*
X91350100Y-45464600D02*
X91900100Y-45464600D01*
X91970100Y-45394600D02*
G75*
G02X91900100Y-45464600I-70000J0D01*
G01*
X91890100Y-45924600D02*
G75*
G02X91960100Y-45994600I0J-70000D01*
G01*
X92430100Y-46004600D02*
X92430100Y-46544600D01*
X92200100Y-46774600D02*
G75*
G03X92430100Y-46544600I0J230000D01*
G01*
X91970100Y-46544600D02*
G75*
G03X92200100Y-46774600I230000J0D01*
G01*
X91970100Y-46544600D02*
X91970100Y-45994600D01*
X92510100Y-45464600D02*
X93050100Y-45464600D01*
X93280100Y-45694600D02*
G75*
G03X93050100Y-45464600I-230000J0D01*
G01*
X93050100Y-45924600D02*
G75*
G03X93280100Y-45694600I0J230000D01*
G01*
X93050100Y-45924600D02*
X92500100Y-45924600D01*
X92430100Y-45994600D02*
G75*
G02X92500100Y-45924600I70000J0D01*
G01*
X92500100Y-45464600D02*
G75*
G02X92430100Y-45394600I0J70000D01*
G01*
X163370100Y-45384600D02*
X163370100Y-44844600D01*
X163600100Y-44614600D02*
G75*
G03X163370100Y-44844600I0J-230000D01*
G01*
X163830100Y-44844600D02*
G75*
G03X163600100Y-44614600I-230000J0D01*
G01*
X163830100Y-44844600D02*
X163830100Y-45394600D01*
X163290100Y-45924600D02*
X162750100Y-45924600D01*
X162520100Y-45694600D02*
G75*
G03X162750100Y-45924600I230000J0D01*
G01*
X162750100Y-45464600D02*
G75*
G03X162520100Y-45694600I0J-230000D01*
G01*
X162750100Y-45464600D02*
X163300100Y-45464600D01*
X163370100Y-45394600D02*
G75*
G02X163300100Y-45464600I-70000J0D01*
G01*
X163290100Y-45924600D02*
G75*
G02X163360100Y-45994600I0J-70000D01*
G01*
X163830100Y-46004600D02*
X163830100Y-46544600D01*
X163600100Y-46774600D02*
G75*
G03X163830100Y-46544600I0J230000D01*
G01*
X163370100Y-46544600D02*
G75*
G03X163600100Y-46774600I230000J0D01*
G01*
X163370100Y-46544600D02*
X163370100Y-45994600D01*
X163910100Y-45464600D02*
X164450100Y-45464600D01*
X164680100Y-45694600D02*
G75*
G03X164450100Y-45464600I-230000J0D01*
G01*
X164450100Y-45924600D02*
G75*
G03X164680100Y-45694600I0J230000D01*
G01*
X164450100Y-45924600D02*
X163900100Y-45924600D01*
X163830100Y-45994600D02*
G75*
G02X163900100Y-45924600I70000J0D01*
G01*
X163900100Y-45464600D02*
G75*
G02X163830100Y-45394600I0J70000D01*
G01*
X93730100Y-45694600D02*
G75*
G03X93730100Y-45694600I-1530000J0D01*
G01*
D17*
X93461900Y-55504600D02*
G75*
G03X93461900Y-55504600I-2071800J0D01*
G01*
D18*
X165130100Y-45694600D02*
G75*
G03X165130100Y-45694600I-1530000J0D01*
G01*
D20*
X162312048Y-116313858D02*
X161737524Y-116716024D01*
X162312048Y-117003286D02*
X161105548Y-117003286D01*
X161105548Y-116543667D01*
X161163000Y-116428762D01*
X161220452Y-116371310D01*
X161335357Y-116313858D01*
X161507714Y-116313858D01*
X161622619Y-116371310D01*
X161680071Y-116428762D01*
X161737524Y-116543667D01*
X161737524Y-117003286D01*
X162312048Y-115164810D02*
X162312048Y-115854238D01*
X162312048Y-115509524D02*
X161105548Y-115509524D01*
X161277905Y-115624429D01*
X161392810Y-115739334D01*
X161450262Y-115854238D01*
X141281452Y-116256405D02*
X141224000Y-116371310D01*
X141109095Y-116486214D01*
X140936738Y-116658571D01*
X140879286Y-116773476D01*
X140879286Y-116888381D01*
X141166548Y-116830929D02*
X141109095Y-116945833D01*
X140994190Y-117060738D01*
X140764381Y-117118190D01*
X140362214Y-117118190D01*
X140132405Y-117060738D01*
X140017500Y-116945833D01*
X139960048Y-116830929D01*
X139960048Y-116601119D01*
X140017500Y-116486214D01*
X140132405Y-116371310D01*
X140362214Y-116313857D01*
X140764381Y-116313857D01*
X140994190Y-116371310D01*
X141109095Y-116486214D01*
X141166548Y-116601119D01*
X141166548Y-116830929D01*
X141166548Y-115164810D02*
X141166548Y-115854238D01*
X141166548Y-115509524D02*
X139960048Y-115509524D01*
X140132405Y-115624429D01*
X140247310Y-115739334D01*
X140304762Y-115854238D01*
X150882048Y-116313858D02*
X150307524Y-116716024D01*
X150882048Y-117003286D02*
X149675548Y-117003286D01*
X149675548Y-116543667D01*
X149733000Y-116428762D01*
X149790452Y-116371310D01*
X149905357Y-116313858D01*
X150077714Y-116313858D01*
X150192619Y-116371310D01*
X150250071Y-116428762D01*
X150307524Y-116543667D01*
X150307524Y-117003286D01*
X150077714Y-115279715D02*
X150882048Y-115279715D01*
X149618095Y-115566977D02*
X150479881Y-115854238D01*
X150479881Y-115107358D01*
X154692048Y-116313858D02*
X154117524Y-116716024D01*
X154692048Y-117003286D02*
X153485548Y-117003286D01*
X153485548Y-116543667D01*
X153543000Y-116428762D01*
X153600452Y-116371310D01*
X153715357Y-116313858D01*
X153887714Y-116313858D01*
X154002619Y-116371310D01*
X154060071Y-116428762D01*
X154117524Y-116543667D01*
X154117524Y-117003286D01*
X153485548Y-115911691D02*
X153485548Y-115164810D01*
X153945167Y-115566977D01*
X153945167Y-115394619D01*
X154002619Y-115279715D01*
X154060071Y-115222262D01*
X154174976Y-115164810D01*
X154462238Y-115164810D01*
X154577143Y-115222262D01*
X154634595Y-115279715D01*
X154692048Y-115394619D01*
X154692048Y-115739334D01*
X154634595Y-115854238D01*
X154577143Y-115911691D01*
X158502048Y-116313858D02*
X157927524Y-116716024D01*
X158502048Y-117003286D02*
X157295548Y-117003286D01*
X157295548Y-116543667D01*
X157353000Y-116428762D01*
X157410452Y-116371310D01*
X157525357Y-116313858D01*
X157697714Y-116313858D01*
X157812619Y-116371310D01*
X157870071Y-116428762D01*
X157927524Y-116543667D01*
X157927524Y-117003286D01*
X157410452Y-115854238D02*
X157353000Y-115796786D01*
X157295548Y-115681881D01*
X157295548Y-115394619D01*
X157353000Y-115279715D01*
X157410452Y-115222262D01*
X157525357Y-115164810D01*
X157640262Y-115164810D01*
X157812619Y-115222262D01*
X158502048Y-115911691D01*
X158502048Y-115164810D01*
X147008548Y-116371310D02*
X146434024Y-116773476D01*
X147008548Y-117060738D02*
X145802048Y-117060738D01*
X145802048Y-116601119D01*
X145859500Y-116486214D01*
X145916952Y-116428762D01*
X146031857Y-116371310D01*
X146204214Y-116371310D01*
X146319119Y-116428762D01*
X146376571Y-116486214D01*
X146434024Y-116601119D01*
X146434024Y-117060738D01*
X145802048Y-115279714D02*
X145802048Y-115854238D01*
X146376571Y-115911690D01*
X146319119Y-115854238D01*
X146261667Y-115739333D01*
X146261667Y-115452071D01*
X146319119Y-115337167D01*
X146376571Y-115279714D01*
X146491476Y-115222262D01*
X146778738Y-115222262D01*
X146893643Y-115279714D01*
X146951095Y-115337167D01*
X147008548Y-115452071D01*
X147008548Y-115739333D01*
X146951095Y-115854238D01*
X146893643Y-115911690D01*
X162312048Y-73260858D02*
X161737524Y-73663024D01*
X162312048Y-73950286D02*
X161105548Y-73950286D01*
X161105548Y-73490667D01*
X161163000Y-73375762D01*
X161220452Y-73318310D01*
X161335357Y-73260858D01*
X161507714Y-73260858D01*
X161622619Y-73318310D01*
X161680071Y-73375762D01*
X161737524Y-73490667D01*
X161737524Y-73950286D01*
X162312048Y-72111810D02*
X162312048Y-72801238D01*
X162312048Y-72456524D02*
X161105548Y-72456524D01*
X161277905Y-72571429D01*
X161392810Y-72686334D01*
X161450262Y-72801238D01*
X158502048Y-73260858D02*
X157927524Y-73663024D01*
X158502048Y-73950286D02*
X157295548Y-73950286D01*
X157295548Y-73490667D01*
X157353000Y-73375762D01*
X157410452Y-73318310D01*
X157525357Y-73260858D01*
X157697714Y-73260858D01*
X157812619Y-73318310D01*
X157870071Y-73375762D01*
X157927524Y-73490667D01*
X157927524Y-73950286D01*
X157410452Y-72801238D02*
X157353000Y-72743786D01*
X157295548Y-72628881D01*
X157295548Y-72341619D01*
X157353000Y-72226715D01*
X157410452Y-72169262D01*
X157525357Y-72111810D01*
X157640262Y-72111810D01*
X157812619Y-72169262D01*
X158502048Y-72858691D01*
X158502048Y-72111810D01*
X154692048Y-73260858D02*
X154117524Y-73663024D01*
X154692048Y-73950286D02*
X153485548Y-73950286D01*
X153485548Y-73490667D01*
X153543000Y-73375762D01*
X153600452Y-73318310D01*
X153715357Y-73260858D01*
X153887714Y-73260858D01*
X154002619Y-73318310D01*
X154060071Y-73375762D01*
X154117524Y-73490667D01*
X154117524Y-73950286D01*
X153485548Y-72858691D02*
X153485548Y-72111810D01*
X153945167Y-72513977D01*
X153945167Y-72341619D01*
X154002619Y-72226715D01*
X154060071Y-72169262D01*
X154174976Y-72111810D01*
X154462238Y-72111810D01*
X154577143Y-72169262D01*
X154634595Y-72226715D01*
X154692048Y-72341619D01*
X154692048Y-72686334D01*
X154634595Y-72801238D01*
X154577143Y-72858691D01*
X150882048Y-73260858D02*
X150307524Y-73663024D01*
X150882048Y-73950286D02*
X149675548Y-73950286D01*
X149675548Y-73490667D01*
X149733000Y-73375762D01*
X149790452Y-73318310D01*
X149905357Y-73260858D01*
X150077714Y-73260858D01*
X150192619Y-73318310D01*
X150250071Y-73375762D01*
X150307524Y-73490667D01*
X150307524Y-73950286D01*
X150077714Y-72226715D02*
X150882048Y-72226715D01*
X149618095Y-72513977D02*
X150479881Y-72801238D01*
X150479881Y-72054358D01*
X147008548Y-73318310D02*
X146434024Y-73720476D01*
X147008548Y-74007738D02*
X145802048Y-74007738D01*
X145802048Y-73548119D01*
X145859500Y-73433214D01*
X145916952Y-73375762D01*
X146031857Y-73318310D01*
X146204214Y-73318310D01*
X146319119Y-73375762D01*
X146376571Y-73433214D01*
X146434024Y-73548119D01*
X146434024Y-74007738D01*
X145802048Y-72226714D02*
X145802048Y-72801238D01*
X146376571Y-72858690D01*
X146319119Y-72801238D01*
X146261667Y-72686333D01*
X146261667Y-72399071D01*
X146319119Y-72284167D01*
X146376571Y-72226714D01*
X146491476Y-72169262D01*
X146778738Y-72169262D01*
X146893643Y-72226714D01*
X146951095Y-72284167D01*
X147008548Y-72399071D01*
X147008548Y-72686333D01*
X146951095Y-72801238D01*
X146893643Y-72858690D01*
X141281452Y-73203405D02*
X141224000Y-73318310D01*
X141109095Y-73433214D01*
X140936738Y-73605571D01*
X140879286Y-73720476D01*
X140879286Y-73835381D01*
X141166548Y-73777929D02*
X141109095Y-73892833D01*
X140994190Y-74007738D01*
X140764381Y-74065190D01*
X140362214Y-74065190D01*
X140132405Y-74007738D01*
X140017500Y-73892833D01*
X139960048Y-73777929D01*
X139960048Y-73548119D01*
X140017500Y-73433214D01*
X140132405Y-73318310D01*
X140362214Y-73260857D01*
X140764381Y-73260857D01*
X140994190Y-73318310D01*
X141109095Y-73433214D01*
X141166548Y-73548119D01*
X141166548Y-73777929D01*
X141166548Y-72111810D02*
X141166548Y-72801238D01*
X141166548Y-72456524D02*
X139960048Y-72456524D01*
X140132405Y-72571429D01*
X140247310Y-72686334D01*
X140304762Y-72801238D01*
M02*
