M48
;DRILL file {KiCad 4.0.4-stable} date 07/28/17 15:06:00
;FORMAT={-:-/ absolute / metric / decimal}
FMAT,2
METRIC,TZ
T1C0.813
T2C1.000
%
G90
G05
M71
T1
X130.34Y-64.745
X130.34Y-72.365
X130.34Y-107.798
X130.34Y-115.418
X132.88Y-64.745
X132.88Y-72.365
X132.88Y-107.798
X132.88Y-115.418
X135.42Y-64.745
X135.42Y-72.365
X135.42Y-107.798
X135.42Y-115.418
X143.04Y-66.015
X143.04Y-68.555
X143.04Y-71.095
X143.04Y-109.068
X143.04Y-111.608
X143.04Y-114.148
X148.12Y-63.475
X148.12Y-73.635
X148.12Y-106.528
X148.12Y-116.688
X151.93Y-63.475
X151.93Y-73.635
X151.93Y-106.528
X151.93Y-116.688
X155.74Y-63.475
X155.74Y-73.635
X155.74Y-106.528
X155.74Y-116.688
X159.55Y-63.475
X159.55Y-73.635
X159.55Y-106.528
X159.55Y-116.688
X163.36Y-63.475
X163.36Y-73.635
X163.36Y-106.528
X163.36Y-116.688
T2
X99.225Y-38.075
X99.225Y-53.315
X99.225Y-81.128
X99.225Y-96.368
X101.765Y-38.075
X101.765Y-53.315
X101.765Y-81.128
X101.765Y-96.368
X104.305Y-38.075
X104.305Y-53.315
X104.305Y-81.128
X104.305Y-96.368
X106.845Y-38.075
X106.845Y-53.315
X106.845Y-81.128
X106.845Y-96.368
X109.385Y-38.075
X109.385Y-53.315
X109.385Y-81.128
X109.385Y-96.368
X111.29Y-44.55
X111.29Y-59.54
X111.29Y-87.603
X111.29Y-102.593
X111.925Y-38.075
X111.925Y-53.315
X111.925Y-81.128
X111.925Y-96.368
X112.29Y-66.015
X112.29Y-68.555
X112.29Y-71.095
X112.29Y-109.068
X112.29Y-111.608
X112.29Y-114.148
X113.83Y-44.55
X113.83Y-59.54
X113.83Y-87.603
X113.83Y-102.593
X114.465Y-38.075
X114.465Y-53.315
X114.465Y-81.128
X114.465Y-96.368
X114.83Y-66.015
X114.83Y-68.555
X114.83Y-71.095
X114.83Y-109.068
X114.83Y-111.608
X114.83Y-114.148
X116.37Y-44.55
X116.37Y-59.54
X116.37Y-87.603
X116.37Y-102.593
X117.005Y-38.075
X117.005Y-53.315
X117.005Y-81.128
X117.005Y-96.368
X118.91Y-44.55
X118.91Y-59.54
X118.91Y-87.603
X118.91Y-102.593
X119.545Y-38.075
X119.545Y-53.315
X119.545Y-81.128
X119.545Y-96.368
X121.45Y-44.55
X121.45Y-59.54
X121.45Y-87.603
X121.45Y-102.593
X122.085Y-38.075
X122.085Y-53.315
X122.085Y-81.128
X122.085Y-96.368
X123.99Y-44.55
X123.99Y-59.54
X123.99Y-87.603
X123.99Y-102.593
X124.625Y-38.075
X124.625Y-53.315
X124.625Y-81.128
X124.625Y-96.368
X126.53Y-44.55
X126.53Y-59.54
X126.53Y-87.603
X126.53Y-102.593
X127.165Y-38.075
X127.165Y-53.315
X127.165Y-81.128
X127.165Y-96.368
X129.07Y-44.55
X129.07Y-59.54
X129.07Y-87.603
X129.07Y-102.593
X129.705Y-38.075
X129.705Y-53.315
X129.705Y-81.128
X129.705Y-96.368
X131.61Y-44.55
X131.61Y-59.54
X131.61Y-87.603
X131.61Y-102.593
X132.245Y-38.075
X132.245Y-53.315
X132.245Y-81.128
X132.245Y-96.368
X134.15Y-44.55
X134.15Y-59.54
X134.15Y-87.603
X134.15Y-102.593
X134.785Y-38.075
X134.785Y-53.315
X134.785Y-81.128
X134.785Y-96.368
X136.69Y-44.55
X136.69Y-59.54
X136.69Y-87.603
X136.69Y-102.593
X137.325Y-38.075
X137.325Y-53.315
X137.325Y-81.128
X137.325Y-96.368
X139.23Y-44.55
X139.23Y-59.54
X139.23Y-87.603
X139.23Y-102.593
X139.865Y-38.075
X139.865Y-53.315
X139.865Y-81.128
X139.865Y-96.368
X141.77Y-44.55
X141.77Y-59.54
X141.77Y-87.603
X141.77Y-102.593
X142.405Y-38.075
X142.405Y-53.315
X142.405Y-81.128
X142.405Y-96.368
X144.31Y-44.55
X144.31Y-59.54
X144.31Y-87.603
X144.31Y-102.593
X144.945Y-38.075
X144.945Y-53.315
X144.945Y-81.128
X144.945Y-96.368
X146.85Y-44.55
X146.85Y-59.54
X146.85Y-87.603
X146.85Y-102.593
X147.485Y-38.075
X147.485Y-53.315
X147.485Y-81.128
X147.485Y-96.368
X149.39Y-44.55
X149.39Y-59.54
X149.39Y-87.603
X149.39Y-102.593
X150.025Y-38.075
X150.025Y-53.315
X150.025Y-81.128
X150.025Y-96.368
X151.93Y-44.55
X151.93Y-59.54
X151.93Y-87.603
X151.93Y-102.593
X152.565Y-38.075
X152.565Y-53.315
X152.565Y-81.128
X152.565Y-96.368
X154.47Y-44.55
X154.47Y-59.54
X154.47Y-87.603
X154.47Y-102.593
X155.105Y-38.075
X155.105Y-53.315
X155.105Y-81.128
X155.105Y-96.368
X157.01Y-44.55
X157.01Y-59.54
X157.01Y-87.603
X157.01Y-102.593
X157.645Y-38.075
X157.645Y-53.315
X157.645Y-81.128
X157.645Y-96.368
X159.55Y-44.55
X159.55Y-59.54
X159.55Y-87.603
X159.55Y-102.593
T0
M30
