G04 #@! TF.FileFunction,Soldermask,Top*
%FSLAX46Y46*%
G04 Gerber Fmt 4.6, Leading zero omitted, Abs format (unit mm)*
G04 Created by KiCad (PCBNEW 4.0.4-stable) date 07/28/17 15:05:57*
%MOMM*%
%LPD*%
G01*
G04 APERTURE LIST*
%ADD10C,0.100000*%
%ADD11C,1.219200*%
%ADD12O,1.500000X3.000000*%
%ADD13C,1.676400*%
%ADD14O,1.219200X2.438400*%
%ADD15O,2.438400X1.219200*%
G04 APERTURE END LIST*
D10*
D11*
X163360100Y-106527600D03*
X163360100Y-116687600D03*
D12*
X111290100Y-102592600D03*
X113830100Y-102592600D03*
X116370100Y-102592600D03*
X118910100Y-102592600D03*
X121450100Y-102592600D03*
X123990100Y-102592600D03*
X126530100Y-102592600D03*
X129070100Y-102592600D03*
X131610100Y-102592600D03*
X134150100Y-102592600D03*
X136690100Y-102592600D03*
X139230100Y-102592600D03*
X141770100Y-102592600D03*
X144310100Y-102592600D03*
X146850100Y-102592600D03*
X149390100Y-102592600D03*
X151930100Y-102592600D03*
X154470100Y-102592600D03*
X157010100Y-102592600D03*
X159550100Y-102592600D03*
X159550100Y-87602600D03*
X157010100Y-87602600D03*
X154470100Y-87602600D03*
X151930100Y-87602600D03*
X149390100Y-87602600D03*
X146850100Y-87602600D03*
X144310100Y-87602600D03*
X141770100Y-87602600D03*
X139230100Y-87602600D03*
X136690100Y-87602600D03*
X134150100Y-87602600D03*
X131610100Y-87602600D03*
X129070100Y-87602600D03*
X126530100Y-87602600D03*
X123990100Y-87602600D03*
X121450100Y-87602600D03*
X118910100Y-87602600D03*
X116370100Y-87602600D03*
X113830100Y-87602600D03*
X111290100Y-87602600D03*
X99225100Y-96367600D03*
X101765100Y-96367600D03*
X104305100Y-96367600D03*
X106845100Y-96367600D03*
X109385100Y-96367600D03*
X111925100Y-96367600D03*
X114465100Y-96367600D03*
X117005100Y-96367600D03*
X119545100Y-96367600D03*
X122085100Y-96367600D03*
X124625100Y-96367600D03*
X127165100Y-96367600D03*
X129705100Y-96367600D03*
X132245100Y-96367600D03*
X134785100Y-96367600D03*
X137325100Y-96367600D03*
X139865100Y-96367600D03*
X142405100Y-96367600D03*
X144945100Y-96367600D03*
X147485100Y-96367600D03*
X150025100Y-96367600D03*
X152565100Y-96367600D03*
X155105100Y-96367600D03*
X157645100Y-96367600D03*
X157645100Y-81127600D03*
X155105100Y-81127600D03*
X152565100Y-81127600D03*
X150025100Y-81127600D03*
X147485100Y-81127600D03*
X144945100Y-81127600D03*
X142405100Y-81127600D03*
X139865100Y-81127600D03*
X137325100Y-81127600D03*
X134785100Y-81127600D03*
X132245100Y-81127600D03*
X129705100Y-81127600D03*
X127165100Y-81127600D03*
X124625100Y-81127600D03*
X122085100Y-81127600D03*
X119545100Y-81127600D03*
X117005100Y-81127600D03*
X114465100Y-81127600D03*
X111925100Y-81127600D03*
X109385100Y-81127600D03*
X106845100Y-81127600D03*
X104305100Y-81127600D03*
X101765100Y-81127600D03*
X99225100Y-81127600D03*
D13*
X112290100Y-111607600D03*
X114830100Y-111607600D03*
X112290100Y-114147600D03*
X112290100Y-109067600D03*
X114830100Y-114147600D03*
X114830100Y-109067600D03*
D14*
X130340100Y-115417600D03*
X132880100Y-115417600D03*
X135420100Y-115417600D03*
X135420100Y-107797600D03*
X130340100Y-107797600D03*
X132880100Y-107797600D03*
D15*
X143040100Y-114147600D03*
X143040100Y-109067600D03*
X143040100Y-111607600D03*
D11*
X151930100Y-106527600D03*
X151930100Y-116687600D03*
X155740100Y-106527600D03*
X155740100Y-116687600D03*
X159550100Y-106527600D03*
X159550100Y-116687600D03*
X148120100Y-116687600D03*
X148120100Y-106527600D03*
D12*
X111290100Y-59539600D03*
X113830100Y-59539600D03*
X116370100Y-59539600D03*
X118910100Y-59539600D03*
X121450100Y-59539600D03*
X123990100Y-59539600D03*
X126530100Y-59539600D03*
X129070100Y-59539600D03*
X131610100Y-59539600D03*
X134150100Y-59539600D03*
X136690100Y-59539600D03*
X139230100Y-59539600D03*
X141770100Y-59539600D03*
X144310100Y-59539600D03*
X146850100Y-59539600D03*
X149390100Y-59539600D03*
X151930100Y-59539600D03*
X154470100Y-59539600D03*
X157010100Y-59539600D03*
X159550100Y-59539600D03*
X159550100Y-44549600D03*
X157010100Y-44549600D03*
X154470100Y-44549600D03*
X151930100Y-44549600D03*
X149390100Y-44549600D03*
X146850100Y-44549600D03*
X144310100Y-44549600D03*
X141770100Y-44549600D03*
X139230100Y-44549600D03*
X136690100Y-44549600D03*
X134150100Y-44549600D03*
X131610100Y-44549600D03*
X129070100Y-44549600D03*
X126530100Y-44549600D03*
X123990100Y-44549600D03*
X121450100Y-44549600D03*
X118910100Y-44549600D03*
X116370100Y-44549600D03*
X113830100Y-44549600D03*
X111290100Y-44549600D03*
D11*
X163360100Y-63474600D03*
X163360100Y-73634600D03*
X159550100Y-63474600D03*
X159550100Y-73634600D03*
D14*
X130340100Y-72364600D03*
X132880100Y-72364600D03*
X135420100Y-72364600D03*
X135420100Y-64744600D03*
X130340100Y-64744600D03*
X132880100Y-64744600D03*
D11*
X155740100Y-63474600D03*
X155740100Y-73634600D03*
D13*
X112290100Y-68554600D03*
X114830100Y-68554600D03*
X112290100Y-71094600D03*
X112290100Y-66014600D03*
X114830100Y-71094600D03*
X114830100Y-66014600D03*
D11*
X151930100Y-63474600D03*
X151930100Y-73634600D03*
X148120100Y-73634600D03*
X148120100Y-63474600D03*
D15*
X143040100Y-71094600D03*
X143040100Y-66014600D03*
X143040100Y-68554600D03*
D12*
X99225100Y-53314600D03*
X101765100Y-53314600D03*
X104305100Y-53314600D03*
X106845100Y-53314600D03*
X109385100Y-53314600D03*
X111925100Y-53314600D03*
X114465100Y-53314600D03*
X117005100Y-53314600D03*
X119545100Y-53314600D03*
X122085100Y-53314600D03*
X124625100Y-53314600D03*
X127165100Y-53314600D03*
X129705100Y-53314600D03*
X132245100Y-53314600D03*
X134785100Y-53314600D03*
X137325100Y-53314600D03*
X139865100Y-53314600D03*
X142405100Y-53314600D03*
X144945100Y-53314600D03*
X147485100Y-53314600D03*
X150025100Y-53314600D03*
X152565100Y-53314600D03*
X155105100Y-53314600D03*
X157645100Y-53314600D03*
X157645100Y-38074600D03*
X155105100Y-38074600D03*
X152565100Y-38074600D03*
X150025100Y-38074600D03*
X147485100Y-38074600D03*
X144945100Y-38074600D03*
X142405100Y-38074600D03*
X139865100Y-38074600D03*
X137325100Y-38074600D03*
X134785100Y-38074600D03*
X132245100Y-38074600D03*
X129705100Y-38074600D03*
X127165100Y-38074600D03*
X124625100Y-38074600D03*
X122085100Y-38074600D03*
X119545100Y-38074600D03*
X117005100Y-38074600D03*
X114465100Y-38074600D03*
X111925100Y-38074600D03*
X109385100Y-38074600D03*
X106845100Y-38074600D03*
X104305100Y-38074600D03*
X101765100Y-38074600D03*
X99225100Y-38074600D03*
M02*
